<?xml version="1.0" standalone="no"?>
<!DOCTYPE svg PUBLIC "-//W3C//DTD SVG 20010904//EN"
 "http://www.w3.org/TR/2001/REC-SVG-20010904/DTD/svg10.dtd">
<svg version="1.0" xmlns="http://www.w3.org/2000/svg"
 width="251.000000pt" height="251.000000pt" viewBox="0 0 251.000000 251.000000"
 preserveAspectRatio="xMidYMid meet">
<metadata>
Created by potrace 1.11, written by Peter Selinger 2001-2013
</metadata>
<g transform="translate(0.000000,251.000000) scale(0.100000,-0.100000)"
fill="#000000" stroke="none">
<path d="M1065 2499 c-99 -17 -161 -32 -214 -52 l-55 -20 52 -19 c117 -44 179
-178 137 -298 -8 -23 -15 -44 -15 -45 0 -2 33 6 73 17 52 14 107 20 197 21
147 2 196 -5 292 -39 292 -106 499 -351 556 -659 9 -49 9 -235 0 -290 -16
-100 -72 -235 -135 -330 -63 -96 -57 -199 17 -275 60 -61 152 -75 230 -35 83
43 209 276 259 477 32 131 33 135 36 283 2 88 -2 173 -11 230 -60 382 -303
725 -638 905 -90 48 -251 103 -356 120 -89 15 -355 21 -425 9z"/>
<path d="M698 2376 c-87 -32 -228 -135 -335 -244 -153 -155 -285 -390 -318
-564 -2 -11 -7 -29 -11 -41 l-6 -22 23 21 c108 97 263 81 348 -37 l28 -38 12
42 c57 191 187 366 357 475 113 72 129 87 152 133 42 84 14 194 -64 251 -49
35 -129 46 -186 24z"/>
<path d="M1220 1758 c-16 -15 -20 -32 -21 -86 0 -37 -2 -103 -4 -147 -1 -44
-4 -129 -5 -190 l-2 -109 34 -31 c46 -41 144 -124 171 -145 36 -28 66 -31 88
-9 35 35 24 59 -71 157 l-90 92 -6 173 c-3 94 -7 196 -8 225 -5 80 -43 110
-86 70z"/>
<path d="M158 1544 c-50 -15 -97 -56 -126 -108 -14 -26 -17 -58 -17 -186 1
-216 29 -343 118 -530 l40 -85 8 42 c15 81 63 142 137 175 48 22 139 26 171 8
24 -12 27 -3 8 25 -50 74 -86 246 -84 404 0 91 -3 123 -16 148 -49 94 -142
135 -239 107z"/>
<path d="M324 827 c-95 -47 -136 -148 -103 -248 28 -83 194 -257 333 -351 167
-112 305 -167 516 -205 65 -13 311 -10 390 4 232 39 469 157 641 318 87 81 87
82 25 77 -129 -11 -237 78 -253 207 l-6 50 -60 -54 c-209 -189 -515 -257 -792
-174 -172 51 -313 152 -440 312 -61 77 -170 105 -251 64z"/>
</g>
</svg>
