<svg width="141" height="121" viewBox="0 0 141 121" fill="none" xmlns="http://www.w3.org/2000/svg">
<g clip-path="url(#clip0)">
<path d="M41.6393 79.7531C40.283 80.207 38.6099 80.4603 36.7619 79.3682C34.7819 78.1938 33.4619 75.9832 32.3399 73.9437C30.8483 71.2726 29.4755 69.0093 26.8817 67.6113C25.0107 66.5948 23.0208 66.029 21.2388 64.3645C19.1697 62.4269 18.1896 59.7032 17.8728 57.4334C17.4999 54.8017 17.8926 52.3905 16.995 49.5713C16.4421 47.8319 15.4407 46.2676 14.091 45.035C13.0647 44.0843 11.9625 43.2915 10.9428 42.3277C7.64285 39.2256 6.60336 34.8834 8.30285 32.8998C9.37534 30.5675 12.3849 30.0971 15.7146 32.4162C18.3777 34.2716 19.8561 37.2157 21.7569 39.8638C23.8095 42.729 26.0237 43.8804 28.6241 44.8935C30.3929 45.5811 32.2772 46.2521 33.9899 47.7522C35.7026 49.2522 36.7652 51.295 37.6199 53.2688C38.666 55.6833 39.5834 58.5058 41.7943 60.3907C42.979 61.4006 44.2792 61.996 45.4573 63.0552C46.2634 63.7935 46.966 64.6366 47.5462 65.5619C50.6944 70.5193 49.4239 74.8681 46.939 76.9865C45.4573 78.2563 43.5598 79.1116 41.6393 79.7531Z" fill="#F74F5A"/>
<path d="M13.5497 35.9984C16.3613 40.0249 19.1916 44.0338 22.0406 48.0251L16.6781 45.2355C16.3481 45.0579 16.1105 45.6138 16.4504 45.7882L22.628 49.012C22.6703 49.0351 22.7185 49.0454 22.7666 49.0416C25.1602 52.3969 27.567 55.7424 29.9869 59.078L20.3444 55.92C19.9781 55.7983 19.7471 56.3543 20.1134 56.4727L30.4093 59.8675C30.4569 59.8805 30.507 59.8805 30.5545 59.8675C32.7985 62.9597 35.0546 66.0409 37.3228 69.1112L29.4028 66.1802C29.0398 66.0453 28.8088 66.6013 29.1718 66.7361L37.963 69.9895C39.481 72.0488 41.0034 74.1048 42.5302 76.1575L34.5838 73.1245C34.2208 72.9863 33.9931 73.5422 34.3528 73.6804L42.3916 76.7463C42.4279 76.7608 42.4667 76.7676 42.5058 76.7664C42.5449 76.7652 42.5833 76.756 42.6186 76.7393C42.6539 76.7226 42.6854 76.6989 42.711 76.6695C42.7367 76.6401 42.756 76.6058 42.7678 76.5686C42.7946 76.5823 42.8237 76.5912 42.8536 76.595C44.6136 78.9591 46.3813 81.3188 48.1566 83.6741C48.3909 83.9833 48.8628 83.6149 48.6285 83.3057C46.8334 80.924 45.0459 78.5369 43.2661 76.1443C43.9098 73.3444 44.3815 70.5079 44.6785 67.6506C44.6881 67.5717 44.6659 67.4921 44.6167 67.4295C44.5675 67.3669 44.4953 67.3263 44.4161 67.3167C44.3369 67.3071 44.2571 67.3293 44.1943 67.3784C44.1315 67.4274 44.0908 67.4993 44.0812 67.5783C43.8049 70.2422 43.3752 72.8881 42.7942 75.5028C41.3708 73.5905 39.9518 71.676 38.5372 69.7592C38.5406 69.7015 38.5247 69.6443 38.4918 69.5966C38.4589 69.5489 38.411 69.5136 38.3557 69.4961L38.1577 69.2263C38.4811 66.3359 38.8111 63.4466 39.1477 60.5583C39.1573 60.4794 39.1351 60.3998 39.0859 60.3372C39.0367 60.2746 38.9646 60.234 38.8853 60.2244C38.8061 60.2148 38.7264 60.237 38.6635 60.2861C38.6007 60.3351 38.56 60.407 38.5504 60.486L37.6198 68.4961C35.3824 65.4565 33.1516 62.4104 30.9274 59.3576L31.8778 49.9988C31.8806 49.9239 31.855 49.8507 31.8062 49.7936C31.7573 49.7366 31.6888 49.6999 31.6142 49.6908C31.5395 49.6817 31.4641 49.7009 31.403 49.7445C31.3418 49.7881 31.2993 49.8531 31.2838 49.9265C30.9868 52.8257 30.6909 55.726 30.3961 58.6274C27.9388 55.2347 25.4924 51.8355 23.057 48.4297C23.0939 48.3884 23.1169 48.3367 23.123 48.2817L23.6543 43.7881C23.6635 43.7092 23.6408 43.6298 23.5913 43.5675C23.5418 43.5052 23.4695 43.465 23.3903 43.4559C23.3111 43.4467 23.2315 43.4693 23.169 43.5187C23.1064 43.568 23.0662 43.6401 23.057 43.7191C22.8986 45.0678 22.7391 46.4165 22.5785 47.7652C19.7075 43.7322 16.8552 39.6871 14.0216 35.63C13.8005 35.3109 13.3286 35.6826 13.5497 35.9984Z" fill="#FAEDEC"/>
<path d="M30.1983 91.3092C27.0633 90.3619 23.8788 89.4046 20.5755 89.2664C17.2722 89.1283 13.7743 89.9243 11.4148 92.0264C9.0553 94.1284 8.2006 97.7436 10.0222 100.25C12.187 103.211 16.7641 103.54 20.6943 103.648C26.1921 103.803 32.373 104.481 35.7224 108.431C37.4384 110.455 38.1512 113.093 40.0124 115.011C43.2299 118.257 48.8399 118.422 53.4994 117.32C58.159 116.218 62.5513 114.083 67.3362 113.553C72.6789 112.964 77.9886 114.415 83.3081 115.113C101.603 117.514 120.139 112.395 131.339 99.0101C132.989 97.0364 134.527 94.4935 133.491 92.2139C132.171 89.3125 128.798 87.217 125.337 87.4013C116.879 87.8486 108.371 88.0954 99.9466 87.319C92.4095 86.6216 85.0538 84.8321 77.5761 83.7498C59.8453 81.1807 47.1899 85.9604 30.1983 91.3158" fill="#F7F7F7" fill-opacity="0.3"/>
<path d="M115.44 77.0129C116.271 75.0392 117.116 72.9668 116.961 70.8286C116.816 68.8548 116.783 66.6409 116.172 64.7527C115.587 62.8535 115.359 60.8628 115.499 58.8809C115.872 52.6636 118.509 52.9202 119.502 53.2327C120.495 53.5452 121.063 54.4531 121.363 56.0321C121.604 57.3019 121.65 63.4139 123.462 62.2263C125.561 60.8513 124.511 54.6242 124.544 52.4925C124.591 49.2984 125.35 45.7818 127.399 43.2521C128.409 42.0054 130.016 40.9494 131.55 41.433C132.471 41.7192 133.157 42.5021 133.603 43.3508C134.946 45.9134 134.444 48.8674 133.771 51.5418C133.487 52.6603 130.623 58.0716 133.54 57.1341C134.237 56.9104 139.48 51.3412 140.8 56.0683C141.269 57.7361 139.635 59.769 136.949 62.4139C135.273 64.0586 128.841 68.6936 129.485 70.516C130.128 72.3385 133.534 68.743 133.616 72.3089C133.662 74.3056 131.306 76.1149 129.656 77.1248C128.881 77.6051 128.006 77.9274 127.264 78.4571C126.379 79.0854 125.386 80.4308 126.293 81.4473C126.689 81.8947 127.346 82.046 127.729 82.5032C127.906 82.7495 128.014 83.0387 128.042 83.3407C128.069 83.6427 128.014 83.9464 127.884 84.2204C127.616 84.7648 127.225 85.24 126.742 85.6086C123.772 88.1185 119.723 89.0758 115.852 88.8981C111.981 88.7205 108.203 87.5428 104.566 86.1678" fill="#18CE6A"/>
<g opacity="0.25">
<path opacity="0.25" d="M130.191 44.9725C130.191 44.9725 129.402 66.0422 118.925 80.7202" stroke="white" stroke-linecap="round" stroke-linejoin="round"/>
<path opacity="0.25" d="M137.962 57.5847C137.962 57.5847 131.844 64.0717 126.244 65.733" stroke="white" stroke-linecap="round" stroke-linejoin="round"/>
<path opacity="0.25" d="M118.832 55.92C118.968 59.1932 120.076 68.2164 123.802 72.0784" stroke="white" stroke-linecap="round" stroke-linejoin="round"/>
<path opacity="0.25" d="M131.144 73.3549C131.144 73.3549 128.775 76.1313 120.469 78.3879" stroke="white" stroke-linecap="round" stroke-linejoin="round"/>
<path opacity="0.25" d="M126.155 83.3191C126.155 83.3191 121.908 84.7567 117.674 83.079" stroke="white" stroke-linecap="round" stroke-linejoin="round"/>
</g>
<path d="M23.9842 84.0558C23.2021 82.1906 22.4035 80.2399 22.552 78.2234C22.6873 76.3549 22.717 74.2759 23.2945 72.493C23.8565 70.6997 24.0803 68.8181 23.9545 66.9435C23.6047 61.0782 21.1165 61.3216 20.1794 61.6144C19.2422 61.9072 18.7076 62.7657 18.4238 64.246C18.1961 65.4434 18.1532 71.2068 16.4438 70.0883C14.4638 68.7889 15.4538 62.917 15.4241 60.9071C15.3812 57.8972 14.6651 54.578 12.7313 52.1898C11.7776 51.0154 10.2629 50.0285 8.81422 50.4759C7.94632 50.7457 7.29953 51.4858 6.88043 52.2852C5.61324 54.6997 6.08514 57.4893 6.72203 60.0091C6.98603 61.065 9.69201 66.1704 6.93983 65.2921C6.26993 65.0915 1.31996 59.838 0.0758704 64.2987C-0.366327 65.8678 1.17476 67.7889 3.70585 70.2824C5.28654 71.8383 11.3552 76.2036 10.748 77.9207C10.1408 79.6379 6.92993 76.2497 6.85073 79.605C6.80783 81.4866 9.03202 83.1939 10.5764 84.1446C11.309 84.5986 12.1307 84.9045 12.8336 85.4012C13.6652 85.9933 14.6024 87.2631 13.7477 88.2237C13.3748 88.6447 12.7577 88.7862 12.3947 89.2105C12.2264 89.4421 12.1238 89.7147 12.0977 89.9995C12.0716 90.2842 12.1229 90.5708 12.2462 90.829C12.4991 91.3448 12.8685 91.7952 13.3253 92.1448C16.1204 94.51 19.9451 95.4146 23.608 95.26C27.271 95.1054 30.8218 93.9804 34.2505 92.6843" fill="#18CE6A"/>
<g opacity="0.25">
<path opacity="0.25" d="M10.0747 53.8379C10.0747 53.8379 10.8139 73.7101 20.6973 87.5526" stroke="white" stroke-linecap="round" stroke-linejoin="round"/>
<path opacity="0.25" d="M2.74219 65.733C2.74219 65.733 8.51055 71.8483 13.7938 73.4174" stroke="white" stroke-linecap="round" stroke-linejoin="round"/>
<path opacity="0.25" d="M20.79 64.1738C20.6646 67.2594 19.6185 75.7695 16.104 79.4144" stroke="white" stroke-linecap="round" stroke-linejoin="round"/>
<path opacity="0.25" d="M9.17383 80.6182C9.17383 80.6182 11.4046 83.2498 19.2421 85.3683" stroke="white" stroke-linecap="round" stroke-linejoin="round"/>
<path opacity="0.25" d="M13.8765 90.0035C13.8765 90.0035 17.8826 91.3588 21.8789 89.7765" stroke="white" stroke-linecap="round" stroke-linejoin="round"/>
</g>
<path d="M28.9572 93.9839H45.5627C48.8 93.9839 48.2753 90.1549 39.2631 91.8589C41.4741 90.849 41.4872 89.5002 41.2992 89.1417C41.1111 88.7831 40.494 88.5989 40.1211 88.6285C38.976 88.7272 38.1048 89.4279 37.1016 89.9871C38.0072 89.3864 38.7456 88.5671 39.2482 87.6054C39.7507 86.6438 40.001 85.571 39.9759 84.487C40.0042 83.8831 39.7933 83.2923 39.3885 82.8422C39.1288 82.6014 38.8192 82.4207 38.4815 82.3126C38.1439 82.2046 37.7866 82.172 37.4349 82.2172C36.2172 82.4573 33.9831 84.4804 33.0888 85.3422C37.6329 81.1777 39.3588 74.615 36.4548 73.1182C31.5576 70.5984 27.8748 84.8718 27.8748 84.8718C27.8748 84.8718 30.3102 74.1479 26.2248 74.0821C22.1395 74.0163 25.4625 86.5462 25.4625 86.5462" fill="#A5B9F6"/>
<g opacity="0.25">
<path opacity="0.25" d="M48.4041 25.9521C48.4041 25.9521 49.2159 47.6468 60.0035 62.7591" stroke="white" stroke-linecap="round" stroke-linejoin="round"/>
<path opacity="0.25" d="M40.3982 38.9395C40.3982 38.9395 46.6979 45.614 52.4662 47.3245" stroke="white" stroke-linecap="round" stroke-linejoin="round"/>
<path opacity="0.25" d="M60.0957 37.2352C59.9571 40.6037 58.8186 49.8968 54.9807 53.8738" stroke="white" stroke-linecap="round" stroke-linejoin="round"/>
<path opacity="0.25" d="M47.4207 55.1898C47.4207 55.1898 49.8593 58.0485 58.4129 60.3709" stroke="white" stroke-linecap="round" stroke-linejoin="round"/>
<path opacity="0.25" d="M52.5554 65.4337C52.5554 65.4337 56.9312 66.914 61.2905 65.187" stroke="white" stroke-linecap="round" stroke-linejoin="round"/>
</g>
<path d="M69.0191 69.7791H87.1459C90.6835 69.7791 90.1159 65.598 80.2687 67.4566C82.6843 66.3579 82.6975 64.8842 82.4929 64.496C82.2883 64.1079 81.6151 63.9039 81.2092 63.9368C79.9585 64.0454 79.0081 64.8085 77.9092 65.4204C78.8976 64.7646 79.7036 63.8703 80.2523 62.8207C80.801 61.7711 81.0745 60.6002 81.0475 59.4169C81.0244 58.759 80.8858 58.0715 80.4073 57.6307C80.1237 57.3684 79.7858 57.1715 79.4174 57.0538C79.049 56.9362 78.6592 56.9006 78.2755 56.9498C76.9556 57.2129 74.5037 59.4235 73.5335 60.361C78.4834 55.8149 80.3776 48.6502 77.2031 47.0186C71.8604 44.2652 67.8245 59.8479 67.8245 59.8479C67.8245 59.8479 70.481 48.137 66.0227 48.0679C61.5645 47.9989 65.1911 61.6736 65.1911 61.6736" fill="#DADADA"/>
<path d="M117.981 75.7992C118.047 75.7992 118.11 75.7732 118.156 75.727C118.202 75.6807 118.228 75.6179 118.228 75.5525C118.228 75.4871 118.202 75.4243 118.156 75.3781C118.11 75.3318 118.047 75.3058 117.981 75.3058C117.915 75.3058 117.852 75.3318 117.806 75.3781C117.759 75.4243 117.733 75.4871 117.733 75.5525C117.733 75.6179 117.759 75.6807 117.806 75.727C117.852 75.7732 117.915 75.7992 117.981 75.7992Z" fill="#6287F6"/>
<path d="M120.225 78.0358C120.29 78.0358 120.353 78.0098 120.4 77.9635C120.446 77.9173 120.472 77.8545 120.472 77.7891C120.472 77.7236 120.446 77.6609 120.4 77.6146C120.353 77.5684 120.29 77.5424 120.225 77.5424C120.159 77.5424 120.096 77.5684 120.05 77.6146C120.003 77.6609 119.977 77.7236 119.977 77.7891C119.977 77.8545 120.003 77.9173 120.05 77.9635C120.096 78.0098 120.159 78.0358 120.225 78.0358Z" fill="#6287F6"/>
<path d="M115.331 80.0689C115.397 80.0689 115.46 80.0429 115.506 79.9966C115.552 79.9503 115.578 79.8876 115.578 79.8222C115.578 79.7567 115.552 79.694 115.506 79.6477C115.46 79.6014 115.397 79.5754 115.331 79.5754C115.265 79.5754 115.202 79.6014 115.156 79.6477C115.11 79.694 115.083 79.7567 115.083 79.8222C115.083 79.8876 115.11 79.9503 115.156 79.9966C115.202 80.0429 115.265 80.0689 115.331 80.0689Z" fill="#6287F6"/>
<path d="M71.7118 33.5513C71.7775 33.5513 71.8404 33.5253 71.8869 33.479C71.9333 33.4328 71.9593 33.37 71.9593 33.3046C71.9593 33.2391 71.9333 33.1764 71.8869 33.1301C71.8404 33.0839 71.7775 33.0579 71.7118 33.0579C71.6462 33.0579 71.5833 33.0839 71.5368 33.1301C71.4904 33.1764 71.4644 33.2391 71.4644 33.3046C71.4644 33.37 71.4904 33.4328 71.5368 33.479C71.5833 33.5253 71.6462 33.5513 71.7118 33.5513Z" fill="#6287F6"/>
<path d="M74.1572 36.9887C74.2228 36.9887 74.2857 36.9627 74.3322 36.9164C74.3786 36.8702 74.4046 36.8074 74.4046 36.742C74.4046 36.6765 74.3786 36.6138 74.3322 36.5675C74.2857 36.5212 74.2228 36.4952 74.1572 36.4952C74.0915 36.4952 74.0286 36.5212 73.9822 36.5675C73.9357 36.6138 73.9097 36.6765 73.9097 36.742C73.9097 36.8074 73.9357 36.8702 73.9822 36.9164C74.0286 36.9627 74.0915 36.9887 74.1572 36.9887Z" fill="#6287F6"/>
<path d="M70.0783 92.6645C70.1439 92.6645 70.2069 92.6384 70.2533 92.5922C70.2997 92.5459 70.3258 92.4832 70.3258 92.4177C70.3258 92.3523 70.2997 92.2895 70.2533 92.2433C70.2069 92.197 70.1439 92.171 70.0783 92.171C70.0127 92.171 69.9497 92.197 69.9033 92.2433C69.8569 92.2895 69.8308 92.3523 69.8308 92.4177C69.8308 92.4832 69.8569 92.5459 69.9033 92.5922C69.9497 92.6384 70.0127 92.6645 70.0783 92.6645Z" fill="#6287F6"/>
<path d="M71.9133 95.3063C71.9789 95.3063 72.0419 95.2803 72.0883 95.234C72.1347 95.1878 72.1608 95.125 72.1608 95.0596C72.1608 94.9942 72.1347 94.9314 72.0883 94.8851C72.0419 94.8389 71.9789 94.8129 71.9133 94.8129C71.8476 94.8129 71.7847 94.8389 71.7383 94.8851C71.6918 94.9314 71.6658 94.9942 71.6658 95.0596C71.6658 95.125 71.6918 95.1878 71.7383 95.234C71.7847 95.2803 71.8476 95.3063 71.9133 95.3063Z" fill="#6287F6"/>
<path d="M121.651 96.3227C121.716 96.3227 121.779 96.2967 121.826 96.2504C121.872 96.2041 121.898 96.1414 121.898 96.0759C121.898 96.0105 121.872 95.9478 121.826 95.9015C121.779 95.8552 121.716 95.8292 121.651 95.8292C121.585 95.8292 121.522 95.8552 121.476 95.9015C121.429 95.9478 121.403 96.0105 121.403 96.0759C121.403 96.1414 121.429 96.2041 121.476 96.2504C121.522 96.2967 121.585 96.3227 121.651 96.3227Z" fill="#6287F6"/>
<path d="M114.925 42.272C114.991 42.272 115.054 42.246 115.1 42.1997C115.146 42.1535 115.172 42.0907 115.172 42.0253C115.172 41.9598 115.146 41.8971 115.1 41.8508C115.054 41.8046 114.991 41.7786 114.925 41.7786C114.859 41.7786 114.796 41.8046 114.75 41.8508C114.704 41.8971 114.677 41.9598 114.677 42.0253C114.677 42.0907 114.704 42.1535 114.75 42.1997C114.796 42.246 114.859 42.272 114.925 42.272Z" fill="#6287F6"/>
<path d="M23.4003 93.885C23.466 93.885 23.5289 93.8591 23.5753 93.8128C23.6218 93.7665 23.6478 93.7038 23.6478 93.6383C23.6478 93.5729 23.6218 93.5101 23.5753 93.4639C23.5289 93.4176 23.466 93.3916 23.4003 93.3916C23.3347 93.3916 23.2717 93.4176 23.2253 93.4639C23.1789 93.5101 23.1528 93.5729 23.1528 93.6383C23.1528 93.7038 23.1789 93.7665 23.2253 93.8128C23.2717 93.8591 23.3347 93.885 23.4003 93.885Z" fill="#6287F6"/>
<path d="M14.0214 86.9771C14.0871 86.9771 14.15 86.9511 14.1964 86.9048C14.2428 86.8585 14.2689 86.7958 14.2689 86.7304C14.2689 86.6649 14.2428 86.6022 14.1964 86.5559C14.15 86.5096 14.0871 86.4836 14.0214 86.4836C13.9558 86.4836 13.8928 86.5096 13.8464 86.5559C13.8 86.6022 13.7739 86.6649 13.7739 86.7304C13.7739 86.7958 13.8 86.8585 13.8464 86.9048C13.8928 86.9511 13.9558 86.9771 14.0214 86.9771Z" fill="#6287F6"/>
<path d="M14.85 88.3983C14.9157 88.3983 14.9786 88.3723 15.025 88.3261C15.0715 88.2798 15.0975 88.2171 15.0975 88.1516C15.0975 88.0862 15.0715 88.0234 15.025 87.9772C14.9786 87.9309 14.9157 87.9049 14.85 87.9049C14.7844 87.9049 14.7214 87.9309 14.675 87.9772C14.6286 88.0234 14.6025 88.0862 14.6025 88.1516C14.6025 88.2171 14.6286 88.2798 14.675 88.3261C14.7214 88.3723 14.7844 88.3983 14.85 88.3983Z" fill="#6287F6"/>
<path d="M13.2001 89.4146C13.2658 89.4146 13.3287 89.3886 13.3751 89.3423C13.4216 89.2961 13.4476 89.2333 13.4476 89.1679C13.4476 89.1024 13.4216 89.0397 13.3751 88.9934C13.3287 88.9471 13.2658 88.9211 13.2001 88.9211C13.1345 88.9211 13.0715 88.9471 13.0251 88.9934C12.9787 89.0397 12.9526 89.1024 12.9526 89.1679C12.9526 89.2333 12.9787 89.2961 13.0251 89.3423C13.0715 89.3886 13.1345 89.4146 13.2001 89.4146Z" fill="#6287F6"/>
<path d="M107.995 106.076C108.061 106.076 108.124 106.05 108.17 106.004C108.216 105.958 108.243 105.895 108.243 105.829C108.243 105.764 108.216 105.701 108.17 105.655C108.124 105.609 108.061 105.583 107.995 105.583C107.929 105.583 107.866 105.609 107.82 105.655C107.774 105.701 107.748 105.764 107.748 105.829C107.748 105.895 107.774 105.958 107.82 106.004C107.866 106.05 107.929 106.076 107.995 106.076Z" fill="#6287F6"/>
<path d="M22.5849 71.7364C22.6505 71.7364 22.7135 71.7104 22.7599 71.6641C22.8063 71.6178 22.8324 71.5551 22.8324 71.4896C22.8324 71.4242 22.8063 71.3614 22.7599 71.3152C22.7135 71.2689 22.6505 71.2429 22.5849 71.2429C22.5193 71.2429 22.4563 71.2689 22.4099 71.3152C22.3635 71.3614 22.3374 71.4242 22.3374 71.4896C22.3374 71.5551 22.3635 71.6178 22.4099 71.6641C22.4563 71.7104 22.5193 71.7364 22.5849 71.7364Z" fill="#6287F6"/>
<path d="M19.1201 110.955C19.1857 110.955 19.2486 110.929 19.2951 110.882C19.3415 110.836 19.3676 110.773 19.3676 110.708C19.3676 110.642 19.3415 110.58 19.2951 110.533C19.2486 110.487 19.1857 110.461 19.1201 110.461C19.0544 110.461 18.9915 110.487 18.9451 110.533C18.8986 110.58 18.8726 110.642 18.8726 110.708C18.8726 110.773 18.8986 110.836 18.9451 110.882C18.9915 110.929 19.0544 110.955 19.1201 110.955Z" fill="#6287F6"/>
<path d="M65.1877 108.313C65.2533 108.313 65.3163 108.287 65.3627 108.241C65.4091 108.194 65.4352 108.132 65.4352 108.066C65.4352 108.001 65.4091 107.938 65.3627 107.892C65.3163 107.846 65.2533 107.82 65.1877 107.82C65.122 107.82 65.0591 107.846 65.0127 107.892C64.9663 107.938 64.9402 108.001 64.9402 108.066C64.9402 108.132 64.9663 108.194 65.0127 108.241C65.0591 108.287 65.122 108.313 65.1877 108.313Z" fill="#6287F6"/>
<path d="M127.155 110.955C127.22 110.955 127.283 110.929 127.33 110.882C127.376 110.836 127.402 110.773 127.402 110.708C127.402 110.642 127.376 110.58 127.33 110.533C127.283 110.487 127.22 110.461 127.155 110.461C127.089 110.461 127.026 110.487 126.98 110.533C126.933 110.58 126.907 110.642 126.907 110.708C126.907 110.773 126.933 110.836 126.98 110.882C127.026 110.929 127.089 110.955 127.155 110.955Z" fill="#6287F6"/>
<path d="M71.824 28.9456C79.3042 33.3223 85.709 39.3095 90.5705 46.4698C95.432 53.6301 98.6275 61.7826 99.9234 70.3316C99.9993 70.858 98.8971 70.2889 98.7948 70.2527C90.466 67.1927 83.3179 61.5914 78.3681 54.2463C73.4184 46.9013 70.9193 38.1868 71.2267 29.3437C71.2232 29.2717 71.2385 29.2 71.271 29.1356C71.3036 29.0712 71.3523 29.0163 71.4124 28.9762C71.4726 28.9362 71.5421 28.9123 71.6142 28.9069C71.6863 28.9016 71.7586 28.9149 71.824 28.9456Z" fill="#F5A623"/>
<path d="M73.309 33.8209L93.7689 62.4104L84.387 56.8873C84.057 56.6998 83.7435 57.1767 84.057 57.3643L94.5873 63.5651L100.877 72.3679C101.092 72.6706 101.537 72.2923 101.316 71.9929L95.1318 63.3447C95.1288 63.3036 95.1155 63.264 95.0929 63.2295C95.0704 63.1949 95.0395 63.1667 95.0031 63.1473H94.98L73.7479 33.4623C73.5334 33.1432 73.0945 33.5215 73.309 33.8209Z" fill="#FAEDEC"/>
<path d="M77.3878 46.0811C77.3243 46.0375 77.2461 46.0208 77.1703 46.0347C77.0944 46.0486 77.0273 46.0919 76.9835 46.1551C76.9397 46.2184 76.923 46.2964 76.9369 46.372C76.9508 46.4475 76.9943 46.5145 77.0578 46.5581L85.7136 52.2523C85.745 52.2739 85.7804 52.2892 85.8177 52.2971C85.855 52.3051 85.8936 52.3057 85.9311 52.2988C85.9686 52.2919 86.0044 52.2777 86.0365 52.2571C86.0685 52.2364 86.0962 52.2097 86.1178 52.1783C86.1395 52.147 86.1548 52.1117 86.1628 52.0745C86.1708 52.0373 86.1713 51.9989 86.1644 51.9615C86.1575 51.9241 86.1433 51.8884 86.1226 51.8565C86.1018 51.8245 86.075 51.797 86.0436 51.7754L77.3878 46.0811Z" fill="#FAEDEC"/>
<path d="M79.6781 36.5874C79.9619 38.6752 80.2479 40.7652 80.5361 42.8573L73.1541 37.3177C72.8571 37.094 72.5337 37.5743 72.8241 37.7947L80.6252 43.6468C80.909 43.8607 81.2093 43.4363 80.9783 43.2027C81.0297 43.1757 81.0712 43.1331 81.0967 43.0811C81.1222 43.0291 81.1304 42.9703 81.1202 42.9133L80.2391 36.4789C80.1896 36.1104 79.6253 36.2223 79.6781 36.5874Z" fill="#FAEDEC"/>
<path d="M86.3471 44.0252L86.0171 51.2458C86.0188 51.3182 86.0477 51.3874 86.0981 51.4396C86.1484 51.4919 86.2166 51.5234 86.2892 51.5279C86.3617 51.5325 86.4334 51.5097 86.4899 51.4642C86.5464 51.4187 86.5838 51.3536 86.5946 51.282L86.9246 44.045C86.9198 43.9734 86.8885 43.9062 86.8368 43.8563C86.7851 43.8064 86.7167 43.7774 86.6448 43.775C86.5729 43.7725 86.5026 43.7967 86.4476 43.843C86.3926 43.8892 86.3568 43.9542 86.3471 44.0252Z" fill="#FAEDEC"/>
<path d="M93.2278 55.5681C93.7123 57.7262 93.9186 59.9371 93.8415 62.1472C93.8415 62.5156 94.4059 62.5551 94.4191 62.1834C94.4991 59.9248 94.2895 57.6652 93.7954 55.4595C93.7748 55.3907 93.7294 55.3319 93.6678 55.2946C93.6063 55.2573 93.533 55.2441 93.4622 55.2576C93.3915 55.2712 93.3283 55.3104 93.285 55.3678C93.2416 55.4252 93.2212 55.4966 93.2278 55.5681Z" fill="#FAEDEC"/>
<path d="M119.096 85.4441L82.5854 106.649L82.1895 98.5629L118.727 77.9044L119.096 85.4441Z" fill="#E8940A"/>
<path d="M82.1895 98.5626L44.3618 86.9143L84.8427 69.2822L118.727 77.9042L82.1895 98.5626Z" fill="#F5A623"/>
<path d="M44.7545 94.9082L82.5822 106.557L82.1895 98.5629L44.3618 86.9146L44.7545 94.9082Z" fill="white"/>
<path d="M44.4014 87.7336L82.2291 99.382L82.1895 98.5629L44.3618 86.9146L44.4014 87.7336Z" fill="#E8940A"/>
<path d="M44.7579 95.0003L82.5855 106.649L82.5459 105.829L44.7183 94.1812L44.7579 95.0003Z" fill="#E8940A"/>
<path d="M79.8728 105.03L82.5458 105.829L82.229 99.3818L79.5527 98.5562L79.8728 105.03Z" fill="#C77F0A"/>
<path d="M48.051 93.4704L49.3281 92.7368L50.724 94.2697L50.6118 92.023L47.9355 91.2006L48.051 93.4704Z" fill="#8F3B14"/>
<path d="M114.038 75.1937L82.0113 93.76L81.6714 86.7763L113.731 68.9172L114.038 75.1937Z" fill="white"/>
<path d="M113.76 69.5258L81.7044 87.5033L81.6714 86.7763L113.731 68.9172L113.76 69.5258Z" fill="#28C5C3"/>
<path d="M114.061 75.6442L82.0177 93.8552L81.9814 93.1315L114.031 75.0356L114.061 75.6442Z" fill="#28C5C3"/>
<g style="mix-blend-mode:multiply">
<path d="M114.113 76.7136L82.2488 95.0332L82.0178 93.872L112.826 76.3386L114.113 76.7136Z" fill="#E2D6D6"/>
</g>
<path d="M113.731 68.9172L83.9617 61.4927L48.8665 76.7628L50.3943 78.8155L50.3184 77.2464L81.6716 86.7763L113.731 68.9172Z" fill="#30D2D0"/>
<path d="M50.1301 84.0227L81.8396 93.7861C81.8588 93.7929 81.8793 93.7951 81.8995 93.7924C81.9197 93.7897 81.939 93.7822 81.9558 93.7707C81.9725 93.7591 81.9863 93.7438 81.9959 93.7259C82.0056 93.708 82.0108 93.688 82.0112 93.6677L81.6812 86.9406L50.6614 77.4008C50.4855 77.3385 50.2972 77.3189 50.1123 77.3437C49.9273 77.3685 49.7509 77.4371 49.5979 77.5436C49.4449 77.6501 49.3196 77.7916 49.2325 77.9561C49.1454 78.1207 49.099 78.3036 49.0972 78.4897L49.3216 83.0424C49.3408 83.2682 49.4285 83.4829 49.5728 83.658C49.7172 83.833 49.9115 83.9602 50.1301 84.0227Z" fill="white"/>
<path d="M77.015 90.944L78.1172 90.3091L79.3217 91.6348L79.226 87.865L76.916 87.1544L77.015 90.944Z" fill="#30D2D0"/>
<path d="M51.843 84.5196L49.2097 83.7137L48.8665 76.7628L51.5031 77.5688L51.843 84.5196Z" fill="#4C7ED6"/>
<path d="M49.774 83.9011L49.2097 83.7136L48.8665 76.7628L49.4341 76.9503L49.774 83.9011Z" fill="#4C7ED6"/>
<path d="M48.9028 77.4701L81.7046 87.4835L81.6716 86.7762L48.8665 76.7628L48.9028 77.4701Z" fill="#28C5C3"/>
<path d="M49.1995 83.7267L82.0343 93.8454L81.998 93.1415L49.1599 83.059L49.1995 83.7267Z" fill="#28C5C3"/>
<g style="mix-blend-mode:multiply">
<path d="M49.3315 84.7862L82.2488 95.0331L81.9947 93.8456L50.6515 84.1677L49.3315 84.7862Z" fill="#E2D6D6"/>
</g>
<path d="M69.0092 71.9732C70.1411 73.5095 68.8508 77.651 65.7092 82.2367C62.2919 87.157 57.8504 91.285 52.6875 94.339C40.9396 101.178 29.3467 100.892 27.1457 97.8029L16.1699 81.786L58.7397 57.0057C58.7397 57.0057 68.9267 71.8614 69.0092 71.9732Z" fill="#3D3A3A"/>
<path d="M68.1084 51.045L44.8732 82.411L43.6292 80.5919L66.9303 49.3246L68.1084 51.045Z" fill="#333030"/>
<path d="M66.9336 49.3246L54.2221 66.381L43.6292 80.5919L8.77808 88.4079L7.29639 88.6447L32.0429 57.6834L66.9336 49.3246Z" fill="#3D3A3A"/>
<path d="M8.41508 90.2796L44.8766 82.4175L43.6292 80.5918L7.29639 88.6446L8.41508 90.2796Z" fill="#333030"/>
<g style="mix-blend-mode:multiply">
<path d="M66.9337 49.3408L54.2221 66.3808L53.5258 67.3183C55.5883 53.8771 32.043 57.6832 32.043 57.6832L66.9337 49.3408Z" fill="#E2D6D6"/>
</g>
<g style="mix-blend-mode:multiply">
<path d="M69.0093 71.9732C70.1412 73.5094 68.8509 77.651 65.7093 82.2366C65.7093 82.2366 66.6993 75.9437 64.0363 72.062C60.5086 66.8974 55.8391 67.6803 55.8391 67.6803L61.1191 60.5255C61.1191 60.5255 68.9268 71.8614 69.0093 71.9732Z" fill="#EEE1E1"/>
</g>
<path d="M39.5239 67.0222C39.5861 67.1285 39.6206 67.2486 39.624 67.3717C39.6275 67.4947 39.5999 67.6166 39.5437 67.7262C39.2353 68.3348 38.7422 68.8309 38.1346 69.144C37.0159 69.8019 35.8246 69.9071 35.4649 69.3874C35.2042 69.0058 35.4649 68.4005 36.0754 67.838C36.3124 67.6194 36.5737 67.4284 36.8542 67.2689C37.9762 66.6143 39.1708 66.5025 39.5239 67.0222Z" fill="#30D2D0"/>
<path d="M37.4944 68.2068L26.1227 83.1513C26.1227 83.1513 23.849 85.2895 22.0571 90.7535" stroke="#30D2D0" stroke-width="2.24" stroke-miterlimit="10"/>
<path d="M39.5242 67.0222C39.5864 67.1285 39.6209 67.2486 39.6243 67.3717C39.6278 67.4947 39.6002 67.6166 39.544 67.7262C39.0067 67.4402 38.4035 67.3 37.7948 67.3196C37.1861 67.3393 36.5933 67.518 36.0757 67.838C36.3127 67.6194 36.574 67.4284 36.8545 67.2689C37.9765 66.6143 39.1711 66.5025 39.5242 67.0222Z" fill="#28C5C3"/>
<path d="M25.2583 97.0989C26.1658 100.783 26.1988 103.912 25.3375 104.093C24.4762 104.273 23.0276 101.435 22.1366 97.7503C21.2456 94.0659 21.1961 90.9343 22.0574 90.7534C22.295 90.704 22.5821 90.8882 22.8824 91.2567C23.6743 92.2172 24.6049 94.4377 25.2583 97.0989Z" fill="#30D2D0"/>
<path d="M25.2583 97.099C26.1658 100.783 26.1988 103.912 25.3375 104.093C25.3837 95.9345 22.0771 91.9508 22.0771 91.9508L22.8823 91.2567C23.6743 92.2173 24.6049 94.4377 25.2583 97.099Z" fill="#28C5C3"/>
<path d="M23.6777 90.6677C23.7392 90.9313 23.7233 91.207 23.6321 91.4619C23.5408 91.7167 23.3779 91.9401 23.1629 92.1053C22.9535 92.2735 22.7061 92.3882 22.4421 92.4393C22.1781 92.4905 21.9056 92.4765 21.6483 92.3987C21.3909 92.3208 21.1566 92.1815 20.9656 91.9928C20.7747 91.804 20.6329 91.5716 20.5526 91.3158C20.4922 91.0585 20.505 90.7895 20.5896 90.539C20.6741 90.2886 20.827 90.0666 21.0311 89.898C21.2411 89.722 21.4917 89.601 21.7604 89.546C22.1633 89.4515 22.5873 89.5153 22.9444 89.7241C23.3014 89.933 23.564 90.2709 23.6777 90.6677Z" fill="#30D2D0"/>
<path d="M23.6773 90.6677C23.7388 90.9313 23.723 91.207 23.6317 91.4619C23.5405 91.7167 23.3776 91.9401 23.1625 92.1053C23.1361 92.0455 23.114 91.984 23.0965 91.9211C22.562 89.9966 21.341 89.8947 21.0308 89.898C21.2407 89.722 21.4914 89.601 21.7601 89.546C22.163 89.4515 22.587 89.5153 22.944 89.7241C23.301 89.933 23.5636 90.2709 23.6773 90.6677Z" fill="#28C5C3"/>
<path d="M109.588 49.1854L104.663 50.6893L116.465 89.1L121.391 87.5961L109.588 49.1854Z" fill="#EBC827"/>
<path d="M106.67 49.9162L106.124 50.0829L117.972 88.6414L118.518 88.4747L106.67 49.9162Z" fill="#3D3A3A"/>
<path d="M108.035 49.4959L107.489 49.6626L119.338 88.2242L119.884 88.0576L108.035 49.4959Z" fill="#3D3A3A"/>
<path d="M121.347 87.4459L116.305 88.9855L116.606 89.9637L121.648 88.4241L121.347 87.4459Z" fill="#3D3A3A"/>
<path d="M116.602 89.9636L121.651 88.4222L121.805 88.9254C121.906 89.2516 121.872 89.6041 121.711 89.9053C121.551 90.2066 121.277 90.432 120.95 90.5319L118.372 91.319C118.21 91.3685 118.039 91.3857 117.871 91.3696C117.702 91.3535 117.538 91.3044 117.389 91.2252C117.239 91.146 117.106 91.0381 116.999 90.9079C116.891 90.7776 116.81 90.6274 116.76 90.4659L116.605 89.9627L116.602 89.9636Z" fill="#FF6822"/>
<path d="M109.593 49.1763L104.666 50.6797L105.54 47.2421L105.926 45.719L107.055 46.7815L109.593 49.1763Z" fill="#FBE5C6"/>
<path d="M107.055 46.7815L105.54 47.2421L105.926 45.719L107.055 46.7815Z" fill="#3D3A3A"/>
<path d="M36.0858 22.7797C36.1464 22.6828 36.1872 22.5749 36.2059 22.4622C36.2246 22.3495 36.2208 22.2342 36.1948 22.123C36.1687 22.0118 36.1209 21.9068 36.0541 21.814C35.9872 21.7212 35.9027 21.6425 35.8053 21.5823L30.7234 18.4276C30.6261 18.3672 30.5179 18.3265 30.4048 18.3079C30.2918 18.2893 30.1761 18.293 30.0646 18.319C29.953 18.345 29.8476 18.3926 29.7546 18.4593C29.6615 18.5259 29.5825 18.6101 29.5222 18.7072L29.0635 19.4441L28.6906 20.0428L21.2623 31.9411C21.1405 32.1368 21.1013 32.3725 21.1533 32.5968C21.2052 32.8212 21.344 33.0159 21.5395 33.1385L39.1911 44.0895C39.2884 44.1499 39.3966 44.1906 39.5096 44.2092C39.6227 44.2279 39.7383 44.2241 39.8499 44.1981C39.9615 44.1721 40.0668 44.1245 40.1599 44.0579C40.253 43.9912 40.3319 43.907 40.3923 43.8099L47.7348 32.053C47.7953 31.956 47.8361 31.8481 47.8548 31.7355C47.8735 31.6228 47.8697 31.5075 47.8437 31.3963C47.8176 31.2851 47.7698 31.18 47.703 31.0873C47.6362 30.9945 47.5516 30.9158 47.4543 30.8556L36.3531 23.9771C36.1586 23.8535 36.0212 23.658 35.9711 23.4335C35.921 23.209 35.9623 22.9739 36.0858 22.7797Z" fill="#E8940A"/>
<path d="M39.1911 44.0891L21.5395 33.1382C21.344 33.0155 21.2052 32.8208 21.1533 32.5965C21.1013 32.3721 21.1405 32.1364 21.2623 31.9408L29.905 20.9931C29.9653 20.896 30.0443 20.8118 30.1374 20.7452C30.2304 20.6785 30.3358 20.6309 30.4474 20.6049C30.5589 20.5789 30.6746 20.5752 30.7876 20.5938C30.9007 20.6124 31.0089 20.6531 31.1062 20.7135L48.7578 31.6645C48.8551 31.7246 48.9397 31.8034 49.0065 31.8961C49.0733 31.9889 49.1211 32.0939 49.1472 32.2052C49.1733 32.3164 49.177 32.4316 49.1583 32.5443C49.1397 32.657 49.0988 32.7649 49.0383 32.8619L40.3923 43.8095C40.3319 43.9066 40.253 43.9909 40.1599 44.0575C40.0668 44.1241 39.9615 44.1718 39.8499 44.1977C39.7383 44.2237 39.6227 44.2275 39.5097 44.2089C39.3966 44.1902 39.2884 44.1495 39.1911 44.0891Z" fill="#F5A623"/>
<g style="mix-blend-mode:multiply">
<g style="mix-blend-mode:multiply">
<path d="M76.6587 68.4204C75.8733 67.802 74.5962 68.598 74.484 69.5915C74.3718 70.5849 75.0582 71.506 75.8568 72.1146C78.2295 73.9173 81.4931 73.8087 84.4697 73.6212L89.8652 73.2923C91.2545 73.2034 92.8352 73.0126 93.6371 71.8777C94.5611 70.5619 93.8054 68.5882 92.393 67.8151C90.9806 67.0421 89.2118 67.2921 87.7565 67.9664C86.4794 68.5586 85.298 69.4796 83.8922 69.6112C81.3941 69.8678 77.9523 67.3085 75.6423 68.2954" fill="#F2E5E5"/>
</g>
</g>
<path d="M97.1945 32.8174C96.6995 32.9325 94.9208 32.9589 93.2676 33.0904C92.9376 32.1694 92.4426 30.1594 91.7232 27.6067C91.4047 26.8231 90.808 26.1837 90.0468 25.8106C89.5452 25.587 88.7928 25.9949 89.0073 26.9686C89.2325 28.0174 89.5336 29.0487 89.9082 30.0542C90.7827 32.5345 91.4163 33.722 91.8156 34.3109C91.8637 34.4144 91.9321 34.5072 92.0169 34.5839C92.0573 34.6304 92.1067 34.6684 92.1621 34.6958C92.3234 34.795 92.5106 34.8442 92.7 34.8372C94.2246 34.778 94.1222 34.7286 96.0791 34.1464C97.4387 33.7451 97.2176 34.0411 97.4882 33.6891C97.7093 33.4062 97.5938 32.722 97.1945 32.8174Z" fill="#E24852"/>
<path d="M84.4961 30.1825C84.8096 31.4558 85.0149 32.7532 85.1099 34.0609C85.1859 35.0242 85.1158 35.9934 84.902 36.9359C84.7832 37.5017 84.6314 38.0643 84.4631 38.6202C84.3971 38.8307 83.8592 40.5249 83.8262 40.7058L91.7395 41.2453C91.7692 39.6992 90.3403 34.7352 91.7395 31.6792C92.7295 29.564 91.6207 29.4226 91.0036 27.564C90.8518 27.1067 89.7463 26.1922 89.3041 26.0508C89.0672 25.9779 88.8243 25.9261 88.5781 25.8962C87.2582 25.6988 84.4631 24.9455 84.0374 26.8205C83.9219 27.3337 84.1199 28.9555 84.3047 29.5081C84.3707 29.7318 84.4367 29.9555 84.4961 30.1825Z" fill="#F74F5A"/>
<path d="M91.3799 56.8084C91.3954 56.6619 91.4031 56.5148 91.403 56.3676C91.4321 56.1054 91.4464 55.8418 91.4459 55.5781C91.4459 54.3839 91.5845 49.2983 91.667 46.262C91.7718 44.5919 91.7906 42.9175 91.7231 41.2454L83.8196 40.7059C83.5581 41.6456 83.3987 42.6106 83.3444 43.5843C83.1299 44.7718 81.9518 53.3477 81.6317 54.9201C81.6317 55.0024 81.602 55.078 81.5888 55.157C79.8762 57.713 78.5892 67.4501 78.2691 69.1344C78.2262 69.358 78.3516 69.3416 78.4869 69.3251C78.8796 69.2758 78.741 68.9041 79.2954 68.9765C79.5891 69.0126 79.6452 69.4205 79.6452 69.4205C80.4141 67.1639 82.9847 59.2229 84.1562 56.8412C84.3135 56.5321 84.4162 56.1983 84.4598 55.8544C85.4003 53.2227 86.8985 48.716 87.3209 46.7653C87.5453 48.9956 88.07 54.0352 88.5287 56.3906C87.4925 59.5815 88.5716 66.3053 88.4066 70.1311C88.8587 69.4732 89.2547 69.3515 89.4329 69.3745C89.5212 69.3902 89.6054 69.4237 89.6803 69.4729C89.7552 69.5221 89.8192 69.586 89.8685 69.6607C90.1688 64.5388 91.0796 59.4532 91.3799 56.8084Z" fill="#072C6E"/>
<path d="M89.9742 69.6638C90.2404 70.0592 90.6071 70.377 91.0368 70.5849C91.6143 70.8909 92.8716 71.1014 92.1522 71.2889C91.506 71.4055 90.8415 71.3694 90.2118 71.1836C89.7825 71.0934 89.3466 71.0373 88.9083 71.0159C88.2649 70.9665 88.2483 70.927 88.3968 70.2066C88.5849 69.2132 89.7234 69.0783 89.9742 69.6638Z" fill="#21103F"/>
<path d="M79.6453 69.2724C79.7245 69.4533 79.7608 70.3053 80.3416 70.6146C80.9224 70.9238 82.1764 71.131 81.457 71.3185C80.8105 71.4326 80.1463 71.3954 79.5166 71.21C79.1041 71.1179 79.0711 70.6606 78.5794 70.6244C77.9194 70.5751 77.9194 70.5356 78.0712 69.8152C78.2593 68.825 79.3945 68.6869 79.6453 69.2724Z" fill="#21103F"/>
<path d="M86.4599 22.4192C86.4434 22.5047 86.1827 24.314 86.0639 25.7088C86.0045 26.3897 86.4566 27.0739 86.9483 27.1233H86.9714C87.4565 27.1562 88.067 26.5871 88.0703 25.9127C88.0703 24.6923 88.2188 23.4521 88.2221 23.4324L86.4599 22.4192Z" fill="#D68952"/>
<path d="M85.5917 21.0508C85.6412 22.6133 85.6643 22.962 86.3012 23.643C86.9202 24.2734 87.7459 24.661 88.6277 24.7351C89.4263 24.7877 90.0764 23.9884 90.3008 23.3436C90.6876 22.0553 90.8396 20.7083 90.7496 19.3665C90.6968 18.4981 89.7002 17.3928 88.6013 17.304C87.5024 17.2152 85.4696 17.2185 85.5917 21.0508Z" fill="#EB975A"/>
<path d="M90.7495 18.4782C90.479 18.0065 90.0765 17.6236 89.5912 17.3762C89.1826 17.1037 88.715 16.9318 88.2268 16.8746C87.7386 16.8174 87.2437 16.8766 86.7829 17.0473C86.5042 16.9412 86.22 16.8501 85.9315 16.7742L85.9513 16.7348C85.9513 16.7348 84.2716 15.8301 82.9285 16.4255C82.186 16.7545 81.6745 17.4749 81.4171 18.5671H81.4567C81.2667 19.1547 81.2771 19.7886 81.4864 20.3697C81.7009 20.9454 82.1035 21.4421 82.3147 22.0145C82.5548 22.6006 82.5621 23.2558 82.3354 23.8471C82.1086 24.4385 81.6648 24.9217 81.0938 25.1988C81.5161 25.5574 82.1761 25.4488 82.6414 25.1495C83.1067 24.8501 83.407 24.1922 83.8294 23.8336C84.5422 23.2415 84.4894 21.4882 85.42 21.5573L86.8258 20.6033C87.9544 20.3566 89.3569 20.0342 90.1258 19.4059C90.4094 19.5605 90.6334 19.8047 90.7627 20.1C90.898 20.5671 91.0795 19.146 90.7495 18.4782ZM82.7239 16.9354C82.2376 17.2193 81.8505 17.6454 81.6151 18.1559C81.7059 17.7985 81.8729 17.4649 82.1047 17.1776C82.3364 16.8904 82.6276 16.6563 82.9582 16.4913C84.001 16.0275 85.2682 16.4913 85.717 16.7084C84.6907 16.4453 83.6281 16.419 82.7272 16.9354H82.7239Z" fill="#0F0F0F"/>
<path d="M86.0569 21.0904C86.2384 21.6397 86.1526 22.166 85.8622 22.2614C85.5718 22.3568 85.2022 21.9884 85.0042 21.4358C84.8062 20.8831 84.9085 20.3568 85.1989 20.2614C85.4893 20.166 85.8721 20.5377 86.0569 21.0904Z" fill="#EB975A"/>
<path d="M96.792 35.7912L92.1687 36.7847V30.6299L96.792 29.6365V35.7912Z" fill="#E0D4D4"/>
<path d="M90.5285 33.6958C90.8761 33.3951 91.2917 33.1829 91.7396 33.0773C92.0696 33.0412 91.4987 33.4984 91.2347 33.7353C90.9707 33.9721 90.215 33.9392 90.5285 33.6958Z" fill="#EB975A"/>
<path d="M91.0401 33.6859C92.0037 33.5346 92.4921 33.2944 92.9343 33.4622C93.3765 33.63 92.7396 34.2451 92.4129 34.3504C92.0862 34.4557 90.9345 34.8965 90.5913 34.6793C90.2481 34.4622 90.3273 33.801 91.0401 33.6859Z" fill="#EB975A"/>
<path d="M90.4197 33.6561C89.9148 33.7515 86.8788 33.6561 85.1232 33.6824C85.2321 32.6166 85.5423 30.7218 85.8657 28.3731C85.8807 27.5316 85.5887 26.7134 85.044 26.0704C84.6711 25.6691 83.8164 25.7414 83.6283 26.7283C83.4157 27.7785 83.28 28.8427 83.2224 29.9126C83.0046 32.9818 83.1861 34.3009 83.3379 34.8798C83.3724 35.0077 83.4552 35.1173 83.5689 35.1858C83.659 35.2816 83.7679 35.3579 83.8888 35.4099C84.0097 35.462 84.1401 35.4887 84.2718 35.4884C85.7021 35.5474 87.1325 35.3718 88.5057 34.9686C89.9379 34.6167 90.3834 34.9456 90.6837 34.5936C90.918 34.291 90.8322 33.5772 90.4197 33.6561Z" fill="#E24852"/>
<path d="M96.739 33.2222C96.7329 32.8612 96.7842 32.5015 96.8908 32.1564C96.9667 31.9426 97.2208 31.7847 97.3858 31.9788C97.5508 32.1728 97.8082 32.8242 97.6927 33.1498C97.5927 33.4364 97.3843 33.6725 97.1119 33.8078C96.8677 33.8999 96.739 33.6663 96.739 33.2222Z" fill="#EB975A"/>
<path d="M111.764 30.7813L109.424 28.7154L123.033 24.9554L118.291 36.4163L114.477 33.0083L112.889 34.4656L111.764 30.7813Z" fill="#28BFFD"/>
<g style="mix-blend-mode:multiply">
<path d="M123.033 24.9554L114.477 33.0083L112.889 34.4656L111.764 30.7813L123.033 24.9554Z" fill="#A9B3D1"/>
</g>
<path d="M40.9428 5.88911L42.408 3.13574L28.3369 4.36604L36.8047 13.4452L39.1807 8.92208L41.1804 9.73132L40.9428 5.88911Z" fill="#F74F5A"/>
<g style="mix-blend-mode:multiply">
<path d="M28.3369 4.36621L39.1806 8.92226L41.1804 9.73149L40.9428 5.88928L28.3369 4.36621Z" fill="#E74651" fill-opacity="0.5"/>
</g>
<path d="M99.8873 63.5222C99.6702 63.5667 99.4489 63.5876 99.2273 63.5847" stroke="#A5B9F6" stroke-width="0.75" stroke-linecap="round" stroke-linejoin="round"/>
<path d="M43.4775 11.4912L43.89 12.0077" stroke="#A5B9F6" stroke-width="0.75" stroke-linecap="round" stroke-linejoin="round"/>
<path d="M27.4725 57.5253C27.4461 57.7446 27.4131 57.9639 27.3735 58.1832" stroke="#A5B9F6" stroke-width="0.75" stroke-linecap="round" stroke-linejoin="round"/>
<path d="M108.094 100.694C108.309 100.731 108.523 100.777 108.754 100.829" stroke="#A5B9F6" stroke-width="0.75" stroke-linecap="round" stroke-linejoin="round"/>
<path d="M60.8912 23.7706L60.2683 23.5076L56.9291 31.3647L57.552 31.6277L60.8912 23.7706Z" fill="#3D3A3A"/>
<path d="M53.9978 39.2353C53.7897 39.1477 53.6011 39.02 53.4426 38.8596C53.2842 38.6992 53.1591 38.5092 53.0745 38.3004C52.9898 38.0917 52.9474 37.8684 52.9495 37.6432C52.9517 37.4181 52.9984 37.1956 53.087 36.9885L56.1857 29.6923C56.3646 29.2738 56.7025 28.9429 57.1256 28.7722C57.5486 28.6014 58.0222 28.6046 58.4429 28.7811C58.8627 28.9594 59.1944 29.2964 59.3652 29.7183C59.5359 30.1402 59.5318 30.6123 59.3536 31.0311L56.2517 38.3274C56.1638 38.5348 56.0357 38.7228 55.8748 38.8808C55.7138 39.0387 55.5232 39.1635 55.3138 39.2478C55.1044 39.3322 54.8804 39.3745 54.6546 39.3723C54.4287 39.3702 54.2055 39.3236 53.9978 39.2353Z" fill="#53E193"/>
<path d="M72.2479 18.4188C73.6198 13.8197 70.9918 8.98278 66.3782 7.61523C61.7645 6.24768 56.9123 8.86735 55.5404 13.4664C54.1685 18.0655 56.7965 22.9024 61.4101 24.27C66.0238 25.6375 70.876 23.0179 72.2479 18.4188Z" stroke="#18CE6A" stroke-width="7" stroke-miterlimit="10"/>
<path d="M68.3028 21.8034C71.634 19.4041 72.3832 14.767 69.9763 11.4463C67.5693 8.12562 62.9176 7.37874 59.5864 9.77811C56.2552 12.1775 55.5059 16.8145 57.9129 20.1352C60.3199 23.4559 64.9716 24.2028 68.3028 21.8034Z" fill="#D0EAFF"/>
<path opacity="0.35" d="M62.9011 14.9848C64.5195 14.9848 65.8315 13.9038 65.8315 12.5703C65.8315 11.2368 64.5195 10.1558 62.9011 10.1558C61.2827 10.1558 59.9707 11.2368 59.9707 12.5703C59.9707 13.9038 61.2827 14.9848 62.9011 14.9848Z" fill="white"/>
</g>
<defs>
<clipPath id="clip0">
<rect y="0.326416" width="140.87" height="120" fill="white"/>
</clipPath>
</defs>
</svg>
