<svg width="163" height="49" viewBox="0 0 163 49" fill="none" xmlns="http://www.w3.org/2000/svg">
<path d="M161.962 42.8894C161.962 43.4935 161.842 44.0917 161.609 44.6497C161.376 45.2077 161.035 45.7147 160.605 46.1416C160.175 46.5686 159.664 46.9071 159.102 47.1378C158.54 47.3685 157.937 47.487 157.329 47.4863H5.71466C4.48582 47.4876 3.30678 47.004 2.43684 46.142C1.56689 45.2799 1.07729 44.11 1.07568 42.8894V6.23081C1.07728 5.00971 1.5667 3.83914 2.43647 2.97614C3.30624 2.11314 4.48526 1.62825 5.71466 1.62793H157.328C157.936 1.62793 158.539 1.747 159.101 1.97833C159.663 2.20966 160.174 2.54872 160.604 2.97616C161.035 3.40359 161.376 3.91102 161.609 4.46946C161.841 5.0279 161.961 5.62641 161.961 6.23081L161.962 42.8894Z" fill="white"/>
<path d="M161.962 42.8894C161.962 43.4935 161.842 44.0917 161.609 44.6497C161.376 45.2077 161.035 45.7147 160.605 46.1416C160.175 46.5686 159.664 46.9071 159.102 47.1378C158.54 47.3685 157.937 47.487 157.329 47.4863H5.71466C4.48582 47.4876 3.30678 47.004 2.43684 46.142C1.56689 45.2799 1.07729 44.11 1.07568 42.8894V6.23081C1.07728 5.00971 1.5667 3.83914 2.43647 2.97614C3.30624 2.11314 4.48526 1.62825 5.71466 1.62793H157.328C157.936 1.62793 158.539 1.747 159.101 1.97833C159.663 2.20966 160.174 2.54872 160.604 2.97616C161.035 3.40359 161.376 3.91102 161.609 4.46946C161.841 5.0279 161.961 5.62641 161.961 6.23081L161.962 42.8894Z" fill="black"/>
<path d="M36.4061 24.305C36.3711 20.4367 39.595 18.5547 39.7425 18.4671C37.9166 15.823 35.0866 15.4617 34.0921 15.4329C31.7152 15.1845 29.4096 16.8456 28.1988 16.8456C26.9638 16.8456 25.0993 15.4569 23.0898 15.4977C20.5038 15.5373 18.0847 17.0244 16.7579 19.3336C14.0197 24.0421 16.0618 30.9615 18.6852 34.7674C19.9975 36.6326 21.531 38.7125 23.5381 38.6393C25.5017 38.5601 26.2352 37.3971 28.6048 37.3971C30.9527 37.3971 31.6415 38.6393 33.6885 38.5925C35.7959 38.5601 37.1227 36.7202 38.3891 34.8394C39.9056 32.7042 40.5146 30.599 40.5388 30.491C40.4904 30.4742 36.4472 28.9403 36.4061 24.305ZM32.5393 12.9292C33.5954 11.6174 34.318 9.83263 34.1174 8.02148C32.5888 8.0887 30.6772 9.07169 29.5764 10.3547C28.6024 11.4853 27.7324 13.3385 27.9571 15.0812C29.6742 15.2085 31.4373 14.2207 32.5393 12.9292Z" fill="white"/>
<path d="M64.8481 38.3717H62.1039L60.6007 33.68H55.3756L53.9437 38.3717H51.272L56.4499 22.399H59.6473L64.8481 38.3717ZM60.1475 31.7116L58.7881 27.5408C58.6443 27.1147 58.3736 26.1114 57.9773 24.5319H57.9289C57.7694 25.2112 57.5145 26.2146 57.1653 27.5408L55.8288 31.7116H60.1475ZM78.1379 32.4714C78.1379 34.4301 77.6026 35.9784 76.5308 37.1151C75.5713 38.1269 74.3787 38.6322 72.9564 38.6322C71.4205 38.6322 70.3161 38.0884 69.6454 36.9986V43.0418H67.0692V30.6398C67.0692 29.4096 67.0365 28.1481 66.9737 26.8543H69.2394L69.3832 28.6798H69.4315C70.2907 27.3044 71.5945 26.6166 73.3443 26.6166C74.7122 26.6166 75.8541 27.1532 76.7676 28.2274C77.68 29.304 78.1379 30.7178 78.1379 32.4714ZM75.5133 32.565C75.5133 31.444 75.2596 30.5198 74.7496 29.7913C74.1926 29.0339 73.4446 28.6546 72.5069 28.6546C71.8713 28.6546 71.2937 28.8659 70.7777 29.2824C70.2605 29.7024 69.9221 30.2509 69.7639 30.9303C69.6932 31.1843 69.653 31.4458 69.6442 31.7092V33.6308C69.6442 34.4674 69.9028 35.1743 70.42 35.7528C70.9372 36.3289 71.609 36.6182 72.4356 36.6182C73.4059 36.6182 74.1612 36.2449 74.7013 35.5044C75.2427 34.7614 75.5133 33.782 75.5133 32.565ZM91.4749 32.4714C91.4749 34.4301 90.9395 35.9784 89.8677 37.1151C88.907 38.1269 87.7156 38.6322 86.2921 38.6322C84.7563 38.6322 83.6518 38.0884 82.9811 36.9986V43.0418H80.4049V30.6398C80.4049 29.4096 80.3722 28.1481 80.3094 26.8543H82.5751L82.7189 28.6798H82.7673C83.6252 27.3044 84.9291 26.6166 86.68 26.6166C88.0467 26.6166 89.1886 27.1532 90.1046 28.2274C91.0157 29.304 91.4749 30.7178 91.4749 32.4714ZM88.849 32.565C88.849 31.444 88.5941 30.5198 88.0841 29.7913C87.5271 29.0339 86.7815 28.6546 85.8438 28.6546C85.2082 28.6546 84.6306 28.8659 84.1122 29.2824C83.595 29.7024 83.2579 30.2509 83.0996 30.9303C83.021 31.2471 82.9787 31.5052 82.9787 31.7092V33.6308C82.9787 34.4674 83.2385 35.1743 83.7533 35.7528C84.2705 36.3277 84.9423 36.6182 85.7713 36.6182C86.7428 36.6182 87.4981 36.2449 88.037 35.5044C88.5784 34.7614 88.849 33.782 88.849 32.565ZM106.386 33.8912C106.386 35.2511 105.908 36.3565 104.957 37.2099C103.91 38.1413 102.449 38.6081 100.576 38.6081C98.846 38.6081 97.4588 38.2769 96.4123 37.6132L97.008 35.4803C98.1379 36.1453 99.3789 36.4765 100.73 36.4765C101.701 36.4765 102.457 36.2581 102.996 35.8248C103.536 35.3903 103.809 34.8094 103.809 34.0845C103.809 33.4352 103.583 32.8915 103.139 32.4486C102.693 32.0069 101.956 31.5952 100.921 31.2171C98.1052 30.1741 96.6963 28.6486 96.6963 26.6419C96.6963 25.3312 97.1941 24.2582 98.1874 23.4192C99.1807 22.5815 100.498 22.1626 102.136 22.1626C103.6 22.1626 104.819 22.4158 105.787 22.9211L105.14 25.0071C104.229 24.5174 103.201 24.2726 102.051 24.2726C101.142 24.2726 100.429 24.4946 99.919 24.9363C99.4901 25.3312 99.2725 25.8125 99.2725 26.3838C99.2725 27.0139 99.5203 27.5372 100.013 27.9477C100.441 28.3258 101.222 28.7375 102.35 29.1791C103.735 29.7336 104.753 30.3794 105.404 31.1211C106.06 31.8629 106.386 32.7882 106.386 33.8912ZM114.926 28.7747H112.086V34.3665C112.086 35.7888 112.587 36.4981 113.589 36.4981C114.05 36.4981 114.432 36.4597 114.734 36.3793L114.805 38.3225C114.298 38.5109 113.629 38.6057 112.802 38.6057C111.784 38.6057 110.989 38.2973 110.415 37.6804C109.843 37.0634 109.556 36.0301 109.556 34.5754V28.7699H107.864V26.8495H109.556V24.7407L112.086 23.9821V26.8495H114.926V28.7747ZM127.713 32.5182C127.713 34.2885 127.203 35.742 126.186 36.8786C125.121 38.0488 123.705 38.6322 121.939 38.6322C120.236 38.6322 118.881 38.0716 117.871 36.9518C116.861 35.8296 116.355 34.4157 116.355 32.7102C116.355 30.9255 116.877 29.4636 117.918 28.327C118.961 27.1892 120.365 26.6202 122.13 26.6202C123.832 26.6202 125.198 27.182 126.233 28.303C127.221 29.3904 127.713 30.7947 127.713 32.5182ZM125.043 32.577C125.043 31.522 124.813 30.617 124.353 29.8597C123.812 28.9451 123.039 28.4878 122.037 28.4878C121.005 28.4878 120.214 28.9451 119.675 29.8597C119.213 30.617 118.984 31.5376 118.984 32.625C118.984 33.6812 119.213 34.5886 119.675 35.3435C120.232 36.2581 121.009 36.7154 122.016 36.7154C123 36.7154 123.772 36.2485 124.331 35.3207C124.804 34.5454 125.043 33.6344 125.043 32.577ZM136.091 29.1047C135.823 29.0567 135.551 29.033 135.279 29.0339C134.372 29.0339 133.672 29.3724 133.179 30.0541C132.751 30.6542 132.536 31.4128 132.536 32.3285V38.3717H129.959V30.4814C129.962 29.2724 129.937 28.0634 129.884 26.8555H132.128L132.223 29.0591H132.294C132.567 28.3018 132.995 27.6909 133.582 27.2336C134.12 26.834 134.773 26.6176 135.444 26.6166C135.682 26.6166 135.897 26.6335 136.088 26.6635L136.091 29.1047ZM147.613 32.0681C147.619 32.4571 147.588 32.8458 147.518 33.2287H139.79C139.819 34.3665 140.193 35.2379 140.911 35.838C141.562 36.3733 142.405 36.6422 143.439 36.6422C144.583 36.6422 145.627 36.4621 146.566 36.0985L146.97 37.8736C145.873 38.3489 144.577 38.5853 143.082 38.5853C141.284 38.5853 139.873 38.0596 138.846 37.0106C137.821 35.9604 137.308 34.549 137.308 32.781C137.308 31.0455 137.785 29.5992 138.741 28.4458C139.741 27.2144 141.093 26.5986 142.795 26.5986C144.466 26.5986 145.731 27.2144 146.59 28.4458C147.271 29.4216 147.613 30.6314 147.613 32.0681ZM145.156 31.4044C145.174 30.6446 145.005 29.9905 144.656 29.4372C144.21 28.7243 143.524 28.369 142.604 28.369C141.762 28.369 141.075 28.7159 140.553 29.412C140.124 29.9653 139.869 30.6302 139.791 31.402L145.156 31.4044Z" fill="white"/>
<path d="M54.6322 16.752C53.9157 16.752 53.2958 16.7172 52.7798 16.6584V8.9361C53.5014 8.82538 54.2307 8.7708 54.9609 8.77287C57.9154 8.77287 59.276 10.2167 59.276 12.5704C59.276 15.2853 57.6689 16.752 54.6322 16.752ZM55.0648 9.76306C54.6661 9.76306 54.3265 9.78707 54.045 9.84468V15.715C54.1972 15.739 54.4896 15.7498 54.9005 15.7498C56.8363 15.7498 57.9384 14.6552 57.9384 12.6052C57.9384 10.7773 56.9414 9.76306 55.0648 9.76306ZM63.5162 16.8108C61.8511 16.8108 60.772 15.5758 60.772 13.8991C60.772 12.1515 61.8741 10.9057 63.6105 10.9057C65.2515 10.9057 66.3547 12.0819 66.3547 13.8066C66.3547 15.5758 65.2176 16.8108 63.5162 16.8108ZM63.5646 11.8251C62.6498 11.8251 62.0638 12.6748 62.0638 13.863C62.0638 15.0285 62.6619 15.8782 63.5525 15.8782C64.4431 15.8782 65.0412 14.9697 65.0412 13.839C65.0412 12.6868 64.4552 11.8251 63.5646 11.8251ZM75.8502 11.0221L74.0678 16.6824H72.9066L72.1682 14.2243C71.9847 13.6231 71.8318 13.013 71.7103 12.3964H71.6861C71.5931 13.0133 71.4166 13.6314 71.2293 14.2243L70.4439 16.6824H69.2706L67.5933 11.0221H68.8947L69.54 13.713C69.6923 14.3539 69.8204 14.9589 69.9267 15.5302H69.9509C70.0439 15.0537 70.1962 14.4584 70.4197 13.725L71.2293 11.0233H72.2613L73.0359 13.6674C73.2232 14.3083 73.3754 14.9372 73.4938 15.5314H73.5277C73.6098 14.9493 73.7391 14.3311 73.9144 13.6674L74.6068 11.0233L75.8502 11.0221ZM82.4117 16.6824H81.1453V13.4322C81.1453 12.4312 80.7586 11.9295 79.9961 11.9295C79.2457 11.9295 78.7298 12.5704 78.7298 13.3157V16.6824H77.4634V12.64C77.4634 12.1395 77.4513 11.603 77.4162 11.0209H78.5304L78.5896 11.8947H78.6246C78.9654 11.2898 79.6566 10.9057 80.4311 10.9057C81.6274 10.9057 82.4129 11.8143 82.4129 13.2929L82.4117 16.6824ZM85.9039 16.6824H84.6363V8.4248H85.9039V16.6824ZM90.5211 16.8108C88.8572 16.8108 87.7769 15.5758 87.7769 13.8991C87.7769 12.1515 88.8789 10.9057 90.6142 10.9057C92.2564 10.9057 93.3584 12.0819 93.3584 13.8066C93.3596 15.5758 92.2213 16.8108 90.5211 16.8108ZM90.5683 11.8251C89.6535 11.8251 89.0674 12.6748 89.0674 13.863C89.0674 15.0285 89.6668 15.8782 90.555 15.8782C91.4468 15.8782 92.0437 14.9697 92.0437 13.839C92.0449 12.6868 91.46 11.8251 90.5683 11.8251ZM98.3514 16.6824L98.2596 16.0307H98.2258C97.8391 16.5552 97.2748 16.8108 96.5594 16.8108C95.5383 16.8108 94.8133 16.1003 94.8133 15.1449C94.8133 13.7478 96.0326 13.0253 98.1436 13.0253V12.9209C98.1436 12.1755 97.746 11.8022 96.9606 11.8022C96.3987 11.8022 95.9057 11.9427 95.4719 12.2223L95.2145 11.3954C95.7413 11.0689 96.3987 10.9057 97.1708 10.9057C98.6596 10.9057 99.4112 11.6858 99.4112 13.2473V15.3321C99.4112 15.9034 99.4366 16.3463 99.4933 16.6836L98.3514 16.6824ZM98.1774 13.863C96.7709 13.863 96.0652 14.2015 96.0652 15.0045C96.0652 15.5986 96.4289 15.889 96.934 15.889C97.5781 15.889 98.1774 15.4005 98.1774 14.7368V13.863ZM105.561 16.6824L105.501 15.7738H105.466C105.103 16.4603 104.491 16.8108 103.637 16.8108C102.263 16.8108 101.246 15.6106 101.246 13.9219C101.246 12.1515 102.3 10.9045 103.741 10.9045C104.503 10.9045 105.043 11.1601 105.348 11.6738H105.373V8.4248H106.641V15.1569C106.641 15.7042 106.654 16.2167 106.688 16.6824H105.561ZM105.373 13.3517C105.373 12.5596 104.845 11.8839 104.039 11.8839C103.1 11.8839 102.526 12.7108 102.526 13.875C102.526 15.0165 103.122 15.7978 104.014 15.7978C104.81 15.7978 105.373 15.1101 105.373 14.2951V13.3517ZM114.678 16.8108C113.014 16.8108 111.935 15.5758 111.935 13.8991C111.935 12.1515 113.037 10.9057 114.772 10.9057C116.414 10.9057 117.516 12.0819 117.516 13.8066C117.518 15.5758 116.38 16.8108 114.678 16.8108ZM114.725 11.8251C113.811 11.8251 113.225 12.6748 113.225 13.863C113.225 15.0285 113.824 15.8782 114.713 15.8782C115.605 15.8782 116.202 14.9697 116.202 13.839C116.204 12.6868 115.618 11.8251 114.725 11.8251ZM124.327 16.6824H123.059V13.4322C123.059 12.4312 122.673 11.9295 121.91 11.9295C121.16 11.9295 120.645 12.5704 120.645 13.3157V16.6824H119.377V12.64C119.377 12.1395 119.365 11.603 119.33 11.0209H120.444L120.503 11.8947H120.539C120.878 11.2898 121.57 10.9045 122.344 10.9045C123.54 10.9045 124.327 11.8131 124.327 13.2917V16.6824ZM132.847 11.9655H131.454V14.714C131.454 15.4137 131.698 15.763 132.191 15.763C132.414 15.763 132.602 15.739 132.753 15.7042L132.788 16.6596C132.543 16.7532 132.214 16.8 131.805 16.8C130.807 16.8 130.21 16.2527 130.21 14.8196V11.9655H129.379V11.0221H130.21V9.9851L131.454 9.61183V11.0209H132.847V11.9655ZM139.551 16.6824H138.286V13.4562C138.286 12.4432 137.901 11.9307 137.137 11.9307C136.481 11.9307 135.869 12.3736 135.869 13.2701V16.6824H134.604V8.4248H135.869V11.8251H135.895C136.293 11.2081 136.871 10.9045 137.608 10.9045C138.814 10.9045 139.551 11.8359 139.551 13.3157V16.6824ZM146.42 14.1547H142.619C142.643 15.2265 143.358 15.8314 144.415 15.8314C144.977 15.8314 145.494 15.7378 145.951 15.5638L146.148 16.4375C145.609 16.6704 144.974 16.7868 144.236 16.7868C142.454 16.7868 141.399 15.6682 141.399 13.9339C141.399 12.1983 142.479 10.8937 144.093 10.8937C145.55 10.8937 146.463 11.9655 146.463 13.5846C146.471 13.7757 146.457 13.967 146.42 14.1547ZM145.258 13.2581C145.258 12.3844 144.815 11.7674 144.005 11.7674C143.278 11.7674 142.703 12.3964 142.62 13.2581H145.258Z" fill="white"/>
</svg>
