<svg width="150" height="49" viewBox="0 0 150 49" fill="none" xmlns="http://www.w3.org/2000/svg">
<path d="M145.312 48.0576H4.6875C2.10938 48.0576 0 45.9201 0 43.3076V5.30762C0 2.69512 2.10938 0.557617 4.6875 0.557617H145.312C147.891 0.557617 150 2.69512 150 5.30762V43.3076C150 45.9201 147.891 48.0576 145.312 48.0576Z" fill="black"/>
<path fill-rule="evenodd" clip-rule="evenodd" d="M11.6377 23.8326V11.3639C11.6377 10.6514 12.2314 10.0576 12.8252 10.0576C13.4189 10.0576 13.6564 10.1764 14.0127 10.4139L36.9314 23.0014C37.4064 23.2389 37.6439 23.5951 37.6439 23.9514C37.6439 24.3076 37.4064 24.6639 36.9314 24.9014L14.0127 37.4889C13.7752 37.6076 13.4189 37.8451 12.8252 37.8451C12.2314 37.8451 11.6377 37.2514 11.6377 36.5389V23.8326Z" fill="url(#paint0_linear)"/>
<path fill-rule="evenodd" clip-rule="evenodd" d="M26.4811 23.9514L12.5874 10.0576C12.7062 10.0576 12.7061 10.0576 12.8249 10.0576C13.4186 10.0576 13.6561 10.1764 14.0124 10.4139L30.8749 19.6764L26.4811 23.9514Z" fill="url(#paint1_linear)"/>
<path fill-rule="evenodd" clip-rule="evenodd" d="M30.7564 28.1077L26.4814 23.8327L30.8752 19.439L36.9314 22.764C37.4064 23.0015 37.6439 23.3577 37.6439 23.714C37.6439 24.0702 37.4064 24.4265 36.9314 24.664L30.7564 28.1077Z" fill="url(#paint2_linear)"/>
<path fill-rule="evenodd" clip-rule="evenodd" d="M12.7061 37.6075L26.4811 23.8325L30.7561 28.1075L14.0123 37.2513C13.6561 37.4888 13.4186 37.6075 12.7061 37.6075C12.8248 37.6075 12.8248 37.6075 12.7061 37.6075Z" fill="url(#paint3_linear)"/>
<path fill-rule="evenodd" clip-rule="evenodd" d="M82.4311 40.8139C81.8373 40.3389 81.3623 39.5076 81.1248 39.0326L83.0248 38.2014C83.1436 38.4389 83.3811 38.7951 83.6186 39.1514C84.0936 39.6264 84.8061 40.1014 85.5186 40.1014C86.2311 40.1014 87.0623 39.7451 87.5373 39.1514C87.8936 38.5576 88.1311 37.9639 88.1311 37.1326V36.4201C86.7061 38.2014 83.7373 37.9639 82.0748 36.0639C80.2936 34.1639 80.2936 30.9576 82.0748 29.0576C83.8561 27.2764 86.4686 27.0389 88.0123 28.7014V27.8701H90.0311V36.7764C90.0311 39.0326 89.1998 40.3389 88.1311 41.1701C87.4186 41.7639 86.3498 42.0014 85.3998 42.0014C84.3311 41.8826 83.2623 41.5264 82.4311 40.8139ZM132.187 41.2889L134.206 36.5389L130.644 28.3451H132.662L135.156 34.1639L137.65 28.3451H139.669L134.206 41.2889H132.187ZM122.569 36.7764C121.975 36.1826 121.737 35.3514 121.737 34.5201C121.737 33.8076 121.975 33.0951 122.45 32.6201C123.281 31.7889 124.469 31.4326 125.775 31.4326C126.606 31.4326 127.319 31.5514 127.912 31.9076C127.912 30.4826 126.725 29.8889 125.775 29.8889C124.944 29.8889 124.112 30.3639 123.756 31.1951L121.975 30.4826C122.331 29.6514 123.281 28.1076 125.656 28.1076C126.844 28.1076 128.031 28.4639 128.744 29.2951C129.456 30.1264 129.694 31.0764 129.694 32.3826V37.3701H127.675V36.5389C127.437 36.8951 126.962 37.1326 126.606 37.3701C126.131 37.6076 125.537 37.7264 124.944 37.7264C124.231 37.6076 123.162 37.3701 122.569 36.7764ZM59.2748 32.5014C59.2748 30.1264 61.0561 27.5139 64.2623 27.5139C67.3498 27.5139 69.2498 30.1264 69.2498 32.5014C69.2498 34.8764 67.4686 37.4889 64.2623 37.4889C61.0561 37.4889 59.2748 34.8764 59.2748 32.5014ZM69.9623 32.5014C69.9623 30.1264 71.7436 27.5139 74.9498 27.5139C78.0373 27.5139 79.9373 30.1264 79.9373 32.5014C79.9373 34.8764 78.1561 37.4889 74.9498 37.4889C71.8623 37.4889 69.9623 34.8764 69.9623 32.5014ZM45.8561 35.1139C42.8873 32.1451 43.0061 27.2764 45.9748 24.1889C47.5186 22.6451 49.4186 21.9326 51.4373 21.9326C53.3373 21.9326 55.2373 22.6451 56.6623 24.0701L55.2373 25.6139C53.0998 23.4764 49.6561 23.5951 47.6373 25.7326C45.4998 27.9889 45.4998 31.4326 47.6373 33.6889C49.7748 35.9451 53.3373 36.0639 55.4748 33.8076C56.1873 33.0951 56.4248 32.1451 56.5436 31.1951H51.5561V29.0576H58.5623C58.6811 29.5326 58.6811 30.1264 58.6811 30.7201C58.6811 32.5014 57.9686 34.2826 56.7811 35.4701C55.4748 36.7764 53.5748 37.4889 51.6748 37.4889C49.5373 37.3701 47.3998 36.6576 45.8561 35.1139ZM96.0873 35.9451C94.3061 34.0451 94.3061 30.8389 96.0873 28.8201C97.8686 26.9201 100.837 26.9201 102.5 28.8201C103.094 29.4139 103.45 30.2451 103.806 31.0764L97.2748 33.8076C97.6311 34.6389 98.4623 35.3514 99.6498 35.3514C100.719 35.3514 101.431 34.9951 102.144 33.9264L103.925 35.1139C103.687 35.3514 103.45 35.5889 103.331 35.8264C101.312 37.8451 97.8686 37.8451 96.0873 35.9451ZM108.437 37.3701V24.1889H112.712C115.206 24.1889 117.225 25.9701 117.225 28.1076C117.225 30.2451 115.444 32.0264 113.187 32.0264H110.575V37.2514H108.437V37.3701ZM118.412 37.3701V24.1889H120.431V37.3701H118.412ZM91.5748 37.1326V22.4076H93.7123V37.1326H91.5748ZM127.794 33.4514C127.319 33.0951 126.606 32.9764 125.894 32.9764C124.469 32.9764 123.637 33.6889 123.637 34.5201C123.637 35.3514 124.469 35.8264 125.3 35.8264C126.487 35.8264 127.794 34.8764 127.794 33.4514ZM66.9936 32.5014C66.9936 31.0764 66.0436 29.5326 64.2623 29.5326C62.4811 29.5326 61.5311 31.0764 61.5311 32.5014C61.5311 33.9264 62.4811 35.4701 64.2623 35.4701C65.9248 35.4701 66.9936 33.9264 66.9936 32.5014ZM77.6811 32.5014C77.6811 31.0764 76.7311 29.5326 74.9498 29.5326C73.1686 29.5326 72.2186 31.0764 72.2186 32.5014C72.2186 33.9264 73.1686 35.4701 74.9498 35.4701C76.7311 35.4701 77.6811 33.9264 77.6811 32.5014ZM88.2498 33.3326C88.2498 33.2139 88.2498 33.0951 88.3686 32.9764C88.3686 32.8576 88.3686 32.6201 88.3686 32.5014C88.3686 32.3826 88.3686 32.1451 88.3686 32.0264V31.9076C88.3686 31.7889 88.2498 31.5514 88.2498 31.4326C87.8936 30.2451 86.8248 29.4139 85.7561 29.4139C84.3311 29.4139 83.1436 30.8389 83.1436 32.3826C83.1436 34.0451 84.3311 35.3514 85.8748 35.3514C86.8248 35.4701 87.7748 34.6389 88.2498 33.3326ZM96.9186 32.2639L101.312 30.3639C100.837 29.5326 100.125 29.2951 99.5311 29.2951C97.7498 29.4139 96.6811 31.3139 96.9186 32.2639ZM115.087 28.2264C115.087 27.0389 114.137 26.2076 112.831 26.2076H110.456V30.3639H112.95C114.137 30.3639 115.087 29.4139 115.087 28.2264Z" fill="white"/>
<path fill-rule="evenodd" clip-rule="evenodd" d="M135.73 38.9131H135.613V38.7952H135.73H135.613V38.9131H135.73Z" fill="white"/>
<path fill-rule="evenodd" clip-rule="evenodd" d="M135.968 38.9131C135.968 38.7952 135.968 38.7952 135.968 38.9131C135.85 38.7952 135.85 38.7952 135.968 38.9131C135.85 38.9131 135.85 38.9131 135.968 38.9131ZM135.968 38.7952C135.968 38.9131 135.968 38.9131 135.968 38.7952C135.968 38.9131 135.85 38.9131 135.968 38.7952C135.85 38.7952 135.968 38.7952 135.968 38.7952Z" fill="white"/>
<path fill-rule="evenodd" clip-rule="evenodd" d="M136.087 38.7952H135.969H136.087V38.9131V38.7952Z" fill="white"/>
<path d="M44.1934 12.5514C44.1934 10.4139 45.7371 9.10767 47.6371 9.10767C48.9434 9.10767 49.7746 9.70141 50.3684 10.5327L49.4184 11.1264C49.0621 10.6514 48.4684 10.2952 47.6371 10.2952C46.3309 10.2952 45.3809 11.2452 45.3809 12.6702C45.3809 14.0952 46.3309 15.0452 47.6371 15.0452C48.3496 15.0452 48.9434 14.6889 49.1809 14.4514V13.3827H47.2809V12.3139H50.4871V14.8077C49.8934 15.5202 48.9434 15.9952 47.7559 15.9952C45.7371 15.9952 44.1934 14.5702 44.1934 12.5514Z" fill="white"/>
<path d="M51.9121 15.8763V9.22632H56.4246V10.2951H52.9809V11.9576H56.3059V13.0263H52.9809V14.9263H56.4246V15.9951L51.9121 15.8763Z" fill="white"/>
<path d="M59.7502 15.8763V10.2951H57.7314V9.22632H62.9564V10.2951H60.9377V15.8763H59.7502Z" fill="white"/>
<path d="M66.9941 15.8763V9.22632H68.1816V15.8763H66.9941Z" fill="white"/>
<path d="M71.3879 15.8763V10.2951H69.3691V9.22632H74.5941V10.2951H72.5754V15.8763H71.3879Z" fill="white"/>
<path d="M78.3936 12.5514C78.3936 10.5327 79.8186 9.10767 81.8373 9.10767C83.8561 9.10767 85.2811 10.5327 85.2811 12.5514C85.2811 14.5702 83.8561 15.9952 81.8373 15.9952C79.8186 15.9952 78.3936 14.4514 78.3936 12.5514ZM83.9748 12.5514C83.9748 11.1264 83.1436 10.1764 81.7186 10.1764C80.4123 10.1764 79.4623 11.2452 79.4623 12.5514C79.4623 13.9764 80.2936 14.9264 81.7186 14.9264C83.1436 14.9264 83.9748 13.8577 83.9748 12.5514Z" fill="white"/>
<path d="M91.2189 15.8763L87.7751 11.1263V15.8763H86.5876V9.22632H87.7751L91.2189 13.8576V9.22632H92.4064V15.8763H91.2189Z" fill="white"/>
<defs>
<linearGradient id="paint0_linear" x1="19.3177" y1="8.36377" x2="25.9656" y2="35.6655" gradientUnits="userSpaceOnUse">
<stop stop-color="#006884"/>
<stop offset="1" stop-color="#8AD1D0"/>
</linearGradient>
<linearGradient id="paint1_linear" x1="11.2107" y1="12.2471" x2="29.3272" y2="22.041" gradientUnits="userSpaceOnUse">
<stop stop-color="#24BBB6"/>
<stop offset="1" stop-color="#DBE692"/>
</linearGradient>
<linearGradient id="paint2_linear" x1="32.056" y1="28.6066" x2="32.056" y2="19.1679" gradientUnits="userSpaceOnUse">
<stop stop-color="#FCC072"/>
<stop offset="1" stop-color="#F58A5B"/>
</linearGradient>
<linearGradient id="paint3_linear" x1="14.7185" y1="40.0646" x2="29.0299" y2="25.4997" gradientUnits="userSpaceOnUse">
<stop stop-color="#712B8F"/>
<stop offset="1" stop-color="#EA1D27"/>
</linearGradient>
</defs>
</svg>
