<svg width="140" height="101" viewBox="0 0 140 101" fill="none" xmlns="http://www.w3.org/2000/svg">
<path d="M50.5723 1.85286C38.7136 4.30852 25.9305 9.14156 24.2579 21.9391C23.5306 27.5151 23.8766 33.3627 21.411 38.4737C17.7438 46.0484 3.05904 51.2985 13.9709 61.6691C18.822 66.2817 24.9228 69.5538 31.1341 72.3897C44.2793 78.3906 66.755 85.7848 78.2564 77.3521C86.8709 71.0364 87.3387 58.6079 87.3387 49.2838C87.3387 42.0941 90.1551 35.1265 94.0867 29.0473C99.1749 21.1786 101.006 14.5226 91.7428 8.81244C79.7512 1.42148 64.5281 -1.03578 50.5723 1.85286Z" fill="#F7F7F7" fill-opacity="0.2"/>
<path d="M34.6411 37.2983C34.6407 37.2853 34.6377 37.2725 34.6323 37.2606C34.6269 37.2488 34.6193 37.2381 34.6097 37.2292C34.6002 37.2203 34.589 37.2133 34.5768 37.2087C34.5646 37.2042 34.5516 37.202 34.5385 37.2024H21.9637C21.9397 37.2664 21.9141 37.3303 21.8884 37.3942H28.457V42.5723C28.457 42.5994 28.4678 42.6254 28.487 42.6446C28.5063 42.6638 28.5323 42.6746 28.5595 42.6746C28.5867 42.6746 28.6128 42.6638 28.632 42.6446C28.6513 42.6254 28.6621 42.5994 28.6621 42.5723V37.3942H34.5305C34.5442 37.3957 34.5581 37.3944 34.5712 37.3903C34.5844 37.3863 34.5966 37.3795 34.607 37.3705C34.6174 37.3615 34.6258 37.3504 34.6316 37.338C34.6375 37.3256 34.6407 37.312 34.6411 37.2983Z" fill="white"/>
<path d="M57.9419 22.1515H48.959C48.9737 22.1347 48.9817 22.1131 48.9814 22.0908V16.9127H54.8499C54.8754 16.9127 54.8998 16.9026 54.9179 16.8846C54.9359 16.8666 54.946 16.8422 54.946 16.8168C54.946 16.7914 54.9359 16.767 54.9179 16.749C54.8998 16.731 54.8754 16.7209 54.8499 16.7209H43.4446V11.0906H49.3131C49.3385 11.0906 49.363 11.0805 49.381 11.0626C49.3991 11.0446 49.4092 11.0202 49.4092 10.9948C49.4092 10.9694 49.3991 10.945 49.381 10.927C49.363 10.909 49.3385 10.8989 49.3131 10.8989H32.6625C32.637 10.8989 32.6126 10.909 32.5946 10.927C32.5765 10.945 32.5664 10.9694 32.5664 10.9948C32.5664 11.0202 32.5765 11.0446 32.5946 11.0626C32.6126 11.0805 32.637 11.0906 32.6625 11.0906H43.2363V16.7209H38.1994C38.1739 16.7209 38.1494 16.731 38.1314 16.749C38.1134 16.767 38.1032 16.7914 38.1032 16.8168C38.1032 16.8422 38.1134 16.8666 38.1314 16.8846C38.1494 16.9026 38.1739 16.9127 38.1994 16.9127H48.7732V22.0908C48.7729 22.1131 48.7809 22.1347 48.7956 22.1515H41.2914C41.2659 22.1515 41.2414 22.1616 41.2234 22.1796C41.2054 22.1976 41.1953 22.222 41.1953 22.2474C41.1953 22.2728 41.2054 22.2972 41.2234 22.3152C41.2414 22.3331 41.2659 22.3432 41.2914 22.3432H51.8652V27.515C51.8652 27.5421 51.876 27.5681 51.8952 27.5873C51.9144 27.6065 51.9405 27.6173 51.9677 27.6173C51.9949 27.6173 52.021 27.6065 52.0402 27.5873C52.0595 27.5681 52.0703 27.5421 52.0703 27.515V22.3432H57.9387C57.9642 22.3432 57.9887 22.3331 58.0067 22.3152C58.0247 22.2972 58.0348 22.2728 58.0348 22.2474C58.0348 22.222 58.0247 22.1976 58.0067 22.1796C57.9887 22.1616 57.9642 22.1515 57.9387 22.1515H57.9419Z" fill="white"/>
<path d="M82.9583 68.4851H66.3094C66.2959 68.4833 66.2821 68.4844 66.269 68.4884C66.256 68.4924 66.2439 68.4991 66.2336 68.5081C66.2233 68.5171 66.2151 68.5282 66.2095 68.5406C66.2038 68.553 66.2009 68.5665 66.2009 68.5801C66.2009 68.5937 66.2038 68.6072 66.2095 68.6196C66.2151 68.6321 66.2233 68.6431 66.2336 68.6521C66.2439 68.6611 66.256 68.6678 66.269 68.6718C66.2821 68.6758 66.2959 68.6769 66.3094 68.6752H76.8832V73.8485C76.8863 73.8732 76.8984 73.896 76.9171 73.9125C76.9359 73.9289 76.96 73.938 76.985 73.938C77.0099 73.938 77.0341 73.9289 77.0528 73.9125C77.0715 73.896 77.0836 73.8732 77.0867 73.8485V68.6752H82.9551C82.9687 68.6769 82.9825 68.6758 82.9955 68.6718C83.0086 68.6678 83.0207 68.6611 83.031 68.6521C83.0412 68.6431 83.0495 68.6321 83.0551 68.6196C83.0607 68.6072 83.0637 68.5937 83.0637 68.5801C83.0637 68.5665 83.0607 68.553 83.0551 68.5406C83.0495 68.5282 83.0412 68.5171 83.031 68.5081C83.0207 68.4991 83.0086 68.4924 82.9955 68.4884C82.9825 68.4844 82.9687 68.4833 82.9551 68.4851H82.9583Z" fill="white"/>
<path d="M55.1876 42.8002H38.537C38.5116 42.8002 38.4871 42.8103 38.4691 42.8282C38.451 42.8462 38.4409 42.8706 38.4409 42.896C38.4409 42.9215 38.451 42.9458 38.4691 42.9638C38.4871 42.9818 38.5116 42.9919 38.537 42.9919H49.1109V48.17C49.1109 48.1972 49.1217 48.2232 49.1409 48.2423C49.1601 48.2615 49.1862 48.2723 49.2134 48.2723C49.2406 48.2723 49.2667 48.2615 49.2859 48.2423C49.3051 48.2232 49.3159 48.1972 49.3159 48.17V42.9919H55.1844C55.2099 42.9919 55.2343 42.9818 55.2524 42.9638C55.2704 42.9458 55.2805 42.9215 55.2805 42.896C55.2805 42.8706 55.2704 42.8462 55.2524 42.8282C55.2343 42.8103 55.2099 42.8002 55.1844 42.8002H55.1876Z" fill="white"/>
<path d="M91.7426 8.81254C82.4296 3.07041 71.1685 0.307991 60.0645 0.712209V65.5405H85.7524C87.2039 60.1786 87.3384 54.2895 87.3384 49.2918C87.3384 42.1022 90.1549 35.1346 94.0864 29.0554C99.1747 21.1787 101.006 14.5227 91.7426 8.81254Z" fill="#F7F7F7" fill-opacity="0.2"/>
<path d="M80.5023 3.60406C79.776 3.36228 79.0449 3.13647 78.309 2.92664V17.3666H60.0645V18.6959L78.309 18.7902V65.5405H80.5023V18.7902H98.2855C98.3099 18.3155 98.2981 17.8396 98.2502 17.3666H80.5023V3.60406Z" fill="#E2E2E2"/>
<path d="M34.8413 26.047C34.8413 26.047 32.4221 38.942 32.4221 43.5642C32.4221 48.8206 35.8522 54.3199 35.8522 54.3199L37.2316 51.4808C37.2316 51.4808 35.5366 45.769 35.5366 42.8228C35.5366 39.8767 38.0999 29.8112 38.0999 29.8112L34.8413 26.047Z" fill="#F3B98B"/>
<path d="M34.3959 23.4425C34.3959 23.4425 33.3097 29.485 32.4221 34.3069L37.2284 37.793L38.3194 27.7195L34.3959 23.4425Z" fill="#EA9E30"/>
<path d="M32.4218 97.6862C47.8538 97.6862 60.3639 96.0853 60.3639 94.1106C60.3639 92.1358 47.8538 90.5349 32.4218 90.5349C16.9898 90.5349 4.47974 92.1358 4.47974 94.1106C4.47974 96.0853 16.9898 97.6862 32.4218 97.6862Z" fill="#C2D6FF"/>
<path d="M11.5404 89.1037L9.15171 88.7602C9.15171 88.7602 0.0566406 88.5077 0.0566406 92.6586C0.0566406 96.8094 20.5394 95.2037 21.8146 96.4771C23.0899 97.7504 7.71624 99.289 7.71624 99.289C7.71624 99.289 19.6022 101.767 24.4373 100.088C29.2724 98.4087 26.653 93.9815 22.8929 93.2513C19.1327 92.5212 17.5194 93.4574 17.5194 93.4574L11.5404 89.1037Z" fill="#FFD255"/>
<path d="M41.9673 83.5382C42.448 83.5382 45.4519 82.1258 45.9373 82.1657C45.8508 83.0812 46.8441 92.2312 46.8441 92.2312C46.8441 92.2312 43.6047 92.1625 42.7203 92.2169C41.5139 92.292 39.5017 92.2312 39.5017 92.2312C41.4242 91.549 43.5774 91.172 43.9331 90.87C44.2888 90.568 41.9449 84.6566 41.9673 83.5382Z" fill="#F3B98B"/>
<path d="M49.9362 84.9908C50.4168 84.9908 53.4207 83.4761 53.9062 83.5177C53.8197 84.5003 53.0426 94.2974 53.0426 94.2974C53.0426 94.2974 51.5735 94.2526 50.6892 94.3117C49.4828 94.3916 44.3801 94.6888 44.3801 94.6888C46.3026 93.9555 49.7199 92.5814 50.0756 92.2571C50.4312 91.9328 49.9138 86.1922 49.9362 84.9908Z" fill="#F3B98B"/>
<path d="M39.1877 71.412L42.1404 43.5945C44.4362 43.4187 48.8099 42.8148 50.6843 44.7432C49.5837 51.3625 45.5304 69.5523 45.5304 71.7012C45.5304 75.3759 46.4644 86.2962 46.4644 86.2962L42.1003 86.1364L39.1877 71.412Z" fill="#472709"/>
<path d="M46.4644 86.2959L41.9081 86.4861L41.0461 83.5175L46.3731 83.2156L46.4644 86.2959Z" fill="#5D5475"/>
<path d="M52.3054 36.6062L56.3555 42.4985L54.3305 66.4736V86.2962L49.2166 86.3777L46.8439 66.8091L44.9358 38.0122L52.3054 36.6062Z" fill="#6C3235"/>
<path d="M54.3195 86.378H49.2168L48.4558 83.2417H54.7456L54.3195 86.378Z" fill="#7770A3"/>
<path d="M40.0945 18.0885C41.389 18.2483 42.6499 19.56 44.7983 24.3387C46.9467 29.1174 55.4265 39.2676 55.4265 39.2676L53.7796 40.5953C53.7796 40.5953 54.1561 42.6531 51.2867 45.1887C48.4174 47.7242 41.3394 48.4991 41.3394 48.4991C41.3394 48.4991 40.0272 42.03 38.2505 36.9765C37.0586 33.5878 35.2754 31.2248 34.9646 30.4387C31.5137 21.7872 38.8 17.9415 40.0945 18.0885Z" fill="#F3A636"/>
<path d="M16.8273 87.5904L54.2313 25.2882L52.8535 24.4094L15.4495 86.7117L16.8273 87.5904Z" fill="#552E5D"/>
<path d="M16.6671 91.0028L12.3767 88.5599L13.4293 86.721C13.6348 86.3662 13.9728 86.1071 14.3694 86.0002C14.766 85.8933 15.1889 85.9474 15.5456 86.1506L17.1381 87.0565C17.4958 87.2604 17.7576 87.5976 17.8661 87.994C17.9745 88.3903 17.9207 88.8134 17.7165 89.1703L16.6671 91.0028Z" fill="#653870"/>
<path d="M18.0768 93.8407L9.15479 88.76C9.26924 88.5582 9.42263 88.3809 9.60609 88.2385C9.78955 88.096 9.99947 87.9912 10.2237 87.93C10.448 87.8688 10.6822 87.8525 10.9129 87.8819C11.1435 87.9114 11.366 87.9861 11.5675 88.1018L17.4184 91.4345C17.6206 91.5488 17.7982 91.7019 17.9409 91.8849C18.0836 92.0679 18.1886 92.2773 18.2498 92.5009C18.311 92.7246 18.3272 92.9581 18.2975 93.188C18.2678 93.418 18.1928 93.6398 18.0768 93.8407Z" fill="#B2165B"/>
<path d="M9.77808 91.2442C10.1369 91.2442 15.065 89.867 19.985 91.5973C24.905 93.3276 25.3488 94.4205 26.5103 95.5772C27.6718 96.7339 26.5103 98.7918 26.5103 98.7918C26.5103 98.7918 23.9245 94.7975 20.3439 94.1105C16.7632 93.4235 13.0015 94.1105 13.0015 94.1105L9.77808 91.2442Z" fill="#FFD255"/>
<path d="M3.42714 90.6065C2.83437 91.2009 2.68377 91.8847 3.34704 92.4215C6.27086 94.7461 28.2483 93.6214 23.0752 98.0374C21.6253 99.0679 19.2654 98.9545 17.4791 98.7915C19.2782 98.9513 22.3719 99.0599 23.4565 97.6092C23.5885 97.4754 23.6865 97.312 23.7422 97.1328C23.798 96.9535 23.8099 96.7635 23.7769 96.5787C23.6503 96.0323 23.0159 95.7799 22.4952 95.5817C19.3904 94.4905 7.58297 94.139 4.27465 93.1085C2.56842 92.5813 2.248 91.4837 3.26854 90.4468C4.63192 89.1095 6.89407 89.0088 8.80376 89.199C8.83816 89.2039 8.86933 89.2218 8.89074 89.2491C8.91215 89.2764 8.92214 89.3109 8.91862 89.3454C8.9151 89.3799 8.89835 89.4117 8.87186 89.4341C8.84538 89.4565 8.81121 89.4679 8.77653 89.4658C6.94373 89.282 4.75528 89.3236 3.42714 90.6065Z" fill="#E59D0B"/>
<path d="M9.95916 90.0699C8.49645 90.1258 7.16351 89.9661 6.10453 90.5492C5.6239 90.8144 5.34193 91.1499 5.68158 91.5717C5.83266 91.757 6.03482 91.8942 6.26313 91.9664C11.4411 93.5177 17.1942 92.0574 22.0614 93.711C23.0835 94.0306 24.3764 94.5914 24.3251 95.6938C24.2626 94.2431 21.9316 93.8341 20.4641 93.5145C14.9961 92.6246 10.6913 93.6743 6.14939 92.2635C5.82929 92.1621 5.55203 91.9576 5.36116 91.682C5.23988 91.512 5.1883 91.3023 5.21697 91.0956C5.71362 89.5522 8.61821 89.843 9.94955 89.7999C9.96722 89.7993 9.98484 89.8021 10.0014 89.8083C10.018 89.8144 10.0332 89.8238 10.0461 89.8358C10.0591 89.8478 10.0695 89.8623 10.0768 89.8783C10.0842 89.8943 10.0883 89.9117 10.0889 89.9293C10.0896 89.9469 10.0867 89.9645 10.0805 89.981C10.0743 89.9975 10.065 90.0127 10.0529 90.0256C10.0409 90.0385 10.0264 90.0489 10.0103 90.0562C9.99421 90.0636 9.97683 90.0677 9.95916 90.0683V90.0699Z" fill="#E59D0B"/>
<path d="M10.1177 91.436C12.9806 90.9567 15.0153 90.9807 16.9025 91.2011C18.5944 91.543 20.3871 92.0926 21.869 92.9714C19.9802 92.0958 17.2854 91.4552 16.1287 91.3977C13.3811 91.2011 9.96389 91.73 10.1658 91.7012C10.1305 91.7076 10.0941 91.6997 10.0647 91.6793C10.0352 91.6589 10.0151 91.6277 10.0087 91.5926C10.0024 91.5574 10.0103 91.5211 10.0307 91.4918C10.0511 91.4624 10.0824 91.4424 10.1177 91.436Z" fill="#E59D0B"/>
<path d="M39.7468 43.2028L40.5094 44.3068L41.5652 43.4728C41.5652 43.4728 40.7545 42.9232 40.3973 42.8337C40.04 42.7442 39.7468 43.2028 39.7468 43.2028Z" fill="#F3B98B"/>
<path d="M44.0466 28.3234C44.0466 28.3234 48.6398 35.9716 47.5375 38.3138C47.0409 39.3683 46.1405 40.4579 45.2946 41.3382C44.1826 42.4929 42.7351 43.2702 41.1564 43.5606C40.4904 43.669 39.8309 43.8141 39.181 43.9952C38.5995 44.2173 38.734 45.6456 38.734 45.6456C38.734 45.6456 38.7196 46.093 38.7196 46.3614C38.7196 46.6298 38.4937 47.9064 38.851 47.9064C39.2082 47.9064 40.993 46.5819 40.993 46.5819C40.993 46.5819 44.854 46.1537 46.7926 44.5049C49.2133 42.4486 50.8506 40.2454 51.5604 37.2945C52.2701 34.3435 48.0454 26.0435 48.0454 26.0435L44.0466 28.3234Z" fill="#F3B98B"/>
<path d="M38.3243 19.7876C38.2874 17.1705 41.4195 17.506 43.3372 19.2204C44.2008 19.9921 49.3755 26.2247 49.3755 26.2247L42.9063 30.5289C42.9063 30.5289 38.3756 21.6872 38.3243 19.7876Z" fill="#EA9E30"/>
<path d="M37.9878 51.7894C37.6744 51.5862 37.339 51.419 36.9881 51.2909C36.2623 50.9953 35.6103 51.807 35.4725 51.9667C35.1715 52.3344 34.9105 52.7328 34.6939 53.1554C34.541 53.4302 34.4405 53.7308 34.3975 54.0421C34.3318 54.5214 36.1598 55.6127 36.32 55.4657C36.4241 55.3666 36.501 55.2452 36.4562 55.1333C36.4113 55.0215 35.4613 53.9543 35.4613 53.9543C35.4613 53.9543 36.8198 54.8985 37.2236 54.7787C37.6273 54.6588 37.552 54.424 37.4398 54.3297C37.3277 54.2354 36.1021 53.0244 36.1021 53.0244C36.1021 53.0244 37.6417 53.7881 37.9012 53.7082C38.1608 53.6283 38.3162 53.2545 37.6209 52.8263C37.3228 52.6271 37.0435 52.4014 36.7862 52.1521C36.7862 52.1521 37.8548 52.4844 38.2441 52.3661C38.6334 52.2479 37.9878 51.7894 37.9878 51.7894Z" fill="#F3B98B"/>
<path d="M71.4438 72.3757C71.5428 72.606 71.594 72.8538 71.5944 73.1043V80.0303L72.2946 79.9425V73.9495C72.2916 73.638 72.2126 73.3319 72.0644 73.0577C71.9162 72.7834 71.7032 72.5494 71.4438 72.3757Z" fill="#132A3A"/>
<path d="M72.1937 82.2588C72.1937 82.2588 71.7996 96.579 71.7996 96.6078C71.7996 97.3731 68.7557 97.9946 65.0068 97.9946C63.9654 97.9946 62.9769 97.9466 62.0958 97.8604C59.8016 97.6383 58.2155 97.1606 58.2155 96.6078C58.2155 96.579 57.7221 78.779 57.7205 78.7439H72.2995L72.1937 82.2588Z" fill="#F7F7F7"/>
<path d="M64.3932 78.7439H57.7205V78.7567C57.7365 79.2759 58.2155 96.579 58.2155 96.6078C58.2155 97.1606 59.8016 97.6383 62.0958 97.8604L63.8132 83.0433C66.6297 83.1729 69.4506 82.9089 72.1937 82.2588L72.2947 78.7439H64.3932Z" fill="#E1E1E1"/>
<path d="M71.4889 81.3578C68.6211 81.917 63.6178 82.0975 60.0323 81.663C59.3859 81.5895 58.7441 81.4802 58.1098 81.3354C56.0175 80.8417 55.7596 80.2474 56.8282 78.6913C56.807 78.7375 56.7956 78.7875 56.7945 78.8383C56.7945 79.4198 58.3165 79.9295 60.6091 80.2202C62.0663 80.3942 63.5328 80.4785 65.0004 80.4727C69.5327 80.4727 73.2047 79.7409 73.2047 78.8383C73.1983 78.7212 73.1466 78.6112 73.0605 78.5315H73.0734C74.9574 80.511 72.5799 81.1469 71.4889 81.3578Z" fill="#F7F7F7"/>
<path d="M56.8013 78.8416C56.8013 79.7443 60.4749 80.4761 65.0072 80.4761C69.5395 80.4761 73.2211 79.7443 73.2211 78.8416C73.2242 78.7791 73.211 78.7169 73.183 78.6609C73.1549 78.605 73.1129 78.5572 73.0609 78.5221C72.8342 78.3535 72.5871 78.2139 72.3255 78.1067C70.9686 77.5747 68.2018 77.212 65.0088 77.212C60.4749 77.204 56.8013 77.9389 56.8013 78.8416Z" fill="#E1E1E1"/>
<path d="M72.295 78.7343C72.295 79.0203 71.7295 79.2839 70.7778 79.4932C69.4465 79.7887 67.3558 79.9725 65.0103 79.9725H64.6899C62.4886 79.9565 60.5405 79.7744 59.2668 79.4932C58.3056 79.2823 57.7224 79.0139 57.7224 78.7279C57.7224 78.0584 60.8144 77.512 64.6899 77.4849H65.0103C69.0316 77.4897 72.295 78.0457 72.295 78.7343Z" fill="#DBD7D7"/>
<path d="M70.7775 79.4932C70.3626 79.5859 69.8723 79.6673 69.3228 79.7376C66.4598 80.0582 63.5698 80.0582 60.7068 79.7376C60.1653 79.6689 59.6798 79.5891 59.2649 79.498C60.5978 79.204 62.687 79.0187 65.0324 79.0187C67.3779 79.0187 69.4446 79.2024 70.7775 79.4932Z" fill="#C5C6FE"/>
<path d="M69.9432 71.7092H59.1499C57.9756 71.7092 57.0224 72.5273 57.0224 73.5386L56.9951 80.479L57.7673 80.733L57.7449 74.3422C57.7449 73.3309 58.7061 72.5113 59.8741 72.5113H70.6657C71.1074 72.5091 71.5408 72.6303 71.917 72.8612C71.6014 72.1822 70.8372 71.7092 69.9432 71.7092Z" fill="#0B446B"/>
<path d="M72.3492 78.1126C72.2963 78.0886 72.189 78.0519 72.1554 78.0391C72.1906 75.2639 72.2867 74.3532 72.2226 73.7125C72.0224 72.2059 71.1124 72.559 66.5544 72.5478C62.852 72.5718 59.8641 72.535 59.8721 72.535C59.8801 72.535 58.6609 72.4951 58.0329 73.4777C57.6484 74.0976 57.8006 74.5545 57.7974 78.0599C57.7974 78.5248 57.7974 79.0408 57.7862 79.6192C57.7862 79.9675 57.7798 80.3403 57.767 80.7376L57.5619 80.6705C57.5619 80.2679 57.5619 79.8908 57.5619 79.5361C57.5619 79.0313 57.5619 78.5775 57.5619 78.1557C57.5619 73.77 57.4578 73.9729 57.8214 73.3626C58.022 73.0419 58.3024 72.7783 58.6354 72.5978C58.9683 72.4172 59.3425 72.3256 59.7215 72.3321C61.7802 72.3097 70.9618 72.2203 71.5017 72.4328C71.8192 72.5458 72.0823 72.774 72.2387 73.0718C72.6168 73.8643 72.4197 73.6151 72.3492 78.1126Z" fill="#287293"/>
<path d="M30.4817 50.4229C27.2503 44.7047 28.995 39.9196 29.0126 39.8781L29.2 39.9484C29.184 39.9947 27.473 44.6967 30.6579 50.3334L30.4817 50.4229Z" fill="#041C69"/>
<path d="M31.2461 16.6506L34.2981 21.9422C34.4583 22.2298 35.1168 23.7668 35.4628 23.8083C36.2639 23.901 38.0262 22.8497 38.4924 21.7585C38.9025 20.811 33.7518 15.2255 33.7518 15.2255C33.7518 15.2255 32.1769 15.8725 31.2461 16.6506Z" fill="#F3B98B"/>
<path d="M33.7534 15.2323C33.7534 15.2323 33.9248 15.4144 34.2052 15.7116C34.5203 16.3488 34.7679 17.017 34.9437 17.7055C35.1328 18.5955 34.7931 20.4216 33.7998 21.0735L31.2461 16.6511C32.1769 15.873 33.7534 15.2323 33.7534 15.2323Z" fill="#E8A672"/>
<path d="M29.9019 8.93899C30.8102 9.33043 31.7747 10.035 31.3437 10.8914C31.9093 10.0526 30.9544 9.13391 30.0701 8.62744L29.9019 8.93899Z" fill="#323232"/>
<path d="M28.1267 13.4091C28.1267 13.4091 27.0453 14.1823 27.755 15.6267C28.4648 17.071 31.4847 20.4948 32.8609 20.2073C34.2371 19.9197 34.8074 17.8523 34.6344 16.94C34.4502 15.9909 33.7581 14.7335 33.7581 14.7335C33.7581 14.7335 30.7958 9.72795 28.1267 13.4091Z" fill="#F3B98B"/>
<path d="M36.0683 15.988C36.0683 15.988 35.9786 16.4433 35.4275 16.2148C35.4275 16.2148 34.1602 15.694 34.3477 14.6619C34.5351 13.6298 34.8796 12.1711 33.9456 10.9872C33.0115 9.80328 31.3822 10.7156 31.3822 10.7156C31.3822 10.7156 29.9403 8.91815 28.0483 10.8226C28.0483 10.8226 27.3626 10.6405 26.0633 11.4265C24.764 12.2126 25.4961 12.7223 24.6582 13.0242C23.8204 13.3262 23.3766 12.8293 23.5624 12.4331C23.5624 12.4331 22.5867 13.7224 23.0193 14.8057C23.4519 15.8889 25.509 14.8232 25.509 14.8232C25.509 14.8232 23.9966 15.9241 25.6371 15.8873C27.2777 15.8506 27.88 15.5055 28.2197 14.3871C28.5593 13.2687 28.8701 12.8756 29.3748 12.8133C29.8795 12.751 30.2479 13.6729 30.9112 13.4301C31.5745 13.1872 32.885 14.4749 32.885 14.4749C32.885 14.4749 33.2663 14.0675 33.8847 15.138C34.5031 16.2084 34.7466 16.9418 35.498 16.6654C36.2494 16.389 36.0683 15.988 36.0683 15.988Z" fill="#323232"/>
<path d="M32.4779 13.085C32.8111 12.847 33.8252 12.6201 33.7499 14.0756C33.6747 15.5311 32.3754 14.7658 32.1719 14.2545C32.0901 14.0527 32.0757 13.8299 32.1308 13.6193C32.1859 13.4086 32.3076 13.2213 32.4779 13.085Z" fill="#FBAF73"/>
<path d="M29.9802 16.4908C30.4496 17.0804 30.8213 17.7003 31.326 18.2164C31.483 18.1312 31.6432 18.0529 31.8066 17.9815C31.649 18.1463 31.4821 18.3021 31.3068 18.448C30.7346 17.8934 30.283 17.2271 29.9802 16.4908Z" fill="#001959"/>
<path d="M30.1423 16.1461C30.1638 16.1394 30.1818 16.1247 30.1926 16.105C30.2034 16.0853 30.206 16.0622 30.2 16.0406C30.1786 15.9271 30.1841 15.8102 30.2161 15.6993C30.2481 15.5883 30.3057 15.4863 30.3843 15.4015C30.6166 15.1203 31.4657 14.8887 31.7733 14.8216C31.785 14.8199 31.7962 14.8158 31.8063 14.8095C31.8163 14.8033 31.8249 14.795 31.8316 14.7852C31.8382 14.7754 31.8427 14.7644 31.8448 14.7528C31.8469 14.7411 31.8466 14.7292 31.8438 14.7177C31.841 14.7063 31.8359 14.6955 31.8289 14.686C31.8219 14.6765 31.8131 14.6685 31.8029 14.6624C31.7928 14.6563 31.7816 14.6523 31.7699 14.6505C31.7582 14.6488 31.7463 14.6494 31.7348 14.6522C31.6868 14.6618 30.5589 14.9063 30.2385 15.2913C30.1414 15.3978 30.0711 15.5257 30.0332 15.6646C29.9954 15.8035 29.991 15.9493 30.0206 16.0901C30.0283 16.1127 30.0444 16.1314 30.0656 16.1424C30.0868 16.1534 30.1114 16.1559 30.1343 16.1493L30.1423 16.1461Z" fill="#001959"/>
<path d="M32.8386 17.8215C32.8386 17.8215 31.8869 18.8217 31.1323 19.047C31.1323 19.047 31.5521 19.4752 32.0279 19.3937C32.1912 19.354 32.3441 19.2797 32.4762 19.176C32.6082 19.0722 32.7164 18.9413 32.7932 18.7922C32.8701 18.6431 32.914 18.4793 32.9218 18.3118C32.9296 18.1443 32.9012 17.9771 32.8386 17.8215Z" fill="white"/>
<path d="M33.3495 13.4936C33.3495 13.4936 33.7372 14.2813 33.3495 14.489C32.9618 14.6967 32.518 14.1902 32.6141 13.7669C32.7102 13.3435 33.2549 13.2588 33.3495 13.4936Z" fill="#E8A672"/>
<path d="M30.6054 16.2948C30.648 16.3583 30.713 16.4036 30.7874 16.4216C30.8619 16.4397 30.9404 16.4292 31.0075 16.3923C31.035 16.3678 31.0572 16.338 31.0729 16.3047C31.0885 16.2714 31.0971 16.2352 31.0983 16.1985C31.0995 16.1617 31.0932 16.1251 31.0798 16.0909C31.0664 16.0566 31.0462 16.0255 31.0203 15.9992C30.9772 15.9363 30.9122 15.8916 30.8378 15.8739C30.7635 15.8562 30.6852 15.8667 30.6182 15.9034C30.5907 15.9277 30.5685 15.9574 30.5529 15.9906C30.5373 16.0237 30.5287 16.0597 30.5275 16.0964C30.5263 16.133 30.5326 16.1695 30.546 16.2036C30.5594 16.2377 30.5796 16.2687 30.6054 16.2948Z" fill="#001959"/>
<path d="M29.0638 17.2898C29.1069 17.3528 29.1719 17.3975 29.2463 17.4152C29.3206 17.4329 29.3989 17.4224 29.4659 17.3857C29.4931 17.361 29.515 17.331 29.5304 17.2977C29.5457 17.2643 29.5541 17.2282 29.5552 17.1915C29.5562 17.1549 29.5499 17.1183 29.5364 17.0842C29.523 17.05 29.5029 17.0189 29.4771 16.9926C29.434 16.9297 29.3689 16.885 29.2946 16.8673C29.2203 16.8496 29.142 16.8601 29.075 16.8968C29.0476 16.9214 29.0255 16.9513 29.01 16.9846C28.9945 17.018 28.986 17.0542 28.985 17.0909C28.9839 17.1277 28.9904 17.1642 29.0039 17.1984C29.0175 17.2326 29.0378 17.2637 29.0638 17.2898Z" fill="#001959"/>
<path d="M29.3844 16.5277C29.3956 16.5306 29.4061 16.5358 29.4152 16.543C29.4243 16.5501 29.4319 16.5591 29.4373 16.5693C29.4427 16.5796 29.4459 16.5908 29.4468 16.6024C29.4476 16.6139 29.446 16.6255 29.442 16.6364C29.438 16.6493 29.431 16.6611 29.4215 16.6708C29.412 16.6805 29.4004 16.6879 29.3876 16.6923C29.3672 16.6987 29.3454 16.6987 29.3251 16.6923C29.1889 16.6508 28.7884 16.5597 28.5833 16.6364C28.5336 16.6545 28.485 16.6753 28.4375 16.6987C28.4007 16.6508 28.367 16.6028 28.3318 16.5549C28.3939 16.525 28.4575 16.4984 28.5224 16.475C28.8268 16.3616 29.3619 16.5198 29.3844 16.5277Z" fill="#001959"/>
<path d="M110.849 78.6639H109.84C108.879 78.6639 107.985 80.2057 107.985 82.2667C107.985 84.3278 108.597 86.1827 109.55 86.1827H111.171L110.849 78.6639Z" fill="url(#paint0_linear)"/>
<path d="M113.095 82.4233C113.095 84.5003 112.205 86.1827 111.106 86.1827C110.006 86.1827 109.116 84.5003 109.116 82.4233C109.116 80.3463 110.006 78.6639 111.106 78.6639C112.205 78.6639 113.095 80.3479 113.095 82.4233Z" fill="#591321"/>
<path d="M103.518 82.0478C103.518 82.0478 103.757 77.3042 106.866 74.2031C109.976 71.1019 114.571 70.9725 118.61 71.4518C122.649 71.9311 123.339 76.5389 123.339 79.5058V84.5945C123.339 84.5945 104.422 85.2831 103.518 84.382C103.116 83.9778 103.518 82.0478 103.518 82.0478Z" fill="#FB8603"/>
<path style="mix-blend-mode:multiply" opacity="0.54" d="M118.61 71.4521C114.725 70.992 110.324 71.0974 107.235 73.8662C109.886 72.8309 112.948 72.8693 115.744 73.2C119.782 73.6793 120.473 78.2871 120.473 81.2556V84.6858C122.206 84.6363 123.347 84.5948 123.347 84.5948V79.5029C123.339 76.536 122.649 71.9314 118.61 71.4521Z" fill="url(#paint1_linear)"/>
<path d="M103.02 84.6167C104.905 86.0083 123.983 84.842 123.983 84.842L124.09 78.5486C124.09 78.5486 120.104 77.7019 118.191 78.7611C116.279 79.8204 116.139 82.1562 116.139 82.1562C110.852 82.5541 103.172 81.6993 103.172 81.6993C102.699 82.1355 102.491 84.2332 103.02 84.6167Z" fill="#4F64EB"/>
<path d="M120.141 79.6816H118.935C117.794 79.6816 116.87 81.3512 116.87 83.4107C116.867 84.0036 116.941 84.5944 117.091 85.1682C118.296 85.125 119.43 85.0771 120.415 85.0308L120.141 79.6816Z" fill="#2E050E"/>
<path d="M120.204 79.6816H119.201C118.24 79.6816 117.346 81.2234 117.346 83.2845C117.346 85.3455 117.958 87.2004 118.911 87.2004H120.532L120.204 79.6816Z" fill="#591321"/>
<path d="M107.398 80.6673C107.398 81.3544 106.898 81.912 106.277 81.912C105.655 81.912 105.155 81.3544 105.155 80.6673C105.155 79.9803 105.657 79.4211 106.277 79.4211C106.897 79.4211 107.398 79.9787 107.398 80.6673Z" fill="url(#paint2_linear)"/>
<path d="M105.718 80.3019C101.801 84.563 94.1154 83.304 90.4834 78.9726C87.4394 75.3459 86.8979 69.3864 87.5596 61.652L86.0889 68.4454C86.1978 73.2257 87.1078 77.1209 89.41 79.8674C93.5851 84.8458 102.251 86.1383 106.748 81.2446C107.373 80.5592 106.343 79.6197 105.718 80.3019Z" fill="#B9BBFF"/>
<path d="M86.4622 72.7716C86.9572 73.0752 87.3513 72.8978 87.8271 72.5735C87.7506 72.6796 87.6582 72.7733 87.5532 72.8515C87.1062 73.163 86.6688 73.0336 86.4622 72.7716Z" fill="#8C90FF"/>
<path d="M86.7839 74.3663C87.2501 74.435 87.718 74.0963 88.0848 73.8518C87.6939 74.3918 87.1092 74.5388 86.7839 74.3663Z" fill="#8C90FF"/>
<path d="M87.2952 76.186C87.8367 76.1109 88.3381 75.9607 88.5576 75.4846C88.4903 76.0486 87.8367 76.2915 87.2952 76.186Z" fill="#8C90FF"/>
<path d="M87.0935 75.4844C87.8753 75.4557 88.1541 75.2064 88.3752 74.9141C88.207 75.4461 87.5966 75.6442 87.0935 75.4844Z" fill="#8C90FF"/>
<path d="M100.032 82.9023C100.503 83.134 100.647 83.7667 100.173 84.2891C100.415 83.7443 100.445 83.3545 100.032 82.9023Z" fill="#8C90FF"/>
<path d="M101.642 82.6536C102.113 82.7878 102.334 83.4013 101.783 84.0516C102.014 83.4876 102.16 83.0114 101.642 82.6536Z" fill="#8C90FF"/>
<path d="M100.905 82.7953C101.341 83.1548 101.49 83.7938 101.001 84.1901C101.219 83.8482 101.334 83.5031 100.905 82.7953Z" fill="#8C90FF"/>
<path d="M103.234 82.1006C103.819 82.2348 104.228 82.7716 103.853 83.3516C103.963 82.9218 103.971 82.5464 103.234 82.1006Z" fill="#8C90FF"/>
<path d="M102.699 82.3241C103.127 82.5829 103.46 83.1805 103.143 83.6374C103.287 83.1533 103.034 82.7283 102.699 82.3241Z" fill="#8C90FF"/>
<path d="M120.46 87.2004C121.559 87.2004 122.45 85.5173 122.45 83.441C122.45 81.3648 121.559 79.6816 120.46 79.6816C119.361 79.6816 118.47 81.3648 118.47 83.441C118.47 85.5173 119.361 87.2004 120.46 87.2004Z" fill="#B9C1F7"/>
<path d="M121.263 83.4347C121.263 84.2735 120.904 84.9525 120.462 84.9525C120.02 84.9525 119.661 84.2735 119.661 83.4347C119.661 82.5959 120.02 81.9185 120.462 81.9185C120.904 81.9185 121.263 82.6039 121.263 83.4347Z" fill="#FFF7CF"/>
<path d="M103.604 81.2569C103.883 76.5485 106.789 72.4041 111.476 71.6787C107.703 72.9856 104.994 75.4205 103.604 81.2569Z" fill="#FBE1FF"/>
<path d="M100.192 28.0122C100.192 28.0122 103.433 42.4314 105.988 45.3185C108.544 48.2055 110.729 54.3646 110.729 54.3646L108.73 55.1555C108.73 55.1555 105.011 50.6404 103.145 47.0839C102.275 45.4287 99.508 40.2618 99.0081 36.1924C98.4362 31.5223 100.192 28.0122 100.192 28.0122Z" fill="#E8A672"/>
<path d="M98.0436 12.7011C98.0436 12.7011 99.7755 13.4009 100.617 14.2748C101.458 15.1488 101.841 16.8839 101.672 18.2579C101.504 19.6319 101.144 19.8795 101.144 19.8795C101.144 19.8795 101.945 21.7968 101.698 23.4488C101.451 25.1008 99.6553 26.6698 98.4762 26.8934C98.4762 26.8934 100.109 24.9474 99.8924 23.9233C99.8924 23.9233 98.7165 25.5961 97.539 26.2448C96.3614 26.8934 90.6644 32.594 86.9812 28.5215C86.9812 28.5215 89.9915 27.1682 89.0062 24.4729C88.021 21.7776 90.7365 19.3299 90.7365 19.3299C90.7365 19.3299 88.6217 20.5042 87.5163 18.9305C86.4109 17.3568 88.3093 16.1361 88.4055 16.2352C88.5016 16.3343 87.6605 17.7578 88.6458 18.1333C89.6311 18.5087 89.8602 16.9973 91.4094 15.3868C92.9586 13.7763 97.2987 11.9278 98.0436 12.7011Z" fill="#323232"/>
<path d="M101.06 89.1642L101.821 92.3005L104.141 91.6263C104.141 91.6263 103.981 90.3833 103.699 88.4309L101.06 89.1642Z" fill="#F3B98B"/>
<path d="M86.8162 88.3618V91.5875L89.2193 91.4709C89.2193 91.4709 89.3603 90.2263 89.5397 88.2627L86.8162 88.3618Z" fill="#F3B98B"/>
<path d="M97.5632 26.9689L98.4844 20.9503L95.3764 20.7299L94.4568 25.6955C95.1265 26.3314 96.3328 27.6048 97.5632 26.9689Z" fill="#F3B98B"/>
<path d="M98.0821 23.5802L98.4842 20.9503L95.3761 20.7299L95.0093 22.6822C95.0445 22.7302 95.0846 22.7765 95.1262 22.8228C95.7062 23.4587 96.9894 24.4797 98.0821 23.5802Z" fill="#E8A672"/>
<path d="M98.9329 14.1151C98.9329 14.1151 100.205 14.5656 100.205 16.2895C100.205 16.2895 100.066 20.2375 98.4843 22.2106C97.3244 23.6486 95.7783 22.5685 95.1327 21.9246C94.1907 20.9852 94.4582 19.7086 94.4582 17.9847C94.4582 16.2608 97.1946 12.8896 98.9329 14.1151Z" fill="#F3B98B"/>
<path d="M96.8455 18.2899C96.8396 18.3538 96.8152 18.4145 96.7753 18.4648C96.7354 18.5151 96.6817 18.5527 96.6207 18.5731C96.5597 18.5935 96.4941 18.5958 96.4319 18.5797C96.3697 18.5635 96.3135 18.5297 96.2701 18.4823C96.2268 18.435 96.1982 18.376 96.1879 18.3127C96.1776 18.2494 96.1859 18.1845 96.2119 18.1259C96.2379 18.0672 96.2804 18.0174 96.3343 17.9824C96.3882 17.9474 96.4511 17.9288 96.5154 17.9288C96.5609 17.9309 96.6055 17.9419 96.6467 17.9611C96.6879 17.9804 96.7249 18.0076 96.7555 18.0411C96.7862 18.0746 96.8099 18.1139 96.8254 18.1566C96.8408 18.1993 96.8476 18.2446 96.8455 18.2899Z" fill="#2D1E66"/>
<path d="M99.5094 18.6195C99.5038 18.6834 99.4797 18.7444 99.4399 18.7949C99.4002 18.8454 99.3466 18.8833 99.2856 18.9039C99.2246 18.9245 99.159 18.927 99.0966 18.9111C99.0343 18.8951 98.9779 18.8614 98.9344 18.8141C98.891 18.7667 98.8623 18.7078 98.8518 18.6444C98.8414 18.5811 98.8496 18.5161 98.8756 18.4573C98.9016 18.3986 98.9441 18.3486 98.9981 18.3136C99.052 18.2786 99.115 18.2599 99.1794 18.26C99.2709 18.2642 99.3571 18.3043 99.4189 18.3717C99.4808 18.4391 99.5133 18.5282 99.5094 18.6195Z" fill="#2D1E66"/>
<path d="M95.5923 18.1876C95.5923 18.1876 96.2187 17.777 96.6833 17.8937C97.1479 18.0103 97.2088 18.2899 97.2088 18.2899C96.9522 18.1115 96.6373 18.0367 96.3276 18.0806C95.8246 18.1637 95.5923 18.1876 95.5923 18.1876Z" fill="#E8A672"/>
<path d="M100.192 18.8126C100.192 18.8126 99.6889 18.2582 99.2115 18.2518C98.734 18.2454 98.6011 18.5027 98.6011 18.5027C98.8951 18.3948 99.2192 18.4022 99.5079 18.5234C99.9757 18.7279 100.192 18.8126 100.192 18.8126Z" fill="#E8A672"/>
<path d="M98.1943 19.0471C98.2561 19.387 98.3466 19.7211 98.4651 20.0457C98.2864 20.1549 98.091 20.2342 97.8867 20.2805C98.425 20.3029 98.5772 20.0872 98.6012 20.0792C98.4901 19.7261 98.3541 19.3812 98.1943 19.0471Z" fill="#2D1E66"/>
<path d="M96.8999 19.5106C96.8999 19.7886 96.5362 20.0155 96.0892 20.0155C95.6422 20.0155 95.2786 19.7886 95.2786 19.5106C95.2786 19.2326 95.6422 19.0073 96.0892 19.0073C96.5362 19.0073 96.8999 19.2326 96.8999 19.5106Z" fill="#E8A672"/>
<path d="M99.6233 19.2422C99.2836 19.2422 99.0081 19.4547 99.0081 19.7215C99.0081 19.9548 99.2259 20.1481 99.5143 20.188C99.6152 19.8813 99.7034 19.5697 99.7771 19.263C99.7266 19.2511 99.6751 19.2441 99.6233 19.2422Z" fill="#E8A672"/>
<path d="M99.8715 13.6677C99.8715 13.6677 100.086 16.1313 97.9827 16.2863C96.7479 16.3671 95.5583 16.7813 94.5414 17.4846L93.6042 20.2837C93.6042 20.2837 93.1508 18.1237 93.2117 16.5387C93.2726 14.9538 95.5427 12.749 97.0567 12.5445C98.5706 12.34 99.8715 13.6677 99.8715 13.6677Z" fill="#323232"/>
<path d="M94.8283 17.8604C94.8283 17.8604 94.6809 17.3379 94.2195 17.4529C93.7581 17.568 93.984 18.9212 94.2195 19.1561C94.455 19.391 95.2833 19.2072 94.8283 17.8604Z" fill="#E8A672"/>
<path d="M94.7098 18.1223C94.7098 18.1223 94.4358 17.4832 94.2196 17.6957C94.0033 17.9082 94.2628 18.8525 94.4519 18.8525C94.6409 18.8525 94.7098 18.1223 94.7098 18.1223Z" fill="#E8A672"/>
<path d="M96.7459 21.0236C96.6898 20.9836 96.7074 20.9693 96.6674 21.0236C96.5536 21.1834 96.7507 21.6898 97.0887 21.7969C97.5261 21.9359 98.1525 21.6371 98.1525 21.3767C98.1525 21.2952 97.5806 21.6115 96.7459 21.0236Z" fill="white"/>
<path d="M95.8103 17.3669C95.8103 17.3669 96.5841 17.0889 96.8933 17.0889C97.2026 17.0889 97.6255 17.4436 97.5454 17.6529C97.4653 17.8622 97.0936 17.3046 96.8389 17.3046C96.5841 17.3046 95.8103 17.3669 95.8103 17.3669Z" fill="#323232"/>
<path d="M99.8716 18.0407C99.8716 18.0407 99.6874 17.5917 99.391 17.5007C99.0946 17.4096 98.59 17.6285 98.6028 17.8506C98.6156 18.0726 99.1363 17.6492 99.3798 17.7243C99.5631 17.7962 99.7303 17.9037 99.8716 18.0407Z" fill="#323232"/>
<path d="M86.9202 42.2136C86.9202 42.2136 83.5879 49.7228 83.5879 52.0586C83.5879 54.3945 85.3358 88.6268 85.3358 88.6268L90.7973 88.8664C90.7973 88.8664 90.5634 56.8709 91.3853 56.0513C92.2071 55.2317 93.0306 55.3483 93.0306 55.3483L100.062 89.3793L105.158 88.9927C105.158 88.9927 102.435 56.5242 101.022 53.0093C99.6088 49.4943 96.5568 42.2136 96.5568 42.2136H86.9202Z" fill="#E1E1E1"/>
<path d="M91.9188 46.3954C89.9967 46.3681 88.1194 45.8119 86.4941 44.7881L86.7633 44.4078C86.8034 44.4366 90.9864 47.2837 95.4899 45.1092L95.695 45.5278C94.5193 46.1009 93.2275 46.3977 91.9188 46.3954Z" fill="#4C969C"/>
<path d="M91.8547 44.7702C91.8551 44.88 91.8227 44.9874 91.7617 45.0788C91.7008 45.1702 91.614 45.2415 91.5123 45.2837C91.4107 45.3258 91.2988 45.337 91.1908 45.3156C91.0828 45.2943 90.9836 45.2414 90.9057 45.1638C90.8279 45.0862 90.7749 44.9873 90.7535 44.8796C90.7321 44.7719 90.7433 44.6603 90.7855 44.5589C90.8278 44.4575 90.8993 44.371 90.991 44.3102C91.0826 44.2494 91.1903 44.2171 91.3004 44.2174C91.4474 44.2174 91.5884 44.2756 91.6924 44.3793C91.7963 44.483 91.8547 44.6236 91.8547 44.7702Z" fill="#4C969C"/>
<path d="M89.8609 42.8112L89.5518 45.8889L90.0156 45.9353L90.3248 42.8575L89.8609 42.8112Z" fill="#4C969C"/>
<path d="M100.192 27.5149C99.1232 26.7161 97.9281 26.2463 96.938 25.8373C93.6265 24.4665 91.2266 23.9345 89.7927 23.5334C86.6766 28.2243 85.6769 34.3563 85.4895 40.1815C86.0102 41.629 85.5007 41.4916 86.9202 42.2169C90.6194 44.1102 93.9149 43.7411 96.2619 42.7234C97.4379 42.2137 98.0082 39.1046 98.641 38.4735C100.538 36.5834 100.855 28.0118 100.192 27.5149Z" fill="#F7D364"/>
<path d="M96.9317 25.8391C93.6282 24.4715 94.2787 24.9972 92.9361 23.9363C92.7246 26.0037 92.9073 31.6867 95.0092 33.1023C97.4476 34.7463 98.2374 29.9772 98.944 26.6715C96.6001 25.0866 98.9504 26.6715 96.9317 25.8391Z" fill="#F3B98B"/>
<path d="M89.2738 90.8143L89.0286 93.3402C88.9293 94.3659 89.3042 95.2239 88.0129 95.3118C86.7216 95.3997 85.4063 94.9092 85.339 94.2333C85.2717 93.5575 86.6736 92.11 86.7376 91.447C86.8017 90.7839 87.1926 90.5475 87.3785 90.7791C87.5643 91.0108 89.2738 90.8143 89.2738 90.8143Z" fill="#70A3FF"/>
<path d="M88.875 94.9257C88.6346 95.1493 88.3158 95.1557 87.9698 95.1397C87.2296 95.1078 85.6227 94.9161 85.3392 94.2386C85.3288 94.3313 85.3377 94.425 85.3652 94.5141C85.3928 94.6032 85.4385 94.6856 85.4994 94.7563C86.3212 95.7868 88.6843 95.7565 88.875 94.9257Z" fill="#385280"/>
<path d="M86.8256 92.1149C86.7503 92.9601 87.8942 93.3179 88.3219 92.5846L88.3411 92.5494C88.6762 91.974 88.9732 91.3773 89.2303 90.7632C89.3905 90.4645 89.5908 90.0539 88.9547 89.688C88.3187 89.3221 87.3527 89.263 87.3174 89.5634C87.2982 89.7647 86.9393 90.8447 86.8256 92.1149Z" fill="#385280"/>
<path d="M88.9549 89.6881C89.5957 90.054 89.3874 90.4646 89.2304 90.7633C88.9733 91.3774 88.6763 91.9741 88.3412 92.5496L88.322 92.5847C88.2857 92.6475 88.2416 92.7055 88.1906 92.7573C88.2019 92.7397 88.2131 92.7221 88.2227 92.7046L88.2435 92.6694C88.5791 92.0937 88.8761 91.4964 89.1327 90.8816C89.2929 90.5828 89.4932 90.1722 88.8571 89.8063C88.3348 89.5076 87.5866 89.4133 87.3191 89.5555C87.3656 89.2631 88.3252 89.3254 88.9549 89.6881Z" fill="white"/>
<path d="M88.1731 92.7736C88.1731 92.7736 88.3013 90.9058 88.5752 90.8563C88.8065 90.8235 89.0402 90.8096 89.2737 90.8148C89.2737 90.8148 88.9533 92.6809 88.6073 92.9669C88.2612 93.2529 88.1731 92.7736 88.1731 92.7736Z" fill="#5491FF"/>
<path d="M86.7842 91.2778C86.7833 91.2897 86.7851 91.3016 86.7896 91.3127C86.794 91.3238 86.8009 91.3337 86.8098 91.3417C87.5163 91.9808 88.6202 91.5142 88.6666 91.5015C88.676 91.4976 88.6845 91.492 88.6917 91.4848C88.6988 91.4776 88.7044 91.4691 88.7081 91.4597C88.7119 91.4503 88.7137 91.4402 88.7134 91.4301C88.7132 91.42 88.7109 91.41 88.7067 91.4008C88.6986 91.3822 88.6834 91.3675 88.6645 91.36C88.6456 91.3526 88.6244 91.3529 88.6057 91.3609C88.5961 91.3609 87.5452 91.8034 86.9123 91.2363C86.8977 91.2222 86.8782 91.2144 86.8579 91.2144C86.8375 91.2144 86.818 91.2222 86.8034 91.2363C86.7931 91.2479 86.7864 91.2624 86.7842 91.2778Z" fill="white"/>
<path d="M86.6674 92.0204C86.6667 92.0319 86.6684 92.0435 86.6726 92.0542C86.6767 92.065 86.6832 92.0747 86.6914 92.0827C87.1272 92.4965 88.4329 92.2217 88.4874 92.2106C88.5074 92.2063 88.5248 92.1943 88.5359 92.1773C88.5471 92.1602 88.5509 92.1394 88.5467 92.1195C88.5424 92.0996 88.5304 92.0822 88.5133 92.0711C88.4962 92.06 88.4753 92.0561 88.4553 92.0604C88.0997 92.1371 87.1096 92.2697 86.7972 91.9725C86.79 91.9654 86.7815 91.9597 86.7722 91.9558C86.7628 91.9519 86.7528 91.95 86.7427 91.95C86.7326 91.95 86.7226 91.9519 86.7132 91.9558C86.7039 91.9597 86.6954 91.9654 86.6882 91.9725C86.6762 91.9858 86.6689 92.0026 86.6674 92.0204Z" fill="white"/>
<path d="M86.5646 92.5529C86.5633 92.5731 86.5696 92.593 86.5822 92.6088C86.9219 93.0194 88.3061 92.8325 88.4631 92.8101C88.473 92.8088 88.4826 92.8055 88.4912 92.8004C88.4999 92.7953 88.5074 92.7885 88.5133 92.7805C88.5193 92.7724 88.5236 92.7633 88.526 92.7536C88.5284 92.7438 88.5288 92.7338 88.5272 92.7239C88.524 92.7039 88.5132 92.686 88.4971 92.6738C88.481 92.6616 88.4608 92.6561 88.4407 92.6584C88.0385 92.7175 86.9411 92.8038 86.7008 92.5114C86.6875 92.496 86.6686 92.4863 86.6483 92.4846C86.6279 92.4828 86.6077 92.489 86.5919 92.5018C86.5841 92.508 86.5777 92.5158 86.573 92.5246C86.5683 92.5334 86.5654 92.543 86.5646 92.5529Z" fill="white"/>
<path d="M88.4119 93.5416C88.4119 93.5416 88.6442 94.5385 88.4392 94.7079C88.2341 94.8772 85.8149 94.6088 85.855 94.1902C85.895 93.7716 86.5215 93.0015 86.7441 92.96C86.9668 92.9185 88.4119 93.5416 88.4119 93.5416Z" fill="#5491FF"/>
<path d="M104.691 89.53C104.691 89.53 103.356 89.7489 103.321 90.6324C103.286 91.516 104.391 92.7094 104.391 92.7094L105.424 92.0096C105.116 91.6322 104.925 91.1728 104.875 90.6884C104.839 90.2986 104.778 89.9117 104.691 89.53Z" fill="#5491FF"/>
<path d="M101.474 94.4701L103.757 94.5212C104.697 94.542 106.194 94.689 106.663 94.7002C107.132 94.7113 108.859 93.6441 108.755 93.2798C108.651 92.9155 107.107 92.9731 106.31 92.5481C105.514 92.1231 104.144 91.1102 103.861 91.0047C103.417 90.845 102.259 91.2428 101.983 91.5064C101.708 91.77 101.245 94.2288 101.474 94.4701Z" fill="#547ABF"/>
<path d="M101.824 93.8596C105.586 93.3548 104.492 94.4683 108.18 93.5305C107.281 93.8708 105.953 94.1983 105.009 93.9922C104.488 93.8957 103.959 93.8481 103.428 93.85C102.895 93.8389 102.36 93.8484 101.824 93.8596Z" fill="#385280"/>
<path d="M104.369 92.9135C104.393 92.9431 104.428 92.9621 104.466 92.9663C104.504 92.9705 104.542 92.9595 104.572 92.9359C104.931 92.6462 105.317 92.3905 105.724 92.1722C105.638 92.1115 105.551 92.0476 105.463 91.9821C105.087 92.1955 104.728 92.4386 104.391 92.709C104.361 92.7334 104.342 92.7685 104.338 92.8067C104.334 92.8449 104.345 92.8833 104.369 92.9135Z" fill="white"/>
<path d="M104.209 92.3148C104.225 92.3246 104.243 92.331 104.262 92.3337C104.281 92.3365 104.3 92.3354 104.319 92.3307C104.337 92.3259 104.354 92.3175 104.37 92.306C104.385 92.2945 104.398 92.2802 104.407 92.2637C104.637 91.9535 104.888 91.6598 105.159 91.385C105.139 91.2836 105.088 91.1911 105.011 91.1213C104.709 91.4364 104.424 91.7682 104.159 92.1151C104.149 92.1315 104.142 92.1496 104.14 92.1685C104.137 92.1874 104.138 92.2067 104.142 92.2252C104.147 92.2438 104.155 92.2613 104.166 92.2766C104.178 92.292 104.192 92.305 104.209 92.3148Z" fill="white"/>
<path d="M84.7783 87.255L91.0954 87.418V88.8527L84.7783 88.7552V87.255Z" fill="#84D3D9"/>
<path d="M99.3477 88.2085L105.724 87.7963V88.9849L99.6376 89.5298L99.3477 88.2085Z" fill="#84D3D9"/>
<path d="M130.943 91.062L132.611 91.0172L107.448 49.4451L105.989 50.3238L130.943 91.062Z" fill="#FFCB57"/>
<path d="M109.749 54.596L129.24 86.7305L110.147 54.3564C110.114 54.3074 110.063 54.273 110.005 54.26C109.947 54.2471 109.886 54.2566 109.835 54.2867C109.784 54.3168 109.746 54.3652 109.73 54.4221C109.713 54.4789 109.719 54.54 109.745 54.5929L109.749 54.596Z" fill="#FFF7CF"/>
<path d="M108.247 50.567C107.674 51.0335 106.362 51.0463 105.944 50.4344C104.702 48.6306 102.645 45.1524 100.737 44.6987C98.1093 44.0756 94.0496 44.1059 94.0496 44.1059L93.9519 42.7974C93.9519 42.7974 97.7969 42.8581 99.4999 42.8581C101.203 42.8581 101.435 43.077 101.435 43.077C101.435 43.077 99.3173 40.7891 98.9008 39.9982C98.4842 39.2074 99.0257 38.8335 100.022 39.332C101.019 39.8305 108.247 50.567 108.247 50.567Z" fill="url(#paint3_linear)"/>
<path d="M97.3531 41.4963C96.8949 41.3733 95.6117 40.3125 95.6117 40.3125C92.8352 38.8026 88.0514 35.8597 87.9392 35.04C87.763 33.7395 90.9832 28.6157 90.9832 25.9843C90.9832 23.6117 89.152 22.3399 87.2984 24.5623C86.4797 25.5433 83.1986 33.7539 83.0641 36.3853C82.9583 38.4623 90.6868 40.6991 94.6296 42.2744C94.9015 42.4562 95.0948 42.7334 95.1711 43.0509C95.3169 43.7124 95.8119 44.6246 96.206 44.6246C96.6001 44.6246 96.802 44.4313 97.1529 44.5927C97.5037 44.7541 97.8802 44.5543 98.1141 44.5192C98.348 44.484 99.0289 44.7557 99.3525 44.4345C99.6762 44.1134 97.8129 41.621 97.3531 41.4963Z" fill="#F3B98B"/>
<path d="M110.468 55.6845C110.378 55.7724 109.987 55.7564 109.843 55.782C110.163 55.8203 110.729 55.9769 110.729 56.1782C110.729 56.4498 110.385 56.485 110.123 56.4722C110.417 56.5153 110.832 56.6048 110.832 56.7742C110.832 57.0362 110.063 57.2231 110.063 57.2231C109.698 57.0406 109.363 56.8047 109.069 56.5233C108.633 56.0903 107.97 54.2866 107.97 53.8839C107.97 53.8775 110.743 55.4081 110.468 55.6845Z" fill="#FD5E5A"/>
<path d="M110.823 54.0609C110.823 54.0609 111.304 55.1313 111.304 55.5387C111.304 55.9462 111.33 56.991 110.823 56.8904C110.317 56.7897 110.905 55.6777 110.599 55.1729C110.293 54.668 110.389 53.3978 110.389 53.3978L110.823 54.0609Z" fill="#FC7575"/>
<path d="M135.653 93.1806L132.633 91.0637L131.974 88.0312L128.437 88.3716L129.994 91.5734L127.567 93.2653L135.653 93.1806Z" fill="#280D0D"/>
<path d="M125.345 94.9576V95.397H127.646L127.79 95.1014L127.827 95.397H133.46L133.492 95.1781L133.593 95.397H134.743L134.802 95.1781L134.869 95.397H136.67V95.1446L136.802 95.397H137.894L138.026 95.1014L138.088 95.397H138.748V94.9576H125.345Z" fill="#280D0D"/>
<path d="M126.296 92.7798H137.654C138.048 92.7798 138.425 92.9358 138.704 93.2136C138.982 93.4913 139.139 93.868 139.139 94.2608V94.959H124.808V94.2608C124.808 94.0661 124.847 93.8732 124.921 93.6933C124.996 93.5134 125.106 93.35 125.244 93.2125C125.382 93.0749 125.547 92.9658 125.727 92.8916C125.908 92.8174 126.101 92.7794 126.296 92.7798Z" fill="#00648C"/>
<path d="M126.037 93.6119L138.149 93.3434C138.22 93.342 138.289 93.3688 138.341 93.4181C138.392 93.4674 138.422 93.5351 138.423 93.6063C138.425 93.6774 138.398 93.7463 138.349 93.7977C138.299 93.8491 138.231 93.8788 138.16 93.8803H138.149L126.037 93.6119Z" fill="url(#paint4_linear)"/>
<path d="M99.0147 14.6042C99.0147 14.6042 95.2113 16.8697 94.8348 17.8603C94.4583 18.8508 93.1446 20.2696 94.0162 23.4618C94.8877 26.654 91.5602 28.0168 90.3634 27.0151C89.1666 26.0133 89.4022 23.8884 90.3634 24.045C90.3634 24.045 90.8216 25.0132 91.5682 24.2702C92.3148 23.5273 91.6643 20.8 91.5361 19.049C91.408 17.2979 95.8105 10.26 99.0147 14.6042Z" fill="#323232"/>
<defs>
<linearGradient id="paint0_linear" x1="107.985" y1="82.4233" x2="111.171" y2="82.4233" gradientUnits="userSpaceOnUse">
<stop stop-color="#18898A"/>
<stop offset="1" stop-color="#2C9D9E"/>
</linearGradient>
<linearGradient id="paint1_linear" x1="107.227" y1="77.9611" x2="123.341" y2="77.9611" gradientUnits="userSpaceOnUse">
<stop stop-color="#FFE5B8"/>
<stop offset="1" stop-color="#FFC870"/>
</linearGradient>
<linearGradient id="paint2_linear" x1="105.165" y1="80.6658" x2="107.398" y2="80.6658" gradientUnits="userSpaceOnUse">
<stop stop-color="#931153"/>
<stop offset="1" stop-color="#3C3E69"/>
</linearGradient>
<linearGradient id="paint3_linear" x1="108.247" y1="45.0054" x2="93.9519" y2="45.0054" gradientUnits="userSpaceOnUse">
<stop stop-color="#931171"/>
<stop offset="1" stop-color="#3C3E69"/>
</linearGradient>
<linearGradient id="paint4_linear" x1="4835.13" y1="405.647" x2="3877.4" y2="405.647" gradientUnits="userSpaceOnUse">
<stop stop-color="#18898A"/>
<stop offset="1" stop-color="#2C9D9E"/>
</linearGradient>
</defs>
</svg>
