<svg width="136" height="110" viewBox="0 0 136 110" fill="none" xmlns="http://www.w3.org/2000/svg">
<path d="M113.372 22.3048C112.55 23.5488 113.497 25.6618 113.825 28.251C114.543 33.9299 120.285 32.5297 120.285 32.5297L120.358 31.3198C120.358 31.3198 118.171 31.058 118.228 30.1099C118.228 30.1099 120.098 30.6114 121.598 30.0978C123.098 29.5841 123.043 27.6361 123.043 27.6361C123.043 27.6361 121.47 29.3553 119.939 28.9561C118.408 28.5568 118.282 27.3436 118.282 27.3436C118.282 27.3436 119.659 28.5931 120.839 28.3621C122.019 28.1311 122.256 27.282 122.256 27.282C122.256 27.282 120.005 27.8561 119.43 26.6451C118.855 25.4341 117.571 23.7424 116.535 22.5754C115.499 21.4084 113.808 21.6415 113.372 22.3048Z" fill="#4C1E48"/>
<path d="M115.849 36.5413L116.92 36.0959C116.92 36.0959 121.914 37.5676 124.411 39.2615C126.908 40.9554 126.508 40.4208 126.508 40.4208C126.508 40.4208 124.858 39.6189 123.921 37.2552C122.984 34.8915 122.806 33.3747 122.806 33.3747C122.806 33.3747 122.271 32.8401 120.844 32.8401C119.418 32.8401 119.729 31.948 120.219 31.4575C120.71 30.9669 121.649 30.2476 122.089 30.2476C122.529 30.2476 123.227 30.9834 123.695 31.4575C124.164 31.9315 128.523 39.0536 129.371 41.0159C130.219 42.9781 129.106 44.0517 127.721 44.0517C126.336 44.0517 118.119 41.7143 118.119 41.7143L115.849 36.5413Z" fill="#DE8C50"/>
<path d="M119.108 106.497C119.108 108.431 92.4449 110 59.554 110C26.6631 110 0 108.431 0 106.497C0 104.563 26.6644 102.994 59.554 102.994C92.4436 102.994 119.108 104.562 119.108 106.497Z" fill="#E0E0E0" fill-opacity="0.7"/>
<path d="M102.932 54.4963C102.932 54.4963 102.908 54.6063 102.864 54.7999C102.271 57.4397 98.0189 76.5213 98.0189 80.0828C98.0189 80.0828 95.147 103.819 96.8089 106.181C96.8089 106.181 100.828 107.648 101.275 108.601H93.6852C93.6852 108.601 94.1317 106.814 94.1317 106.368C94.1317 105.921 91.3247 94.9462 91.3247 88.6931C91.3247 82.44 93.111 80.7164 93.111 80.2698C93.111 79.8232 92.2091 62.9174 92.2091 60.0476C92.2091 57.1779 92.2311 52.6451 92.2311 52.6451C92.2311 52.6451 91.0365 46.017 93.9128 46.017C96.7891 46.017 101.594 48.1156 101.594 48.1156L102.932 54.4963Z" fill="#EEA01F"/>
<path d="M47.5604 28.3183C47.5604 28.3183 54.5021 28.4052 55.7912 28.7726C57.0803 29.1399 71.0868 37.6116 73.8751 40.0479C76.6634 42.4843 90.044 51.8073 92.2175 55.7109C92.2175 55.7109 99.0051 56.5248 102.196 55.0509C103.914 54.2546 102.059 52.1207 102.136 50.2464C102.294 46.4385 90.3663 41.568 86.2394 39.9687C82.1124 38.3694 76.8966 36.7789 76.8966 36.7789C75.614 35.163 74.168 33.6838 72.5816 32.3649C70.0033 30.2366 59.4847 27.3372 56.5391 26.4979C53.5935 25.6587 48.8154 24.5961 47.8739 25.123C46.9323 25.6499 47.5604 28.3183 47.5604 28.3183Z" fill="#F5A623"/>
<path d="M116.998 35.9598H108.958C108.958 35.9598 106.661 45.8185 104.507 47.2066C102.353 48.5947 100.738 46.5774 100.738 46.5774C100.738 46.5774 101.588 56.49 103.216 57.1609C104.844 57.8319 113.828 48.5342 115.801 46.5609C117.774 44.5877 118.673 43.4261 118.673 41.6553C118.673 39.8844 116.998 35.9598 116.998 35.9598Z" fill="#F74F5A"/>
<path d="M114.43 40.524C114.43 40.524 114.079 40.3767 113.792 40.4701C113.505 40.5636 113.122 41.7175 113.329 42.6799C113.535 43.6423 115.031 41.5404 114.43 40.524Z" fill="#FD5E5A"/>
<path d="M109.388 37.3655L108.958 35.9598C108.958 35.9598 105.752 36.2414 104.411 39.0517C103.07 41.8621 102.651 52.1915 104.631 53.3706C106.611 54.5497 112.459 50.1808 113.552 48.0062C114.644 45.8317 115.084 44.5492 115.084 44.5492C115.084 44.5492 116.567 43.1842 117.094 42.7431C117.62 42.302 117.488 42.0699 117.094 41.7389C116.699 41.4078 116.519 41.2164 116.519 40.9755C116.519 40.7346 116.161 40.8952 115.945 40.4541C115.73 40.0131 115.204 40.1132 114.461 40.2342C113.719 40.3551 114.39 41.7598 113.72 42.0413C113.05 42.3229 113.529 42.9444 113.17 43.7275C112.811 44.5107 107.157 49.5967 106.79 49.9036C106.161 50.4327 109.902 38.482 109.388 37.3655Z" fill="#EB975A"/>
<path d="M113.705 29.2803C113.705 29.2803 116.05 35.9898 115.441 37.9697C115.099 39.0861 114.052 38.2997 113.293 38.4295C112.723 38.5252 112.203 38.0819 112.155 37.4879C112.029 35.948 111.715 33.0134 111.116 31.8255C110.279 30.1811 113.705 29.2803 113.705 29.2803Z" fill="#EB975A"/>
<path d="M113.705 29.2803C113.705 29.2803 113.908 29.784 114.176 30.543C113.929 31.8868 113.503 33.1915 112.909 34.4224C112.655 34.9794 112.355 35.5144 112.013 36.0217C111.843 34.5104 111.56 32.6977 111.116 31.8266C110.279 30.1811 113.705 29.2803 113.705 29.2803Z" fill="#DE8C50"/>
<path d="M113.864 25.4617C113.534 24.9217 112.633 24.276 111.597 23.9746C109.361 23.3235 107.358 25.4188 107.76 27.9245C107.793 28.1472 107.853 28.3651 107.939 28.5734C108.095 28.9433 108.155 29.3465 108.116 29.7459C108.076 30.1454 107.936 30.5285 107.71 30.8602C107.755 30.9481 107.823 31.022 107.907 31.0739C107.992 31.1259 108.088 31.1539 108.187 31.1549C108.526 31.1549 108.535 31.3177 108.492 31.5531C108.449 31.7885 108.35 31.8567 108.475 31.9931C108.601 32.1295 108.93 32.0976 108.93 32.0976C108.93 32.0976 108.798 32.4793 108.93 32.6255C108.958 32.6658 108.998 32.6965 109.044 32.7136C109.09 32.7307 109.14 32.7333 109.188 32.7212C109.188 32.7212 109.508 32.7773 109.509 33.0017C109.51 33.2261 109.706 33.4263 109.858 33.566C110.072 33.7618 111.314 34.623 113.068 31.7698C114.821 28.9166 114.609 26.6848 113.864 25.4617Z" fill="#EB975A"/>
<path d="M107.927 28.2699C107.927 28.2699 108.855 27.8464 109.759 28.6802C109.759 28.6802 108.764 28.1995 108.09 28.447L107.927 28.2699Z" fill="#422549"/>
<path d="M108.494 29.04C108.494 29.04 108.298 29.3282 108.371 29.4888C108.387 29.5322 108.413 29.5708 108.448 29.6008C108.483 29.6307 108.525 29.6509 108.57 29.6593L108.494 29.04Z" fill="#18287D"/>
<path d="M109.219 29.4898C108.925 29.2955 108.611 29.1326 108.283 29.0037C107.877 28.8684 107.789 28.6946 107.789 28.6946C108.042 28.8277 108.308 28.9352 108.582 29.0158C108.963 29.1148 109.219 29.4898 109.219 29.4898Z" fill="#0F1D5B"/>
<path d="M109.572 31.5695C109.417 31.8061 109.193 31.9893 108.93 32.0941C109.215 32.016 109.468 31.8497 109.653 31.619C109.661 31.6091 109.665 31.5965 109.664 31.5838C109.663 31.5711 109.657 31.5592 109.648 31.5508C109.643 31.5466 109.638 31.5435 109.632 31.5415C109.626 31.5396 109.619 31.5389 109.613 31.5395C109.607 31.5401 109.601 31.542 109.595 31.5451C109.589 31.5482 109.585 31.5524 109.581 31.5574L109.572 31.5695Z" fill="#0F1D5B"/>
<path d="M110.955 22.6141C113.39 22.1103 114.371 24.1155 115.417 25.9601C116.463 27.8046 114.172 30.2113 113.965 29.9539C113.965 29.9539 112.471 27.7859 111.57 28.0092C110.669 28.2325 107.726 26.9159 107.726 26.9159C107.737 26.8587 107.767 26.169 107.793 25.7764C107.811 25.4761 107.647 25.2968 107.811 24.9943C108.371 23.967 109.505 22.9166 110.955 22.6141Z" fill="#5C2C55"/>
<path d="M112.21 26.5102C112.959 26.9502 114.41 28.247 114.997 28.7727C115.161 28.9201 115.073 29.1731 114.945 29.3535C114.466 30.0355 114.065 30.0772 113.965 29.9563C113.965 29.9563 112.505 28.1502 111.637 27.8268C110.769 27.5034 108.384 27.1668 107.712 27.1206C107.454 27.1052 107.602 24.9439 107.811 24.9967C108.775 25.2398 110.83 25.6984 112.21 26.5102Z" fill="#F74F5A"/>
<path d="M111.569 28.0127C111.569 28.0127 110.963 27.4462 111.827 26.9248C112.69 26.4035 113.147 27.9709 112.762 28.5747C112.377 29.1786 111.569 28.0127 111.569 28.0127Z" fill="#EB975A"/>
<path d="M111.894 28.0187C111.894 28.0187 111.405 27.3312 111.838 27.2597C112.271 27.1882 112.799 27.9274 112.542 28.1892C112.285 28.4509 111.894 28.0187 111.894 28.0187Z" fill="#DE8C50"/>
<path d="M115.442 35.9598C115.442 35.9598 117.828 40.0186 116.73 40.2496C115.631 40.4805 111.331 41.124 111.331 40.2496V35.9598H115.442Z" fill="#EB975A"/>
<path d="M29.1596 13.0788C29.0244 13.0216 28.2016 12.6763 27.9299 12.6763C27.6582 12.6763 27.0313 13.5265 27.1941 13.6893C27.3569 13.8521 29.1596 13.0788 29.1596 13.0788Z" fill="#ED5454"/>
<path d="M27.5122 13.323C27.5122 13.323 25.9426 14.2612 25.9426 14.996C25.9426 15.7307 26.2605 16.9011 26.728 16.7647C27.1954 16.6283 26.8688 14.8321 26.8688 14.8321L27.7388 14.8596L27.5122 13.323Z" fill="#FC7575"/>
<path d="M28.2564 13.3231C28.2564 13.3231 27.0916 12.9095 26.8408 13.1603C26.59 13.4111 26.1468 14.5473 26.3503 14.7508C26.5537 14.9543 28.2564 13.3231 28.2564 13.3231Z" fill="#FC7575"/>
<path d="M22.3447 57.5624L24.0463 60.3122C24.0463 60.3122 27.5155 77.9188 27.5155 79.6852C27.5155 81.4517 28.7595 102.987 28.7595 102.987L28.4295 104.558L28.4955 105.409C28.4955 105.409 30.7856 105.017 32.684 105.409C34.5825 105.802 35.171 105.409 35.171 105.409C35.171 105.409 32.2265 104.034 30.9825 103.642C29.7384 103.249 30.5238 103.446 30.5238 103.446L31.44 77.1983L30.0068 49.5769L22.3447 57.5624Z" fill="#F0EDED"/>
<path d="M17.7634 46.9588C17.7634 46.8642 17.7348 46.6288 17.6864 46.2878C21.9696 46.1954 26.2461 46.157 30.6436 46.6178C30.4313 50.77 30.263 52.9886 30.263 52.9886C30.263 52.9886 24.8646 59.4958 24.0462 60.3141C23.2279 61.1325 18.2727 78.5421 18.2727 78.5421C18.2727 78.5421 10.8251 100.631 11.3487 102.332C11.8722 104.034 13.1162 107.045 13.1162 107.045H9.14551V102.286L12.9194 74.3184C12.9194 74.3184 17.7634 48.1368 17.7634 46.9588Z" fill="#F7F7F7"/>
<path d="M17.6876 46.288C17.736 46.6279 17.7646 46.8644 17.7646 46.959C17.7646 47.1702 17.6096 48.1799 17.3555 49.6967C19.6246 48.7332 25.2332 46.6169 30.6448 46.6169C26.2462 46.1571 21.9697 46.1989 17.6876 46.288Z" fill="#F0EDED"/>
<path d="M26.1811 17.6534C26.1811 17.6534 22.6613 20.6595 25.8027 27.3415C28.9441 34.0236 39.8323 35.1697 41.0191 33.7893C42.2059 32.4089 41.2182 17.2486 39.8092 14.0676C38.4002 10.8866 36.4346 12.7851 36.4346 14.0676C36.4346 15.3501 37.0638 16.328 37.8645 17.2574C38.6653 18.1869 39.0645 30.2982 36.9538 29.1366C34.843 27.9751 29.5886 16.5821 26.1811 17.6534Z" fill="#ED5454"/>
<path d="M38.5191 12.4311C38.3827 12.3739 37.5611 12.0286 37.2883 12.0286C37.0155 12.0286 36.3907 12.8777 36.5535 13.0416C36.7163 13.2055 38.5191 12.4311 38.5191 12.4311Z" fill="#ED5454"/>
<path d="M36.8703 12.6758C36.8703 12.6758 35.3018 13.6129 35.3018 14.3488C35.3018 15.0846 35.6185 16.2538 36.086 16.1175C36.5535 15.9811 36.2268 14.1849 36.2268 14.1849L37.0979 14.2124L36.8703 12.6758Z" fill="#ED5454"/>
<path d="M37.615 12.6751C37.615 12.6751 36.4513 12.2605 36.1994 12.5112C35.9476 12.762 35.5054 13.8983 35.71 14.1028C35.9146 14.3074 37.615 12.6751 37.615 12.6751Z" fill="#ED5454"/>
<path d="M18.606 3.17023C18.5488 1.82392 16.3819 1.05727 15.3777 2.81055L15.6912 3.04704C16.5469 1.68643 18.188 2.0373 18.606 3.17023Z" fill="#5C2C55"/>
<path d="M16.4773 47.4948C15.9713 43.9068 14.218 26.694 13.7626 24.2368C13.7252 24.03 13.7043 23.92 13.7043 23.92C13.7043 23.92 14.6866 18.4204 14.8824 18.2257C15.0782 18.031 19.5956 17.3083 22.737 17.3083C24.7719 17.3207 26.8044 17.4522 28.824 17.7021C28.824 17.7021 30.1989 22.0215 30.1989 26.5378C30.1989 29.0941 31.015 39.3135 30.6388 46.6159C26.2457 46.1573 20.767 47.4013 16.4773 47.4948Z" fill="#27B072"/>
<path d="M30.6234 36.4399C30.5552 34.5074 30.4672 32.6727 30.3881 31.0932C29.8832 32.1227 29.3277 32.6738 28.7591 32.3834C26.3194 31.1394 24.1284 30.6895 14.7262 18.7168C14.3852 20.1049 13.7043 23.9195 13.7043 23.9195C13.756 24.2549 13.8077 24.2197 14.1949 27.4392C17.2527 33.4679 26.7715 36.4817 30.6234 36.4399Z" fill="#1B2932"/>
<path d="M18.8972 17.5503L19.9278 10.3876L22.9669 12.1299L24.5871 17.4315C24.5871 17.4315 24.7026 23.7396 18.8972 17.5503Z" fill="#FC7575"/>
<path d="M19.9224 10.3876L22.967 12.1299L24.1296 15.9334C22.6821 15.907 20.7418 14.9864 19.6925 13.0175C19.6529 12.9438 19.6144 12.8679 19.5825 12.7909L19.9224 10.3876Z" fill="#FD5E5A"/>
<path d="M23.1297 2.51581C23.1297 2.51581 25.6826 3.59594 25.6826 5.721C25.6826 7.84606 26.6968 13.1499 25.6826 14.164C24.6685 15.1782 21.2268 14.604 19.6913 11.995C18.1558 9.38595 18.4088 3.97981 18.8972 3.49804C19.3856 3.01627 22.1805 1.56657 23.1297 2.51581Z" fill="#FC7575"/>
<path d="M21.2645 3.30163V3.49852C21.2645 3.49852 21.886 6.11634 24.275 6.54202C26.664 6.96769 26.9588 5.72147 26.9588 5.72147C26.9588 5.72147 29.4458 6.7686 29.6427 4.28166C29.8395 1.79473 27.7123 1.23816 27.7123 1.23816C27.7123 1.23816 28.4316 2.93975 27.5154 2.74287C26.5992 2.54598 27.4395 1.10617 26.4628 0.779494C25.486 0.452816 24.5863 0.976382 24.5863 0.976382C24.5863 0.976382 23.0651 0.84549 21.985 0.255929C20.9048 -0.333633 18.7545 0.160235 18.5202 1.07648C18.387 1.58271 18.2871 2.0971 18.221 2.61637C18.2397 2.43709 17.5611 2.66367 17.5336 2.68017C15.4129 3.83839 16.9836 7.13268 18.0241 9.30284C18.3272 9.94384 18.6647 10.568 19.035 11.1727C19.2142 11.4609 19.4177 11.792 19.6949 11.9944C19.6949 11.9944 18.5191 8.92776 18.8953 7.91253C19.2714 6.89729 19.7301 7.97852 19.9259 6.93139C20.1217 5.88426 19.3044 5.75227 19.3044 4.90202C19.3044 4.05178 21.2645 3.30163 21.2645 3.30163Z" fill="#5C2C55"/>
<path d="M19.841 7.99877C19.841 7.99877 18.9248 6.42697 18.3682 6.98354C17.8117 7.5401 18.8082 10.698 19.3659 10.3933C19.9235 10.0886 19.841 7.99877 19.841 7.99877Z" fill="#FC7575"/>
<path d="M25.7072 11.3807C24.9792 11.8126 24.1161 11.9566 23.2874 11.7844C23.2874 11.7844 24.065 12.6754 24.6502 12.6765C25.2353 12.6776 25.7072 11.3807 25.7072 11.3807Z" fill="white"/>
<path d="M19.5004 8.16144C19.5004 8.16144 18.8129 7.2287 18.6336 7.73687C18.4543 8.24504 19.2276 10.2403 19.5004 9.96203C19.7731 9.68374 19.5004 8.16144 19.5004 8.16144Z" fill="#FD5E5A"/>
<path d="M24.8777 9.02096C25.1604 9.58852 25.1857 9.77661 25.2638 10.3002C25.0089 10.3432 24.7519 10.3729 24.4938 10.3893C24.6995 10.3178 24.9063 10.2485 25.1142 10.1913C25.0372 9.80741 24.3674 8.18941 24.1243 8.01672C24.4113 8.13442 24.7457 8.74268 24.8777 9.02096Z" fill="#2846A6"/>
<path d="M22.3269 8.10999C22.3269 8.40037 22.4919 8.63576 22.6965 8.63576C22.9011 8.63576 23.0661 8.40037 23.0661 8.10999C23.0661 7.81961 22.9 7.58423 22.6965 7.58423C22.493 7.58423 22.3269 7.81961 22.3269 8.10999Z" fill="#2846A6"/>
<path d="M24.968 8.10999C24.968 8.40037 25.1341 8.63576 25.3376 8.63576C25.5411 8.63576 25.7072 8.40037 25.7072 8.10999C25.7072 7.81961 25.5422 7.58423 25.3376 7.58423C25.133 7.58423 24.968 7.81961 24.968 8.10999Z" fill="#2846A6"/>
<path d="M22.9035 6.55718C22.9035 6.55718 21.9411 6.3702 21.4472 6.86406C20.9534 7.35793 21.137 7.67031 21.2679 7.67031C21.3988 7.67031 21.434 6.81567 21.9279 6.86406C23.283 6.99936 23.3028 6.59238 22.9035 6.55718Z" fill="#2846A6"/>
<path d="M14.8828 18.2256C14.8828 18.2256 10.7811 21.2317 14.4428 27.9138C18.1045 34.5958 30.769 35.742 32.1516 34.3605C33.5342 32.979 32.3848 17.8197 30.7437 14.6388C30.0838 13.3474 29.0674 12.9999 28.6231 12.8954C27.6507 12.6655 26.817 13.8765 26.817 14.6388C26.817 15.9213 27.5495 16.8991 28.4834 17.8285C29.4172 18.758 29.8792 30.8693 27.423 29.7078C24.9669 28.5462 18.848 17.1532 14.8828 18.2256Z" fill="#FC7575"/>
<path d="M34.3953 15.9335H29.8658C29.0622 15.9335 28.4106 16.585 28.4106 17.3887V33.4212C28.4106 34.2249 29.0622 34.8764 29.8658 34.8764H34.3953C35.199 34.8764 35.8506 34.2249 35.8506 33.4212V17.3887C35.8506 16.585 35.199 15.9335 34.3953 15.9335Z" fill="#00CCCC"/>
<path d="M34.7102 20.2698H31.4852C31.0004 20.2686 30.5358 20.0756 30.193 19.7328C29.8503 19.39 29.6572 18.9254 29.656 18.4406C29.6572 17.9558 29.8502 17.4911 30.193 17.1481C30.5357 16.8051 31.0003 16.6118 31.4852 16.6104H34.7102C35.1951 16.6118 35.6598 16.8051 36.0028 17.148C36.3457 17.491 36.539 17.9557 36.5405 18.4406C36.539 18.9255 36.3457 19.3901 36.0027 19.7328C35.6597 20.0756 35.195 20.2687 34.7102 20.2698Z" fill="#0EE0DA"/>
<path d="M34.9565 24.6256H31.7337C31.2488 24.6242 30.7843 24.4309 30.4415 24.0879C30.0988 23.7449 29.9057 23.2802 29.9045 22.7954C29.9057 22.3106 30.0988 21.846 30.4416 21.5032C30.7844 21.1604 31.2489 20.9673 31.7337 20.9662H34.9565C35.4414 20.9673 35.9061 21.1604 36.249 21.5032C36.592 21.8459 36.7853 22.3105 36.7868 22.7954C36.7853 23.2803 36.592 23.745 36.2491 24.088C35.9062 24.4309 35.4415 24.6242 34.9565 24.6256Z" fill="#0EE0DA"/>
<path d="M34.9926 25.3207H31.9546C30.9626 25.3207 30.1584 26.1249 30.1584 27.1169V27.184C30.1584 28.176 30.9626 28.9801 31.9546 28.9801H34.9926C35.9846 28.9801 36.7888 28.176 36.7888 27.184V27.1169C36.7888 26.1249 35.9846 25.3207 34.9926 25.3207Z" fill="#0EE0DA"/>
<path d="M35.0423 29.6759H32.2661C31.302 29.6759 30.5205 30.4574 30.5205 31.4215V31.5898C30.5205 32.5538 31.302 33.3354 32.2661 33.3354H35.0423C36.0064 33.3354 36.7879 32.5538 36.7879 31.5898V31.4215C36.7879 30.4574 36.0064 29.6759 35.0423 29.6759Z" fill="#0EE0DA"/>
<path d="M39.3702 19.8048L38.245 20.3493L37.948 18.4409L39.3702 18.717V19.8048Z" fill="#1B1464"/>
<path d="M39.3705 27.5795L37.9912 27.761L38.2002 25.7888L39.3705 26.0473V27.5795Z" fill="#1B1464"/>
<path d="M43.2861 15.9335H40.4625C39.6588 15.9335 39.0073 16.585 39.0073 17.3887V33.4212C39.0073 34.2249 39.6588 34.8764 40.4625 34.8764H43.2861C44.0898 34.8764 44.7413 34.2249 44.7413 33.4212V17.3887C44.7413 16.585 44.0898 15.9335 43.2861 15.9335Z" fill="#00CCCC"/>
<path d="M43.7338 16.6104H41.7265C40.8493 16.6104 40.1382 17.3215 40.1382 18.1986V18.6815C40.1382 19.5587 40.8493 20.2698 41.7265 20.2698H43.7338C44.611 20.2698 45.3221 19.5587 45.3221 18.6815V18.1986C45.3221 17.3215 44.611 16.6104 43.7338 16.6104Z" fill="#0EE0DA"/>
<path d="M44.0429 25.405H42.0356C41.1584 25.405 40.4473 26.1161 40.4473 26.9933V27.4762C40.4473 28.3534 41.1584 29.0645 42.0356 29.0645H44.0429C44.9201 29.0645 45.6312 28.3534 45.6312 27.4762V26.9933C45.6312 26.1161 44.9201 25.405 44.0429 25.405Z" fill="#0EE0DA"/>
<path d="M44.0429 29.3612H42.0356C41.1584 29.3612 40.4473 30.0723 40.4473 30.9495V31.4324C40.4473 32.3096 41.1584 33.0207 42.0356 33.0207H44.0429C44.9201 33.0207 45.6312 32.3096 45.6312 31.4324V30.9495C45.6312 30.0723 44.9201 29.3612 44.0429 29.3612Z" fill="#0EE0DA"/>
<path d="M44.0552 20.9662H42.0225C41.1423 20.9662 40.4287 21.6798 40.4287 22.56V23.0319C40.4287 23.9121 41.1423 24.6256 42.0225 24.6256H44.0552C44.9354 24.6256 45.6489 23.9121 45.6489 23.0319V22.56C45.6489 21.6798 44.9354 20.9662 44.0552 20.9662Z" fill="#0EE0DA"/>
<path d="M61.877 21.7739C57.2738 18.198 48.4975 20.7245 47.4812 21.0336C47.4555 21.0416 47.4277 21.0391 47.4038 21.0268C47.3799 21.0144 47.3619 20.9932 47.3536 20.9676C47.3493 20.9546 47.3476 20.9409 47.3487 20.9273C47.3498 20.9136 47.3535 20.9003 47.3598 20.8882C47.366 20.876 47.3746 20.8652 47.3851 20.8563C47.3955 20.8475 47.4076 20.8408 47.4207 20.8367C48.4612 20.5199 57.32 17.9769 62.0024 21.6067C62.0229 21.6246 62.0361 21.6494 62.0393 21.6764C62.0426 21.7035 62.0357 21.7307 62.02 21.753C62.0121 21.7638 62.002 21.773 61.9905 21.78C61.979 21.7869 61.9662 21.7915 61.9529 21.7934C61.9396 21.7954 61.926 21.7947 61.913 21.7913C61.8999 21.7879 61.8877 21.782 61.877 21.7739Z" fill="#E6E4ED"/>
<path d="M19.3659 37.2179C15.1993 35.799 9.7866 29.359 9.13104 28.5659C9.11387 28.5446 9.10584 28.5174 9.10873 28.4901C9.11162 28.4629 9.12518 28.438 9.14644 28.4207C9.15674 28.4122 9.16863 28.4058 9.18141 28.402C9.19419 28.3981 9.20762 28.3968 9.22091 28.3981C9.23421 28.3994 9.2471 28.4034 9.25886 28.4097C9.27062 28.416 9.28101 28.4246 9.28943 28.435C9.93619 29.2182 15.3181 35.623 19.4319 37.0233C19.4572 37.0318 19.4782 37.05 19.4903 37.0738C19.5025 37.0977 19.5048 37.1253 19.4968 37.1508C19.4926 37.1639 19.486 37.176 19.4771 37.1864C19.4683 37.1969 19.4575 37.2055 19.4453 37.2117C19.4332 37.218 19.4199 37.2217 19.4062 37.2228C19.3926 37.2239 19.3789 37.2222 19.3659 37.2179Z" fill="#E6E4ED"/>
<path d="M133.913 44.989C133.889 44.9762 133.871 44.9552 133.862 44.9301C133.853 44.905 133.853 44.8775 133.863 44.8526C137.219 37.4369 132.245 32.2881 131.58 31.6469C131.561 31.628 131.551 31.6025 131.551 31.5759C131.551 31.5494 131.561 31.5239 131.58 31.505C131.589 31.4945 131.6 31.4861 131.613 31.4801C131.625 31.4741 131.639 31.4708 131.653 31.4703C131.667 31.4698 131.68 31.4721 131.693 31.4771C131.706 31.4821 131.718 31.4898 131.728 31.4995C132.428 32.1748 137.463 37.4094 134.056 44.9373C134.05 44.9505 134.042 44.9624 134.031 44.9722C134.021 44.9821 134.009 44.9896 133.995 44.9945C133.982 44.9994 133.968 45.0014 133.953 45.0004C133.939 44.9995 133.925 44.9956 133.913 44.989Z" fill="#E6E4ED"/>
<path d="M129.668 37.1533C129.641 37.1533 129.615 37.1425 129.596 37.1233C129.577 37.1042 129.566 37.0781 129.566 37.051C129.52 30.6538 125.183 25.4479 124.592 24.7703C124.575 24.7499 124.566 24.7237 124.568 24.697C124.569 24.6704 124.581 24.6454 124.601 24.6273C124.611 24.6179 124.623 24.6106 124.636 24.6058C124.649 24.6011 124.662 24.599 124.676 24.5997C124.69 24.6005 124.703 24.604 124.716 24.61C124.728 24.6161 124.739 24.6246 124.748 24.635C125.354 25.3335 129.725 30.5889 129.772 37.0488C129.772 37.0625 129.769 37.076 129.764 37.0887C129.759 37.1014 129.751 37.1129 129.742 37.1226C129.732 37.1323 129.721 37.1401 129.708 37.1453C129.695 37.1506 129.682 37.1533 129.668 37.1533Z" fill="#E6E4ED"/>
</svg>
