<svg width="45" height="46" viewBox="0 0 45 46" fill="none" xmlns="http://www.w3.org/2000/svg">
<rect x="0.5" y="0.663574" width="44" height="44" rx="22" stroke="white"/>
<path d="M27.7566 11.8765H16.244C13.0163 11.8765 10.3828 14.5099 10.3828 17.7376V29.2502C10.3828 32.478 13.0163 35.1114 16.244 35.1114H27.7566C30.9843 35.1114 33.6178 32.478 33.6178 29.2502V17.7376C33.6178 14.5099 30.9843 11.8765 27.7566 11.8765ZM31.0892 29.2502C31.0892 31.0913 29.5977 32.5828 27.7566 32.5828H16.244C14.4029 32.5828 12.9114 31.0913 12.9114 29.2502V17.7376C12.9114 15.8966 14.4029 14.405 16.244 14.405H27.7566C29.5977 14.405 31.0892 15.8966 31.0892 17.7376V29.2502Z" fill="white"/>
<path d="M28.176 15.9199C27.3953 15.9199 26.7544 16.5608 26.7544 17.3299C26.7544 18.1106 27.3953 18.7398 28.176 18.7398C28.9567 18.7398 29.5859 18.0989 29.5859 17.3299C29.5859 16.5492 28.9567 15.9199 28.176 15.9199Z" fill="white"/>
<path d="M22.0002 17.5046C18.7025 17.5046 16.0225 20.1847 16.0225 23.4823C16.0225 26.78 18.7025 29.46 22.0002 29.46C25.2978 29.46 27.9779 26.78 27.9779 23.4823C27.9779 20.1964 25.2978 17.5046 22.0002 17.5046ZM22.0002 26.9431C20.0892 26.9431 18.5394 25.3933 18.5394 23.494C18.5394 21.583 20.0892 20.0332 22.0002 20.0332C23.8995 20.0332 25.4493 21.583 25.4493 23.4823C25.4493 25.3933 23.8995 26.9431 22.0002 26.9431Z" fill="white"/>
</svg>
