<svg width="258" height="51" viewBox="0 0 258 51" fill="none" xmlns="http://www.w3.org/2000/svg">
<path d="M63.8789 11.7797H69.6822V35.1226C69.6822 37.851 70.2019 38.7604 72.5838 38.7604V44.3472C65.8711 44.3472 63.8789 42.355 63.8789 35.2092V11.7797Z" fill="white"/>
<path d="M83.0209 8.79144C83.0209 12.9923 76.4814 13.0356 76.4814 8.79144C76.4814 4.46065 83.0209 4.50396 83.0209 8.79144ZM82.5878 38.7605H76.7846V14.3348H82.5878V38.7605Z" fill="white"/>
<path d="M99.9544 16.5005C96.0567 15.8509 93.9346 17.5399 93.9346 20.3549V21.6542H99.3048V26.981H93.9346V44.3908H88.1313V20.2683C88.1313 14.5517 92.2889 10.4374 99.9544 11.3902V16.5005Z" fill="white"/>
<path d="M122.085 36.682C122.085 41.9223 118.967 44.3908 112.427 44.3908C105.888 44.3908 102.77 41.4026 102.77 34.6899V29.0598C102.77 22.8235 105.888 19.3589 112.427 19.3589C118.967 19.3589 122.085 22.3471 122.085 29.0598V33.9969H108.573V34.6466C108.573 38.6742 110.132 39.4104 112.514 39.4104C115.242 39.4104 116.411 38.4576 116.411 36.7253H122.085V36.682ZM108.573 29.2331H116.455C116.455 26.1149 115.848 24.3826 112.557 24.3826C109.179 24.3826 108.573 26.2448 108.573 29.2331Z" fill="white"/>
<path d="M140.274 28.7134C140.274 25.8984 139.278 24.5125 136.376 24.5125C133.172 24.5125 132.219 26.2881 132.219 29.363V34.7765C132.219 37.8513 133.042 39.627 136.073 39.627C139.105 39.627 140.231 38.3277 140.231 35.3828H145.731C145.731 42.0955 142.613 44.7806 136.073 44.7806C129.534 44.7806 126.416 41.7923 126.416 34.9497V29.363C126.416 22.6503 129.707 19.3589 136.246 19.3589C142.786 19.3589 145.731 22.0007 145.731 28.7134H140.274Z" fill="white"/>
<path d="M163.097 44.3469V28.6695C163.097 25.638 161.885 24.512 159.459 24.512C156.948 24.512 155.735 25.8545 155.735 28.6695V44.3902H149.932V11.8228H155.735V21.3938C156.991 19.8347 158.983 19.1851 160.975 19.1851C166.389 19.1851 168.857 22.6064 168.857 27.9766V44.3036H163.097V44.3469Z" fill="white"/>
<path d="M180.42 14.4216C180.42 18.6224 173.881 18.6657 173.881 14.4216C173.881 10.0908 180.42 10.1341 180.42 14.4216ZM179.987 44.3906H174.184V19.965H179.987V44.3906Z" fill="white"/>
<path d="M185.747 15.1141L191.55 14.4645V19.315H195.751V24.5985H191.55V35.1223C191.55 37.8507 191.983 39.7129 195.838 39.2799V44.3469C188.475 45.1697 185.747 42.6146 185.747 35.2089V15.1141Z" fill="white"/>
<path d="M218.704 36.682C218.704 41.9223 215.586 44.3908 209.047 44.3908C202.507 44.3908 199.389 41.4026 199.389 34.6899V29.0598C199.389 22.8235 202.507 19.3589 209.047 19.3589C215.586 19.3589 218.704 22.3471 218.704 29.0598V33.9969H205.192V34.6466C205.192 38.6742 206.751 39.4104 209.133 39.4104C211.862 39.4104 213.031 38.4576 213.031 36.7253H218.704V36.682ZM205.192 29.2331H213.074C213.074 26.1149 212.468 24.3826 209.177 24.3826C205.799 24.3826 205.192 26.2448 205.192 29.2331Z" fill="white"/>
<path d="M236.894 28.7134C236.894 25.8984 235.898 24.5125 232.996 24.5125C229.791 24.5125 228.838 26.2881 228.838 29.363V34.7765C228.838 37.8513 229.661 39.627 232.693 39.627C235.724 39.627 236.85 38.3277 236.85 35.3828H242.35C242.35 42.0955 239.232 44.7806 232.693 44.7806C226.153 44.7806 223.035 41.7923 223.035 34.9497V29.363C223.035 22.6503 226.327 19.3589 232.866 19.3589C239.406 19.3589 242.35 22.0007 242.35 28.7134H236.894Z" fill="white"/>
<path d="M246.984 15.1141L252.788 14.4645V19.315H256.989V24.5985H252.788V35.1223C252.788 37.8507 253.221 39.7129 257.075 39.2799V44.3469C249.713 45.1697 246.984 42.6146 246.984 35.2089V15.1141Z" fill="white"/>
<path fill-rule="evenodd" clip-rule="evenodd" d="M43.741 41.8355C42.052 43.7844 40.0598 45.4301 37.8078 46.7726C34.04 49.0246 29.6659 50.3238 24.9887 50.3238C16.6736 50.3238 9.26793 46.2096 4.72061 39.8866C4.20091 39.1937 3.98438 38.3709 3.98438 37.548C3.98438 35.9889 4.85053 34.5165 6.40961 33.8236C8.14193 33.044 10.1774 33.607 11.3034 35.1228C14.3783 39.367 19.402 42.182 25.032 42.182C29.1895 42.182 32.9573 40.6662 35.9023 38.1976C36.4653 37.7213 36.985 37.2449 37.4613 36.6819C37.418 37.1583 37.418 37.6346 37.4613 38.111C37.5913 39.0205 38.0243 39.8866 38.6306 40.5796C39.2803 41.2725 40.0598 41.7489 40.9693 41.9654C41.359 42.052 41.7055 42.0953 42.0953 42.0953C42.615 42.0953 43.1347 42.0087 43.611 41.8355C43.6977 41.8355 43.6977 41.8355 43.741 41.8355Z" fill="#17CE6A"/>
<path fill-rule="evenodd" clip-rule="evenodd" d="M45.3868 39.7566C44.8671 40.4928 44.1741 40.9692 43.4379 41.2291C42.7017 41.4889 41.9221 41.5322 41.1859 41.3157C40.4497 41.1424 39.7567 40.7527 39.1937 40.1031C38.6307 39.4967 38.2843 38.7605 38.1977 37.981C38.0244 36.9849 38.241 35.9022 38.8906 34.9927C41.9221 30.7053 42.9182 25.0319 41.0993 19.6618C39.7567 15.7207 37.115 12.5593 33.8236 10.5671C33.2173 10.2206 32.611 9.87419 32.0046 9.61434C31.8747 9.57103 31.7881 9.52772 31.6582 9.48442H31.6149C31.5283 9.44111 31.3983 9.3978 31.3117 9.35449C31.3117 9.35449 31.2684 9.35449 31.2684 9.31118C31.1385 9.26788 31.0519 9.22457 30.9219 9.18126C30.8786 9.18126 30.8786 9.18126 30.8353 9.13795C30.7054 9.09465 30.6188 9.05134 30.4889 9.00803C30.4456 9.00803 30.4456 9.00803 30.4022 8.96472C30.2723 8.92141 30.1857 8.87811 30.0558 8.8348C30.0558 8.8348 30.0558 8.8348 30.0125 8.8348C29.8826 8.79149 29.7959 8.74818 29.666 8.74818H29.6227C29.4928 8.70487 29.4062 8.70487 29.2762 8.66157C29.2329 8.66157 29.2329 8.66157 29.1896 8.66157C29.0597 8.61826 28.9731 8.61826 28.8432 8.57495C28.7999 8.57495 28.7999 8.57495 28.7566 8.57495C28.6266 8.53164 28.54 8.53164 28.4101 8.48834C28.4101 8.48834 28.4101 8.48834 28.3668 8.48834C28.2369 8.44503 28.1069 8.44503 28.0203 8.40172C27.977 8.40172 27.977 8.40172 27.9337 8.40172C27.8038 8.35841 27.7172 8.35841 27.5872 8.35841C27.5439 8.35841 27.5439 8.35841 27.5006 8.35841C27.3707 8.35841 27.2841 8.3151 27.1542 8.3151H27.1109C26.9809 8.3151 26.8943 8.2718 26.7644 8.2718C26.7644 8.2718 26.7644 8.2718 26.7211 8.2718C26.5912 8.2718 26.4612 8.22849 26.3313 8.22849C26.288 8.22849 26.288 8.22849 26.2447 8.22849C26.1148 8.22849 25.9849 8.22849 25.8982 8.18518C25.8549 8.18518 25.8549 8.18518 25.8116 8.18518C25.6817 8.18518 25.5518 8.18518 25.4652 8.18518H25.4218C25.2919 8.18518 25.162 8.18518 25.0754 8.18518H25.0321C24.9022 8.18518 24.7722 8.18518 24.6423 8.18518C24.599 8.18518 24.599 8.18518 24.5557 8.18518C24.4258 8.18518 24.2958 8.18518 24.2092 8.18518C24.1659 8.18518 24.1659 8.18518 24.1226 8.18518C23.9927 8.18518 23.8628 8.18518 23.7328 8.22849H23.6895C23.5596 8.22849 23.4297 8.22849 23.3431 8.2718H23.2998C23.1698 8.2718 23.0399 8.3151 22.91 8.3151C22.8667 8.3151 22.8667 8.3151 22.8234 8.3151C22.6935 8.3151 22.5635 8.35841 22.4769 8.35841C22.4336 8.35841 22.4336 8.35841 22.3903 8.35841C22.2604 8.35841 22.1305 8.40172 22.0005 8.40172H21.9572C21.8273 8.44503 21.6974 8.44503 21.6108 8.48834H21.5675C21.4375 8.53164 21.3076 8.53164 21.1777 8.57495C21.1344 8.57495 21.1344 8.57495 21.0911 8.57495C20.9611 8.61826 20.8312 8.61826 20.7446 8.66157C20.7013 8.66157 20.7013 8.66157 20.658 8.66157C20.5281 8.70487 20.3981 8.74818 20.2682 8.74818C20.1383 8.79149 20.0084 8.8348 19.8784 8.87811H19.8351C19.7052 8.92141 19.5753 8.96472 19.4887 9.00803C19.4454 9.00803 19.4454 9.00803 19.4021 9.05134C19.3154 9.09465 19.1855 9.13795 19.0989 9.18126C19.7918 8.14187 20.0517 6.79933 19.7918 5.50009C19.4887 4.02763 18.4926 2.85832 17.1501 2.2087C16.6737 1.99216 16.154 1.81893 15.6343 1.77562C16.0674 1.60239 16.5004 1.42916 16.9335 1.29924C17.0634 1.25593 17.1934 1.21262 17.28 1.16931C17.3233 1.16931 17.3666 1.126 17.3666 1.126C17.4532 1.0827 17.5398 1.0827 17.6697 1.03939C17.7131 1.03939 17.7131 1.03939 17.7564 0.99608C17.7997 0.99608 17.843 0.99608 17.843 0.952772C17.9296 0.909465 18.0162 0.909465 18.1028 0.866157C18.1461 0.866157 18.1461 0.866157 18.1894 0.866157C18.2327 0.866157 18.2761 0.822849 18.3194 0.822849C18.4493 0.866157 18.4926 0.866157 18.5359 0.866157C18.5792 0.866157 18.6225 0.866157 18.6225 0.822849C18.7091 0.779541 18.8391 0.779541 18.9257 0.736233H18.969C19.0989 0.692925 19.2288 0.692925 19.3154 0.649618C19.3588 0.649618 19.3588 0.649617 19.4021 0.60631C19.4887 0.60631 19.5753 0.563002 19.7052 0.563002C19.7485 0.563002 19.7918 0.563002 19.7918 0.519694C19.9218 0.476386 20.0517 0.476386 20.1383 0.433078C20.1383 0.433078 20.1383 0.433078 20.1816 0.433078C20.3981 0.433078 20.4848 0.433078 20.6147 0.389771C20.658 0.389771 20.7013 0.389771 20.7013 0.389771C20.7879 0.389771 20.8745 0.346463 21.0044 0.346463C21.0478 0.346463 21.0478 0.346463 21.0911 0.346463C21.221 0.346463 21.3509 0.303155 21.4375 0.303155C21.4808 0.303155 21.4808 0.303155 21.5241 0.303155C21.6108 0.303155 21.7407 0.259847 21.8273 0.259847C21.8706 0.259847 21.9139 0.259847 21.9139 0.259847C22.0438 0.259847 22.1305 0.216539 22.2604 0.216539H22.3037C22.4336 0.216539 22.5635 0.173231 22.6501 0.173231C22.6935 0.173231 22.6935 0.173231 22.7368 0.173231C22.8234 0.173231 22.91 0.173231 23.0399 0.129924C23.0832 0.129924 23.0832 0.129924 23.1265 0.129924C23.2565 0.129924 23.3864 0.129924 23.473 0.0866157H23.5163C23.6462 0.0866157 23.7328 0.0866157 23.8628 0.0866157C23.9061 0.0866157 23.9494 0.0866157 23.9494 0.0866157C24.036 0.0866157 24.1659 0.0866157 24.2525 0.0866157C24.2958 0.0866157 24.2958 0.0866157 24.3392 0.0866157C24.4691 0.0866157 24.599 0.0866157 24.6856 0.0866157C24.7289 0.0866157 24.7289 0.0866157 24.7722 0.0866157C24.8588 0.0866157 24.9888 0.0866157 25.0754 0.0866157C25.1187 0.0866157 25.1187 0.0866157 25.162 0.0866157C25.2919 0.0866157 25.3785 0.0866157 25.5085 0.0866157C25.6384 0.0866157 25.7683 0.0866157 25.8549 0.0866157C25.9415 0 25.9849 0 25.9849 0C26.0715 0 26.2014 0 26.288 0C26.3313 0 26.3313 0 26.3746 0C26.5045 0 26.6345 0 26.7211 0.0433078H26.7644C26.851 0.0433078 26.9809 0.0433078 27.0675 0.0866157C27.1109 0.0866157 27.1109 0.0866157 27.1542 0.0866157C27.2408 0.0866157 27.3707 0.0866157 27.4573 0.129924H27.5006C27.6305 0.129924 27.7605 0.173231 27.8471 0.173231C27.8904 0.173231 27.8904 0.173231 27.9337 0.173231C28.0203 0.173231 28.1502 0.216539 28.2369 0.216539C28.2802 0.216539 28.2802 0.216539 28.3235 0.216539C28.5833 0.259847 28.7999 0.303155 29.0597 0.346463C29.103 0.346463 29.103 0.346463 29.1463 0.346463C29.2329 0.346463 29.3629 0.389771 29.4495 0.389771C29.4928 0.389771 29.4928 0.389771 29.5361 0.389771C29.666 0.433078 29.7959 0.433078 29.8826 0.476386H29.9259C30.0125 0.476386 30.1424 0.519694 30.229 0.563002C30.2723 0.563002 30.2723 0.563002 30.3156 0.563002C30.4456 0.60631 30.5322 0.60631 30.6621 0.649618C30.6621 0.649618 30.6621 0.649618 30.7054 0.649618C30.8353 0.692925 30.9653 0.692925 31.0519 0.736233C31.0952 0.736233 31.0952 0.736233 31.1385 0.736233C31.2251 0.779541 31.355 0.779541 31.4416 0.822849C31.4849 0.822849 31.4849 0.822849 31.5283 0.822849C31.7448 0.866157 32.0046 0.952772 32.2212 1.03939C32.2645 1.03939 32.2645 1.03939 32.3078 1.0827C32.3944 1.126 32.5243 1.126 32.611 1.16931H32.6543C32.7842 1.21262 32.8708 1.25593 33.0007 1.29924H33.044C33.1306 1.34254 33.2606 1.38585 33.3472 1.38585C33.3905 1.38585 33.3905 1.38585 33.4338 1.42916C33.5637 1.47247 33.6503 1.51577 33.7803 1.55908C33.9102 1.60239 33.9968 1.6457 34.1267 1.68901C34.17 1.68901 34.17 1.68901 34.2133 1.73231C34.3 1.77562 34.3866 1.81893 34.5165 1.86224C34.5598 1.86224 34.5598 1.86224 34.6031 1.90554C34.733 1.94885 34.8196 1.99216 34.9496 2.03547C35.0362 2.07878 35.1661 2.12208 35.2527 2.16539C35.296 2.16539 35.296 2.2087 35.3393 2.2087C35.3827 2.2087 35.426 2.25201 35.426 2.25201C35.426 2.25201 35.4693 2.25201 35.4693 2.29532C37.5914 3.24809 39.5402 4.50401 41.3158 6.01979C44.6505 8.87811 47.2923 12.6026 48.7648 17.0633C51.3632 25.0319 49.8908 33.3903 45.3868 39.7566Z" fill="#F5A623"/>
<path fill-rule="evenodd" clip-rule="evenodd" d="M17.1065 10.1341C13.4253 12.0397 10.567 15.2878 9.05122 19.2288C8.79137 19.965 8.53152 20.7013 8.35829 21.4808C8.14175 20.9611 7.8386 20.4847 7.49213 20.095C6.58267 19.0989 5.32674 18.5359 4.02751 18.5359C2.8582 18.5359 1.73219 18.9689 0.866035 19.7485C0.692803 19.9217 0.519572 20.0516 0.389648 20.2682C0.432956 19.9217 0.519572 19.5753 0.606188 19.2288C2.3385 12.1263 7.10236 6.19313 13.4253 2.90174C15.7639 1.68912 18.6222 3.07497 19.1852 5.63013C19.575 7.44906 18.7089 9.26799 17.1065 10.1341Z" fill="#28BFFD"/>
<path fill-rule="evenodd" clip-rule="evenodd" d="M10.134 33.4338C9.87419 33.3038 9.57103 33.1739 9.26788 33.0873C8.22849 32.8274 7.10248 32.9141 6.14971 33.3471C4.85048 33.9535 3.8544 35.0795 3.50793 36.4653C3.37801 36.8984 3.3347 37.3748 3.3347 37.8078C2.94493 37.1582 2.59847 36.5086 2.29532 35.8157C0.822849 32.6109 0 29.0597 0 25.2919C0 24.469 0.0433078 23.6895 0.129924 22.91C0.216539 21.8706 0.736233 20.9611 1.42916 20.3115C2.16539 19.6619 3.11816 19.2721 4.11424 19.2721C6.49618 19.2721 8.35841 21.3076 8.14187 23.6895C8.09857 24.2092 8.05526 24.7289 8.05526 25.2919C8.05526 27.8904 8.61826 30.3156 9.65765 32.5243C9.83088 32.8274 9.9608 33.1306 10.134 33.4338Z" fill="#FA4D56"/>
<path fill-rule="evenodd" clip-rule="evenodd" d="M29.6224 27.9333L26.2877 24.4686L25.9846 15.8937C25.9413 15.2441 25.5082 14.7244 24.9452 14.7244C24.3822 14.7244 23.9058 15.2441 23.9058 15.8937L23.6026 24.8151C23.6026 24.9017 23.6026 24.9883 23.6026 25.1182C23.516 25.4647 23.646 25.8545 23.9924 26.1576L28.02 29.4923C28.4964 29.8821 29.1894 29.8821 29.6657 29.449C30.0122 29.016 30.0122 28.3663 29.6224 27.9333Z" fill="white"/>
</svg>
