<svg width="322" height="69" viewBox="0 0 322 69" fill="none" xmlns="http://www.w3.org/2000/svg">
<path d="M82.2568 17.9818H89.4332V46.8479C89.4332 50.2218 90.0759 51.3465 93.0214 51.3465V58.2551C84.7204 58.2551 82.2568 55.7915 82.2568 46.955V17.9818Z" fill="#294948"/>
<path d="M105.928 14.2866C105.928 19.4814 97.8413 19.535 97.8413 14.2866C97.8413 8.93111 105.928 8.98466 105.928 14.2866ZM105.393 51.3466H98.2162V21.1416H105.393V51.3466Z" fill="#294948"/>
<path d="M126.869 23.8196C122.049 23.0163 119.424 25.1049 119.424 28.586V30.1926H126.065V36.7799H119.424V58.309H112.248V28.4789C112.248 21.4096 117.389 16.3219 126.869 17.5001V23.8196Z" fill="#294948"/>
<path d="M154.234 48.7765C154.234 55.2566 150.378 58.3092 142.291 58.3092C134.205 58.3092 130.349 54.614 130.349 46.3129V39.3508C130.349 31.6389 134.205 27.3545 142.291 27.3545C150.378 27.3545 154.234 31.0498 154.234 39.3508V45.4561H137.525V46.2594C137.525 51.24 139.453 52.1504 142.398 52.1504C145.772 52.1504 147.218 50.9722 147.218 48.83H154.234V48.7765ZM137.525 39.565H147.272C147.272 35.7091 146.522 33.5669 142.452 33.5669C138.275 33.5669 137.525 35.8697 137.525 39.565Z" fill="#294948"/>
<path d="M176.727 38.9224C176.727 35.4413 175.496 33.7275 171.907 33.7275C167.944 33.7275 166.766 35.9233 166.766 39.7257V46.4201C166.766 50.2225 167.784 52.4182 171.533 52.4182C175.281 52.4182 176.674 50.8116 176.674 47.1698H183.475C183.475 55.4708 179.619 58.7912 171.533 58.7912C163.446 58.7912 159.59 55.096 159.59 46.6343V39.7257C159.59 31.4247 163.66 27.3545 171.747 27.3545C179.834 27.3545 183.475 30.6213 183.475 38.9224H176.727Z" fill="#294948"/>
<path d="M204.952 58.255V38.8681C204.952 35.1192 203.452 33.7268 200.453 33.7268C197.347 33.7268 195.847 35.387 195.847 38.8681V58.3085H188.671V18.0352H195.847V29.8709C197.4 27.9429 199.864 27.1396 202.327 27.1396C209.022 27.1396 212.074 31.3704 212.074 38.0112V58.2014H204.952V58.255Z" fill="#294948"/>
<path d="M226.373 21.2489C226.373 26.4438 218.287 26.4973 218.287 21.2489C218.287 15.8934 226.373 15.947 226.373 21.2489ZM225.838 58.309H218.662V28.104H225.838V58.309Z" fill="#294948"/>
<path d="M232.96 22.1054L240.136 21.3021V27.3003H245.331V33.834H240.136V46.8478C240.136 50.2218 240.672 52.5247 245.438 51.9891V58.255C236.334 59.2726 232.96 56.1128 232.96 46.9549V22.1054Z" fill="#294948"/>
<path d="M273.716 48.7765C273.716 55.2566 269.86 58.3092 261.773 58.3092C253.686 58.3092 249.83 54.614 249.83 46.3129V39.3508C249.83 31.6389 253.686 27.3545 261.773 27.3545C269.86 27.3545 273.716 31.0498 273.716 39.3508V45.4561H257.006V46.2594C257.006 51.24 258.934 52.1504 261.88 52.1504C265.254 52.1504 266.7 50.9722 266.7 48.83H273.716V48.7765ZM257.006 39.565H266.753C266.753 35.7091 266.004 33.5669 261.933 33.5669C257.756 33.5669 257.006 35.8697 257.006 39.565Z" fill="#294948"/>
<path d="M296.209 38.9224C296.209 35.4413 294.977 33.7275 291.389 33.7275C287.426 33.7275 286.248 35.9233 286.248 39.7257V46.4201C286.248 50.2225 287.265 52.4182 291.014 52.4182C294.763 52.4182 296.155 50.8116 296.155 47.1698H302.957C302.957 55.4708 299.101 58.7912 291.014 58.7912C282.927 58.7912 279.071 55.096 279.071 46.6343V39.7257C279.071 31.4247 283.141 27.3545 291.228 27.3545C299.315 27.3545 302.957 30.6213 302.957 38.9224H296.209Z" fill="#294948"/>
<path d="M308.688 22.1054L315.864 21.3021V27.3003H321.059V33.834H315.864V46.8478C315.864 50.2218 316.399 52.5247 321.166 51.9891V58.255C312.061 59.2726 308.688 56.1128 308.688 46.9549V22.1054Z" fill="#294948"/>
<path fill-rule="evenodd" clip-rule="evenodd" d="M59.1871 57.0175C56.9017 59.6538 54.2061 61.88 51.159 63.6961C46.0609 66.7425 40.1423 68.5 33.8136 68.5C22.5626 68.5 12.5422 62.9345 6.38925 54.3812C5.68606 53.4439 5.39307 52.3308 5.39307 51.2177C5.39307 49.1086 6.56505 47.1168 8.67462 46.1794C11.0186 45.1249 13.7727 45.8865 15.2963 47.937C19.4569 53.6782 26.2544 57.4862 33.8722 57.4862C39.4978 57.4862 44.5959 55.4357 48.5806 52.0964C49.3424 51.452 50.0456 50.8076 50.6902 50.046C50.6316 50.6904 50.6316 51.3348 50.6902 51.9793C50.866 53.2095 51.452 54.3812 52.2724 55.3186C53.1514 56.2559 54.2061 56.9003 55.4367 57.1933C55.9641 57.3104 56.4329 57.369 56.9603 57.369C57.6635 57.369 58.3667 57.2519 59.0113 57.0175C59.1285 57.0175 59.1285 57.0175 59.1871 57.0175Z" fill="#17CE6A"/>
<path d="M58.7735 56.1968C59.7697 55.8453 60.7072 55.2009 61.4104 54.205C67.5047 45.5931 69.4971 34.2864 65.9812 23.5069C63.9888 17.4727 60.5621 12.407 56.05 8.54042C44.7624 -1.73946 28.6535 -0.039048 22.9108 2.18224C22.3248 2.35799 21.7388 2.59233 21.1528 2.82666C21.856 2.88525 22.5592 3.11958 23.2038 3.4125C25.0204 4.29127 26.3682 5.87304 26.7783 7.8649C27.1299 9.62243 26.7783 11.4385 25.8408 12.8446C25.958 12.786 26.1338 12.7274 26.251 12.6688C26.3096 12.6102 26.3096 12.6102 26.3682 12.6102C29.552 11.5082 38.1135 9.77711 45.7645 14.7192C50.218 17.4141 53.7925 21.6908 55.6091 27.0219C58.0703 34.2864 56.7225 41.9609 52.6206 47.7607C51.7416 48.991 51.4486 50.4556 51.683 51.803C51.8002 52.8575 52.269 53.8535 53.0308 54.6736C53.7925 55.5524 54.7301 56.0797 55.7263 56.314C56.7225 56.6069 57.7773 56.5483 58.7735 56.1968Z" fill="#F5A623"/>
<path fill-rule="evenodd" clip-rule="evenodd" d="M23.1481 14.1335C18.1671 16.7112 14.2996 21.105 12.2486 26.4362C11.897 27.4321 11.5454 28.428 11.311 29.4825C11.0181 28.7795 10.6079 28.1351 10.1391 27.6079C8.90848 26.2604 7.20911 25.4988 5.45114 25.4988C3.86896 25.4988 2.34538 26.0847 1.1734 27.1392C0.939002 27.3735 0.704606 27.5493 0.528809 27.8422C0.587408 27.3735 0.704606 26.9048 0.821804 26.4362C3.16577 16.8284 9.61167 8.80234 18.1671 4.34994C21.3315 2.70959 25.199 4.58428 25.9608 8.04074C26.4882 10.5013 25.3162 12.9618 23.1481 14.1335Z" fill="#28BFFD"/>
<path fill-rule="evenodd" clip-rule="evenodd" d="M13.7122 45.6534C13.3606 45.4776 12.9504 45.3019 12.5402 45.1847C11.1338 44.8332 9.61026 44.9504 8.32108 45.5362C6.5631 46.3564 5.21532 47.8796 4.74653 49.7543C4.57073 50.3401 4.51213 50.9845 4.51213 51.5704C3.98474 50.6916 3.51595 49.8128 3.10575 48.8755C1.11338 44.5403 0 39.7364 0 34.6395C0 33.5264 0.0585991 32.4719 0.175797 31.4174C0.292996 30.0114 0.996185 28.7811 1.93377 27.9024C2.92996 27.0236 4.21914 26.4963 5.56692 26.4963C8.78987 26.4963 11.3096 29.2498 11.0166 32.4719C10.958 33.1749 10.8994 33.8779 10.8994 34.6395C10.8994 38.1546 11.6612 41.4353 13.0676 44.4231C13.302 44.8332 13.4778 45.2433 13.7122 45.6534Z" fill="#FA4D56"/>
<path fill-rule="evenodd" clip-rule="evenodd" d="M40.1626 38.3722L35.6415 33.6749L35.2304 22.049C35.1717 21.1683 34.5846 20.4637 33.8213 20.4637C33.0579 20.4637 32.4121 21.1683 32.4121 22.049L32.0011 34.1446C32.0011 34.262 32.0011 34.3794 32.0011 34.5556C31.8836 35.0253 32.0598 35.5538 32.5295 35.9648L37.9901 40.4859C38.636 41.0144 39.5755 41.0144 40.2213 40.4272C40.6911 39.8401 40.6911 38.9593 40.1626 38.3722Z" fill="#2E4B4B"/>
</svg>
