<svg width="160" height="50" viewBox="0 0 160 50" fill="none" xmlns="http://www.w3.org/2000/svg">
<path d="M17.0174 9.67907C17.0174 13.2824 11.4414 13.3087 11.4414 9.67907C11.4414 6.0231 17.0174 6.07571 17.0174 9.67907ZM16.6492 35.192H11.7307V14.4397H16.6492V35.192Z" fill="white"/>
<path d="M31.4565 16.4916C28.1424 15.9655 26.3276 17.3859 26.3276 19.7533V20.8581H30.8778V25.3824H26.3013V40.1916H21.3828V19.6744C21.3828 14.8344 24.9073 11.3097 31.4302 12.1251V16.4916H31.4565Z" fill="white"/>
<path d="M50.2624 33.6665C50.2624 38.1116 47.6059 40.242 42.0299 40.242C36.4539 40.242 33.7974 37.6907 33.7974 31.9832V27.1699C33.7974 21.857 36.4539 18.9111 42.0299 18.9111C47.6059 18.9111 50.2624 21.4624 50.2624 27.1699V31.3783H38.7684V31.9043C38.7684 35.3235 40.1098 35.9548 42.1088 35.9548C44.4496 35.9548 45.4228 35.1394 45.4228 33.6665H50.2624ZM38.7684 27.3015H45.4754C45.4754 24.645 44.9757 23.172 42.1614 23.172C39.2682 23.172 38.7684 24.7502 38.7684 27.3015Z" fill="white"/>
<path d="M64.9417 24.0662C61.731 23.6454 59.2309 24.8816 59.2309 28.0641V40.2156H54.3096V18.99H58.8361L59.0466 21.2256C59.9151 19.7527 62.31 18.4639 64.9417 18.8848V24.0662Z" fill="white"/>
<path d="M73.8319 14.7025C73.8319 18.3058 68.2559 18.3321 68.2559 14.7025C68.2559 11.0466 73.8319 11.0729 73.8319 14.7025ZM73.4636 40.2147H68.5452V19.4367H73.4636V40.2147Z" fill="white"/>
<path d="M78.3555 15.3078L83.2739 14.7817V18.9111H86.8773V23.4088H83.2739V32.3514C83.2739 34.6923 83.6422 36.2704 86.9299 35.8759V40.1894C80.67 40.8733 78.3555 38.7165 78.3555 32.4303V15.3078Z" fill="white"/>
<path d="M101.186 40.1639V26.8284C101.186 24.2508 100.134 23.3039 98.1084 23.2776C95.9779 23.2776 94.9521 24.4349 94.9521 26.8021V40.1639H90.0337V12.5198H94.9521V20.6736C96.0305 19.3322 97.7138 18.8061 99.3972 18.8061C104 18.8061 106.104 21.7257 106.104 26.2761V40.1639H101.186Z" fill="white"/>
<path d="M110.74 18.9898H115.001L115.316 21.1466C116.5 19.5948 118.394 18.8057 120.314 18.8846C122.391 18.8846 124.522 19.5685 125.521 21.5674C126.626 19.9104 128.862 18.832 131.545 18.832C135.937 18.832 138.541 21.3833 138.541 27.1171V40.1629H133.622V27.1171C133.622 24.3817 132.518 23.2771 130.466 23.2771C128.599 23.2771 127.205 24.0661 127.126 27.0908V40.1629H122.207V27.1171C122.207 24.3817 121.103 23.2771 119.051 23.2771C117.157 23.2771 115.632 24.1976 115.632 26.933V40.1366H110.74V18.9898Z" fill="white"/>
<path d="M153.757 25.6181C153.757 24.0136 152.495 23.2772 150.917 23.2772C149.023 23.2772 147.866 24.0399 147.866 25.5129C147.866 27.8537 150.312 27.5118 153.153 27.8537C155.993 28.1694 158.834 29.8527 158.834 33.6402C158.834 38.2693 155.204 40.2946 150.654 40.2946C145.63 40.2946 142.605 37.7433 142.605 33.6402H147.603C147.708 35.1131 148.497 35.981 150.864 35.981C152.837 35.981 153.836 34.8764 153.836 33.8243C153.836 32.0357 151.496 31.9831 148.944 31.6675C145.867 31.273 142.868 29.9316 142.868 25.7759C142.868 20.9889 146.288 18.8848 150.864 18.8848C156.072 18.8848 158.544 21.8306 158.544 25.6444H153.757V25.6181Z" fill="white"/>
<path d="M0.525879 12.5461H5.41804V32.3263C5.41804 34.641 5.83887 35.4038 7.89042 35.4038V40.1121C2.2092 40.1121 0.525879 38.4287 0.525879 32.3789V12.5461Z" fill="white"/>
</svg>
