<svg width="284" height="44" viewBox="0 0 284 44" fill="none" xmlns="http://www.w3.org/2000/svg">
<path d="M258.69 22.5177C254.487 21.9421 251.184 23.6162 251.184 27.8277V43.9999H244.717V15.7231H250.655L250.939 18.6887C252.071 16.7268 255.235 15.0036 258.68 15.5792L258.69 22.5177Z" fill="#294948"/>
<path d="M218.433 32.8776V16.7019H224.44V32.846C224.44 36.2222 225.8 37.6015 228.296 37.6015C230.623 37.6015 232.451 36.4469 232.451 33.0671V16.7124H238.458V42.9326H233.254L232.86 40.2688C232.137 41.1948 231.207 41.9326 230.147 42.4209C229.086 42.9093 227.926 43.134 226.763 43.0765C224.222 43.0765 221.147 42.4132 219.918 39.9179C218.722 37.7813 218.203 35.3233 218.433 32.8776Z" fill="#294948"/>
<path d="M0 6.97363H6.41523V33.1342C6.41523 36.191 6.98993 37.2123 9.62457 37.2123V43.4734C2.20188 43.4734 0 41.2413 0 33.2324V6.97363Z" fill="#294948"/>
<path d="M21.1629 3.62193C21.1629 8.3318 13.9341 8.38094 13.9341 3.62193C13.9341 -1.23184 21.1629 -1.18271 21.1629 3.62193ZM20.6851 37.2263H14.2664V9.85146H20.6851V37.2263Z" fill="#294948"/>
<path d="M39.8863 12.2625C35.576 11.536 33.2357 13.4277 33.2357 16.5828V18.0393H39.1731V24.0056H33.2357V43.5189H26.8135V16.495C26.8135 10.09 31.4111 5.47842 39.8863 6.54533V12.2625Z" fill="#294948"/>
<path d="M64.3542 34.8819C64.3542 40.7534 60.8921 43.5225 53.6771 43.5225C46.4621 43.5225 43 40.1708 43 32.6427V26.3465C43 19.3554 46.4621 15.4668 53.6771 15.4668C60.8921 15.4668 64.3542 18.8149 64.3542 26.3465V31.8777H49.4152V32.6076C49.4152 37.121 51.1463 37.9457 53.7706 37.9457C56.7895 37.9457 58.0809 36.8929 58.0809 34.938H64.3542V34.8819ZM49.4152 26.5325H58.1293C58.1293 23.023 57.4577 21.0962 53.819 21.0962C50.0834 21.0821 49.4152 23.1879 49.4152 26.5325Z" fill="#294948"/>
<path d="M84.4746 25.9499C84.4746 22.7912 83.3736 21.2435 80.1643 21.2435C76.6226 21.2435 75.5666 23.2335 75.5666 26.6799V32.7445C75.5666 36.1909 76.4771 38.1808 79.8284 38.1808C83.1797 38.1808 84.4261 36.7244 84.4261 33.4253H90.5055C90.5055 40.9499 87.0434 43.9541 79.8284 43.9541C72.6135 43.9541 69.1514 40.606 69.1514 32.9375V26.6974C69.1514 19.1728 72.79 15.4843 80.0189 15.4843C87.2477 15.4843 90.5055 18.4429 90.5055 25.9674L84.4746 25.9499Z" fill="#294948"/>
<path d="M109.696 43.4733V25.9007C109.696 22.5034 108.356 21.24 105.673 21.24C102.903 21.24 101.556 22.7456 101.556 25.9007V43.5224H95.1411V7.02258H101.556V17.7479C102.941 15.9931 105.147 15.2701 107.348 15.2701C113.334 15.2701 116.062 19.1061 116.062 25.1251V43.4241H109.696V43.4733Z" fill="#294948"/>
<path d="M128.848 9.93199C128.848 14.6419 121.62 14.691 121.62 9.93199C121.62 5.07821 128.848 5.12735 128.848 9.93199ZM128.371 43.5223H121.955V16.1475H128.371V43.5223Z" fill="#294948"/>
<path d="M134.738 10.7079L141.153 9.98145V15.4178H145.799V21.3385H141.153V33.1343C141.153 36.1911 141.634 38.2793 145.896 37.795V43.4735C137.757 44.393 134.738 41.5292 134.738 33.2325V10.7079Z" fill="#294948"/>
<path d="M171.176 34.8819C171.176 40.7534 167.714 43.5225 160.499 43.5225C153.284 43.5225 149.822 40.1708 149.822 32.6427V26.3465C149.822 19.3554 153.284 15.4668 160.499 15.4668C167.714 15.4668 171.176 18.8149 171.176 26.3465V31.8777H156.237V32.6076C156.237 37.121 157.968 37.9457 160.596 37.9457C163.611 37.9457 164.903 36.8929 164.903 34.938H171.176V34.8819ZM156.237 26.5325H164.951C164.951 23.023 164.283 21.0962 160.641 21.0962C156.909 21.0821 156.237 23.1879 156.237 26.5325Z" fill="#294948"/>
<path d="M283.569 35.2712C283.569 41.1427 280.106 43.9083 272.891 43.9083C265.676 43.9083 262.214 40.5601 262.214 33.0285V26.7113C262.214 19.7237 265.676 15.8315 272.891 15.8315C280.106 15.8315 283.569 19.1797 283.569 26.7113V32.2459H268.63V32.9759C268.63 37.4892 270.361 38.314 272.988 38.314C276.004 38.314 277.295 37.2611 277.295 35.3028H283.569V35.2712ZM268.63 26.9219H277.344C277.344 23.4123 276.675 21.4855 273.033 21.4855C269.301 21.4855 268.63 23.5737 268.63 26.9219Z" fill="#294948"/>
<path d="M191.286 25.9499C191.286 22.7912 190.185 21.2435 186.976 21.2435C183.431 21.2435 182.378 23.2335 182.378 26.6799V32.7445C182.378 36.1909 183.289 38.1808 186.64 38.1808C189.991 38.1808 191.238 36.7244 191.238 33.4253H197.317C197.317 40.9499 193.855 43.9541 186.64 43.9541C179.425 43.9541 175.963 40.606 175.963 32.9375V26.6974C175.963 19.1728 179.602 15.4843 186.834 15.4843C194.066 15.4843 197.317 18.4429 197.317 25.9674L191.286 25.9499Z" fill="#294948"/>
<path d="M202.442 10.7079L208.861 9.98145V15.4178H213.504V21.3385H208.861V33.1343C208.861 36.1911 209.339 38.2793 213.601 37.795V43.4735C205.458 44.393 202.442 41.5292 202.442 33.2325V10.7079Z" fill="#294948"/>
</svg>
