<svg width="160" height="50" viewBox="0 0 160 50" fill="none" xmlns="http://www.w3.org/2000/svg">
<path d="M17.0174 9.6792C17.0174 13.2826 11.4414 13.3089 11.4414 9.6792C11.4414 6.02323 17.0174 6.07583 17.0174 9.6792ZM16.6492 35.1921H11.7307V14.4398H16.6492V35.1921Z" fill="#17CE6A"/>
<path d="M31.4565 16.4918C28.1424 15.9657 26.3276 17.3861 26.3276 19.7535V20.8582H30.8778V25.3825H26.3013V40.1917H21.3828V19.6746C21.3828 14.8346 24.9073 11.3099 31.4302 12.1253V16.4918H31.4565Z" fill="#17CE6A"/>
<path d="M50.2629 33.6666C50.2629 38.1116 47.6064 40.2421 42.0304 40.2421C36.4543 40.2421 33.7979 37.6908 33.7979 31.9833V27.17C33.7979 21.857 36.4543 18.9112 42.0304 18.9112C47.6064 18.9112 50.2629 21.4625 50.2629 27.17V31.3783H38.7689V31.9044C38.7689 35.3236 40.1103 35.9549 42.1093 35.9549C44.4501 35.9549 45.4233 35.1395 45.4233 33.6666H50.2629ZM38.7689 27.3015H45.4759C45.4759 24.645 44.9762 23.1721 42.1619 23.1721C39.2687 23.1721 38.7689 24.7502 38.7689 27.3015Z" fill="#17CE6A"/>
<path d="M64.9421 24.0664C61.7315 23.6455 59.2313 24.8817 59.2313 28.0643V40.2157H54.3101V18.9901H58.8366L59.0471 21.2257C59.9156 19.7528 62.3104 18.464 64.9421 18.8849V24.0664Z" fill="#17CE6A"/>
<path d="M73.8324 14.7028C73.8324 18.306 68.2563 18.3323 68.2563 14.7028C68.2563 11.0469 73.8324 11.0732 73.8324 14.7028ZM73.4641 40.2149H68.5457V19.437H73.4641V40.2149Z" fill="#17CE6A"/>
<path d="M78.356 15.3078L83.2744 14.7818V18.9112H86.8778V23.4088H83.2744V32.3515C83.2744 34.6924 83.6427 36.2705 86.9304 35.876V40.1895C80.6705 40.8733 78.356 38.7166 78.356 32.4304V15.3078Z" fill="#17CE6A"/>
<path d="M101.186 40.1639V26.8285C101.186 24.2508 100.134 23.3039 98.1089 23.2776C95.9784 23.2776 94.9526 24.4349 94.9526 26.8022V40.1639H90.0342V12.5198H94.9526V20.6737C96.031 19.3322 97.7143 18.8062 99.3977 18.8062C104 18.8062 106.105 21.7258 106.105 26.2761V40.1639H101.186Z" fill="#17CE6A"/>
<path d="M110.74 18.99H115.001L115.317 21.1468C116.5 19.595 118.394 18.8059 120.314 18.8848C122.392 18.8848 124.522 19.5687 125.522 21.5676C126.627 19.9106 128.862 18.8322 131.545 18.8322C135.937 18.8322 138.541 21.3835 138.541 27.1173V40.1631H133.623V27.1173C133.623 24.3819 132.518 23.2772 130.467 23.2772C128.599 23.2772 127.205 24.0663 127.126 27.091V40.1631H122.208V27.1173C122.208 24.3819 121.103 23.2772 119.052 23.2772C117.158 23.2772 115.632 24.1978 115.632 26.9332V40.1368H110.74V18.99Z" fill="#17CE6A"/>
<path d="M153.758 25.6182C153.758 24.0138 152.495 23.2773 150.917 23.2773C149.024 23.2773 147.866 24.0401 147.866 25.513C147.866 27.8539 150.312 27.5119 153.153 27.8539C155.994 28.1695 158.834 29.8528 158.834 33.6403C158.834 38.2694 155.205 40.2947 150.654 40.2947C145.631 40.2947 142.606 37.7434 142.606 33.6403H147.603C147.709 35.1132 148.498 35.9812 150.865 35.9812C152.837 35.9812 153.837 34.8765 153.837 33.8244C153.837 32.0359 151.496 31.9833 148.945 31.6676C145.867 31.2731 142.869 29.9317 142.869 25.776C142.869 20.989 146.288 18.8849 150.865 18.8849C156.073 18.8849 158.545 21.8307 158.545 25.6445H153.758V25.6182Z" fill="#17CE6A"/>
<path d="M0.526367 12.5461H5.41853V32.3263C5.41853 34.641 5.83936 35.4038 7.89091 35.4038V40.1121C2.20969 40.1121 0.526367 38.4287 0.526367 32.3789V12.5461Z" fill="#17CE6A"/>
</svg>
