<svg width="45" height="46" viewBox="0 0 45 46" fill="none" xmlns="http://www.w3.org/2000/svg">
<rect x="0.5" y="0.663574" width="44" height="44" rx="22" stroke="white"/>
<path d="M32.7108 24.7097V31.9929H28.4912V25.201C28.4912 23.4958 27.8843 22.3253 26.3525 22.3253C25.182 22.3253 24.4883 23.1057 24.1849 23.8716C24.0693 24.1461 24.0404 24.5218 24.0404 24.8976V31.9929H19.8063C19.8063 31.9929 19.8641 20.4756 19.8063 19.2762H24.0404V21.0826C24.0259 21.097 24.0259 21.1115 24.0115 21.1259H24.0404V21.0826C24.6039 20.2155 25.601 18.9872 27.8553 18.9872C30.6299 18.9872 32.7108 20.808 32.7108 24.7097ZM15.3988 13.1636C13.9393 13.1636 13 14.1173 13 15.3601C13 16.5739 13.9248 17.5566 15.341 17.5566H15.3699C16.8439 17.5566 17.7543 16.5739 17.7543 15.3601C17.7254 14.1173 16.8439 13.1636 15.3988 13.1636ZM13.2457 32.0073H17.4797V19.2907H13.2457V32.0073Z" fill="white"/>
</svg>
