<svg width="45" height="46" viewBox="0 0 45 46" fill="none" xmlns="http://www.w3.org/2000/svg">
<rect x="0.5" y="0.663574" width="44" height="44" rx="22" stroke="white"/>
<path d="M31.127 17.5166L32.7007 16.016V15.6851H27.2561L23.3737 25.3469L18.9602 15.6851H13.2501V16.016L15.0855 18.2246C15.2664 18.3862 15.3587 18.6286 15.3356 18.8672V27.5555C15.3933 27.8672 15.2894 28.1904 15.0701 28.4174L13 30.9223V31.2456H18.864V30.9146L16.7939 28.4136C16.5708 28.1866 16.463 27.871 16.5092 27.5517V20.0408L21.6575 31.2533H22.2578L26.6866 20.0408V28.9715C26.6866 29.2062 26.6866 29.2562 26.5327 29.4102L24.9397 30.9493V31.2802H32.6661V30.9493L31.1308 29.4448C30.9962 29.3447 30.9269 29.1716 30.9538 29.0061V17.9553C30.9269 17.7898 30.9923 17.6205 31.127 17.5166Z" fill="white"/>
</svg>
