<svg width="154" height="83" viewBox="0 0 154 83" fill="none" xmlns="http://www.w3.org/2000/svg">
<g clip-path="url(#clip0)">
<path d="M145.716 41.5022C146.686 41.4581 147.65 41.3308 148.598 41.1215C149.279 40.8908 149.509 40.8908 149.359 40.4409C149.209 39.991 148.673 39.4546 148.598 39.074C148.523 38.6933 147.388 39.5296 147.388 39.5296C147.388 39.5296 148.218 38.4683 147.843 38.2376C147.468 38.0069 147.313 37.707 147.007 37.782C146.701 37.857 146.252 38.4683 146.252 38.4683C146.252 38.4683 146.402 37.4821 145.946 37.557C145.491 37.632 144.505 39.074 144.43 39.6796C144.355 40.2852 145.716 41.5022 145.716 41.5022Z" fill="#E2E9F2"/>
<path d="M143.139 41.7271C143.337 40.7416 143.874 39.8563 144.655 39.2239C144.655 39.2239 146.327 40.1352 146.627 41.4214C145.946 42.0844 145.071 42.511 144.13 42.6384C142.764 42.7134 143.139 41.7271 143.139 41.7271Z" fill="#BEC8D6"/>
<path d="M122.222 53.8625C122.222 53.8625 124.874 54.768 129.878 54.618C134.883 54.4681 139.276 53.7875 141.092 53.0261C143.354 51.8794 145.447 50.4257 147.312 48.7061L147.687 47.4891C147.687 47.4891 145.491 41.8021 141.853 39.991C138.215 38.18 134.272 36.5016 130.028 36.1959C125.785 35.8902 116.613 38.3934 113.05 40.7408C109.487 43.0883 115.777 48.0947 115.777 48.0947L122.222 53.8625Z" fill="#E2E9F2"/>
<path d="M149.128 49.3118C149.893 49.7264 150.769 49.886 151.631 49.7675C153.222 49.6117 152.997 49.3118 153.297 49.0061C153.596 48.7004 152.386 48.4005 152.386 48.4005C152.386 48.4005 153.539 48.2506 153.539 48.0198C153.549 47.6645 153.523 47.309 153.464 46.9586C153.383 46.6587 153.083 46.5029 152.933 46.0473C152.784 45.5916 152.853 45.2167 152.247 45.2917C151.22 45.518 150.227 45.8746 149.29 46.353C148.829 46.6587 149.128 49.3118 149.128 49.3118Z" fill="#E2E9F2"/>
<path d="M147.313 46.7337C147.276 47.2338 147.147 47.7228 146.932 48.1757C146.74 48.5488 146.66 48.9694 146.701 49.3869C147.757 49.8221 148.913 49.9539 150.04 49.7676L150.57 48.1757C150.72 47.72 150.264 46.1281 149.89 46.0474C148.978 45.9824 148.071 46.224 147.313 46.7337Z" fill="#BEC8D6"/>
<path d="M124.353 54.2541C122.328 45.3287 115.576 39.4524 115.504 39.3945L116.136 38.666C116.42 38.9121 123.191 44.8221 125.298 54.0418L124.353 54.2541Z" fill="#F3A636"/>
<path d="M129.219 53.1781C127.714 42.4338 119.261 38.8685 119.174 38.8347L119.536 37.9374C119.627 37.976 128.592 41.7343 130.174 53.043L129.219 53.1781Z" fill="#F3A636"/>
<path d="M136.25 53.2943C134.528 46.1106 126.489 37.8558 126.407 37.7593L127.097 37.0839C127.434 37.4312 135.406 45.6281 137.185 53.0724L136.25 53.2943Z" fill="#F3A636"/>
<path d="M141.058 51.9241C140.576 43.8767 132.17 37.3877 132.083 37.325L132.667 36.5531C133.028 36.8281 141.53 43.3798 142.022 51.8662L141.058 51.9241Z" fill="#F3A636"/>
<path d="M75.4031 71.581C76.0661 72.7749 77.0002 73.7963 78.13 74.5629C79.8596 75.6242 81.5142 75.878 81.716 75.6242C81.9178 75.3704 80.9089 74.3611 81.3643 74.3092C81.8198 74.2572 83.9932 75.2724 85.1059 75.0186C86.2186 74.7648 83.3764 70.8197 82.5231 70.4044C81.6699 69.9891 77.5247 70.6063 76.51 70.7101C76.2531 70.7042 76.0022 70.7878 75.8003 70.9467C75.5983 71.1056 75.4579 71.3299 75.4031 71.581Z" fill="#7E6445"/>
<path d="M50.4398 28.0114C50.4398 28.0114 47.4073 20.4268 40.4314 18.783C33.4555 17.1392 28.1515 19.9654 24.5137 24.6661C20.8758 29.3668 13.1447 43.9246 16.1772 57.1212C19.2097 70.3177 29.2123 76.3854 39.9759 77.141C50.7396 77.8966 69.2343 76.2297 73.1777 73.9572C77.1211 71.6847 77.5766 70.3177 76.3601 68.9508C75.1436 67.5838 69.6898 64.8557 67.4183 61.5219C65.1468 58.1882 50.4398 28.0114 50.4398 28.0114Z" fill="#30D2D0"/>
<path d="M110.421 72.4233C109.609 71.9816 108.846 71.4558 108.144 70.8545C107.285 70.047 105.52 70.5026 105.67 71.0102C105.82 71.5178 106.823 73.2308 108.046 73.4845C109.268 73.7383 110.421 72.4233 110.421 72.4233Z" fill="#2EC8C6"/>
<path d="M105.567 76.1319C105.567 76.1319 108.397 70.2661 118.659 69.7874C128.921 69.3087 136.295 71.5177 140.135 73.6287C140.427 73.7938 140.756 73.8812 141.092 73.8825C141.668 73.8825 143.669 73.3057 144.735 73.7844C145.802 74.2632 144.782 75.4513 144.124 75.6532C143.467 75.8551 141.749 76.1607 141.046 75.8551C141.046 75.8551 139.679 78.8889 137.102 79.3964C137.578 79.6739 137.951 80.0992 138.163 80.6077C138.469 81.4152 138.74 81.6689 138.74 81.9746C138.74 82.2803 138.036 82.4245 137.327 82.1765C136.618 81.9285 135.021 81.5651 134.6 80.8095C134.6 80.8095 115.65 85.3603 106.299 78.2833C105.435 78.5553 104.519 78.6243 103.624 78.4851C102.257 78.2314 100.741 77.1182 100.943 76.7144C101.145 76.3107 101.6 76.9163 102.863 76.5645C104.125 76.2126 104.708 75.8262 105.567 76.1319Z" fill="#30D2D0"/>
<path d="M4.88323 43.9995C4.3998 43.8271 3.94356 43.5863 3.52841 43.2843C2.88847 42.8056 2.72705 42.7076 2.24853 41.4444C1.77002 40.1813 2.57139 38.4913 2.57139 38.4913C2.45032 38.0184 1.88533 36.2938 1.6086 35.4517C1.59175 35.4028 1.58868 35.3501 1.59971 35.2995C1.61075 35.249 1.63546 35.2024 1.67115 35.1649C1.70685 35.1274 1.75215 35.1004 1.80212 35.0869C1.85209 35.0734 1.90481 35.0739 1.95451 35.0884C2.86801 35.4777 3.66325 36.1002 4.26059 36.8937C4.90053 36.5765 7.29308 36.415 7.29308 36.415C7.5234 35.661 7.86126 34.9441 8.29623 34.2867C8.34078 34.233 8.3978 34.191 8.46231 34.1645C8.52682 34.138 8.59685 34.1277 8.66627 34.1345C8.73568 34.1413 8.80236 34.1651 8.86047 34.2037C8.91858 34.2423 8.96635 34.2945 8.99958 34.3559C9.39014 35.1417 9.49413 36.0393 9.29361 36.8937C9.80684 37.901 10.1719 38.9772 10.3775 40.089C10.7003 41.8193 9.10336 43.2036 9.10336 43.2036C9.10336 43.2036 11.1788 44.0803 11.6573 45.8395C12.8104 50.1422 16.6385 58.9034 15.8083 63.2465C15.0876 66.9955 12.1359 65.7958 12.1359 65.7958L13.41 66.4361C14.6898 67.0763 21.9425 66.3726 19.5499 64.4577C17.1573 62.5428 17.6301 60.6222 17.7915 58.8688C17.8451 58.1003 18.1142 57.3625 18.568 56.7401C19.0218 56.1178 19.6419 55.6361 20.357 55.3505C21.6427 54.866 23.2396 54.393 23.4645 56.1349C23.6893 57.8767 20.4666 56.8443 20.3224 60.553C20.1783 64.2616 24.975 62.2198 23.9487 66.2803C22.9225 70.3408 12.7758 70.7503 9.9912 69.8333C7.20661 68.9162 7.78889 67.1513 7.78889 67.1513C7.78889 67.1513 6.23229 68.351 3.6783 66.4707C1.12432 64.5904 0.495913 60.0512 0.0519928 58.2747C-0.391928 56.4982 1.9891 56.0484 1.9891 56.0484C2.04675 51.2438 3.76478 45.7587 3.76478 45.7587C3.82086 45.4045 3.94907 45.0656 4.14146 44.763C4.33385 44.4604 4.58633 44.2005 4.88323 43.9995Z" fill="#EAE6D6"/>
<path d="M143.974 64.0254C143.974 64.0254 143.519 64.5214 144.58 64.3022C146.995 63.8004 151.233 64.9309 152.161 64.706C154.029 64.2503 154.058 61.4414 153.983 59.3996C153.914 58.1264 153.752 56.8599 153.498 55.6102C153.349 54.8374 152.997 55.541 152.876 55.0854C152.576 53.9318 152.403 53.9318 151.336 53.9318C150.431 53.9318 149.941 53.355 149.607 54.9989C149.544 55.2757 149.492 55.5756 149.451 55.8352C149.146 57.727 148.996 60.0053 147.405 60.2302C147.405 60.2302 144.597 60.1552 143.992 60.1552C143.386 60.1552 143.974 64.0254 143.974 64.0254Z" fill="#AAA87C"/>
<path d="M153.498 55.6102C153.349 54.8374 153.193 54.1625 153.072 53.7069C152.766 52.5533 152.541 51.8151 151.481 51.8151C150.57 51.8151 149.941 53.3666 149.59 54.9989C150.732 55.5601 152.005 55.8013 153.274 55.6968L153.498 55.6102Z" fill="#E2E0A5"/>
<path d="M93.8689 49.1616C94.9072 48.2765 96.0246 47.4888 97.207 46.8083C98.5676 46.1277 98.8731 46.047 99.4785 45.972C100.084 45.897 101.45 46.6584 102.661 47.1256C103.872 47.5927 107.515 51.5206 109.867 53.1125C112.22 54.7044 118.515 57.3633 118.515 57.3633L121.703 56.6769C121.703 56.6769 123.433 55.085 123.519 54.4044C123.606 53.7239 117.178 46.2892 116.601 45.5279C116.025 44.7665 109.181 34.8287 107.809 33.1561C106.437 31.4834 104.471 29.4417 102.574 29.4417C100.678 29.4417 93.9266 30.0473 89.6892 33.7675C85.4517 37.4877 74.4633 44.7377 74.4633 44.7377L73.783 51.0822L93.8689 49.1616Z" fill="#333333"/>
<path d="M88.9456 26.2812C88.9456 26.2812 88.0347 25.2949 88.0347 25.0642C88.0347 24.8335 99.4786 15.6628 99.8591 15.5878C100.24 15.5128 100.614 20.202 103.802 22.5091C103.802 22.5091 103.572 27.4405 105.924 29.7938L95.7658 39.9046L95.2354 38.9241L91.0902 28.6863L88.9456 26.2812Z" fill="#18CE6A"/>
<path d="M103.117 23.2071C103.117 23.2071 99.0233 20.3232 98.4179 18.0161L87.7292 26.3332C88.3851 28.2035 89.6369 29.8064 91.2921 30.8955L92.4452 31.8068L103.117 23.2071Z" fill="#EFEDE4"/>
<path d="M69.3092 64.4C70.7828 64.9871 72.3049 65.4445 73.8579 65.767C76.2424 66.1091 78.6502 66.2615 81.0587 66.2226C84.0912 66.2226 89.4009 66.7532 94.3994 66.6783C99.3978 66.6033 106.224 65.3113 110.473 66.1476C114.722 66.984 130.784 68.1202 136.318 67.3589C141.853 66.5975 144.735 65.3863 144.735 65.3863C144.294 63.3672 144.241 61.2825 144.58 59.2436C144.58 59.2436 141.322 58.788 138.595 58.2574C135.868 57.7267 121.692 55.3735 120.147 54.9986C118.602 54.6237 113.851 53.7066 111.885 53.2683C109.919 52.8299 107.031 51.7513 103.998 50.765C100.966 49.7788 94.6761 48.5618 93.8401 48.4118C93.0042 48.2619 92.3239 48.2618 92.1106 47.8812C91.8973 47.5005 84.3218 46.5027 82.4423 46.5027C80.5629 46.5027 73.9502 48.3253 73.9502 48.3253L68.7788 60.8874L69.3092 64.4Z" fill="#383838"/>
<path d="M55.594 20.5133C55.594 20.5133 57.5599 16.1875 57.7905 14.4457L58.9436 11.1061L59.1742 7.06873L64.2476 7.68011L69.1019 11.4695C69.1019 11.4695 69.6323 15.9453 69.6323 16.1702C69.6323 16.3952 69.3267 16.9316 68.952 16.9316C68.6719 16.9374 68.3926 16.9625 68.116 17.0065C68.116 17.0065 67.6606 18.4485 67.5856 18.9041C67.5107 19.3598 67.0091 19.9654 65.7638 20.0577C65.1487 20.1293 64.5254 20.0501 63.9478 19.827C63.9478 19.827 62.5814 22.7858 62.4315 23.7721C62.2816 24.7584 59.1742 23.3165 59.1742 23.3165L55.594 20.5133Z" fill="#93704D"/>
<path d="M69.2342 13.0153C69.2342 13.0153 69.6147 15.8992 69.6147 16.1529C69.6147 16.4067 69.3092 16.9143 68.9344 16.9143C68.6544 16.9201 68.3751 16.9452 68.0985 16.9893C68.0985 16.9893 68.0293 16.9893 68.0293 16.5682C68.0293 16.1472 68.8018 13.1076 68.8018 13.1076C68.8018 13.1076 68.8595 12.9461 69.2342 13.0153Z" fill="#8E673F"/>
<path d="M66.2019 12.5308C66.5553 12.4754 66.9164 12.4931 67.2627 12.5827C67.8392 12.7327 68.0756 13.0903 68.2255 12.7327C68.3754 12.3751 68.4791 11.9252 67.9718 11.7233C67.4613 11.5026 66.9135 11.3812 66.3576 11.3657C66.0001 11.4176 65.6484 11.7233 65.6484 11.9771C65.6484 12.2309 66.1039 12.6808 66.2019 12.5308Z" fill="#3E3020"/>
<path d="M62.1084 9.39901C63.0712 9.69894 63.5785 11.5735 63.5785 11.5735C63.7284 11.7753 64.3338 12.2771 64.5298 11.8215C64.74 11.4307 64.9769 11.0549 65.2389 10.6968C65.3572 10.5259 65.5333 10.4037 65.7347 10.3528C65.9361 10.3019 66.1491 10.3258 66.3343 10.4199C66.5361 10.5237 68.1734 11.3658 69.1304 11.8215C70.0874 12.2771 71.1021 10.8063 71.1021 10.5064C71.1021 10.2065 71.2001 9.75085 70.393 8.94336C69.6079 8.15003 69.064 7.14995 68.8249 6.05949C68.7268 5.25201 67.3605 3.787 66.5995 3.58513C66.0011 3.46808 65.3875 3.45054 64.7835 3.53322L63.3113 3.32206L61.6002 2.88782C61.6002 2.89384 61.4973 2.88723 61.4973 2.88723C61.4973 2.88723 61.1514 2.83532 60.3442 2.83532C57.969 2.78341 55.9454 6.92465 55.588 8.69535C55.2632 9.936 55.409 11.253 55.9973 12.3925C56.4005 13.3568 56.9639 14.2461 57.6634 15.0226C58.1989 15.2123 58.7616 15.3136 59.3296 15.3225C59.958 15.259 61.382 14.0478 61.9124 13.3903C62.4428 12.7328 61.8663 12.479 61.8663 12.479C60.3442 12.0233 59.7793 9.80852 60.1367 9.19714C60.4941 8.58576 61.1456 9.09909 62.1084 9.39901Z" fill="#323232"/>
<path d="M49.7307 24.3086C49.7307 24.3086 48.1107 28.346 48.2145 30.4801C48.3183 32.6141 52.965 48.6773 54.193 50.7018C55.421 52.7263 57.4273 56.6656 57.4273 56.6656C57.4273 56.6656 64.922 62.8371 66.8246 63.8465C68.7271 64.8558 69.3267 64.4232 69.3267 64.4232C69.3267 64.4232 73.2931 59.7225 74.0022 56.3888C74.7114 53.055 74.7114 52.138 75.0111 51.0248C75.3109 49.9116 75.7203 47.691 75.824 47.0854C75.9278 46.4798 76.0258 43.048 76.0258 43.048C76.0258 43.048 68.606 38.5665 68.1217 37.759C67.6375 36.9515 49.7307 24.3086 49.7307 24.3086Z" fill="#F74F5A"/>
<path d="M62.603 60.0472C62.603 60.0472 69.8074 55.758 72.1272 47.346C74.4471 38.9339 72.9837 38.9339 72.9837 38.9339L71.6965 38.6744C71.6965 38.6744 68.9068 46.822 66.8904 49.4073C64.7467 52.1542 64.0615 53.6133 60.7139 54.7934C59.6262 55.1797 58.5057 55.4665 57.3662 55.6502C57.3662 55.6502 59.5148 57.883 59.7693 58.0544C60.0238 58.2257 62.603 60.0472 62.603 60.0472Z" fill="#E1F3E9"/>
<path d="M54.366 50.7877C56.6319 50.8178 58.8709 50.2943 60.8888 49.2628C62.9067 48.2312 64.6425 46.7227 65.9457 44.868C70.5806 38.4292 70.9232 37.2247 70.9232 37.2247L69.4549 35.511C69.4549 35.511 61.9178 44.0062 58.9127 44.868C56.8104 45.3939 54.64 45.5953 52.4768 45.4654L54.366 50.7877Z" fill="#E1F3E9"/>
<path d="M50.8322 40.1433C50.8322 40.1433 54.7819 41.2597 59.6712 38.8556C62.6571 37.3791 65.4282 35.5028 67.9082 33.2786L67.0615 31.1584C67.0615 31.1584 55.5258 36.285 48.7668 32.6274L50.8322 40.1433Z" fill="#E1F3E9"/>
<path d="M63.9939 44.2304C63.9939 44.2304 70.7622 49.7906 75.5243 49.9982C80.2864 50.2058 85.4289 43.9305 86.8472 41.2024C88.2654 38.4742 88.9687 37.0554 89.6721 36.7554C90.3755 36.4555 93.1312 35.2385 93.1312 35.2385L95.0568 32.8103L92.2261 28.969C90.8879 29.7054 89.7712 30.7868 88.9918 32.1009C87.7754 34.2234 82.9268 37.9667 81.105 38.878C79.2832 39.7893 76.9656 41.3062 76.1527 41.1851C75.3398 41.064 70.2953 37.7244 69.9897 37.5456C69.6842 37.3668 63.9939 44.2304 63.9939 44.2304Z" fill="#93704D"/>
<path d="M91.8225 29.0613C91.8225 29.0613 93.4944 28.6864 94.2497 28.4845C95.0049 28.2827 95.4027 27.5732 95.7659 27.5732C96.1291 27.5732 96.4462 28.4096 95.9158 28.9402C95.3854 29.4708 93.1139 30.9877 92.964 31.4434C92.8141 31.899 93.5924 34.7368 93.5924 34.7368L92.007 35.7923L90.6118 31.8241C90.6118 31.8241 91.4478 29.367 91.8225 29.0613Z" fill="#93704D"/>
<path d="M62.2239 11.4695C62.2239 11.4695 62.1835 10.4833 61.5436 10.2179C60.9037 9.95262 60.8575 10.3333 60.9671 10.714C61.0766 11.0946 61.2726 11.5849 61.5436 11.5099C61.8146 11.4349 62.1489 11.6599 62.2239 11.4695Z" fill="#8E673F"/>
<path d="M67.2627 15.3223C66.77 14.9704 66.2045 14.7338 65.6081 14.6302C64.8413 14.5783 64.8413 15.5992 65.1238 15.6799C65.6609 15.7465 66.19 15.8663 66.7034 16.0375C67.1877 16.2856 67.4529 15.5992 67.2627 15.3223Z" fill="#9B6150"/>
<path d="M66.9802 14.2151C67.1872 14.2151 67.3549 14.0473 67.3549 13.8402C67.3549 13.6332 67.1872 13.4653 66.9802 13.4653C66.7732 13.4653 66.6055 13.6332 66.6055 13.8402C66.6055 14.0473 66.7732 14.2151 66.9802 14.2151Z" fill="#3E3020"/>
<path d="M55.7957 19.6599C55.7957 19.6599 52.0541 20.6692 50.6416 22.2899C49.2291 23.9107 48.8198 28.1557 48.912 29.367C49.0043 30.5782 52.0425 34.2176 54.0661 36.0402C56.0897 37.8629 63.2904 45.3436 63.867 45.2686C64.4435 45.1937 70.3355 39.5816 71.0562 37.3553C71.0562 37.3553 71.356 37.0496 70.9524 36.5478C69.6448 34.8178 68.5276 32.9517 67.6201 30.9819C66.7092 28.7614 64.7836 24.3087 62.466 22.4918C60.1484 20.675 57.3119 19.556 55.7957 19.6599Z" fill="#F74F5A"/>
<path d="M50.7647 37.8182C50.7647 37.8182 54.6753 38.9463 59.5163 36.517C62.4726 35.0251 65.2163 33.1293 67.6719 30.8818L66.8335 28.7395C66.8335 28.7395 55.4119 33.9196 48.7197 30.2238L50.7647 37.8182Z" fill="#FCFAEF"/>
<path d="M49.1658 26.7612C49.1658 26.7612 53.309 27.6072 57.0645 26.9542C59.4482 26.5227 61.7785 25.8259 64.0135 24.8762L63.0443 23.4414L61.135 22.2095C61.135 22.2095 55.2716 23.8966 51.1332 22.8576L49.1658 26.7612Z" fill="#FCFAEF"/>
<path d="M58.5959 39.4272C58.5959 39.4272 65.2202 37.7351 67.963 32.5946L69.3004 34.351C69.3004 34.351 63.374 42.0296 61.5907 42.2671L58.5959 39.4272Z" fill="#FCFAEF"/>
<path d="M92.053 32.095C91.627 32.9671 91.519 33.9606 91.7474 34.9039C92.1279 36.4958 94.2495 40.5159 94.2495 40.5159L104.05 31.0338C104.05 31.0338 102.84 25.1968 103.065 23.2242L92.053 32.095Z" fill="#FCFAEF"/>
<path d="M59.9869 68.1954C59.9869 68.1954 57.8653 58.1826 57.5597 53.9664C57.2542 49.7501 55.2882 40.2853 50.7337 35.4346C46.1792 30.5839 41.9476 29.3669 40.4313 29.3669C38.9151 29.3669 36.0325 35.2789 36.0325 35.2789L50.4455 61.0665L59.9869 68.1954Z" fill="#32CDCB"/>
<path d="M69.0902 65.9745C69.0475 65.9739 69.0057 65.9619 68.9691 65.9399C65.8848 63.9154 58.2286 57.7728 57.8884 57.4267C57.5483 57.0806 57.4215 55.1196 57.3465 53.9257C57.0121 49.2596 54.8848 40.1466 50.5839 35.5554C46.1217 30.8374 41.9995 29.58 40.4314 29.58C40.4032 29.5808 40.3751 29.5759 40.3488 29.5654C40.3226 29.555 40.2988 29.5393 40.2788 29.5193C40.2588 29.4993 40.2432 29.4755 40.2327 29.4492C40.2223 29.423 40.2173 29.3949 40.2181 29.3666C40.2173 29.3381 40.2223 29.3098 40.2327 29.2832C40.243 29.2566 40.2586 29.2324 40.2785 29.212C40.2984 29.1916 40.3222 29.1753 40.3484 29.1642C40.3747 29.1532 40.4029 29.1475 40.4314 29.1475C42.086 29.1648 46.3523 30.4337 50.8952 35.2843C55.8245 40.5445 57.5368 50.5054 57.7789 53.9199C57.8031 55.0085 57.9442 56.0914 58.1998 57.1499C58.5111 57.4671 66.1384 63.5636 69.2055 65.5765C69.2428 65.6028 69.2709 65.6401 69.286 65.6831C69.301 65.7262 69.3023 65.7728 69.2896 65.8166C69.2769 65.8604 69.2509 65.8992 69.2152 65.9275C69.1794 65.9558 69.1357 65.9722 69.0902 65.9745Z" fill="#2EC8C6"/>
<path d="M56.9546 60.0687C56.9062 60.0686 56.8593 60.0519 56.8215 60.0215C56.7838 59.9911 56.7576 59.9488 56.7471 59.9015C52.2675 40.4988 40.1433 33.266 40.028 33.191C40.0032 33.1773 39.9813 33.1586 39.9638 33.1363C39.9463 33.114 39.9333 33.0883 39.9258 33.0609C39.9183 33.0335 39.9163 33.0049 39.92 32.9768C39.9237 32.9486 39.933 32.9214 39.9473 32.8969C39.961 32.8719 39.9796 32.85 40.0021 32.8326C40.0246 32.8152 40.0505 32.8025 40.078 32.7955C40.1056 32.7885 40.1343 32.7872 40.1624 32.7917C40.1905 32.7963 40.2174 32.8065 40.2413 32.8219C40.3682 32.8911 52.6538 40.2219 57.1737 59.8034C57.1859 59.8592 57.1758 59.9175 57.1457 59.966C57.1155 60.0145 57.0677 60.0493 57.0123 60.063L56.9546 60.0687Z" fill="#2EC8C6"/>
</g>
<defs>
<clipPath id="clip0">
<rect y="0.326416" width="154" height="82" fill="white"/>
</clipPath>
</defs>
</svg>
