<svg width="126" height="110" viewBox="0 0 126 110" fill="none" xmlns="http://www.w3.org/2000/svg">
<path d="M125.779 105.638C125.779 108.048 97.6217 110 62.8897 110C28.1577 110 0 108.048 0 105.638C0 103.229 28.1558 101.277 62.8897 101.277C97.6236 101.277 125.779 103.235 125.779 105.638Z" fill="#1F714A" fill-opacity="0.6"/>
<path d="M53.9587 20.9271C52.9769 19.9454 48.9001 19.2297 48.2574 19.7243C47.6148 20.2189 46.4195 24.0335 46.4195 26.5028C46.4195 26.7464 46.4026 27.0855 46.3745 27.4921C47.2232 28.101 48.2799 28.2658 49.3722 28.0672C49.494 25.3543 49.6214 23.4545 49.805 23.2709C50.5113 22.5646 51.9727 22.0681 51.9727 22.0681C51.9727 22.0681 53.05 22.9862 53.3348 23.2709C53.6196 23.5557 53.672 22.1224 52.7015 21.6185C51.731 21.1145 49.8818 21.7196 50.4195 21.18C50.9572 20.6405 52.9882 21.21 53.3985 21.6185C53.8088 22.0269 54.3484 24.6012 54.7905 24.6012C55.2327 24.6012 54.9442 21.9089 53.9587 20.9271Z" fill="#D3844A"/>
<path d="M46.7771 22.375C47.7589 21.3932 51.8451 20.6775 52.4784 21.1722C53.1116 21.6668 54.3145 25.4813 54.3145 27.9507C54.3145 28.1943 54.3313 29.4964 54.3613 29.9029C53.5126 30.5118 52.454 29.7156 51.3636 29.517C51.2418 26.8041 51.1163 24.9024 50.9327 24.7188C50.2264 24.0143 48.765 23.516 48.765 23.516C48.765 23.516 47.6877 24.434 47.4029 24.7188C47.1181 25.0036 47.0657 23.5703 48.0362 23.0663C49.0067 22.5623 50.8559 23.1675 50.3163 22.6298C49.7767 22.0921 47.7476 22.6579 47.3392 23.0663C46.9308 23.4748 46.3968 26.0434 45.9528 26.0434C45.5087 26.0434 45.7935 23.3567 46.7771 22.375Z" fill="#C57338"/>
<path d="M79.9592 104.358H48.7383C48.7383 103.911 48.9159 103.482 49.2322 103.166C49.5484 102.85 49.9773 102.672 50.4245 102.672H78.2712C78.7184 102.672 79.1473 102.85 79.4635 103.166C79.7797 103.482 79.9574 103.911 79.9574 104.358H79.9592Z" fill="#27B072"/>
<path d="M92.9868 54.3118C92.9868 54.3118 73.0577 54.5553 66.6483 59.1587C60.2389 63.762 45.8518 99.1835 42.7811 100.504C39.7103 101.825 33.2465 99.4008 32.2891 99.4008C31.3317 99.4008 44.4766 105.795 44.4766 105.795C44.4766 105.795 68.0254 76.0937 68.9771 72.2417C69.9289 68.3897 87.2218 64.3728 87.2218 64.3728L93.8655 54.3118H92.9868Z" fill="#241145"/>
<path d="M64.4934 53.3378H62.3276V102.67H64.4934V53.3378Z" fill="#211106"/>
<path d="M85.5426 51.2949H40.5772C37.6114 51.0851 35.6872 50.7328 34.876 50.5155L35.7078 52.9961L35.9645 53.0317C37.4634 53.2397 39.6067 53.4233 42.3215 53.5825C47.8654 53.9048 55.2303 54.0809 63.0599 54.0809C70.8895 54.0809 78.2545 53.9048 83.7983 53.5825C86.5131 53.4233 88.6527 53.2397 90.1553 53.0317H90.1928C90.352 52.2823 90.4963 51.2631 90.6368 50.5193C89.6213 50.6804 87.789 51.1357 85.5426 51.2949Z" fill="#42210B"/>
<path d="M90.6368 50.5161C90.6368 49.5793 78.1552 48.8168 62.7564 48.8168C47.3576 48.8168 34.876 49.5774 34.876 50.5161C34.876 51.4547 47.3576 52.2173 62.7639 52.2173C78.1702 52.2173 90.6368 51.4547 90.6368 50.5161Z" fill="#42210B"/>
<path d="M90.6368 50.5161C90.6368 49.5793 78.1552 48.8168 62.7564 48.8168C47.3576 48.8168 34.876 49.5774 34.876 50.5161C34.876 51.4547 47.3576 52.2173 62.7639 52.2173C78.1702 52.2173 90.6368 51.4547 90.6368 50.5161Z" fill="#9E005D"/>
<path d="M26.8291 106.361L24.6614 106.204C25.69 92.4894 24.8263 83.4214 23.335 68.714L25.497 68.4929C27.335 86.4098 27.7285 93.7785 26.8291 106.361Z" fill="#211106"/>
<path d="M32.9745 106.888L35.1422 106.731C34.1155 93.0184 34.9774 83.9504 36.4706 69.2429L34.3085 69.0219C32.4668 86.9349 32.0809 94.3074 32.9745 106.888Z" fill="#211106"/>
<path d="M78.2846 24.21C78.5375 23.2601 81.2617 22.6512 81.2617 22.6512L81.6364 20.3467C81.6364 20.3467 76.381 20.534 75.8115 21.735C75.4218 22.5594 75.1501 25.2385 75.0171 26.8592C76.0749 26.9973 77.1065 27.2909 78.0785 27.7304C78.1272 25.8568 78.2153 24.476 78.2846 24.21Z" fill="#FD5E5A"/>
<path d="M85.0595 21.0118C80.6529 23.5205 81.4998 39.3558 80.4243 39.0954C79.6468 38.908 78.414 30.8835 78.5508 26.0666C77.5653 25.5964 76.0721 25.3734 75.006 25.2029C74.9442 25.9523 74.0205 37.1543 74.0205 41.1675C74.0205 44.5006 74.4758 49.5554 78.3166 49.4261C79.7068 49.3793 85.2487 43.0167 85.2487 43.0167L94.5884 23.2938C94.5884 23.2938 87.4146 19.6741 85.0595 21.0118Z" fill="#CCCCCC"/>
<path d="M53.3964 65.8116C53.3964 65.8116 57.6681 71.037 59.4743 75.3181C61.2804 79.5992 66.7905 95.5525 67.9315 97.4598C69.0725 99.3671 72.7297 101.308 73.6327 102.211C74.5358 103.114 68.7858 107.532 67.45 103.161C66.1142 98.79 53.3964 81.5851 52.8212 78.5443C52.2461 75.5036 50.2563 70.0871 50.2563 70.0871L53.3964 65.8116Z" fill="#C57338"/>
<path d="M73.6309 102.206C72.7279 101.303 69.0688 99.3561 67.9297 97.4544C67.4969 96.7368 65.8688 92.1841 64.6285 88.8361C63.317 89.4244 60.857 90.1963 59.6167 90.9326C62.4926 95.3523 66.8861 101.299 67.4482 103.156C68.4412 106.416 71.8117 105.923 73.4604 105.462C73.7414 105.385 73.986 105.211 74.1507 104.971C74.3155 104.731 74.3895 104.44 74.3597 104.15C74.3016 103.508 74.118 102.691 73.6309 102.206Z" fill="black"/>
<path d="M74.367 104.158C74.3014 103.508 74.1178 102.691 73.6326 102.206C73.597 102.17 73.5557 102.132 73.5108 102.093C73.8705 102.584 74.0185 103.277 74.0728 103.845C74.1023 104.135 74.028 104.425 73.8634 104.665C73.6988 104.906 73.4543 105.079 73.1735 105.156C71.9014 105.511 69.6044 105.883 68.1655 104.54C69.5669 106.249 72.1 105.852 73.4658 105.467C73.7468 105.391 73.9916 105.218 74.1566 104.978C74.3217 104.738 74.3962 104.447 74.367 104.158Z" fill="#F7831E"/>
<path d="M56.2421 59.1592C56.2421 59.1592 60.141 61.9152 60.703 65.2407C61.2651 68.5663 66.4061 98.1386 66.0258 100.171C65.6455 102.204 66.0258 102.463 66.5879 103.855C67.1499 105.247 62.466 103.536 62.466 101.352C62.466 99.1671 58.7901 93.938 59.4552 93.2729C60.1203 92.6078 61.4524 91.2776 61.4524 90.4232C61.4524 89.5689 53.2594 69.6399 54.6121 67.3785C55.9648 65.1171 51.9741 63.3466 51.9741 63.3466L56.2421 59.1592Z" fill="#D3844A"/>
<path d="M61.4525 90.4225C61.4525 91.2769 60.141 92.6071 59.4815 93.2722C58.822 93.9373 62.335 100.049 62.335 102.235C62.335 104.422 67.1781 105.246 66.6085 103.854C66.039 102.462 65.6568 102.205 66.0465 100.171C66.2507 99.084 66.5149 89.7612 65.1097 81.1541C63.4404 81.1728 60.1485 81.7161 58.5522 82.2613C60.0642 86.5012 61.4525 90.0703 61.4525 90.4225Z" fill="#242424"/>
<path d="M15.9517 31.2223L18.8969 68.5735L22.6028 65.8194V31.6026L15.9517 31.2223ZM17.3699 32.6087L18.7077 32.6855L20.3789 65.8475L20.0042 66.121L17.3699 32.6087ZM21.3044 65.1562L21.1171 65.2892L20.2009 32.7698L21.3007 32.8336L21.3044 65.1562Z" fill="#42210B"/>
<path d="M41.6077 70.2761H18.2482L18.0796 69.0414H41.7576L41.6077 70.2761Z" fill="#42210B"/>
<path d="M22.6024 64.3675C22.6024 64.3675 39.4307 64.8096 40.7534 65.812C42.0761 66.8143 44.079 69.042 41.6077 69.042H18.0796C18.0796 69.042 20.2229 64.2925 22.6024 64.3675Z" fill="#9E005D"/>
<path d="M21.6919 107.416L19.5242 107.258C20.5509 93.544 19.689 84.4759 18.1958 69.7704L20.3579 69.5493C22.1958 87.4643 22.5818 94.833 21.6919 107.416Z" fill="#42210B"/>
<path d="M38.1097 107.944L40.2812 107.786C39.2526 94.0719 40.1201 84.9833 41.6114 70.2759L39.4418 70.0717C37.6039 87.9922 37.2198 95.3647 38.1097 107.944Z" fill="#42210B"/>
<path d="M101.502 106.361L103.67 106.204C102.643 92.4894 103.507 83.4214 104.998 68.714L102.836 68.4929C100.998 86.4098 100.61 93.7785 101.502 106.361Z" fill="#211106"/>
<path d="M95.3642 106.888L93.1965 106.731C94.2232 93.0184 93.3614 83.9504 91.8682 69.2429L94.0302 69.0219C95.8663 86.9349 96.2523 94.3074 95.3642 106.888Z" fill="#211106"/>
<path d="M105.729 31.6031V65.8124L109.434 68.574L112.382 31.2302L105.729 31.6031ZM107.04 65.1566V32.834L108.14 32.7703L107.22 65.2896L107.04 65.1566ZM108.329 66.114L107.954 65.8405L109.626 32.6785L110.963 32.6017L108.329 66.114Z" fill="#42210B"/>
<path d="M86.7232 70.2761H110.085L110.253 69.0414H86.5752L86.7232 70.2761Z" fill="#42210B"/>
<path d="M105.729 64.3675C105.729 64.3675 88.9021 64.8096 87.5794 65.812C86.2567 66.8143 84.2538 69.042 86.7232 69.042H110.253C110.253 69.042 108.104 64.2925 105.729 64.3675Z" fill="#9E005D"/>
<path d="M106.641 107.416L108.809 107.258C107.782 93.544 108.644 84.4759 110.135 69.7704L107.975 69.5493C106.137 87.4643 105.751 94.833 106.641 107.416Z" fill="#42210B"/>
<path d="M90.223 107.944L88.0572 107.786C89.0858 94.0719 88.2183 84.9833 86.7251 70.2759L88.8909 70.0717C90.7289 87.9922 91.113 95.3647 90.223 107.944Z" fill="#42210B"/>
<path d="M106.448 55.6458C105.136 50.7314 102.307 48.0148 102.307 48.0148L94.2002 50.3024C94.2002 50.6527 93.0161 54.3287 92.5795 55.6739C89.7692 55.88 73.1657 57.1484 67.9516 58.7596C63.412 60.161 85.1303 97.1563 85.1303 100.506C85.1303 103.856 80.69 107.337 82.8108 107.337C84.9317 107.337 91.5884 100.405 91.5884 99.4008C91.5884 98.3966 88.1505 98.9755 88.1505 96.4031C88.1505 93.8308 80.4351 65.8061 80.4351 65.8061C80.4351 65.8061 94.7697 67.4567 102.043 67.1176C103.059 67.0719 104.029 66.6823 104.794 66.0126C105.559 65.3429 106.073 64.433 106.253 63.4323C106.68 61.0791 107.04 57.8566 106.448 55.6458Z" fill="#35115E"/>
<path d="M89.2451 19.2458C90.7309 19.2758 93.9871 19.5062 95.4279 20.6322C97.8635 22.5245 97.7604 23.0997 99.5871 27.6356C102.501 34.8731 107.044 47.6114 107.044 53.2115C107.044 58.8116 101.06 56.271 101.06 56.271C101.06 56.271 92.4152 54.1295 92.4152 53.337C92.4152 52.5445 90.5735 51.4635 90.5735 46.0133C90.5735 40.5631 84.4395 25.4042 85.0727 22.3652C85.706 19.3263 87.4746 19.2121 89.2451 19.2458Z" fill="#E0E0E0"/>
<g style="mix-blend-mode:multiply" opacity="0.47">
<path d="M99.5927 27.6363C98.7084 25.4423 98.2812 24.1758 97.7885 23.239L88.876 37.6598C89.8259 41.0135 90.579 44.1123 90.579 46.0215C90.5686 47.1123 90.6596 48.2018 90.8507 49.2758C95.722 45.5287 98.581 35.256 99.9768 28.6086C99.8457 28.2726 99.7176 27.9485 99.5927 27.6363Z" fill="#CCCCCC"/>
</g>
<path d="M83.2461 20.3457C82.8039 18.5077 80.7599 18.075 79.9355 18.075C79.1111 18.075 74.9125 18.1443 74.4647 18.5921C73.1626 19.9035 79.1093 18.8956 79.1093 19.2422C79.1093 19.5888 75.1036 18.8825 74.4254 19.5626C73.7471 20.2427 78.3336 20.1677 78.3336 20.1677C78.3336 20.1677 74.8057 20.6099 75.8193 20.9171C76.8329 21.2244 80.0648 20.1565 80.0648 22.5247V28.2165C81.6629 27.6751 82.092 27.2085 83.7838 27.1673C83.499 24.0441 83.4166 21.0502 83.2461 20.3457Z" fill="#FC7575"/>
<path d="M92.1584 3.80653C92.1078 2.08473 94.8189 0.861298 96.269 2.98217L95.8943 3.31941C94.6652 1.68754 92.5912 2.31518 92.1584 3.80653Z" fill="#5C2C55"/>
<path d="M91.4056 21.7344L91.7916 16.1737L91.1284 13.1516L87.3812 15.7165L86.2365 20.6946L85.7868 22.6543C85.7868 22.6543 84.5147 30.2741 91.4056 21.7344Z" fill="#FC7575"/>
<path d="M92.1077 13.0317L87.3825 15.7128L86.2378 20.6908C88.0926 20.4922 90.4983 19.1002 91.6711 16.4716C91.7142 16.3742 91.7573 16.273 91.7967 16.1699L92.1077 13.0317Z" fill="#FD5E5A"/>
<path d="M86.294 3.48658C86.294 3.48658 83.109 5.15404 83.3113 7.86321C83.5137 10.5724 82.6874 17.4408 84.0832 18.6174C85.479 19.794 89.8407 18.6699 91.5775 15.1738C93.3142 11.6778 92.4899 4.8168 91.8266 4.25661C91.1634 3.69642 87.4238 2.17134 86.294 3.48658Z" fill="#FC7575"/>
<path d="M88.7581 4.27485L88.7768 4.52591C88.7768 4.52591 88.2148 7.93016 85.1908 8.74516C82.1669 9.56016 81.6742 8.00698 81.6742 8.00698C81.6742 8.00698 78.5772 9.62386 78.0975 6.47815C77.6179 3.33245 80.2971 2.38068 80.2971 2.38068C80.2971 2.38068 79.5289 4.62895 80.6868 4.27672C81.8446 3.92449 80.6343 2.18396 81.8578 1.65374C83.0812 1.12353 84.284 1.69121 84.284 1.69121C84.284 1.69121 86.225 1.3521 87.5571 0.479022C88.8892 -0.394055 91.6939 -0.0118498 92.0762 1.1254C92.2942 1.75486 92.4695 2.39833 92.6007 3.05142C92.5614 2.82472 93.4476 3.03455 93.4888 3.05142C96.316 4.28609 94.6036 8.66085 93.4663 11.5424C93.1362 12.396 92.761 13.2316 92.3422 14.0455C92.1264 14.4461 91.8689 14.8229 91.574 15.1696C91.574 15.1696 92.8031 11.1302 92.2279 9.88053C91.6527 8.63087 91.1619 10.0679 90.8152 8.7564C90.4686 7.44491 91.5047 7.18449 91.426 6.10157C91.3473 5.01865 88.7581 4.27485 88.7581 4.27485Z" fill="#2C2B31"/>
<path d="M91.0151 10.0965C91.0151 10.0965 92.0456 7.99057 92.8119 8.63695C93.5782 9.28333 92.5833 13.4183 91.8414 13.0848C91.0994 12.7513 91.0151 10.0965 91.0151 10.0965Z" fill="#FC7575"/>
<path d="M83.7969 15.0707C84.7791 15.5415 85.9022 15.6271 86.9444 15.3105C86.9444 15.3105 86.0283 16.5321 85.2789 16.6014C84.5294 16.6707 83.7969 15.0707 83.7969 15.0707Z" fill="white"/>
<path d="M91.4673 10.2643C91.4673 10.2643 92.2635 8.99963 92.5408 9.6254C92.8181 10.2512 92.0144 12.8798 91.6322 12.5538C91.25 12.2278 91.4673 10.2643 91.4673 10.2643Z" fill="#FD5E5A"/>
<path d="M84.6452 11.9674C84.407 12.4942 84.2794 13.0643 84.2705 13.6424C84.3736 13.6424 84.5141 13.6723 85.2635 13.6667C84.9937 13.5993 84.7239 13.5356 84.4504 13.4794C84.5141 12.981 85.226 10.8433 85.5183 10.5959C85.1623 10.7889 84.7876 11.602 84.6452 11.9674Z" fill="#653870"/>
<path d="M87.834 10.5213C87.8621 10.896 87.671 11.2108 87.4087 11.2333C87.1464 11.2558 86.9141 10.9747 86.886 10.6056C86.8579 10.2365 87.0509 9.91803 87.3132 9.89367C87.5755 9.86932 87.8078 10.1522 87.834 10.5213Z" fill="#653870"/>
<path d="M84.4449 10.8205C84.473 11.1952 84.2819 11.51 84.0196 11.5325C83.7573 11.5549 83.525 11.2739 83.4969 10.9048C83.4688 10.5357 83.6617 10.2172 83.924 10.1929C84.1863 10.1685 84.4187 10.4514 84.4449 10.8205Z" fill="#653870"/>
<path d="M86.9535 8.6195C86.9535 8.6195 88.1713 8.27102 88.8496 8.84245C89.5278 9.41389 89.3217 9.83544 89.1549 9.85043C88.9882 9.86542 88.8627 8.76938 88.2444 8.88742C86.5057 9.21529 86.4439 8.69819 86.9535 8.6195Z" fill="#653870"/>
<path d="M91.2703 21.6176C90.5659 22.916 85.408 31.9222 85.7003 36.385C85.9626 39.5701 85.7003 37.8408 85.7003 37.8408C85.7003 37.8408 85.4511 35.2684 85.2431 32.1021C85.1045 30.4159 84.9471 28.5685 84.7897 26.828C83.1035 26.8711 81.0107 27.6037 79.4126 28.1395C79.4126 32.6454 80.0627 38.7326 80.0627 42.712C80.0627 49.0465 80.696 53.4812 85.511 50.8208C90.3261 48.1603 99.5927 27.6355 99.5927 27.6355C99.9318 19.6204 92.4732 19.4012 91.2703 21.6176Z" fill="#E0E0E0"/>
<path d="M79.4126 28.1478C79.7761 32.3071 80.2688 36.429 80.4506 40.6164C80.6379 45.4089 79.8435 51.4699 83.2422 51.6104C80.1077 52.0394 79.7723 46.9265 79.6581 43.7639C79.5475 37.8416 79.4332 38.4711 79.3227 34.413C79.2346 32.3246 79.2647 30.2329 79.4126 28.1478V28.1478Z" fill="#27B072"/>
<path d="M85.2471 32.1023C85.455 35.2686 85.7042 37.841 85.7042 37.841C85.7042 37.841 85.5056 35.2798 85.2471 32.1023Z" fill="#FC7575"/>
<path d="M25.3118 44.811H24.8846L24.3225 44.9047C24.3225 44.9047 19.0878 58.9808 19.8485 63.9213C20.6092 68.8619 41.252 66.8553 44.1429 66.8553C47.0338 66.8553 49.3158 77.2142 49.3158 77.2142C49.3158 77.2142 57.0517 61.7255 60.1206 59.6346C60.1206 59.6346 55.3974 55.9287 47.6052 55.9287C39.8131 55.9287 32.021 58.9695 32.021 56.1161C32.021 53.2627 32.495 47.5633 32.495 47.5633L25.3118 44.811Z" fill="#F74F5A"/>
<path d="M49.3065 18.7723L43.1762 25.5677C43.1762 25.5677 40.6113 23.8103 40.6113 22.1709C40.6113 20.5315 46.4643 13.8785 46.4643 13.8785L49.3065 18.7723Z" fill="#D3844A"/>
<path d="M46.4643 13.8785C46.4643 13.8785 45.5275 14.9371 44.4165 16.3142C45.1566 18.0135 46.2076 20.1456 47.4254 20.8688L49.3159 18.7741L46.4643 13.8785Z" fill="#C57338"/>
<path d="M40.6115 16.1142C40.6115 16.1142 38.8541 15.5521 37.6138 15.5521C36.3735 15.5521 36.3304 17.2627 36.3304 17.2627C36.3304 17.2627 31.4367 13.3282 30.0128 14.7446C28.5889 16.161 30.0128 18.1657 30.0128 18.1657C30.0128 18.1657 25.312 19.5334 25.312 22.2969C25.312 25.0604 29.6362 25.5757 29.6362 25.5757C29.6362 25.5757 29.6362 29.6619 32.4859 28.6633C35.3355 27.6647 36.2873 23.1044 37.2859 22.6304C38.2845 22.1564 37.9979 25.1485 40.1356 24.7194C42.2733 24.2904 44.516 21.8342 44.0794 19.3985C43.6429 16.9629 40.6115 16.1142 40.6115 16.1142Z" fill="#2C2B31"/>
<path d="M51.0432 27.9397C50.7734 31.6437 48.2629 41.3169 47.9781 41.5942L43.1387 23.9827C43.1387 23.9827 37.9489 22.6375 39.1386 28.9477C39.5209 30.9711 46.7472 49.0884 47.9631 49.0884C51.5229 49.0884 54.4812 36.7361 54.8241 29.0245C53.7355 29.2287 51.8976 28.5486 51.0432 27.9397Z" fill="#F3A636"/>
<path d="M43.3184 23.6194C43.3184 23.6194 45.6472 32.7417 44.9577 36.0673C44.2683 39.3929 34.196 45.096 32.7702 49.0885L24.313 44.9068C24.313 44.9068 33.9581 23.0723 37.2836 22.6227C39.3491 22.3731 41.4428 22.7189 43.3184 23.6194V23.6194Z" fill="#F3A636"/>
<path d="M46.022 26.5534C45.7541 30.2574 44.7443 40.7924 44.4595 41.0735L39.6444 22.5889C39.6444 22.5889 32.9296 21.2437 34.1193 27.5539C34.494 29.5848 42.5278 47.882 43.3822 48.7382C44.2365 49.5944 45.4094 50.5124 47.3167 50.2576C48.7274 50.0703 49.4544 35.3479 49.7991 27.6363C48.7125 27.833 46.8707 27.1679 46.022 26.5534Z" fill="#FFBA00"/>
<path d="M44.4596 41.0739C42.6385 36.3413 40.3733 27.6967 39.6445 22.5894C41.52 27.4512 43.7476 36.0977 44.4596 41.0739Z" fill="#FFBA00"/>
<path d="M47.3169 50.2577C48.5497 49.7687 48.4635 37.1915 49.7994 27.6364C50.2509 36.6875 48.8495 50.1097 47.3169 50.2577Z" fill="#FFBA00"/>
<path d="M43.4139 27.4395C43.4139 27.4395 43.1966 28.5281 42.3273 28.1477C41.4579 27.7674 42.5278 23.2765 42.5278 23.2765L44.2908 24.3351C44.2908 24.3351 43.1966 26.0269 43.4139 27.4395Z" fill="#D3844A"/>
<path d="M45.4732 7.36994C45.4732 7.36994 49.5594 6.64113 51.6821 8.76387C53.8049 10.8866 52.9487 13.0075 53.743 13.4834C54.5374 13.9592 55.8321 13.6782 55.8321 13.6782C55.8321 13.6782 55.6897 14.615 55.3899 14.9148C55.3899 14.9148 56.07 18.4745 55.2625 19.2858C54.455 20.097 50.1308 19.7298 48.2629 19.7298C46.3949 19.7298 44.8099 16.2768 43.9537 14.4389C43.0975 12.6009 45.4732 7.36994 45.4732 7.36994Z" fill="#D3844A"/>
<path d="M51.2135 8.36289C51.2135 8.36289 48.4275 13.7962 46.4097 14.9203C44.3918 16.0445 44.0864 18.4801 43.7661 18.4801C43.4457 18.4801 39.6611 19.1546 39.1384 16.067C38.6157 12.9793 39.3032 10.3414 40.8489 8.79756C42.3946 7.25374 48.9895 5.31648 51.2135 8.36289Z" fill="#2C2B31"/>
<path d="M52.8679 14.956C52.8679 15.2501 52.1297 15.488 51.2191 15.488C50.3086 15.488 49.5723 15.2501 49.5723 14.956C49.5723 14.6618 50.3086 14.4276 51.2191 14.4276C52.1297 14.4276 52.8679 14.6618 52.8679 14.956Z" fill="#C57338"/>
<path d="M51.4199 13.5261C51.4199 13.5261 53.9455 13.6854 54.4438 13.187L51.4199 13.5261Z" fill="#1D2A58"/>
<path d="M52.6229 12.1552C52.2208 11.8432 51.7228 11.6803 51.214 11.6943C50.3147 11.6943 50.0562 12.6461 50.0562 12.6461C50.0562 12.6461 50.8393 11.9379 51.4201 11.9379C52.0009 11.9379 52.6229 12.455 52.6229 12.1552Z" fill="#1D2A58"/>
</svg>
