<svg width="600" height="436" viewBox="0 0 600 436" fill="none" xmlns="http://www.w3.org/2000/svg">
<path fill-rule="evenodd" clip-rule="evenodd" d="M71.4786 105.099L237.062 270.682C232.979 279.604 230.807 289.381 230.807 299.381L0 299.381C1.07884e-05 227.932 25.5071 159.114 71.4786 105.099Z" fill="#DA3933"/>
<path fill-rule="evenodd" clip-rule="evenodd" d="M298.965 0C219.646 0.135861 143.606 31.7036 87.5097 87.8002C84.2569 91.053 81.0865 94.3728 78 97.7565L241.963 261.719C244.495 257.892 247.421 254.299 250.715 251.005C263.527 238.194 280.861 230.943 298.965 230.809V0Z" fill="#EB9840"/>
<path fill-rule="evenodd" clip-rule="evenodd" d="M310 231.343V0C385.958 2.47437 458.289 33.7306 512.2 87.6416C514.455 89.8963 516.67 92.1832 518.845 94.5013L355.277 258.069C353.364 255.533 351.267 253.119 348.995 250.847C338.387 240.239 324.679 233.444 310 231.343Z" fill="#BED33E"/>
<path fill-rule="evenodd" clip-rule="evenodd" d="M360.958 266.61L525.759 101.809C573.47 156.291 600 226.423 600 299.29H369.193C369.193 287.779 366.315 276.565 360.958 266.61Z" fill="#489C57"/>
<path d="M435.001 301.256C435.001 265.527 420.808 231.261 395.543 205.997C370.279 180.733 336.014 166.539 300.284 166.539C264.555 166.539 230.29 180.733 205.025 205.997C179.761 231.261 165.568 265.527 165.568 301.256L300.284 301.256H435.001Z" fill="#EBFFF4"/>
<ellipse rx="14.3972" ry="14.9114" transform="matrix(-0.866025 -0.5 -0.5 0.866026 294.924 291.997)" fill="#294948"/>
<path fill-rule="evenodd" clip-rule="evenodd" d="M290.271 300.057C286.065 297.629 284.624 292.252 287.053 288.046C289.481 283.841 294.858 282.4 299.064 284.828C303.269 287.256 304.71 292.633 302.282 296.839C299.854 301.044 294.476 302.485 290.271 300.057ZM291.59 297.773C288.646 296.073 287.637 292.309 289.337 289.365C291.037 286.421 294.801 285.413 297.745 287.112C300.689 288.812 301.697 292.576 299.998 295.52C298.298 298.464 294.534 299.473 291.59 297.773Z" fill="#EBFFF4"/>
<path d="M404.913 109.101L308.15 286.571L301.749 280.382L292.684 279.423L404.913 109.101Z" fill="#294948"/>
<path d="M473.184 282C476.805 282 479.148 280.043 479.148 277.078C479.148 274.84 477.238 273.117 474.953 273.059V272.965C476.91 272.719 478.387 271.254 478.387 269.309C478.387 266.672 476.359 265.09 472.902 265.09H464.594V282H473.184ZM469.562 268.5H471.555C472.809 268.5 473.559 269.133 473.559 270.176C473.559 271.195 472.762 271.863 471.484 271.863H469.562V268.5ZM469.562 278.59V274.711H471.719C473.207 274.711 474.098 275.414 474.098 276.621C474.098 277.898 473.219 278.59 471.684 278.59H469.562ZM484.398 282.188C485.898 282.188 487.469 281.531 488.148 280.266H488.242V282H492.93V273.152C492.93 270.527 490.527 268.734 486.941 268.734C483.168 268.734 480.824 270.48 480.707 273.246H484.996C485.066 272.59 485.699 272.051 486.684 272.051C487.586 272.051 488.242 272.52 488.242 273.387V274.02L485.406 274.195C481.949 274.406 480.039 275.754 480.039 278.238C480.039 280.57 482.043 282.188 484.398 282.188ZM486.191 278.977C485.348 278.977 484.773 278.566 484.773 277.863C484.773 277.23 485.289 276.797 486.203 276.727L488.242 276.586V277.43C488.242 278.379 487.258 278.977 486.191 278.977ZM494.805 282H499.609V265.09H494.805V282ZM505.352 282.188C506.852 282.188 508.422 281.531 509.102 280.266H509.195V282H513.883V273.152C513.883 270.527 511.48 268.734 507.895 268.734C504.121 268.734 501.777 270.48 501.66 273.246H505.949C506.02 272.59 506.652 272.051 507.637 272.051C508.539 272.051 509.195 272.52 509.195 273.387V274.02L506.359 274.195C502.902 274.406 500.992 275.754 500.992 278.238C500.992 280.57 502.996 282.188 505.352 282.188ZM507.145 278.977C506.301 278.977 505.727 278.566 505.727 277.863C505.727 277.23 506.242 276.797 507.156 276.727L509.195 276.586V277.43C509.195 278.379 508.211 278.977 507.145 278.977ZM515.699 282H520.504V274.77C520.504 273.562 521.195 272.684 522.332 272.684C523.539 272.684 524.148 273.48 524.148 274.781V282H528.953V273.715C528.953 270.609 527.359 268.805 524.453 268.805C522.484 268.805 521.137 269.789 520.48 271.605H520.387V269.062H515.699V282ZM543.402 274.418C543.344 270.914 540.859 268.734 537.098 268.734C532.938 268.734 530.371 271.301 530.371 275.52C530.371 279.785 532.926 282.328 537.121 282.328C540.965 282.328 543.355 280.23 543.402 276.727H539.031C538.949 278.004 538.258 278.754 537.18 278.754C535.902 278.754 535.234 277.629 535.234 275.52C535.234 273.434 535.914 272.309 537.18 272.309C538.211 272.309 538.938 273.105 539.031 274.418H543.402ZM553.375 277.805C553.094 278.578 552.309 279.035 551.336 279.035C550.047 279.035 549.133 278.121 549.133 276.855V276.551H557.711V275.25C557.711 271.289 555.121 268.734 551.113 268.734C547.047 268.734 544.504 271.371 544.504 275.602C544.504 279.809 547.023 282.328 551.266 282.328C554.816 282.328 557.254 280.594 557.652 277.805H553.375ZM551.219 272.039C552.344 272.039 553.152 272.789 553.234 273.949H549.203C549.297 272.836 550.129 272.039 551.219 272.039ZM563.887 282.188C565.832 282.188 567.332 281.121 567.766 279.762H567.859V282H572.664V265.09H567.859V271.395H567.766C567.262 269.941 565.855 268.875 563.969 268.875C560.746 268.875 558.848 271.336 558.848 275.496C558.848 279.715 560.699 282.188 563.887 282.188ZM565.82 272.578C567.109 272.578 567.883 273.691 567.883 275.543C567.883 277.406 567.121 278.484 565.82 278.484C564.52 278.484 563.77 277.383 563.77 275.531C563.77 273.703 564.531 272.578 565.82 272.578Z" fill="#0A6C1C"/>
<path d="M383.695 66.1373L390.926 50.851L386.434 48.7264L383.688 54.5316L378.307 51.986L381.053 46.1809L376.561 44.0562L369.331 59.3425L373.822 61.4671L376.618 55.556L382 58.1016L379.204 64.0127L383.695 66.1373ZM395.087 66.8848C394.502 67.4637 393.597 67.5411 392.717 67.1252C391.552 66.574 391.117 65.3568 391.658 64.2127L391.788 63.9373L399.542 67.6053L400.099 66.4294C401.792 62.8489 400.544 59.4321 396.921 57.7184C393.245 55.9796 389.818 57.2757 388.01 61.0999C386.211 64.903 387.411 68.2579 391.246 70.0718C394.455 71.5901 397.4 71.0646 398.953 68.7137L395.087 66.8848ZM395.603 60.7508C396.62 61.2318 397.03 62.2556 396.608 63.3394L392.964 61.6156C393.525 60.6494 394.618 60.2848 395.603 60.7508ZM401.963 74.9857C403.319 75.6271 405.019 75.7053 406.174 74.8519L406.259 74.892L405.518 76.4598L409.755 78.4642L413.538 70.4662C414.661 68.0932 413.256 65.4452 410.014 63.9119C406.603 62.2983 403.738 62.8746 402.449 65.3245L406.326 67.1585C406.67 66.5953 407.473 66.3786 408.363 66.7996C409.179 67.1854 409.571 67.8897 409.201 68.6737L408.93 69.2457L406.291 68.192C403.076 66.9044 400.773 67.3059 399.711 69.5517C398.713 71.6598 399.833 73.9785 401.963 74.9857ZM404.956 72.8498C404.194 72.489 403.85 71.8727 404.151 71.2371C404.421 70.665 405.073 70.4936 405.929 70.8209L407.833 71.5656L407.472 72.3284C407.066 73.1864 405.92 73.3058 404.956 72.8498ZM411.45 79.2659L415.793 81.3204L423.024 66.0341L418.681 63.9797L411.45 79.2659ZM425.271 68.3545L424.058 70.9181L422.512 70.1865L421.023 73.3327L422.57 74.0643L420.07 79.3504C418.977 81.6598 419.829 83.2295 423.134 84.793C423.961 85.1838 424.547 85.3702 425 85.4809L426.423 82.4724C426.149 82.3945 425.985 82.3299 425.656 82.1746C424.766 81.7537 424.523 81.1719 424.869 80.4409L426.913 76.1188L428.968 77.0909L430.457 73.9447L428.402 72.9726L429.614 70.409L425.271 68.3545ZM426.408 86.3413L430.751 88.3958L433.843 81.8597C434.359 80.7686 435.317 80.2497 436.398 80.7608C437.489 81.2769 437.72 82.2678 437.164 83.4437L434.077 89.9692L438.421 92.0237L441.963 84.5342C443.291 81.7269 442.643 79.4241 440.016 78.1814C438.236 77.3396 436.534 77.6231 435.174 78.9894L435.09 78.9494L437.876 73.0594L433.638 71.0551L426.408 86.3413ZM439.876 97.9626C443.679 99.7615 446.239 99.365 448.773 96.5838L457.66 86.8127L453.074 84.643L447.246 92.3868L447.161 92.3467L449.44 82.9243L444.62 80.6443L442.923 94.1534C442.909 94.2637 442.87 94.4009 442.825 94.4962C442.58 95.0153 441.924 94.9772 440.695 94.3959L439.858 94L438.33 97.231L439.876 97.9626Z" fill="#8FA700"/>
<path d="M143.164 93.4288C144.613 96.5677 148.059 97.1436 152.045 95.3207C156.286 93.3809 157.838 90.2359 156.39 87.0708C155.249 84.577 153.075 83.9352 149.498 84.8493L147.826 85.2789C146.165 85.7037 145.353 85.6755 145.036 84.9828C144.719 84.2901 145.105 83.4435 146.363 82.8684C147.599 82.303 148.807 82.4078 149.267 83.331L153.424 81.4302C152.013 78.4027 148.839 77.5478 144.725 79.4292C141.07 81.101 139.298 84.2697 140.711 87.3603C141.803 89.7474 144.183 90.5275 147.49 89.6722L149.162 89.2425C151.03 88.762 151.768 88.7981 152.099 89.5228C152.445 90.2795 151.867 91.2138 150.514 91.8328C149.235 92.4177 147.915 92.3771 147.321 91.5279L143.164 93.4288ZM154.57 76.4987L155.75 79.0778L154.194 79.7894L155.641 82.9545L157.197 82.2429L159.629 87.5608C160.692 89.884 162.441 90.2437 165.766 88.723C166.598 88.3428 167.118 88.0148 167.494 87.7394L166.11 84.7128C165.874 84.8724 165.719 84.9562 165.389 85.1073C164.493 85.5167 163.892 85.328 163.555 84.5927L161.567 80.2446L163.634 79.299L162.187 76.1339L160.119 77.0794L158.94 74.5004L154.57 76.4987ZM169.006 87.2413L173.376 85.243L170.695 79.3816C169.944 77.7404 170.401 76.5134 172.042 75.7628C172.49 75.5581 172.977 75.4387 173.423 75.428L171.746 71.7619C171.41 71.7869 171.039 71.879 170.645 72.0593C169.249 72.6978 168.713 73.922 169.031 75.7999L168.946 75.8389L167.888 73.5263L163.625 75.4759L169.006 87.2413ZM183.982 75.7788C184.048 76.5991 183.524 77.3413 182.64 77.7459C181.467 78.282 180.256 77.8309 179.73 76.68L179.603 76.4029L187.404 72.8351L186.863 71.6522C185.216 68.0501 181.798 66.804 178.153 68.4709C174.455 70.1622 173.239 73.6177 174.999 77.4649C176.748 81.2908 180.088 82.5341 183.945 80.7698C187.174 79.2929 188.67 76.7019 187.872 73.9998L183.982 75.7788ZM179.623 71.4323C180.647 70.9644 181.694 71.3102 182.251 72.3311L178.585 74.0078C178.207 72.9563 178.632 71.8856 179.623 71.4323ZM187.091 69.164C187.924 70.9863 189.73 71.694 192.259 71.0529L194.571 70.4724C195.644 70.2003 196.093 70.2788 196.288 70.7051C196.512 71.1953 196.131 71.7432 195.289 72.1282C194.309 72.5766 193.528 72.3922 193.043 71.7251L188.823 73.6552C190.127 75.9711 192.887 76.6805 196.595 74.9843C200.006 73.4247 201.555 70.7831 200.385 68.2254C199.571 66.4456 197.983 65.9867 195.221 66.6827L192.909 67.2632C191.751 67.5481 191.346 67.4239 191.156 67.0083C190.913 66.4754 191.299 65.912 192.088 65.5513C193.026 65.1224 193.813 65.4067 194.193 66.0964L198.157 64.2832C196.954 61.7925 194.213 61.1258 190.782 62.6952C187.361 64.2598 185.97 66.7129 187.091 69.164ZM199.41 63.5297C200.244 65.352 202.049 66.0597 204.578 65.4186L206.89 64.8381C207.964 64.566 208.412 64.6445 208.607 65.0708C208.831 65.561 208.451 66.1089 207.609 66.4939C206.628 66.9423 205.848 66.7579 205.363 66.0908L201.142 68.0209C202.446 70.3368 205.206 71.0462 208.915 69.35C212.325 67.7904 213.875 65.1488 212.705 62.5911C211.891 60.8113 210.302 60.3524 207.541 61.0484L205.229 61.6288C204.071 61.9138 203.666 61.7896 203.476 61.374C203.232 60.8411 203.619 60.2777 204.408 59.917C205.345 59.4881 206.133 59.7724 206.512 60.462L210.477 58.6489C209.273 56.1582 206.533 55.4915 203.101 57.0609C199.68 58.6255 198.289 61.0785 199.41 63.5297ZM221.666 58.5444C221.732 59.3648 221.208 60.1069 220.323 60.5115C219.151 61.0476 217.94 60.5965 217.413 59.4456L217.286 59.1685L225.087 55.6007L224.546 54.4178C222.899 50.8157 219.481 49.5696 215.836 51.2365C212.138 52.9278 210.923 56.3833 212.682 60.2305C214.432 64.0564 217.771 65.2998 221.629 63.5354C224.858 62.0586 226.353 59.4675 225.556 56.7654L221.666 58.5444ZM217.307 54.1979C218.33 53.73 219.377 54.0758 219.934 55.0967L216.268 56.7734C215.891 55.722 216.316 54.6512 217.307 54.1979ZM233.048 58.1582C234.817 57.3491 235.738 55.7555 235.567 54.3389L235.652 54.2999L236.583 56.3354L240.952 54.3371L233.919 38.9589L229.55 40.9572L232.172 46.6908L232.087 46.7298C231.024 45.6179 229.302 45.2329 227.586 46.0176C224.655 47.358 223.952 50.3856 225.682 54.1688C227.437 58.0054 230.149 59.4839 233.048 58.1582ZM230.81 48.6152C231.982 48.0791 233.148 48.7698 233.919 50.4536C234.694 52.1481 234.449 53.4454 233.266 53.9864C232.083 54.5274 230.943 53.8375 230.173 52.1537C229.413 50.4912 229.638 49.1513 230.81 48.6152Z" fill="#C16400"/>
<path d="M39.832 282C43.4531 282 45.7969 280.043 45.7969 277.078C45.7969 274.84 43.8867 273.117 41.6016 273.059V272.965C43.5586 272.719 45.0352 271.254 45.0352 269.309C45.0352 266.672 43.0078 265.09 39.5508 265.09H31.2422V282H39.832ZM36.2109 268.5H38.2031C39.457 268.5 40.207 269.133 40.207 270.176C40.207 271.195 39.4102 271.863 38.1328 271.863H36.2109V268.5ZM36.2109 278.59V274.711H38.3672C39.8555 274.711 40.7461 275.414 40.7461 276.621C40.7461 277.898 39.8672 278.59 38.332 278.59H36.2109ZM60.3633 269.063H55.5586V276.293C55.5586 277.547 54.8555 278.379 53.7773 278.379C52.6523 278.379 51.9141 277.652 51.9141 276.281V269.063H47.1094V277.359C47.1094 280.441 49.1484 282.258 51.9258 282.258C53.8594 282.258 55.0664 281.215 55.582 279.457H55.6758V282H60.3633V269.063ZM62.168 282H66.9727V275.555C66.9727 273.75 67.8984 272.824 69.7031 272.824C70.1953 272.824 70.6875 272.918 71.0977 273.094V269.063C70.7813 268.945 70.4063 268.875 69.9727 268.875C68.4375 268.875 67.4414 269.766 66.9492 271.605H66.8555V269.063H62.168V282ZM72.2461 282H77.0508V274.77C77.0508 273.563 77.7422 272.684 78.8789 272.684C80.0859 272.684 80.6953 273.48 80.6953 274.781V282H85.5V273.715C85.5 270.609 83.9063 268.805 81 268.805C79.0313 268.805 77.6836 269.789 77.0273 271.605H76.9336V269.063H72.2461V282ZM93.7149 282.328C97.9453 282.328 100.523 279.902 100.523 275.52C100.523 271.242 97.8867 268.734 93.7149 268.734C89.5664 268.734 86.918 271.266 86.918 275.52C86.918 279.891 89.4961 282.328 93.7149 282.328ZM93.7149 278.895C92.5078 278.895 91.793 277.699 91.793 275.531C91.793 273.422 92.543 272.168 93.7149 272.168C94.8984 272.168 95.6484 273.422 95.6484 275.531C95.6484 277.699 94.9102 278.895 93.7149 278.895ZM115.207 269.063H110.402V276.293C110.402 277.547 109.699 278.379 108.621 278.379C107.496 278.379 106.758 277.652 106.758 276.281V269.063H101.953V277.359C101.953 280.441 103.992 282.258 106.77 282.258C108.703 282.258 109.91 281.215 110.426 279.457H110.52V282H115.207V269.063ZM118.172 266.227V269.063H116.461V272.543H118.172V278.391C118.172 280.945 119.613 282 123.27 282C124.184 282 124.793 281.918 125.25 281.824V278.496C124.969 278.543 124.793 278.555 124.43 278.555C123.445 278.555 122.977 278.133 122.977 277.324V272.543H125.25V269.063H122.977V266.227H118.172Z" fill="#9F110C"/>
</svg>
