<svg width="108" height="101" viewBox="0 0 108 101" fill="none" xmlns="http://www.w3.org/2000/svg">
<path d="M95.14 92.8064C94.3082 92.3987 93.5642 91.8326 92.9499 91.1401C92.0216 90.1467 91.1779 89.0665 90.3467 87.9837C90.2148 87.8124 90.2198 87.79 90.4637 87.7155C91.2472 87.4775 92.0043 87.1605 92.7235 86.7694C93.625 86.3137 94.4269 85.684 95.0828 84.9168C95.257 84.7007 95.4163 84.4723 95.5805 84.2512C95.633 84.1787 95.6959 84.1142 95.7672 84.06C95.914 83.9607 96.0285 84.0004 96.0858 84.1693C96.4337 85.0927 96.8496 85.9891 97.3301 86.8513C97.7058 87.574 98.0334 88.3207 98.3107 89.0863C98.4918 89.5837 98.5697 90.1126 98.5397 90.6409C98.5359 90.9971 98.4428 91.3466 98.2689 91.6576C98.095 91.9686 97.8459 92.2312 97.5442 92.4215C97.1943 92.6537 96.8058 92.8218 96.3968 92.9182C95.9781 93.0328 95.5319 92.9932 95.14 92.8064Z" fill="#E0E0E0"/>
<path d="M92.3327 79.8927C92.7405 80.0761 93.1077 80.3386 93.4128 80.665C94.4268 81.6101 95.3287 82.6683 96.1007 83.8188C96.2848 84.092 96.2998 84.2311 96.1007 84.4968C95.5176 85.3563 94.7801 86.1006 93.9255 86.6921C93.1274 87.2403 92.2539 87.6703 91.3322 87.9685C91.073 88.044 90.8072 88.0948 90.5383 88.12C90.4345 88.1369 90.328 88.1205 90.2341 88.0732C90.1402 88.0259 90.0638 87.9502 90.0157 87.8568C89.0899 86.2178 88.3109 84.5341 88.1342 82.6144C88.0667 81.8796 88.2888 81.1474 88.7535 80.5734C89.2182 79.9994 89.8888 79.6287 90.6229 79.54C91.2167 79.4541 91.8218 79.5789 92.3327 79.8927Z" fill="#F7F7F7"/>
<path d="M96.2375 84.4101C96.1136 84.6375 95.9686 84.8528 95.8045 85.0533C94.6753 86.4494 93.1679 87.4924 91.4616 88.0582C91.1215 88.1754 90.7677 88.2488 90.4089 88.2767C90.2411 88.274 90.0791 88.2149 89.949 88.109C89.819 88.0031 89.7285 87.8566 89.6921 87.6931C89.6853 87.6446 89.6929 87.5951 89.7142 87.5509C89.7355 87.5067 89.7693 87.4698 89.8116 87.4448C89.8648 87.4177 89.9219 87.3993 89.9808 87.3901C91.1162 87.1728 92.1919 86.7161 93.1361 86.0506C94.0804 85.3851 94.8713 84.5261 95.4561 83.531C95.4928 83.4595 95.5426 83.3955 95.6029 83.3423C95.6245 83.3209 95.6502 83.3043 95.6785 83.2933C95.7068 83.2823 95.737 83.2772 95.7674 83.2784C95.7977 83.2795 95.8275 83.2869 95.8549 83.3C95.8822 83.3132 95.9066 83.3318 95.9264 83.3547C96.0932 83.527 96.2228 83.7315 96.3072 83.9557C96.3268 84.0322 96.3307 84.1119 96.3187 84.19C96.3067 84.268 96.2791 84.3429 96.2375 84.4101Z" fill="#7F7F7F"/>
<path d="M100.471 88.9051C99.9004 88.1783 99.4777 87.3474 99.2264 86.459C98.8208 85.1552 98.5221 83.8241 98.2309 82.4856C98.1861 82.2745 98.2011 82.2546 98.4524 82.2944C99.2618 82.4159 100.081 82.4559 100.899 82.4136C101.909 82.39 102.905 82.1663 103.828 81.7555C104.077 81.6363 104.326 81.5071 104.575 81.373C104.652 81.3296 104.736 81.2986 104.824 81.2812C104.998 81.2538 105.085 81.3383 105.072 81.5171C104.986 82.499 104.972 83.4858 105.03 84.4698C105.058 85.2861 105.03 86.1034 104.946 86.9159C104.893 87.4428 104.735 87.9538 104.48 88.4183C104.323 88.7375 104.089 89.0127 103.799 89.2191C103.508 89.4254 103.171 89.5565 102.818 89.6004C102.403 89.6563 101.982 89.6404 101.573 89.5532C101.139 89.4773 100.748 89.2471 100.471 88.9051Z" fill="#E0E0E0"/>
<path d="M103.532 76.0559C103.821 76.3979 104.039 76.7938 104.174 77.2206C104.68 78.5093 105.037 79.8516 105.237 81.2213C105.284 81.5466 105.237 81.6807 104.951 81.8372C104.052 82.3571 103.065 82.7081 102.039 82.8727C101.082 83.0242 100.108 83.0367 99.1469 82.91C98.8813 82.867 98.6205 82.7988 98.3679 82.7064C98.2661 82.6773 98.1762 82.6166 98.1113 82.5331C98.0464 82.4496 98.0098 82.3476 98.007 82.242C97.8826 80.3645 97.905 78.5169 98.5745 76.7041C98.831 76.0114 99.3481 75.4459 100.016 75.1277C100.684 74.8096 101.45 74.764 102.151 75.0005C102.72 75.1814 103.209 75.5546 103.532 76.0559Z" fill="#F7F7F7"/>
<path d="M105.085 81.8101C104.876 81.9631 104.651 82.0946 104.416 82.2024C102.791 82.9791 100.976 83.2722 99.1892 83.0468C98.8326 83.0079 98.4822 82.9244 98.1464 82.7984C97.9956 82.7239 97.8744 82.6006 97.8026 82.4487C97.7308 82.2968 97.7125 82.1251 97.7507 81.9615C97.7631 81.9124 97.7912 81.8687 97.8307 81.8368C97.8702 81.805 97.919 81.7869 97.9697 81.7852C98.0295 81.783 98.0892 81.7905 98.1464 81.8076C99.2685 82.1022 100.441 82.1536 101.584 81.9583C102.728 81.763 103.817 81.3254 104.776 80.6752C104.84 80.6282 104.912 80.5929 104.988 80.5709C105.017 80.5605 105.047 80.5562 105.078 80.5582C105.108 80.5602 105.138 80.5685 105.165 80.5824C105.192 80.5964 105.216 80.6159 105.235 80.6395C105.254 80.6632 105.269 80.6905 105.277 80.7199C105.352 80.9468 105.38 81.1869 105.359 81.4251C105.343 81.5048 105.31 81.5802 105.263 81.6464C105.216 81.7127 105.155 81.7685 105.085 81.8101Z" fill="#7F7F7F"/>
<path d="M90.2793 4.08081H22.1299V98.4808H90.2793V4.08081Z" fill="#C4C4C4"/>
<path d="M88.1143 4.08081H19.9648V98.4808H88.1143V4.08081Z" fill="#94D0E9"/>
<path d="M29.1931 3.37805H24.9597V97.2143H29.1931V3.37805Z" fill="white"/>
<path d="M83.7963 3.37805H79.563V97.2143H83.7963V3.37805Z" fill="white"/>
<path d="M40.1137 3.37805H35.8804V97.2143H40.1137V3.37805Z" fill="white"/>
<path d="M51.0344 3.37805H46.801V97.2143H51.0344V3.37805Z" fill="white"/>
<path d="M61.955 3.37805H57.7217V97.2143H61.955V3.37805Z" fill="white"/>
<path d="M72.8757 3.37805H68.6423V97.2143H72.8757V3.37805Z" fill="white"/>
<path d="M52.3035 16.7633C52.6371 16.7911 52.9644 16.8699 53.2741 16.9967C53.48 17.0772 53.6634 17.2062 53.8086 17.3726C53.9537 17.5391 54.0564 17.7382 54.1078 17.9528C54.2198 18.3576 54.3567 18.7524 54.4911 19.1548C54.6305 19.6018 54.7698 20.0488 54.9017 20.4983C55.0676 21.0794 55.2336 21.6588 55.3995 22.2366C55.5339 22.7159 55.6483 23.1977 55.7852 23.6794C55.9196 24.2109 56.0499 24.7423 56.176 25.2738C56.283 25.7208 56.3825 26.1678 56.4821 26.6173C56.6414 27.3424 56.8156 28.0651 57.0122 28.7827C57.1416 29.2645 57.2611 29.7488 57.3905 30.2281C57.5547 30.8216 57.724 31.4151 57.8882 32.0037C58.0525 32.5922 58.2391 33.1435 58.4233 33.7097C58.6075 34.2759 58.8091 34.8769 59.0032 35.4605C59.1625 35.9323 59.3317 36.4017 59.5184 36.8636C59.7399 37.4149 59.9688 37.9662 60.2127 38.5101C60.4765 39.1011 60.7652 39.6748 61.0763 40.2484C61.477 40.9761 61.9275 41.6739 62.3879 42.3643C62.9842 43.2718 63.6394 44.1395 64.349 44.9618C65.1155 45.8508 65.9411 46.6871 66.8203 47.4651C67.7102 48.2184 68.6479 48.9136 69.6277 49.5461C70.5883 50.1893 71.5838 50.7878 72.5818 51.359C73.2364 51.7389 73.8536 52.1735 74.5106 52.546C75.3891 53.0427 76.2403 53.5841 77.079 54.1428C77.6016 54.4905 78.0894 54.8878 78.6046 55.243C79.6139 55.9856 80.5641 56.8051 81.4467 57.694C82.2232 58.439 82.8852 59.266 83.5895 60.0681C84.1694 60.7805 84.6826 61.5444 85.1226 62.3503C85.71 63.3437 86.1729 64.3842 86.7478 65.3726C86.8846 65.6085 87.0315 65.837 87.1758 66.0704C87.2066 66.1199 87.234 66.1713 87.258 66.2244C87.4471 66.659 87.4098 66.7881 87.0315 67.0712C86.3247 67.5977 85.6303 68.1415 84.9136 68.6531C83.9828 69.3162 83.037 69.9594 82.0913 70.6026C81.3621 71.0992 80.6379 71.5959 79.8888 72.0653C79.0824 72.5619 78.2786 73.0677 77.4772 73.5826C76.4269 74.2481 75.3642 74.8938 74.2791 75.4997C73.2372 76.0808 72.1811 76.6396 71.111 77.176C69.991 77.7356 68.8578 78.272 67.7113 78.7852C67.0966 79.0609 66.4918 79.3663 65.8697 79.6296C65.0757 79.9623 64.2893 80.3175 63.5103 80.6825C62.6417 81.0898 61.7881 81.5293 60.9369 81.9739C59.8444 82.545 58.7518 83.1187 57.6717 83.7122C56.7011 84.2486 55.7504 84.8123 54.7873 85.3562C53.5827 86.0342 52.4254 86.7841 51.2831 87.5589C50.2876 88.222 49.3668 88.9521 48.4235 89.6698C47.3199 90.535 46.1555 91.3201 44.9393 92.0191C44.7832 92.1162 44.6161 92.1946 44.4415 92.2525C44.2732 92.3122 44.0889 92.3098 43.9222 92.2455C43.7556 92.1813 43.6175 92.0595 43.5331 91.9023C43.0002 91.0709 42.5286 90.2019 42.122 89.3023C41.8731 88.7559 41.6068 88.227 41.3604 87.6831C41.1141 87.1393 40.8627 86.5755 40.6288 86.0193C40.3948 85.463 40.131 84.8744 39.8821 84.3033C39.6117 83.6857 39.3396 83.0699 39.0658 82.4556C38.7398 81.733 38.4212 81.0078 38.0579 80.305C37.5999 79.4086 37.1321 78.5195 36.6293 77.6454C36.261 77.0022 35.8952 76.3565 35.497 75.7282C34.9992 74.936 34.489 74.1463 33.9514 73.3789C33.3616 72.5396 32.7419 71.7201 32.1819 70.8583C31.7738 70.2276 31.4005 69.572 31.0346 68.9139C30.5369 68.0149 30.1038 67.0861 29.6733 66.1549C29.4045 65.5713 29.1755 64.9653 28.9267 64.3668C28.638 63.6392 28.3667 62.9066 28.068 62.184C27.7121 61.3272 27.3214 60.4829 26.9655 59.6261C26.7166 59.0152 26.4678 58.3844 26.2189 57.7834C25.97 57.1825 25.7211 56.5914 25.4897 55.9929C25.2931 55.4963 25.099 54.9996 24.8949 54.5029C24.544 53.6511 24.2602 52.777 23.9691 51.9078C23.77 51.3143 23.6231 50.7059 23.4464 50.1049C23.2295 49.3439 23.0567 48.5712 22.9288 47.7904C22.8242 47.1944 22.7346 46.5934 22.66 45.9924C22.5555 45.1382 22.4725 44.2814 22.4111 43.4222C22.3663 42.779 22.324 42.1333 22.3215 41.4876C22.319 40.842 22.2892 40.1764 22.2842 39.5208C22.2842 39.0812 22.3066 38.6392 22.3016 38.1997C22.3016 37.2982 22.3638 36.3992 22.3912 35.5002C22.4136 34.8248 22.4883 34.1518 22.5704 33.4788C22.7745 31.8447 22.9885 30.2132 23.1702 28.5766C23.312 27.3002 23.419 26.0212 23.531 24.7423C23.6082 23.9154 23.7077 23.0859 23.7501 22.259C23.7924 21.432 23.8919 20.5405 23.872 19.6713C23.872 19.2591 23.8969 18.8493 23.8969 18.4296C23.8969 17.9329 23.8645 17.4363 23.8795 16.9396C23.8944 16.3411 24.1806 16.1424 24.6087 16.0878C25.6515 15.9537 26.6992 15.9115 27.7495 15.8792C29.2004 15.8345 30.6514 15.7898 32.1048 15.7823C33.4388 15.7823 34.7727 15.7823 36.1067 15.8593C38.0081 15.9587 39.907 16.1275 41.8059 16.2641C42.9607 16.3486 44.118 16.4007 45.2752 16.4802C46.6266 16.5721 47.983 16.5423 49.3344 16.6068C50.198 16.649 51.0616 16.6764 51.9252 16.7136C52.0521 16.7186 52.1765 16.7459 52.3035 16.7633Z" fill="#C169FC"/>
<g filter="url(#filter0_d)">
<path d="M68.7842 31.0378C68.3785 30.9384 67.9729 30.8341 67.5622 30.7423C67.1417 30.6485 66.7038 30.6674 66.293 30.7969C65.6558 30.9956 65.0162 31.1843 64.3692 31.3482C63.8191 31.4898 63.2592 31.5965 62.7067 31.7108C61.8749 31.9144 61.03 32.0605 60.1781 32.1478C59.5946 32.2211 59.0065 32.251 58.4186 32.2372C58.0502 32.2174 57.6719 32.2571 57.3111 32.2372C56.2061 32.2124 55.1035 32.1156 53.9985 32.0535C53.4211 32.0237 52.8413 32.0535 52.2564 32.0262C51.0198 31.9781 49.7881 31.8428 48.5706 31.6214C47.824 31.4749 47.0574 31.373 46.3033 31.2141C46.2059 31.1929 46.1045 31.198 46.0097 31.229C45.7085 31.3308 45.4049 31.4326 45.1062 31.5419C44.5472 31.7532 43.9753 31.9291 43.394 32.0684C43.3342 32.0808 43.277 32.0907 43.2173 32.0982C42.7046 32.1553 42.498 31.9492 42.5826 31.4451C42.7004 30.7975 42.8558 30.1574 43.048 29.5279C43.1953 29.0207 43.1996 28.4828 43.0605 27.9733C42.7599 26.9033 42.5337 25.8138 42.3835 24.7127C42.2591 23.5964 42.2092 22.4731 42.2342 21.3502C42.2342 20.8337 42.2044 20.3146 42.2342 19.7981C42.2891 17.8133 42.6243 15.8461 43.2297 13.9547C43.4014 13.4581 43.3143 12.9837 43.2297 12.4945C43.1376 11.9358 42.9485 11.3969 42.8987 10.8307C42.8489 10.2645 43.0207 10.0857 43.5981 10.2148C44.1754 10.3439 44.8001 10.5103 45.4024 10.6568C45.6065 10.7065 45.8106 10.7512 46.0146 10.7959C46.5451 10.9013 47.0948 10.8513 47.5975 10.6519C48.3176 10.3894 49.0522 10.168 49.7975 9.98881C50.3401 9.86216 50.8876 9.74048 51.4351 9.65356C51.9534 9.5558 52.4769 9.48781 53.003 9.44992C53.3316 9.43254 53.6551 9.36549 53.9836 9.34066C55.0662 9.25374 56.1513 9.18917 57.2364 9.1842C58.4932 9.1842 59.7475 9.1842 61.0044 9.22642C61.751 9.25125 62.4802 9.24629 63.2144 9.30092C64.1203 9.37046 65.0312 9.37046 65.9296 9.50704C66.7792 9.62488 67.6186 9.80669 68.4407 10.0509C68.842 10.1967 69.2601 10.291 69.6851 10.3315C69.8147 10.3401 69.9449 10.3284 70.0709 10.2967C70.3869 10.2049 70.7105 10.1502 71.0216 10.0484C71.335 9.94899 71.6564 9.87671 71.9822 9.83236C72.0721 9.80533 72.1676 9.8033 72.2585 9.82647C72.3494 9.84964 72.4322 9.89715 72.4981 9.96385C72.5639 10.0306 72.6102 10.1139 72.632 10.205C72.6538 10.296 72.6503 10.3913 72.6218 10.4805C72.5752 10.6937 72.517 10.9043 72.4476 11.1113C72.261 11.7023 72.0644 12.2859 71.8454 12.8645C71.7438 13.2104 71.7525 13.5792 71.8702 13.92C72.0196 14.5483 72.1365 15.184 72.2834 15.8123C72.4367 16.4512 72.53 17.103 72.5621 17.7593C72.6123 18.6426 72.5815 19.5287 72.47 20.4065C72.3431 21.2732 72.2386 22.1449 72.0917 23.0091C71.9723 23.697 71.8429 24.3799 71.6637 25.0554C71.3551 26.297 71.0913 27.5387 70.8548 28.7928C70.8191 28.9987 70.8263 29.2097 70.876 29.4126C70.9257 29.6156 71.0167 29.8062 71.1435 29.9724C71.3526 30.2626 71.535 30.5709 71.6886 30.8937C71.8877 31.3432 71.7085 31.5643 71.2257 31.5096C70.4034 31.3997 69.5882 31.2421 68.7842 31.0378Z" fill="#36C0F9"/>
</g>
<path d="M54.9591 100.671H18.596C18.5089 100.671 18.4218 100.671 18.3471 100.671C18.3279 100.672 18.3087 100.669 18.291 100.661C18.2732 100.654 18.2573 100.643 18.2444 100.628C18.2315 100.614 18.222 100.597 18.2165 100.579C18.2111 100.56 18.2098 100.541 18.2127 100.522C18.2127 100.475 18.2127 100.425 18.2127 100.378V97.4725C18.2127 97.1819 18.2451 97.1471 18.5388 97.1298C18.6234 97.1298 18.7105 97.1298 18.7876 97.1298L63.4931 97.2018L90.9116 97.249C91.1216 97.2344 91.3326 97.2411 91.5413 97.2688C91.7503 97.311 91.7901 97.3458 91.7901 97.5544C91.7901 98.5006 91.7901 99.4467 91.8026 100.395C91.8026 100.624 91.7901 100.644 91.5537 100.644C91.4392 100.644 91.3247 100.644 91.2078 100.644H60.9147H54.9591V100.671Z" fill="#C4C4C4"/>
<path d="M55.0015 4.22239H18.7405C18.0834 4.22239 18.2079 4.25964 18.2029 3.69095C18.2029 2.79942 18.2029 1.91038 18.2029 1.02133C18.2029 0.730781 18.2352 0.696014 18.5289 0.676147C18.6135 0.676147 18.7006 0.676147 18.7778 0.676147L63.5205 0.745682L90.8793 0.792865C91.0993 0.778306 91.3202 0.784959 91.5388 0.812732C91.7479 0.85495 91.7877 0.889717 91.7877 1.09584C91.7877 2.04448 91.7877 2.99064 91.8002 3.93928C91.8002 4.16775 91.7877 4.18762 91.5513 4.18762C91.4169 4.20004 91.2825 4.18762 91.1481 4.18762H60.9422H55.0015V4.22239Z" fill="#C4C4C4"/>
<path d="M66.1835 36.7148C65.1991 36.6655 64.219 36.5527 63.2493 36.377C62.5674 36.2603 61.9103 36.0616 61.2359 35.9201C61.0091 35.8689 60.7881 35.7949 60.5764 35.6991C60.2236 35.5464 59.858 35.4251 59.4838 35.3365C59.0114 35.2048 58.6023 34.9077 58.3315 34.4996C58.0677 34.1594 57.8338 33.8043 57.5849 33.4541C57.219 32.9276 56.8059 32.4285 56.4898 31.8747C56.3753 31.6735 56.3828 31.6512 56.6292 31.5891C57.0996 31.4724 57.5774 31.3755 58.0453 31.2489C58.7919 31.0502 59.5535 30.9434 60.3001 30.7522C60.4888 30.7135 60.6801 30.6886 60.8725 30.6777C61.096 30.6548 61.3214 30.6961 61.5221 30.7969C61.7909 30.9285 62.0547 31.0775 62.3259 31.2017C62.9231 31.5088 63.5362 31.784 64.1626 32.0262C64.4242 32.1073 64.6749 32.2199 64.9093 32.3614C65.0422 32.4453 65.1962 32.4898 65.3535 32.4898C65.5108 32.4898 65.6648 32.4453 65.7978 32.3614C66.1077 32.2032 66.3935 32.0017 66.6464 31.7629C66.9665 31.5173 67.2505 31.2281 67.4901 30.9037C67.7962 30.4052 68.1371 29.9288 68.5105 29.4782C68.8042 29.1132 69.053 28.7208 69.3417 28.3508C69.7111 27.8854 70.036 27.3866 70.3123 26.8608C70.3746 26.7416 70.4691 26.6373 70.5388 26.5206C70.7603 26.1481 70.947 25.7557 71.1958 25.3956C71.3352 25.1944 71.5144 25.0231 71.6463 24.8195C71.7408 24.6861 71.7983 24.5302 71.8131 24.3675C71.8504 23.9205 71.8827 23.471 71.9026 23.024C71.9176 22.644 72.0097 22.279 72.037 21.8866C72.0868 21.236 72.2511 20.6052 72.3531 19.9645C72.4352 19.448 72.4552 18.919 72.5074 18.3975C72.5472 18.1624 72.5472 17.9223 72.5074 17.6872C72.5053 17.61 72.5188 17.5331 72.5472 17.4613C72.5696 17.3644 72.607 17.275 72.7339 17.2676C72.7789 17.2662 72.8232 17.2788 72.8607 17.3037C72.8982 17.3287 72.9269 17.3646 72.9429 17.4066C73.0897 17.6563 73.209 17.9211 73.2988 18.1963C73.4035 18.5638 73.4719 18.9406 73.5029 19.3213C73.5602 19.818 73.6896 20.2997 73.7393 20.7939C73.7667 21.0597 73.8016 21.3254 73.824 21.5911C73.8937 22.3808 74.0728 23.1581 74.1823 23.9404C74.3198 24.6419 74.2471 25.3683 73.9733 26.0289C73.7891 26.4312 73.6124 26.8359 73.4382 27.2432C73.1221 27.9882 72.8036 28.7109 72.4427 29.4211C72.0072 30.2605 71.604 31.1197 71.0888 31.9219C70.9957 32.0693 70.9125 32.2228 70.84 32.3813C70.5922 32.8928 70.3164 33.3902 70.0137 33.8713C69.8196 34.1842 69.6902 34.5294 69.4861 34.8398C69.2235 35.2791 68.9228 35.6946 68.5876 36.0815C68.3818 36.2877 68.1238 36.4345 67.841 36.5062C67.3018 36.6565 66.7433 36.7268 66.1835 36.7148Z" fill="#F7AD8D"/>
<path d="M63.386 29.6072C63.1048 29.7786 62.831 29.935 62.5672 30.1039C62.1466 30.382 61.6762 30.5633 61.2432 30.8141C60.8975 31.0157 60.5323 31.1821 60.1531 31.3108C59.9148 31.3935 59.6575 31.4051 59.4126 31.3442C59.1678 31.2834 58.946 31.1527 58.7744 30.9681C58.5679 30.7682 58.3835 30.5467 58.2244 30.3075C57.9931 29.9563 57.7006 29.6493 57.3608 29.4011C57.2898 29.3415 57.202 29.3057 57.1096 29.2985C57.0172 29.2914 56.9248 29.3134 56.8456 29.3614C56.5569 29.5178 56.2358 29.6097 55.9546 29.7761C55.86 29.8332 55.8053 29.7761 55.763 29.6991C55.5589 29.2546 55.3623 28.8051 55.1483 28.3631C55.0811 28.224 55.0089 28.0899 54.9342 27.9558C54.6231 27.3921 54.3618 26.8035 54.0756 26.2174C53.8767 25.7559 53.6524 25.3058 53.4036 24.869C53.3389 24.7672 53.2867 24.6728 53.441 24.5933C53.8072 24.3759 54.1619 24.1396 54.5037 23.8856C54.7799 23.7093 55.0487 23.518 55.325 23.3442C55.972 22.932 56.6017 22.4874 57.2662 22.1025C58.1774 21.5309 59.1327 21.0326 60.1233 20.6125C60.4369 20.4908 60.7504 20.3642 61.069 20.2499C61.7344 20.0414 62.4217 19.9097 63.1172 19.8576C64.0239 19.7899 64.9301 19.9959 65.718 20.4486C66.1336 20.6671 66.4173 21.0471 66.7384 21.3774C67.1055 21.7786 67.3919 22.2465 67.582 22.7556C67.7264 23.1281 67.8291 23.5154 67.8882 23.9104C67.9019 24.1249 67.8774 24.3401 67.816 24.5461C67.7209 25.0265 67.5531 25.4895 67.3182 25.9194C67.189 26.1939 67.0158 26.4455 66.8056 26.6645C66.38 27.0469 65.9992 27.474 65.5886 27.8738C64.9241 28.517 64.3268 29.2198 64.0953 30.1561C64.0431 30.3671 63.9311 30.4044 63.7817 30.2455C63.7347 30.1914 63.6938 30.1322 63.6598 30.0691C63.5652 29.9226 63.4806 29.7711 63.386 29.6072Z" fill="#FFD1BD"/>
<path d="M49.6629 24.4471C50.2304 24.4173 50.7256 24.5489 51.2333 24.5738C51.8803 24.6421 52.5326 24.6421 53.1795 24.5738C53.2922 24.5518 53.4088 24.5636 53.5147 24.6078C53.6206 24.652 53.711 24.7266 53.7743 24.8221C54.1943 25.304 54.5677 25.8245 54.8893 26.3767C55.1239 26.77 55.331 27.1791 55.509 27.601C55.8062 28.3107 55.9747 29.0675 56.0068 29.836C56.0135 30.3112 55.929 30.7832 55.7579 31.2267C55.407 32.1778 54.9988 33.0991 54.5583 34.0105C54.2099 34.7332 53.8391 35.4434 53.4682 36.1562C53.001 37.0426 52.4833 37.9016 51.9177 38.7289C51.6716 39.117 51.361 39.4605 50.9994 39.7446C50.7306 39.9408 50.4892 40.1767 50.2129 40.3655C49.8894 40.584 49.5435 40.7678 49.205 40.964C48.7197 41.2471 48.2269 41.5202 47.7441 41.8108C47.5417 41.956 47.3651 42.134 47.2215 42.3372C46.811 42.8165 46.4461 43.3328 46.1314 43.8794C45.654 44.694 45.2211 45.5338 44.8348 46.3951C44.5803 46.9821 44.2816 47.5491 43.9413 48.0912C43.7621 48.3743 43.6252 48.6798 43.4286 48.9529C43.3465 49.0647 43.2793 49.0597 43.1673 49.0175C42.2564 48.6922 41.3381 48.3892 40.4297 48.0763C39.8797 47.8876 39.3197 47.7212 38.7747 47.5151C37.9708 47.2071 37.1495 46.9513 36.3431 46.6583C35.6338 46.41 34.9246 46.1418 34.2177 45.8736C33.72 45.6848 33.2222 45.4663 32.7245 45.28C32.2267 45.0938 31.7887 44.8926 31.3258 44.684C31.0396 44.5549 30.7609 44.4034 30.4796 44.2643C30.3652 44.2072 30.3726 44.1352 30.4274 44.0309C30.6647 43.596 30.9264 43.1748 31.2113 42.7694C31.4884 42.3571 31.7622 41.9432 32.0326 41.5277C32.513 40.7827 32.9958 40.0625 33.4686 39.3224C34.0261 38.4458 34.6209 37.5841 35.1908 36.7249C35.5642 36.1586 35.9599 35.6098 36.3357 35.0461C36.7762 34.388 37.254 33.7572 37.697 33.1016C37.9335 32.754 38.1948 32.4336 38.4685 32.1083C38.812 31.6737 39.1629 31.2466 39.5188 30.8219C39.9145 30.3476 40.3177 29.8733 40.7457 29.4287C41.2412 28.9137 41.7753 28.4372 42.3435 28.0033C42.8413 27.6209 43.3564 27.2583 43.8915 26.9181C44.4266 26.5778 45.0164 26.2327 45.5988 25.9247C45.9447 25.7409 46.2857 25.5497 46.6341 25.3684C47.4476 24.922 48.3313 24.6172 49.2473 24.467C49.385 24.4487 49.5241 24.4421 49.6629 24.4471Z" fill="#F3A636"/>
<path d="M49.7103 12.5395C49.6481 11.8764 50.0015 11.4518 50.4171 11.0495C50.6569 10.7785 50.99 10.6074 51.3504 10.5702C51.868 10.5429 52.3807 10.5528 52.8237 10.888C52.9955 11.0172 53.1821 11.1364 53.3538 11.2531C53.6782 11.5388 53.9451 11.8835 54.1403 12.2688C54.5196 12.9151 54.826 13.6014 55.0536 14.3151C55.2254 14.8117 55.3971 15.3084 55.5514 15.825C55.5574 15.8446 55.5648 15.8637 55.5738 15.8821C55.7455 16.2422 55.9048 16.6097 56.0964 16.9599C56.4313 17.514 56.8698 17.9988 57.3881 18.3878C57.4952 18.4673 57.6113 18.5339 57.734 18.5865C58.4811 19.0046 59.3265 19.2164 60.183 19.1998C60.397 19.1998 60.616 19.2495 60.8275 19.2346C61.619 19.1725 62.4104 19.2098 63.2018 19.1849C63.838 19.1502 64.4758 19.2121 65.0933 19.3687C65.7174 19.5544 66.2741 19.9167 66.696 20.4117C66.8055 20.5466 66.9218 20.6759 67.0444 20.7991C67.6324 21.3653 68.0238 22.1039 68.1619 22.9075C68.2859 23.5218 68.326 24.15 68.2813 24.775C68.2692 25.3951 68.0782 25.9986 67.7313 26.5133C67.6268 26.6659 67.4903 26.794 67.3314 26.8887C67.1724 26.9835 66.9947 27.0426 66.8105 27.0622C66.2846 27.114 65.7586 26.9639 65.3397 26.6425C64.7735 26.2002 64.231 25.7286 63.7145 25.2294C63.3546 24.928 62.9267 24.7184 62.4676 24.6185C62.2895 24.5692 62.1048 24.5483 61.9201 24.5565C61.8131 24.5565 61.7086 24.5565 61.6712 24.4323C61.6443 24.3767 61.639 24.3131 61.6565 24.2539C61.674 24.1946 61.7129 24.144 61.7658 24.1119C61.8006 24.0896 61.8181 24.0474 61.8479 24.0225C61.9282 23.9581 61.9831 23.8674 62.0027 23.7664C62.0223 23.6655 62.0054 23.5609 61.955 23.4712C61.9164 23.3746 61.8499 23.2915 61.7639 23.2327C61.678 23.1739 61.5764 23.142 61.4721 23.1409C61.2247 23.1298 60.9786 23.1829 60.7579 23.2949C60.3367 23.4951 59.9886 23.8215 59.7624 24.2287C59.7297 24.2918 59.711 24.3613 59.7076 24.4323C59.6896 24.5681 59.6441 24.6989 59.5739 24.8167C59.5038 24.9345 59.4104 25.0369 59.2995 25.1177C58.6365 25.6187 57.8993 26.0133 57.1143 26.2874C56.3987 26.5435 55.6604 26.7314 54.9093 26.8486C54.0954 26.9676 53.2712 27 52.4504 26.9454C51.6508 26.8925 50.863 26.7252 50.111 26.4488C49.6556 26.2874 49.2225 26.0812 48.7745 25.9C48.5077 25.7689 48.2521 25.6161 48.0105 25.443C47.1739 24.942 46.3945 24.3517 45.686 23.6823C45.1727 23.1678 44.6899 22.6238 44.24 22.0532C43.8396 21.5591 43.4665 21.0434 43.1226 20.5086C42.7056 19.8813 42.3489 19.2161 42.0574 18.5219C41.7919 17.933 41.5924 17.3167 41.4626 16.6842C41.3053 15.9602 41.3113 15.2103 41.48 14.4889C41.5976 13.9296 41.9322 13.4395 42.4108 13.1255C43.2321 12.6289 44.1305 12.3805 45.0389 13.0088C45.2925 13.182 45.5147 13.397 45.6959 13.6446C45.7532 13.7265 45.788 13.8283 45.9249 13.8706C45.9337 13.7399 45.9337 13.6088 45.9249 13.4782C45.87 12.9871 45.9518 12.4905 46.1613 12.0428C46.3404 11.5895 46.6882 11.2229 47.132 11.0197C47.4199 10.9046 47.7358 10.8784 48.0388 10.9443C48.3418 11.0103 48.618 11.1654 48.8318 11.3897C49.1112 11.6708 49.3454 11.9933 49.5261 12.3458C49.5602 12.4316 49.6262 12.5011 49.7103 12.5395Z" fill="black"/>
<path d="M73.5227 32.9327C73.6446 32.9725 73.6994 32.9079 73.7715 32.8731C74.6227 32.4361 75.4689 31.989 76.3225 31.5619C76.6311 31.4079 76.9571 31.2912 77.2782 31.1671C77.4001 31.1199 77.5669 31.0528 77.649 31.1671C77.7311 31.2813 77.5644 31.3707 77.4847 31.4576C77.157 31.7511 76.7881 31.9954 76.3897 32.1828C76.091 32.3566 75.8048 32.5478 75.5137 32.7291C75.3566 32.847 75.2108 32.9792 75.0781 33.1239C75.4486 33.0617 75.806 32.9383 76.1358 32.7589C76.6336 32.5404 77.104 32.3044 77.6067 32.1207C77.8439 32.0464 78.09 32.0039 78.3384 31.994C78.3864 31.9898 78.4347 31.9957 78.4802 32.0114C78.6097 32.0561 78.6345 32.1505 78.5325 32.2597C78.4084 32.3783 78.2705 32.4817 78.1219 32.5677C77.7062 32.816 77.2956 33.047 76.8775 33.258C76.5486 33.4126 76.2353 33.598 75.9417 33.8118C75.9044 33.8416 75.8571 33.8565 75.8521 33.9186C75.9741 33.9683 76.0761 33.9012 76.1781 33.859C76.651 33.6579 77.1338 33.4716 77.5992 33.2481C77.9253 33.0872 78.2708 32.9687 78.6271 32.8955L78.6818 32.8781C78.8112 32.8533 78.9481 32.8533 79.0054 32.9874C79.0626 33.1215 78.9705 33.2059 78.8759 33.2779C78.5104 33.5325 78.1251 33.7576 77.7237 33.9509C77.2135 34.229 76.646 34.3954 76.1831 34.763C76.0939 34.8174 76.0182 34.8913 75.9616 34.979C76.4743 34.8052 76.9347 34.6015 77.4076 34.4302C77.7968 34.2472 78.2027 34.1017 78.6196 33.9956C78.6569 33.9956 78.6943 33.9708 78.7316 33.9683C78.7787 33.9599 78.8273 33.9653 78.8714 33.9838C78.9156 34.0023 78.9534 34.0332 78.9805 34.0726C78.9979 34.1181 78.9981 34.1683 78.9812 34.214C78.9642 34.2597 78.9313 34.2977 78.8884 34.3209C78.6595 34.493 78.4144 34.6427 78.1567 34.7679C77.5387 35.0404 76.9542 35.3829 76.4146 35.7886C76.0587 36.0767 75.7152 36.3821 75.3494 36.6553C74.989 36.9086 74.5976 37.1147 74.1847 37.2687C73.9209 37.3755 73.6471 37.4649 73.3758 37.5567C72.9368 37.7477 72.5343 38.0132 72.1862 38.3415C71.7457 38.6916 71.3027 39.0393 70.8771 39.4069C70.4515 39.7744 70.0633 40.1022 69.6452 40.435C69.0354 40.9316 68.4531 41.4432 67.8234 41.9101C67.1938 42.377 66.5492 42.9158 65.8673 43.3579C65.2732 43.7579 64.6404 44.0973 63.9783 44.3711C63.8284 44.4363 63.6872 44.5197 63.5577 44.6194C63.4529 44.7003 63.3279 44.7509 63.1962 44.7658C63.0646 44.7807 62.9314 44.7593 62.8111 44.7039C62.5299 44.5971 62.3133 44.3959 62.0421 44.2668C61.6299 44.0456 61.2519 43.7663 60.9196 43.4373C60.4963 43.0678 60.0526 42.7221 59.5906 42.4018C59.1153 42.0516 58.63 41.7164 58.1298 41.4084C57.9452 41.2885 57.7682 41.1575 57.5997 41.0161C57.2935 40.7677 56.9501 40.5467 56.6241 40.3108C56.1711 39.978 55.6958 39.6751 55.2328 39.3547C55.0186 39.2122 54.8117 39.0589 54.6132 38.8953C54.2374 38.57 53.8217 38.2943 53.441 37.9789C53.0975 37.6933 52.769 37.3829 52.4455 37.0675C52.2961 36.916 52.1244 36.7968 51.9651 36.6627C51.557 36.3151 51.2309 35.8904 50.8527 35.5129C50.466 35.1165 50.1314 34.6726 49.8572 34.1918C49.7247 33.9707 49.5792 33.7576 49.4216 33.5536C49.0954 33.118 48.837 32.6357 48.6551 32.1232C48.5929 31.9518 48.5157 31.7879 48.446 31.6265C48.2474 31.056 48.1744 30.4495 48.232 29.8484C48.2349 29.801 48.2441 29.7542 48.2594 29.7093C48.3807 29.2954 48.5998 28.9166 48.8981 28.6046C49.1965 28.2927 49.5655 28.0566 49.9741 27.9163C50.5105 27.7552 51.0864 27.7869 51.6018 28.0057C52.3484 28.2541 52.9059 28.7507 53.4783 29.23C54.041 29.7444 54.5353 30.3286 54.9491 30.9684C55.1706 31.2887 55.417 31.5967 55.6286 31.9245C55.8401 32.2523 56.0093 32.518 56.186 32.8235C56.3976 33.186 56.644 33.5287 56.8854 33.8714C57.2065 34.3091 57.5708 34.7134 57.973 35.0784C58.8117 35.873 59.6728 36.6404 60.5264 37.4177C60.8997 37.7579 61.273 38.1031 61.6563 38.4284C62.0396 38.7537 62.4029 39.0219 62.7787 39.3175C62.8778 39.3915 63.0021 39.4236 63.1247 39.4069C63.6224 39.3845 64.048 39.1759 64.5059 39.0418C65.036 38.8853 65.5661 38.719 66.0838 38.5253C66.5687 38.3461 67.0396 38.1311 67.4924 37.8821C68.0847 37.5518 68.6596 37.1942 69.2345 36.8415C69.8821 36.471 70.4814 36.0222 71.019 35.5055C71.1293 35.398 71.2143 35.2674 71.2678 35.1231C71.3837 34.77 71.5226 34.4249 71.6835 34.09C71.9946 33.4691 72.3579 32.8781 72.9876 32.4957C73.5251 32.1679 74.0677 31.845 74.6351 31.5694C74.7133 31.5287 74.7972 31.5002 74.884 31.4849C75.0035 31.4651 75.0657 31.547 75.0184 31.6588C74.9938 31.7211 74.9556 31.7771 74.9064 31.8227C74.563 32.1083 74.217 32.3938 73.8611 32.6645C73.7367 32.7365 73.6521 32.8433 73.5227 32.9327Z" fill="#FFC6A9"/>
<path d="M47.9682 30.5632C47.9584 29.7016 48.2861 28.8703 48.8816 28.2462C49.2628 27.8347 49.7709 27.5623 50.3252 27.4723C50.8795 27.3823 51.448 27.4799 51.9403 27.7496C52.5729 28.0967 53.1647 28.5132 53.7048 28.9913C54.6771 29.8454 55.5594 30.7965 56.3379 31.8297C57.0173 32.6964 57.7017 33.5681 58.4409 34.3752C58.6898 34.6508 58.6898 34.7502 58.4558 35.0432C58.2761 35.2673 58.0734 35.472 57.8511 35.6541L55.32 37.7774C54.8571 38.1648 54.4091 38.5696 53.9711 38.9843C53.9014 39.0514 53.8292 39.1134 53.7595 39.178C53.7181 39.2311 53.6651 39.2741 53.6045 39.3037C53.5439 39.3333 53.4773 39.3486 53.4099 39.3486C53.3424 39.3486 53.2759 39.3333 53.2153 39.3037C53.1547 39.2741 53.1016 39.2311 53.0602 39.178C52.4358 38.5975 51.8721 37.9551 51.3778 37.2608C50.8353 36.5158 50.2977 35.7485 49.7726 34.9836C49.0959 34.0301 48.5635 32.9825 48.1922 31.8744C48.0455 31.4527 47.9698 31.0096 47.9682 30.5632Z" fill="#E8940A"/>
<path d="M65.2051 82.6247C65.1802 82.6396 65.1703 82.6421 65.1678 82.6495C64.8965 83.1313 64.6402 82.9897 64.3365 82.7315C64.1984 82.6086 64.0867 82.459 64.008 82.2919C63.9582 82.1926 63.9209 82.1305 63.784 82.2075C63.718 82.24 63.643 82.2495 63.5708 82.2347C63.4987 82.2198 63.4336 82.1814 63.3858 82.1255C63.265 82.0245 63.1732 81.8934 63.1195 81.7456C62.9204 81.1024 62.6044 80.5039 62.4799 79.8334C62.3087 79.1071 62.0365 78.4083 61.6711 77.7573C61.365 77.1464 60.9941 76.5777 60.6407 75.9966C60.4933 75.7649 60.3177 75.5522 60.1181 75.3633C59.7647 75.0181 59.4387 74.6456 59.0853 74.3054C58.805 74.0395 58.5547 73.7439 58.3387 73.4238C58.1086 73.1099 57.9606 72.7438 57.9081 72.3585C57.8627 72.0005 57.926 71.6371 58.0898 71.3154C58.3118 70.8479 58.6723 70.4595 59.1226 70.2029C59.3914 70.0539 59.6602 69.9024 59.919 69.7335C60.0326 69.6648 60.1276 69.5693 60.1958 69.4554C60.2639 69.3416 60.303 69.2128 60.3097 69.0804C60.3608 68.4813 60.3608 67.879 60.3097 67.28C60.3086 66.8554 60.2712 66.4317 60.1978 66.0135C60.1654 65.8794 60.2575 65.8371 60.3744 65.8297L61.3699 65.7577C62.2087 65.6931 63.0499 65.641 63.8811 65.5093C64.0404 65.4845 64.2295 65.4175 64.3589 65.5093C64.4884 65.6012 64.4037 65.8049 64.4212 65.9563C64.4933 66.5896 64.558 67.2229 64.6203 67.8561C64.6377 68.0399 64.6427 68.2261 64.6427 68.4124C64.6427 68.991 64.8019 69.5448 64.8716 70.1135C64.9338 70.6102 65.0035 71.082 65.0384 71.5712C65.0707 71.9835 65.1304 72.3957 65.1553 72.8129C65.1802 73.2748 65.2126 73.7367 65.2524 74.1961C65.3221 74.9809 65.2872 75.7681 65.3096 76.5553C65.3191 77.3215 65.3697 78.0867 65.4615 78.8475C65.5311 79.3442 65.6655 79.8234 65.7526 80.3151C65.8634 80.886 66.0474 81.4402 66.3002 81.9641C66.3996 82.1523 66.4509 82.3622 66.4495 82.575C66.4296 82.9425 66.2255 83.0915 65.8796 82.9798C65.6355 82.9021 65.4071 82.7819 65.2051 82.6247Z" fill="#FFC6A9"/>
<path d="M57.4901 53.1647C57.1247 53.2284 56.7702 53.3438 56.4374 53.5074C55.5464 53.8675 54.6778 54.2822 53.8142 54.7094C53.2692 54.9801 52.7316 55.2632 52.1866 55.5388C52.1258 55.5757 52.0549 55.5926 51.984 55.5873C51.913 55.5819 51.8455 55.5546 51.7909 55.509C51.3877 55.2284 50.9621 54.9825 50.5465 54.7367C50.2852 54.5852 50.0363 54.4188 49.775 54.2698C49.1976 53.9395 48.6153 53.6192 48.0329 53.3162C47.6546 53.12 47.2539 52.9685 46.8756 52.7699C46.3507 52.499 45.8106 52.2586 45.2579 52.0497C44.7976 51.8367 44.3217 51.6591 43.8344 51.5183C43.579 51.4518 43.3325 51.355 43.1002 51.2302C43.0755 51.2228 43.0528 51.21 43.0338 51.1926C43.0149 51.1752 43.0002 51.1536 42.9908 51.1297C42.9815 51.1057 42.9777 51.08 42.9798 51.0543C42.982 51.0287 42.9899 51.0039 43.0031 50.9818C43.1453 50.6205 43.2447 50.2438 43.2993 49.8594C43.354 49.544 43.3839 49.2236 43.4635 48.9082C43.4909 48.7965 43.5307 48.7468 43.6353 48.7394C43.9427 48.6996 44.2427 48.616 44.5262 48.491C45.3251 48.193 46.1141 47.8677 46.9229 47.5995C47.467 47.3995 48.0231 47.2336 48.5879 47.1028C48.8368 47.0557 49.0856 46.9638 49.3345 46.9017C50.2205 46.6782 51.1164 46.4894 52.0174 46.3206C52.5773 46.2163 53.1298 46.0722 53.6898 45.963C54.3145 45.8413 54.9193 45.6277 55.5439 45.5383C56.2258 45.4415 56.9003 45.3049 57.5822 45.2155C58.5535 45.0931 59.5332 45.0499 60.5115 45.0863C61.1828 45.0871 61.8516 45.1705 62.5025 45.3347C62.9678 45.4612 63.408 45.6661 63.8041 45.9406C64.1405 46.1838 64.3948 46.5233 64.5333 46.9141C64.6567 47.3189 64.7401 47.7348 64.7822 48.1558C64.8543 48.5829 64.9091 49.015 65.0037 49.4372C65.0982 49.8594 65.1132 50.3536 65.1804 50.808C65.2998 51.6226 65.3272 52.4445 65.4093 53.2616C65.4989 54.1283 65.4989 54.9999 65.5686 55.8617C65.6308 56.6365 65.6532 57.4113 65.6831 58.1861C65.713 59.0081 65.7777 59.8276 65.8424 60.6471C65.917 61.5957 66.0191 62.5394 66.0912 63.4881C66.1336 64.0394 66.1435 64.5956 66.1634 65.1494C66.1634 65.3705 66.1634 65.3705 65.9469 65.4152C65.2277 65.5617 64.5009 65.6635 63.7717 65.738L60.3597 66.0782C60.1904 66.0931 60.0162 66.0782 59.8445 66.0956C59.7325 66.0956 59.6852 66.0683 59.6653 65.9491C59.5682 65.3754 59.4338 64.8092 59.3069 64.243C59.073 63.1975 58.8789 62.1446 58.635 61.1015C58.4209 60.1951 58.2268 59.2837 58.0128 58.3699C57.8734 57.7887 57.8261 57.1853 57.7241 56.5942C57.6206 55.9561 57.5516 55.3128 57.5175 54.6672C57.4805 54.1672 57.4713 53.6657 57.4901 53.1647Z" fill="#27ABE1"/>
<path d="M59.4814 46.7626C58.1412 46.8453 56.8097 47.0338 55.4994 47.3263C52.707 47.8752 49.9843 48.6971 47.2666 49.539C46.4055 49.8047 45.5244 50.0357 44.6733 50.284C44.5924 50.3096 44.509 50.3263 44.4244 50.3337C44.3665 50.335 44.31 50.3161 44.2646 50.2803C44.2192 50.2445 44.1877 50.194 44.1755 50.1375C44.1628 50.0834 44.1686 50.0265 44.1921 49.9761C44.2156 49.9257 44.2553 49.8846 44.305 49.8594C44.3529 49.8333 44.4039 49.8133 44.4568 49.7998C46.6966 49.2062 48.8942 48.4612 51.1241 47.8354C53.2184 47.2501 55.3438 46.7816 57.4904 46.4323C58.4763 46.2635 59.4778 46.2035 60.4769 46.2535C61.1885 46.2821 61.8849 46.4687 62.5151 46.7999C63.149 47.1327 63.6322 47.6939 63.8665 48.3693C64.0628 48.9769 64.2028 49.6012 64.2846 50.2343C64.5609 51.8212 64.7824 53.4155 64.9218 55.0198C65.0288 56.3409 65.1482 57.6596 65.1706 58.9932C65.193 60.3267 65.3025 61.5808 65.3623 62.8771C65.3847 63.3291 65.4096 63.7836 65.4295 64.2355C65.437 64.2907 65.437 64.3467 65.4295 64.4019C65.4259 64.4627 65.4001 64.52 65.357 64.563C65.3139 64.6061 65.2564 64.6318 65.1955 64.6354C65.1359 64.6361 65.0779 64.6155 65.0322 64.5772C64.9866 64.5389 64.9562 64.4855 64.9466 64.4268C64.9291 64.3451 64.9191 64.2619 64.9168 64.1784C64.8371 62.6611 64.7426 61.1462 64.6853 59.6264C64.6505 58.7299 64.6281 57.831 64.5659 56.9345C64.4887 55.8542 64.3991 54.7764 64.2797 53.7061C64.1254 52.308 63.8839 50.9222 63.6525 49.534C63.5927 49.1959 63.5036 48.8635 63.3862 48.5407C63.1937 47.9875 62.7941 47.5301 62.2712 47.2642C61.6359 46.9436 60.9349 46.7737 60.223 46.7676C59.9617 46.7552 59.7302 46.7626 59.4814 46.7626Z" fill="#D3F2FF"/>
<path d="M63.4633 64.4116C63.4614 64.4652 63.4539 64.5185 63.4409 64.5706C63.4247 64.6331 63.3868 64.6878 63.3339 64.7251C63.2811 64.7624 63.2167 64.7798 63.1522 64.7742C63.0203 64.7593 62.9432 64.6649 62.9332 64.501C62.8785 63.5077 62.7217 62.497 62.6172 61.4962C62.4852 60.2545 62.3334 58.9954 62.2588 57.7363C62.2015 56.743 62.0945 55.7646 62.0099 54.7762C61.9746 54.1204 61.8914 53.468 61.761 52.8243C61.6715 52.3984 61.5398 51.9824 61.3678 51.5826C61.2193 51.2561 61.0285 50.9506 60.8004 50.6737C60.552 50.3619 60.2359 50.1105 59.8759 49.9384C59.5159 49.7663 59.1214 49.6781 58.7223 49.6803C57.9863 49.6691 57.2512 49.7365 56.5297 49.8815C54.3813 50.3117 52.2769 50.9377 50.2431 51.7514C49.8374 51.9079 49.4243 52.0519 49.0136 52.2009C48.9888 52.2009 48.9639 52.2233 48.939 52.2307C48.8753 52.2593 48.8028 52.2615 48.7375 52.2368C48.6722 52.2121 48.6193 52.1626 48.5906 52.0991C48.5333 51.9625 48.5906 51.8309 48.7623 51.7415C48.811 51.7183 48.8608 51.6976 48.9116 51.6794C50.4795 51.1207 52.0225 50.4973 53.6253 50.0404C54.8687 49.6671 56.1393 49.3907 57.4256 49.2135C58.0819 49.1149 58.7497 49.1208 59.4042 49.2308C59.9663 49.3389 60.4849 49.6071 60.8974 50.0032C61.4655 50.5614 61.8788 51.257 62.097 52.0221C62.3288 52.8319 62.4698 53.6647 62.5176 54.5055C62.5798 55.3076 62.657 56.1097 62.7167 56.9119C62.7889 57.9052 62.8561 58.8861 62.9656 59.872C63.0626 60.7735 63.1497 61.675 63.2692 62.5739C63.3488 63.1799 63.3986 63.7809 63.4633 64.4116Z" fill="#D3F2FF"/>
<path d="M56.9178 51.6372C57.2121 51.6515 57.4986 51.7361 57.7533 51.8839C58.0079 52.0317 58.2233 52.2383 58.3812 52.4865C58.6937 53.0247 58.8793 53.6268 58.9238 54.2472C59.0357 55.325 59.2025 56.3928 59.3867 57.4582C59.6554 58.9904 59.8595 60.5301 60.0785 62.0698C60.1955 62.8943 60.3797 63.7064 60.5414 64.5209C60.5614 64.6202 60.5838 64.7221 60.5937 64.8214C60.6014 64.8553 60.6023 64.8904 60.5963 64.9247C60.5903 64.959 60.5776 64.9917 60.5588 65.021C60.5401 65.0504 60.5157 65.0757 60.4871 65.0956C60.4585 65.1154 60.4262 65.1294 60.3921 65.1368C60.3579 65.1435 60.3227 65.143 60.2887 65.1353C60.2547 65.1276 60.2227 65.1129 60.1947 65.092C60.1668 65.0712 60.1436 65.0447 60.1266 65.0144C60.1096 64.984 60.0991 64.9504 60.096 64.9158C60.0288 64.6277 59.9815 64.3346 59.9168 64.0466C59.648 62.8546 59.4987 61.6402 59.3244 60.4333C59.1179 59.0053 58.8964 57.5799 58.64 56.1594C58.543 55.623 58.4982 55.0767 58.4409 54.5353C58.4025 54.0834 58.308 53.6379 58.1597 53.2092C58.1045 53.0047 58.0043 52.8151 57.8666 52.6541C57.7289 52.493 57.557 52.3645 57.3633 52.2779C57.0907 52.1708 56.7913 52.1517 56.5072 52.2233C55.9852 52.3633 55.4834 52.5694 55.0139 52.8367C54.123 53.2961 53.232 53.753 52.3709 54.2696C52.1046 54.4285 51.8258 54.5626 51.5496 54.7042C51.4775 54.743 51.3992 54.7691 51.3181 54.7811C51.2638 54.7885 51.2086 54.776 51.1629 54.7458C51.1171 54.7157 51.0838 54.67 51.0693 54.6172C51.0515 54.5695 51.0489 54.5174 51.0618 54.4681C51.0747 54.4187 51.1025 54.3746 51.1414 54.3416C51.1822 54.3062 51.2284 54.2777 51.2783 54.2572C51.684 54.0684 52.0722 53.8474 52.458 53.6214C53.4186 53.0577 54.4067 52.5511 55.4047 52.0643C55.787 51.8719 56.1966 51.7387 56.6192 51.6695C56.7137 51.6571 56.8033 51.6496 56.9178 51.6372Z" fill="#D3F2FF"/>
<path d="M42.9584 90.8646C42.8663 90.8969 42.8738 91.0012 42.8116 91.0558C42.7916 91.084 42.7651 91.107 42.7344 91.1229C42.7036 91.1387 42.6695 91.147 42.6349 91.147C42.6003 91.147 42.5662 91.1387 42.5354 91.1229C42.5047 91.107 42.4782 91.084 42.4582 91.0558C42.4109 91.0012 42.3736 90.9341 42.3288 90.877C42.284 90.8199 42.289 90.733 42.2242 90.6858C42.1745 90.6858 42.1819 90.733 42.1645 90.7603C42.1417 90.818 42.1032 90.8682 42.0535 90.9054C42.0037 90.9426 41.9446 90.9653 41.8827 90.971C41.8208 90.9766 41.7585 90.965 41.7028 90.9375C41.6471 90.9099 41.6002 90.8675 41.5672 90.8149C41.4677 90.6982 41.3855 90.5666 41.2959 90.435C41.2787 90.441 41.2621 90.4485 41.2462 90.4573C40.9973 90.7057 40.8953 90.7057 40.6663 90.4573C40.6125 90.4072 40.5686 90.3474 40.5369 90.281C40.424 89.9898 40.237 89.733 39.9943 89.536C39.6548 89.2135 39.3511 88.8555 39.0884 88.4682C38.8989 88.16 38.7572 87.8252 38.6678 87.4748C38.6136 87.313 38.5736 87.1469 38.5484 86.9781C38.4525 86.4513 38.285 85.94 38.0506 85.4583C37.8873 85.1188 37.6896 84.7968 37.4608 84.4973C37.1248 84.0279 36.7888 83.5586 36.4653 83.0867C36.3035 82.8558 36.1393 82.6223 35.9899 82.379C35.7096 81.934 35.5131 81.4416 35.4101 80.9262C35.3323 80.571 35.377 80.1999 35.537 79.8732C35.6011 79.7412 35.6938 79.6251 35.8083 79.533C36.1977 79.2201 36.6239 78.9557 37.0775 78.7458C37.4045 78.5864 37.722 78.4081 38.0282 78.2119C38.3144 78.0356 38.5882 77.8344 38.8619 77.6382C39.3265 77.3006 39.7665 76.9305 40.1785 76.5306C40.4946 76.2302 40.8281 75.9446 41.1367 75.6317C41.3613 75.4053 41.574 75.1674 41.7738 74.9189C41.8012 74.8842 41.826 74.8444 41.8584 74.8097C41.9903 74.6731 42.0127 74.6706 42.1595 74.8097C42.5602 75.1698 42.9559 75.5348 43.3591 75.8899C43.7623 76.2451 44.1754 76.6349 44.5662 77.0372C44.708 77.1788 44.8698 77.303 45.0216 77.4346C45.1734 77.5662 45.1883 77.5811 45.0515 77.7525C44.7603 78.1175 44.4467 78.4627 44.1431 78.8203C43.6962 79.3166 43.2994 79.8556 42.9584 80.4295C42.4862 81.2165 42.2601 82.1261 42.3089 83.042C42.3412 83.4667 42.4009 83.8864 42.4358 84.3085C42.4706 84.7307 42.4856 85.0833 42.5105 85.4707C42.5708 86.1885 42.6714 86.9023 42.8116 87.6089C42.8741 88.0843 42.9731 88.5542 43.1078 89.0145C43.1949 89.2628 43.2571 89.5112 43.3566 89.7446C43.4638 89.9898 43.5391 90.2477 43.5806 90.512C43.609 90.6807 43.5847 90.8541 43.5109 91.0086C43.4089 91.2396 43.2123 91.257 43.0754 91.0509C43.0356 90.9813 43.0281 90.9019 42.9584 90.8646Z" fill="#FFD1BD"/>
<path d="M45.6412 78.8995C45.2554 78.5568 44.8946 78.2315 44.5163 77.9062C44.138 77.5809 43.802 77.258 43.4486 76.9277C43.0952 76.5975 42.804 76.3069 42.4805 75.999L41.4228 75.0056C41.2709 74.8591 41.1216 74.7101 40.9773 74.5561C40.8329 74.4022 40.8279 74.3773 40.9773 74.2159C41.2734 73.8782 41.5746 73.5454 41.8732 73.2226C42.3336 72.7259 42.8165 72.2292 43.252 71.6903C43.7255 71.1188 44.1533 70.511 44.5312 69.8725C44.6755 69.6242 44.8473 69.3982 45.009 69.1623C45.2928 68.7451 45.574 68.3254 45.8627 67.9206C46.3516 67.2013 46.8827 66.5114 47.453 65.8544C48.1652 65.0339 48.9462 64.2754 49.7874 63.5871C50.1856 63.2668 50.5938 62.9638 51.0019 62.6584C51.076 62.6198 51.1361 62.559 51.1737 62.4845C50.878 62.4112 50.5766 62.363 50.2727 62.3405C49.5734 62.3703 48.8766 62.2933 48.1797 62.2536C47.1842 62.1989 46.2036 62.1989 45.2156 62.2362C44.347 62.2685 43.4735 62.3504 42.6099 62.338C41.6741 62.338 40.7433 62.2709 39.815 62.1791C39.1663 62.1178 38.5192 62.04 37.8738 61.9456C37.4532 61.8835 37.0376 61.7743 36.617 61.7147C36.0346 61.6327 35.4547 61.5433 34.8749 61.4067C33.9878 61.1695 33.1173 60.8741 32.2691 60.5227C31.6462 60.2706 31.0521 59.9525 30.4971 59.574C29.9083 59.1993 29.4136 58.6946 29.0512 58.0989C28.9019 57.8506 28.7451 57.6022 28.5858 57.3539C28.2664 56.802 28.0623 56.1912 27.986 55.5584C27.9131 55.1302 27.8773 54.6965 27.879 54.2621C27.879 53.6313 27.8541 53.0006 27.879 52.3723C27.9304 51.69 28.042 51.0135 28.2125 50.3508C28.4126 49.4798 28.6797 48.6255 29.0114 47.7954C29.3822 46.8518 29.758 45.913 30.2085 45.0066C30.415 44.5993 30.6091 44.1821 30.8207 43.7649C30.8459 43.7161 30.8742 43.6688 30.9053 43.6234C31.0472 43.4173 31.0745 43.4048 31.3085 43.4843C31.3946 43.5122 31.4779 43.5479 31.5574 43.5911C32.0551 43.8643 32.5752 44.0307 33.083 44.2566C33.5907 44.4826 34.1929 44.7036 34.7529 44.9122C35.5194 45.1954 36.2661 45.5207 37.0127 45.8534C37.6697 46.1415 38.3342 46.4122 39.0037 46.6605C39.6732 46.9089 40.2978 47.187 40.9499 47.4353C41.7289 47.7333 42.5103 48.0289 43.3018 48.2896C43.3366 48.2896 43.3714 48.3045 43.4088 48.312C43.7174 48.3716 43.7124 48.3691 43.6228 48.6596C43.4858 49.1396 43.3819 49.6283 43.3117 50.1223C43.2669 50.3881 43.1947 50.6438 43.14 50.9046C43.1126 51.0337 43.1176 51.1008 43.2744 51.1678C44.123 51.518 44.9916 51.8135 45.8079 52.2431C46.2011 52.4493 46.6217 52.6007 47.0249 52.7895C47.2738 52.9062 47.5077 53.0378 47.7492 53.1694C48.5978 53.6065 49.4539 54.0336 50.2927 54.4881C50.6286 54.6694 50.9497 54.878 51.2882 55.0717C51.6266 55.2654 51.9303 55.4492 52.2488 55.6379C52.8113 55.9707 53.3737 56.3109 53.9287 56.6561C54.4328 57.0167 54.9572 57.3483 55.4991 57.6494C55.7362 57.7847 55.9618 57.9392 56.1736 58.1113C56.5184 58.3508 56.8506 58.6077 57.1691 58.8812C57.516 59.1934 57.8288 59.5413 58.1023 59.9192C58.4103 60.3076 58.6709 60.7311 58.8788 61.1808C59.133 61.6973 59.2512 62.2699 59.2223 62.8446C59.1601 63.6293 59.1028 64.4166 58.7245 65.1268C58.5637 65.4266 58.3841 65.7161 58.187 65.9935C57.8609 66.4455 57.5125 66.885 57.1915 67.332C56.9725 67.6251 56.7286 67.8982 56.4946 68.1764C56.2607 68.4545 55.9446 68.7898 55.6733 69.0977C55.4867 69.3113 55.2627 69.4851 55.0735 69.6962C54.8471 69.9445 54.6057 70.1929 54.3618 70.4189C54.0515 70.7152 53.7445 71.014 53.4409 71.3154C53.2269 71.5264 53.0129 71.7375 52.8063 71.9585C52.652 72.1249 52.4778 72.2764 52.3085 72.4254C51.9601 72.7334 51.6316 73.0636 51.313 73.3865C50.8924 73.7937 50.4694 74.1961 50.0537 74.6058C49.6381 75.0156 49.1528 75.4899 48.6874 75.917C48.222 76.3442 47.7964 76.7837 47.3609 77.2258C46.7885 77.782 46.2335 78.3482 45.6412 78.8995Z" fill="#36C0F9"/>
<path d="M45.8653 60.483C44.2526 60.483 43.0107 60.5724 41.7663 60.6171C40.5145 60.6672 39.2607 60.634 38.0133 60.5178C36.8365 60.4223 35.6705 60.2229 34.5291 59.9218C33.4877 59.6489 32.4935 59.2211 31.5799 58.6528C31.2111 58.4138 30.8653 58.1411 30.5471 57.8382C29.8036 57.1028 29.3256 56.1421 29.1882 55.1065C29.0097 53.802 29.0332 52.4778 29.2579 51.1803C29.5764 49.2922 30.0824 47.4404 30.7686 45.6524C30.7796 45.6172 30.7938 45.5832 30.8109 45.5505C30.8376 45.4976 30.8825 45.456 30.9373 45.4332C30.9922 45.4104 31.0534 45.4079 31.1099 45.4262C31.1664 45.4445 31.2145 45.4823 31.2454 45.5329C31.2764 45.5835 31.2882 45.6435 31.2788 45.702C31.2531 45.8194 31.219 45.9348 31.1767 46.0472C30.9104 46.8344 30.6217 47.6142 30.3928 48.4163C29.9751 49.8568 29.7074 51.3365 29.5939 52.8318C29.5318 53.6628 29.5845 54.4984 29.7507 55.3151C29.9269 56.2184 30.4051 57.0352 31.107 57.6321C31.8216 58.2318 32.6362 58.7016 33.5136 59.0203C34.6042 59.4256 35.7384 59.7023 36.8934 59.8448C38.1305 60.0137 39.3779 60.0967 40.6265 60.0931C41.4627 60.0931 42.2964 60.0559 43.1302 60.0112C44.4467 59.9416 45.7633 59.9118 47.0798 59.9615C48.2575 59.981 49.428 60.1479 50.5641 60.4582C51.0196 60.5873 51.4582 60.7699 51.8707 61.002C52.1132 61.1357 52.3127 61.3355 52.4456 61.5782C52.5423 61.742 52.599 61.9264 52.6111 62.1162C52.6232 62.306 52.5904 62.496 52.5152 62.6708C52.3376 63.087 52.0738 63.4611 51.7412 63.7685C51.3256 64.1683 50.8976 64.5557 50.467 64.9406C48.7689 66.4878 47.2359 68.2064 45.8927 70.0688C44.8449 71.5041 43.8469 72.9718 42.8041 74.4097C42.732 74.5065 42.6673 74.6083 42.5876 74.6953C42.5482 74.7458 42.4907 74.7792 42.4271 74.7885C42.3636 74.7978 42.2989 74.7821 42.2467 74.7449C42.1954 74.7046 42.1608 74.647 42.1493 74.5829C42.1378 74.5188 42.1503 74.4528 42.1844 74.3973C42.2006 74.3641 42.2197 74.3325 42.2417 74.3029C43.6105 72.3857 44.9345 70.4363 46.373 68.5713C47.4752 67.1676 48.6967 65.8615 50.024 64.6675C50.3757 64.3363 50.7283 64.016 51.0817 63.7064C51.3378 63.4821 51.5704 63.2325 51.7761 62.9614C51.8234 62.8943 51.8682 62.8248 51.913 62.7553C52.3161 62.1146 51.9851 61.67 51.5521 61.4391C50.893 61.1067 50.1874 60.8756 49.4591 60.7537C48.2715 60.5577 47.0689 60.4671 45.8653 60.483Z" fill="#D3F2FF"/>
<path d="M54.1802 62.7302C54.1754 62.1111 53.9363 61.5168 53.5108 61.0663C53.114 60.6729 52.6439 60.3608 52.127 60.1475C51.6157 59.933 51.0881 59.7594 50.5492 59.6284C49.2824 59.2982 48.0156 58.9704 46.7289 58.7394C45.5567 58.5258 44.3771 58.3818 43.1949 58.2427C41.8647 58.1283 40.5462 57.9049 39.2527 57.5747C38.2032 57.2929 37.2094 56.8352 36.3135 56.2213C35.9063 55.935 35.5346 55.6015 35.206 55.2279C34.5179 54.4577 34.088 53.4923 33.9766 52.4664C33.8579 51.3796 33.8688 50.2826 34.0089 49.1983C34.0662 48.7017 34.1359 48.1876 34.2006 47.6835C34.211 47.5908 34.2302 47.4994 34.2578 47.4103C34.2738 47.3575 34.3069 47.3115 34.352 47.2796C34.397 47.2477 34.4515 47.2316 34.5067 47.234C34.5671 47.2381 34.624 47.2641 34.6666 47.3071C34.7092 47.3501 34.7346 47.4071 34.7381 47.4674C34.7456 47.5599 34.7381 47.653 34.7157 47.7431C34.5214 48.9129 34.4199 50.0961 34.4121 51.2819C34.4139 51.8565 34.4773 52.4293 34.6012 52.9904C34.875 54.1725 35.5967 55.0342 36.53 55.7221C37.4012 56.3404 38.3777 56.7957 39.412 57.0656C40.4142 57.3279 41.4351 57.513 42.4657 57.6194C43.9789 57.7957 45.497 57.9398 46.9977 58.2328C48.5858 58.5371 50.156 58.9275 51.7014 59.4025C52.2502 59.5745 52.7708 59.8255 53.247 60.1475C53.6241 60.3811 53.9462 60.6934 54.191 61.0629C54.4359 61.4324 54.5977 61.8504 54.6655 62.2881C54.7244 62.7397 54.6599 63.1987 54.4789 63.6167C54.1432 64.4261 53.6587 65.1656 53.0503 65.7971C52.6248 66.2565 52.1868 66.7011 51.7288 67.1207C49.8299 68.8591 48.0828 70.734 46.3233 72.609C45.5194 73.4657 44.7802 74.3796 44.0261 75.2836C43.9515 75.3754 43.8818 75.4723 43.7997 75.5592C43.7796 75.5875 43.7539 75.6113 43.7241 75.6291C43.6943 75.6468 43.6611 75.6582 43.6267 75.6624C43.5922 75.6666 43.5573 75.6636 43.524 75.6535C43.4908 75.6434 43.4601 75.6265 43.4338 75.6039C43.3838 75.5555 43.3537 75.4902 43.3496 75.4208C43.3454 75.3513 43.3675 75.2829 43.4114 75.2289C43.4512 75.1668 43.501 75.1097 43.5458 75.0526C44.6981 73.6073 45.9425 72.2464 47.2068 70.9029C48.7 69.3111 50.2555 67.7788 51.8433 66.2814C52.5329 65.6721 53.132 64.9681 53.6228 64.1904C53.8743 63.7906 54.0545 63.3503 54.1554 62.8891C54.1653 62.8394 54.1753 62.7575 54.1802 62.7302Z" fill="#D3F2FF"/>
<path d="M56.328 62.7578C56.3374 62.3274 56.2533 61.9001 56.0815 61.5053C55.9096 61.1105 55.6541 60.7575 55.3325 60.4706C54.8676 60.0451 54.3681 59.6589 53.8392 59.3158C52.3417 58.348 50.7246 57.5784 49.0285 57.0262C47.0897 56.3706 45.1161 55.8466 43.16 55.253C42.3719 55.0301 41.6002 54.753 40.8504 54.4236C40.1889 54.1305 39.5957 53.7034 39.1083 53.1695C38.4707 52.4761 38.1157 51.5701 38.1128 50.629C38.1206 50.1389 38.1572 49.6497 38.2223 49.1638C38.2209 49.1457 38.2209 49.1274 38.2223 49.1092C38.229 49.0447 38.2595 48.9849 38.3077 48.9413C38.3559 48.8978 38.4186 48.8736 38.4836 48.8733C38.5184 48.875 38.5525 48.8839 38.5836 48.8996C38.6147 48.9152 38.6422 48.9372 38.6642 48.9642C38.6863 48.9911 38.7024 49.0223 38.7116 49.0559C38.7208 49.0894 38.7228 49.1245 38.7176 49.1589C38.7051 49.4445 38.6802 49.7325 38.6429 50.0156C38.4662 51.4436 39.0087 52.5462 40.1137 53.388C40.7242 53.821 41.4019 54.1507 42.1197 54.364C43.4636 54.8185 44.8299 55.1885 46.1913 55.5858C48.0001 56.0737 49.7723 56.6878 51.4948 57.4235C52.9782 58.0722 54.357 58.9367 55.5863 59.9888C56.1094 60.4327 56.4938 61.0171 56.6938 61.6725C56.8302 62.1357 56.8734 62.6213 56.8209 63.1012C56.7683 63.5811 56.6211 64.0459 56.3877 64.4688C55.8896 65.4417 55.2552 66.3389 54.5037 67.1334C53.7571 67.9405 52.9258 68.6682 52.1245 69.4181C50.8801 70.5977 49.6357 71.8121 48.4386 73.0438C47.3535 74.1489 46.251 75.2391 45.156 76.3343C45.1084 76.3898 45.0511 76.4361 44.9867 76.4709C44.939 76.4995 44.8825 76.51 44.8276 76.5004C44.7728 76.4908 44.7232 76.4618 44.6881 76.4187C44.651 76.3774 44.629 76.3248 44.6253 76.2694C44.6217 76.2141 44.6368 76.1591 44.6682 76.1133C44.7095 76.0523 44.7579 75.9964 44.8125 75.9469C46.9454 73.8385 49.0135 71.6656 51.1812 69.5969C51.9502 68.8519 52.7317 68.1442 53.5032 67.4116C54.3352 66.6304 55.0576 65.7408 55.651 64.7668C55.8884 64.3816 56.0773 63.9688 56.2135 63.5375C56.2981 63.2865 56.3369 63.0224 56.328 62.7578Z" fill="#D3F2FF"/>
<path d="M58.0477 62.7575C58.053 61.8689 57.7506 61.0057 57.1916 60.3139C56.6444 59.6721 56.0133 59.1066 55.3151 58.6327C54.5019 58.0598 53.6568 57.5333 52.784 57.0557C51.0941 56.117 49.3993 55.1882 47.6323 54.4035C46.7936 54.031 45.935 53.7007 45.0838 53.3555L43.4139 52.68C43.0116 52.5089 42.6223 52.3089 42.2491 52.0815C42.1139 52.0083 42.0002 51.901 41.9194 51.7703C41.8386 51.6396 41.7936 51.49 41.7887 51.3365C41.7783 50.9572 41.8067 50.5778 41.8733 50.2041C41.8797 50.14 41.9107 50.0808 41.9599 50.0391C42.0092 49.9974 42.0727 49.9764 42.1371 49.9806C42.2023 49.9863 42.2626 50.0174 42.305 50.0671C42.3474 50.1169 42.3684 50.1812 42.3636 50.2463C42.3636 50.4326 42.3387 50.6164 42.3238 50.8001C42.2666 51.488 42.2641 51.4905 42.8514 51.8233C43.1385 51.9808 43.4353 52.1201 43.7399 52.2405C45.3825 52.9135 47.0449 53.5318 48.6502 54.2917C50.5541 55.1907 52.3982 56.2114 54.215 57.2718C54.9947 57.7317 55.7385 58.2497 56.44 58.8214C56.8989 59.183 57.311 59.6001 57.6669 60.0631C58.1161 60.6392 58.4102 61.3204 58.5213 62.0419C58.6324 62.7634 58.5567 63.5013 58.3016 64.1854C58.0607 64.8441 57.7135 65.459 57.2737 66.0058C56.4083 67.1008 55.4625 68.1301 54.444 69.0851C53.0005 70.4907 51.5023 71.8417 50.0464 73.2348C48.8617 74.3697 47.6721 75.4996 46.5621 76.7115C46.4825 76.7984 46.4103 76.8953 46.3133 76.9772C46.2709 77.0255 46.2116 77.0555 46.1475 77.0611C46.0835 77.0666 46.0198 77.0473 45.9698 77.007C45.9182 76.9664 45.8847 76.9071 45.8768 76.8419C45.8689 76.7768 45.8871 76.7111 45.9275 76.6594C45.9884 76.5703 46.0575 76.4871 46.1341 76.411C46.9454 75.5096 47.8214 74.6727 48.685 73.8283C50.5416 72.0056 52.4953 70.2821 54.3494 68.4543C55.2329 67.6122 56.0562 66.7093 56.8133 65.7524C57.2307 65.2343 57.5664 64.6557 57.8088 64.0364C57.9612 63.6269 58.042 63.1943 58.0477 62.7575Z" fill="#D3F2FF"/>
<path d="M44.1728 48.2599C44.1722 48.3623 44.1483 48.4634 44.1031 48.5554C43.9787 48.8534 43.8542 49.1489 43.7223 49.4444C43.688 49.5355 43.6231 49.612 43.5388 49.6609C43.4544 49.7097 43.3557 49.728 43.2594 49.7126C43.1062 49.6955 42.9552 49.6622 42.809 49.6133C40.3307 48.8428 37.9174 47.8779 35.5916 46.7276C34.5413 46.2011 33.4637 45.7343 32.3935 45.255C31.8112 44.9918 31.2363 44.7186 30.6788 44.4082C30.6046 44.3803 30.5374 44.3368 30.4816 44.2806C30.4258 44.2245 30.3827 44.157 30.3553 44.0828C30.3279 44.0087 30.3169 43.9294 30.3229 43.8506C30.3289 43.7718 30.3518 43.6951 30.3901 43.6259C30.5374 43.1884 30.7561 42.7781 31.0372 42.4115C31.286 42.1036 31.4403 42.0688 31.7838 42.2203C33.2148 42.8287 34.6011 43.5439 35.9997 44.2244C36.5398 44.4876 37.0873 44.7384 37.6373 44.9694C38.1873 45.2004 38.8046 45.4661 39.367 45.7839C40.2143 46.2254 41.1029 46.5831 42.02 46.8518C42.5163 47.004 42.9965 47.2045 43.4535 47.4503C43.633 47.5416 43.8002 47.6551 43.9513 47.788C44.0232 47.8434 44.0809 47.9151 44.1194 47.9971C44.1579 48.0792 44.1762 48.1693 44.1728 48.2599Z" fill="#27ABE1"/>
<path d="M32.177 44.9145C32.1427 44.9131 32.1091 44.9045 32.0782 44.8895C32.0474 44.8744 32.02 44.8532 31.9978 44.8271C31.9756 44.8009 31.959 44.7705 31.9492 44.7377C31.9393 44.7049 31.9364 44.6704 31.9405 44.6364C31.9526 44.5471 31.9859 44.4619 32.0376 44.3881C32.2342 44.0652 32.4259 43.7424 32.62 43.4171C32.6379 43.3852 32.6578 43.3545 32.6797 43.3252C32.6959 43.2947 32.7183 43.2679 32.7454 43.2465C32.7725 43.2251 32.8039 43.2096 32.8373 43.2009C32.8708 43.1923 32.9058 43.1907 32.9399 43.1963C32.974 43.2018 33.0066 43.2144 33.0356 43.2333C33.0662 43.2512 33.0926 43.2755 33.1131 43.3045C33.1335 43.3335 33.1475 43.3665 33.1541 43.4013C33.1607 43.4361 33.1598 43.4719 33.1513 43.5063C33.1429 43.5407 33.1272 43.573 33.1053 43.6008C32.8788 44.0007 32.6399 44.3955 32.4035 44.7904C32.3807 44.8298 32.3476 44.8622 32.3076 44.8841C32.2677 44.906 32.2225 44.9165 32.177 44.9145Z" fill="#D7E4FF"/>
<path d="M42.2566 49.0049C42.2584 48.9342 42.2799 48.8654 42.3188 48.8062C42.5079 48.4585 42.6946 48.1084 42.8962 47.7682C43.0231 47.5521 43.1749 47.495 43.3143 47.5844C43.4537 47.6738 43.4586 47.8327 43.3292 48.0463C43.1301 48.3865 42.931 48.7292 42.7568 49.0868C42.7394 49.1191 42.7245 49.1539 42.7045 49.1837C42.6764 49.2313 42.6318 49.2671 42.5792 49.2845C42.5266 49.3018 42.4694 49.2996 42.4183 49.278C42.3637 49.2585 42.3176 49.2205 42.288 49.1706C42.2585 49.1207 42.2474 49.0621 42.2566 49.0049Z" fill="#D7E4FF"/>
<path d="M38.7675 47.5324C38.7732 47.4717 38.7928 47.4131 38.8247 47.3611C38.9964 47.0134 39.1682 46.6682 39.3424 46.3205C39.3542 46.2957 39.3675 46.2717 39.3822 46.2485C39.4818 46.102 39.6062 46.0548 39.7281 46.1169C39.7613 46.1337 39.7905 46.1574 39.8137 46.1864C39.837 46.2154 39.8538 46.249 39.8629 46.2849C39.8721 46.3209 39.8735 46.3584 39.867 46.395C39.8605 46.4315 39.8462 46.4662 39.8252 46.4969C39.6394 46.8892 39.4469 47.2775 39.2478 47.6615C39.2266 47.7186 39.1851 47.7659 39.1312 47.7944C39.0774 47.823 39.0149 47.8308 38.9556 47.8164C38.8964 47.802 38.8445 47.7664 38.8098 47.7163C38.7751 47.6663 38.76 47.6052 38.7675 47.5448V47.5324Z" fill="#D7E4FF"/>
<path d="M41.0121 46.842C40.9999 46.8876 40.9849 46.9323 40.9673 46.9761C40.8105 47.3089 40.6513 47.6392 40.4945 47.9695C40.4863 47.9865 40.4772 48.0031 40.4671 48.0191C40.375 48.1681 40.2531 48.2203 40.1311 48.1632C40.0975 48.1476 40.0676 48.1251 40.0432 48.0972C40.0189 48.0693 40.0008 48.0366 39.99 48.0012C39.9792 47.9658 39.976 47.9286 39.9805 47.8919C39.9851 47.8552 39.9974 47.8198 40.0166 47.7882C40.1825 47.4289 40.3485 47.073 40.5144 46.7203C40.5324 46.6578 40.5743 46.6048 40.6311 46.5727C40.6879 46.5407 40.755 46.5321 40.818 46.549C40.85 46.5555 40.8805 46.5683 40.9076 46.5865C40.9347 46.6048 40.9579 46.6282 40.9759 46.6554C40.9939 46.6826 41.0064 46.7131 41.0126 46.7451C41.0188 46.7771 41.0187 46.8101 41.0121 46.842Z" fill="#D7E4FF"/>
<path d="M31.1096 44.0701C31.0708 44.0745 31.0315 44.069 30.9954 44.0544C30.9592 44.0397 30.9274 44.0162 30.9026 43.9861C30.8779 43.956 30.8611 43.9202 30.8538 43.882C30.8464 43.8437 30.8488 43.8043 30.8607 43.7672C31.0521 43.3296 31.3126 42.9255 31.6322 42.5702C31.6517 42.5504 31.6749 42.5346 31.7005 42.5239C31.7262 42.5131 31.7537 42.5076 31.7815 42.5076C31.8093 42.5076 31.8369 42.5131 31.8625 42.5239C31.8881 42.5346 31.9114 42.5504 31.9308 42.5702C31.9706 42.6026 31.9994 42.6465 32.0132 42.6958C32.027 42.7452 32.0252 42.7976 32.008 42.8458C31.9896 42.8977 31.9645 42.947 31.9333 42.9924L31.3634 43.869C31.3111 43.9733 31.2365 44.0652 31.1096 44.0701Z" fill="#D7E4FF"/>
<path d="M33.6157 45.1803C33.5815 45.1804 33.5476 45.1735 33.5163 45.1599C33.4849 45.1463 33.4566 45.1265 33.4333 45.1015C33.4099 45.0766 33.392 45.0471 33.3805 45.015C33.3691 44.9828 33.3644 44.9486 33.3668 44.9146C33.375 44.8321 33.4051 44.7532 33.4539 44.6861C33.6182 44.4105 33.7824 44.1348 33.9517 43.8617C33.9824 43.8053 34.021 43.7534 34.0662 43.7077C34.1006 43.671 34.1466 43.6473 34.1964 43.6406C34.2463 43.6338 34.2969 43.6443 34.3399 43.6704C34.3891 43.6955 34.4285 43.7363 34.4519 43.7862C34.4754 43.8361 34.4815 43.8923 34.4693 43.9461C34.4544 44.0086 34.4292 44.0682 34.3947 44.1224C34.2279 44.408 34.0562 44.6886 33.8969 44.9717C33.8731 45.0285 33.8345 45.0778 33.785 45.1145C33.7355 45.1512 33.677 45.1739 33.6157 45.1803Z" fill="#D7E4FF"/>
<path d="M38.755 45.8905C38.7391 45.9472 38.7174 46.0021 38.6903 46.0544C38.5036 46.3499 38.312 46.6454 38.1204 46.936C38.0947 46.9852 38.0543 47.0253 38.0048 47.0506C37.9553 47.076 37.8992 47.0854 37.8441 47.0775C37.8027 47.071 37.7636 47.0541 37.7305 47.0284C37.6974 47.0028 37.6713 46.9692 37.6547 46.9308C37.6381 46.8924 37.6314 46.8505 37.6354 46.8088C37.6394 46.7672 37.6538 46.7272 37.6774 46.6926C37.757 46.5387 37.8615 46.3971 37.9561 46.2481C38.0507 46.0991 38.1826 45.8905 38.3045 45.7191C38.3371 45.6745 38.3837 45.6419 38.4369 45.6267C38.49 45.6114 38.5468 45.6142 38.5982 45.6347C38.6487 45.6545 38.6914 45.6902 38.7197 45.7363C38.748 45.7825 38.7604 45.8366 38.755 45.8905Z" fill="#D7E4FF"/>
<path d="M35.9302 44.6045C35.9228 44.6335 35.9128 44.6618 35.9003 44.689C35.7136 45.0044 35.522 45.3173 35.3329 45.6302C35.3172 45.6531 35.2979 45.6732 35.2756 45.6898C35.2359 45.7275 35.1842 45.7499 35.1295 45.7531C35.0748 45.7563 35.0208 45.74 34.977 45.7071C34.931 45.6762 34.8967 45.6307 34.8796 45.5781C34.8625 45.5255 34.8635 45.4686 34.8824 45.4166C34.8969 45.3733 34.9161 45.3316 34.9396 45.2924L35.4374 44.4928C35.476 44.4198 35.5383 44.362 35.6141 44.3289C35.6542 44.3171 35.6967 44.3157 35.7376 44.3246C35.7784 44.3336 35.8164 44.3527 35.8479 44.3802C35.8794 44.4077 35.9035 44.4426 35.9178 44.4819C35.9322 44.5211 35.9364 44.5633 35.9302 44.6045Z" fill="#D7E4FF"/>
<path d="M36.4279 46.2505C36.3938 46.2487 36.3605 46.2399 36.33 46.2247C36.2994 46.2095 36.2723 46.1882 36.2504 46.1621C36.2284 46.1361 36.2121 46.1058 36.2024 46.0731C36.1927 46.0405 36.1898 46.0062 36.194 45.9724C36.2018 45.9079 36.2258 45.8464 36.2637 45.7936C36.4354 45.5303 36.6046 45.2671 36.7764 45.0063C36.8055 44.9604 36.8425 44.92 36.8859 44.8871C36.9282 44.8511 36.982 44.8313 37.0377 44.8313C37.0933 44.8313 37.1471 44.8511 37.1895 44.8871C37.2283 44.9196 37.2563 44.9632 37.2697 45.0121C37.283 45.0609 37.2811 45.1126 37.2641 45.1603C37.2525 45.1952 37.2366 45.2285 37.2169 45.2596C37.0377 45.5378 36.8585 45.8159 36.6768 46.094C36.6532 46.14 36.6176 46.1787 36.5738 46.2063C36.53 46.2338 36.4797 46.2491 36.4279 46.2505Z" fill="#D7E4FF"/>
<path d="M42.0973 47.3607C42.0795 47.4156 42.0587 47.4695 42.0351 47.5221C41.9032 47.7705 41.7713 48.0188 41.6369 48.2821C41.6129 48.331 41.5819 48.3762 41.5448 48.4162C41.5054 48.4549 41.4543 48.4795 41.3993 48.486C41.3444 48.4925 41.2889 48.4806 41.2415 48.4521C41.1942 48.4237 41.1577 48.3802 41.1378 48.3288C41.1179 48.2773 41.1157 48.2207 41.1317 48.1678C41.1769 48.0473 41.231 47.9303 41.2934 47.8177C41.4054 47.6041 41.5149 47.3905 41.6394 47.1869C41.6684 47.1335 41.7173 47.0937 41.7755 47.076C41.8337 47.0584 41.8966 47.0643 41.9505 47.0925C42.0014 47.1145 42.0435 47.1528 42.0701 47.2014C42.0967 47.25 42.1063 47.3061 42.0973 47.3607Z" fill="#D7E4FF"/>
<path d="M23.4838 43.9464C24.0317 43.9183 24.5749 44.0597 25.0393 44.3511C25.756 44.828 26.0671 45.5382 26.1318 46.3825C26.1661 47.1101 26.0351 47.8359 25.7486 48.5058C25.1495 50.0116 24.1516 51.3266 22.8616 52.3103C20.9043 53.8852 18.5535 54.8975 16.0623 55.2382C15.7243 55.2945 15.3822 55.3235 15.0395 55.3251C14.8008 55.3163 14.5661 55.2624 14.3476 55.1662C14.2786 55.1407 14.2191 55.0946 14.1772 55.0341C14.1354 54.9737 14.1132 54.9019 14.1137 54.8284C14.1112 54.5933 14.1431 54.3591 14.2082 54.1331C14.4346 53.2234 14.7609 52.3414 15.1813 51.5032C15.2809 51.2996 15.3854 51.1009 15.47 50.8948C16.2167 49.077 17.4113 47.5994 18.7925 46.2658C19.543 45.5173 20.4158 44.9017 21.3733 44.4455C22.0319 44.1276 22.7523 43.9572 23.4838 43.9464Z" fill="#18CE6A"/>
<path d="M9.52445 45.2424C9.61797 41.5003 11.0875 37.9231 13.6533 35.1922C14.2711 34.5427 14.9885 33.9953 15.7787 33.5706C16.0734 33.4006 16.3997 33.2923 16.7377 33.2522C17.0757 33.212 17.4183 33.2409 17.7448 33.3372C18.7751 33.6625 19.3575 34.4174 19.5516 35.4853C19.7445 36.5901 19.7149 37.7222 19.4645 38.8155C18.8186 42.0064 17.255 44.9404 14.9649 47.2589C14.42 47.8235 13.838 48.3511 13.2227 48.8383C12.6238 49.2871 11.9435 49.616 11.2193 49.8068C11.1549 49.8269 11.0861 49.8274 11.0214 49.8084C10.9567 49.7894 10.8991 49.7517 10.8559 49.7C10.8157 49.6586 10.7813 49.6118 10.7539 49.561C9.95501 48.1628 9.47717 46.6703 9.52445 45.2424Z" fill="#18CE6A"/>
<path d="M7.89939 47.746C7.9641 48.7815 7.66793 49.7848 7.33195 50.7782C7.22562 51.1131 7.08814 51.4373 6.92131 51.7467C6.86763 51.8503 6.79697 51.9444 6.71226 52.0248C6.61022 52.1092 6.48329 52.1788 6.3713 52.0993C6.1765 52.0009 5.96736 51.9339 5.7516 51.9006C5.15912 51.7054 4.60444 51.4107 4.11151 51.029C3.09145 50.2305 2.27174 49.206 1.71734 48.0365C0.960273 46.5219 0.447106 44.8978 0.196709 43.2238C0.0447015 42.304 -0.0169801 41.3716 0.0125418 40.4399C0.024119 39.6641 0.193457 38.8986 0.510292 38.19C0.883604 37.4276 1.45851 36.916 2.30468 36.8043C2.84339 36.7474 3.38338 36.8995 3.81286 37.2289C4.22688 37.5163 4.59162 37.8685 4.89298 38.2719C5.68401 39.3288 6.30611 40.5016 6.73714 41.7487C7.25979 43.2366 7.62188 44.7758 7.81726 46.3404C7.88128 46.8061 7.90874 47.276 7.89939 47.746Z" fill="#18CE6A"/>
<path d="M8.74571 63.1031C8.76811 62.4848 8.87762 61.8763 8.93486 61.2605C9.00454 60.5155 9.09663 59.7705 9.14142 59.0254C9.3952 55.0824 10.2643 51.203 11.7173 47.5275C12.6413 45.1981 13.7438 42.9431 15.0149 40.7827C15.055 40.7053 15.1052 40.6335 15.1642 40.5691C15.2109 40.5134 15.2763 40.4766 15.3483 40.4656C15.4202 40.4546 15.4937 40.4702 15.5549 40.5095C15.6232 40.549 15.6755 40.6111 15.7028 40.685C15.7301 40.7589 15.7306 40.84 15.7043 40.9143C15.6679 41.0013 15.6228 41.0845 15.5699 41.1626C14.4767 43.0603 13.5002 45.0224 12.6456 47.0383C11.8309 49.0078 11.1808 51.0411 10.7019 53.1175C10.2873 54.8425 10.0135 56.5982 9.88307 58.3674C9.77356 59.7829 9.65162 61.2009 9.46496 62.6089C9.44256 62.7828 9.44505 62.9616 9.43012 63.1379C9.42326 63.2548 9.40745 63.371 9.38283 63.4856C9.37491 63.5709 9.33336 63.6495 9.26732 63.7042C9.20127 63.759 9.11615 63.7853 9.03067 63.7774C8.9452 63.7695 8.86637 63.728 8.81153 63.6621C8.75668 63.5962 8.73032 63.5113 8.73825 63.426C8.73452 63.3183 8.73701 63.2105 8.74571 63.1031Z" fill="#5FCE9E"/>
<path d="M6.8068 58.9061C6.75702 57.5154 6.70227 56.1223 6.62263 54.7316C6.49602 52.7864 6.02325 50.8792 5.22644 49.0993C4.78842 48.106 4.40266 47.0729 3.89496 46.1044C3.85469 46.0427 3.83325 45.9707 3.83325 45.897C3.83325 45.8234 3.85469 45.7514 3.89496 45.6897C3.91899 45.6508 3.95127 45.6176 3.98953 45.5925C4.02778 45.5674 4.07108 45.551 4.11639 45.5443C4.16169 45.5377 4.2079 45.5411 4.25177 45.5542C4.29564 45.5672 4.3361 45.5898 4.37031 45.6201C4.43821 45.6759 4.49123 45.7476 4.52461 45.8287C5.44047 47.8005 6.36131 49.7748 6.90137 51.9006C7.09059 52.6726 7.21299 53.4594 7.26721 54.2523C7.40907 56.0205 7.45636 57.7961 7.51609 59.5717C7.54347 60.4433 7.56089 61.31 7.56089 62.1891C7.56475 62.2772 7.55975 62.3653 7.54595 62.4524C7.53303 62.5221 7.4973 62.5855 7.44436 62.6328C7.39142 62.6801 7.32427 62.7085 7.25341 62.7136C7.18255 62.7187 7.112 62.7002 7.0528 62.661C6.9936 62.6219 6.94909 62.5642 6.92626 62.4971C6.8898 62.3953 6.87538 62.2869 6.88395 62.1792C6.87897 61.084 6.85408 59.9938 6.8068 58.9061Z" fill="#5FCE9E"/>
<path d="M10.7241 63.3361C10.6462 63.3394 10.5698 63.3139 10.5096 63.2644C10.4494 63.2148 10.4097 63.1449 10.3981 63.0679C10.3831 62.9802 10.3882 62.8902 10.413 62.8047C10.7366 61.6275 10.9829 60.4256 11.3936 59.2733C11.9531 57.7238 12.7682 56.2784 13.8052 54.997C14.5533 54.0843 15.3579 53.2192 16.2143 52.4068C16.9087 51.7214 17.6105 51.0459 18.3098 50.3655C18.5313 50.1519 18.7354 50.1172 18.8797 50.2935C19.0241 50.4698 18.9992 50.6461 18.7852 50.8572C18.1033 51.5277 17.4114 52.1858 16.732 52.8588C15.9028 53.6432 15.1215 54.4766 14.3925 55.3546C13.4831 56.4636 12.7473 57.7036 12.2099 59.0324C11.8478 60.005 11.551 61.0006 11.3214 62.0125C11.2401 62.3436 11.1505 62.6805 11.0526 63.0232C10.9904 63.2542 10.8859 63.3311 10.7241 63.3361Z" fill="#5FCE9E"/>
<path d="M15.6544 61.5558C15.6748 61.6596 15.6662 61.767 15.6295 61.8662C14.9426 64.7916 14.2109 67.7071 13.4817 70.62C13.4621 70.743 13.4029 70.8563 13.3132 70.9427C13.2234 71.0292 13.1078 71.0842 12.984 71.0993C11.9015 71.2865 10.8048 71.3796 9.70627 71.3775C8.60127 71.3924 7.49627 71.3328 6.39375 71.2607C5.91624 71.2207 5.4427 71.1426 4.97765 71.0273C4.9129 71.015 4.85381 70.9823 4.80902 70.934C4.76424 70.8858 4.73611 70.8245 4.72878 70.7591C4.24596 68.9115 3.79052 67.0589 3.3749 65.1939L2.58845 61.6402C2.52374 61.3472 2.52374 61.3422 2.80995 61.3447C4.31564 61.3447 5.81885 61.3621 7.32454 61.3819C9.79338 61.4142 12.2572 61.5433 14.7261 61.5086C15.0372 61.516 15.3508 61.5384 15.6544 61.5558Z" fill="#F74F5A"/>
<path d="M15.4703 62.4123C11.2521 62.9964 6.97231 62.983 2.75781 62.3726C2.82252 62.6706 2.89469 62.976 2.95691 63.274C6.33597 63.8524 9.77602 63.9901 13.1907 63.6838C13.9821 63.6118 14.5445 63.582 15.2812 63.284C15.3746 63.0008 15.438 62.7087 15.4703 62.4123Z" fill="#777777"/>
<path d="M107.474 19.1177H90.2148V21.4322H107.474V19.1177Z" fill="#36C0F9"/>
<path d="M98.6541 17.5258C101.329 17.5258 103.497 15.3622 103.497 12.6932C103.497 10.0242 101.329 7.8606 98.6541 7.8606C95.9794 7.8606 93.811 10.0242 93.811 12.6932C93.811 15.3622 95.9794 17.5258 98.6541 17.5258Z" fill="#777777"/>
<path d="M102.553 13.6505C103.056 11.5255 101.737 9.39615 99.6071 8.89459C97.4774 8.39302 95.3434 9.70914 94.8408 11.8342C94.3381 13.9593 95.6571 16.0886 97.7868 16.5902C99.9165 17.0917 102.05 15.7756 102.553 13.6505Z" fill="white"/>
<path d="M98.8506 11.2976C98.849 11.8125 98.7762 12.3248 98.6341 12.8199C98.345 11.8255 98.345 10.7696 98.6341 9.77527C98.7762 10.2703 98.849 10.7826 98.8506 11.2976Z" fill="#37474F"/>
<path d="M99.7368 13.3189C99.3481 13.2048 98.9771 13.0377 98.6343 12.8223C99.0394 12.8248 99.4423 12.8833 99.8314 12.9961C100.22 13.1108 100.591 13.2779 100.934 13.4928C100.529 13.4911 100.126 13.4325 99.7368 13.3189Z" fill="#37474F"/>
<path d="M98.8955 12.8149C98.8955 12.8743 98.8778 12.9324 98.8447 12.9818C98.8116 13.0312 98.7646 13.0698 98.7096 13.0925C98.6546 13.1152 98.594 13.1212 98.5356 13.1096C98.4772 13.098 98.4235 13.0694 98.3814 13.0274C98.3393 12.9853 98.3106 12.9318 98.299 12.8735C98.2874 12.8152 98.2933 12.7548 98.3161 12.6999C98.3389 12.645 98.3775 12.5981 98.427 12.565C98.4766 12.532 98.5348 12.5144 98.5944 12.5144C98.6742 12.5144 98.7508 12.5461 98.8073 12.6024C98.8638 12.6588 98.8955 12.7352 98.8955 12.8149Z" fill="#37474F"/>
<path d="M96.2823 7.67429L93.1117 10.8406C92.6909 10.421 92.4543 9.85187 92.4541 9.25831C92.4539 8.66475 92.6899 8.09541 93.1104 7.67553C93.5309 7.25566 94.1013 7.01964 94.6961 7.01941C95.291 7.01918 95.8615 7.25474 96.2823 7.67429Z" fill="#CCCCCC"/>
<path d="M104.249 10.8407L101.076 7.67444C101.496 7.25456 102.067 7.01868 102.662 7.01868C103.257 7.01868 103.828 7.25456 104.249 7.67444C104.67 8.09431 104.906 8.66378 104.906 9.25758C104.906 9.85137 104.67 10.4208 104.249 10.8407Z" fill="#CCCCCC"/>
<path d="M98.6465 7.7315C99.0094 7.7315 99.3036 7.43798 99.3036 7.0759C99.3036 6.71381 99.0094 6.42029 98.6465 6.42029C98.2837 6.42029 97.9895 6.71381 97.9895 7.0759C97.9895 7.43798 98.2837 7.7315 98.6465 7.7315Z" fill="#777777"/>
<path d="M97.0086 16.451L96.9505 16.3931C96.7853 16.2282 96.5174 16.2281 96.3521 16.393L95.4932 17.2497C95.328 17.4146 95.3279 17.6819 95.4931 17.8468L95.5512 17.9047C95.7164 18.0696 95.9843 18.0697 96.1495 17.9048L97.0084 17.0481C97.1737 16.8832 97.1737 16.6159 97.0086 16.451Z" fill="#777777"/>
<path d="M100.378 16.4094L100.32 16.4673C100.155 16.6322 100.155 16.8995 100.32 17.0644L101.179 17.9213C101.344 18.0862 101.612 18.0862 101.778 17.9213L101.836 17.8634C102.001 17.6985 102.001 17.4312 101.836 17.2663L100.977 16.4094C100.812 16.2445 100.544 16.2445 100.378 16.4094Z" fill="#777777"/>
<defs>
<filter id="filter0_d" x="38.2209" y="2.1842" width="38.4252" height="31.0588" filterUnits="userSpaceOnUse" color-interpolation-filters="sRGB">
<feFlood flood-opacity="0" result="BackgroundImageFix"/>
<feColorMatrix in="SourceAlpha" type="matrix" values="0 0 0 0 0 0 0 0 0 0 0 0 0 0 0 0 0 0 127 0"/>
<feOffset dy="-3"/>
<feGaussianBlur stdDeviation="2"/>
<feColorMatrix type="matrix" values="0 0 0 0 0 0 0 0 0 0 0 0 0 0 0 0 0 0 0.15 0"/>
<feBlend mode="normal" in2="BackgroundImageFix" result="effect1_dropShadow"/>
<feBlend mode="normal" in="SourceGraphic" in2="effect1_dropShadow" result="shape"/>
</filter>
</defs>
</svg>
