<svg width="141" height="111" viewBox="0 0 141 111" fill="none" xmlns="http://www.w3.org/2000/svg">
<g clip-path="url(#clip0)">
<path d="M136.065 42.3009C134.14 39.9858 131.405 44.4764 128.384 49.9032C126.728 52.8787 123.058 55.4185 121.461 59.1533C119.901 62.7927 120.467 67.4943 119.221 70.8137C117.381 75.7094 115.869 75.672 114.408 78.205C113.763 76.741 113.196 74.9911 113.298 73.1901C113.428 70.9057 117.173 68.7132 117.255 65.8091C117.327 63.3204 113.742 60.2768 113.759 57.5361C113.759 54.9487 117.395 52.5894 117.347 49.9372C117.299 47.2851 113.592 44.4015 113.455 41.8209C113.315 39.0462 116.746 36.4213 116.497 33.9428C116.197 30.9639 112.23 28.5296 111.735 26.2963C110.83 22.1836 111.096 17.5705 109.379 17.6522C107.761 17.7271 108.696 22.7249 107.956 27.035C107.549 29.4182 103.651 31.5562 103.449 34.7327C103.279 37.395 106.798 40.745 106.74 43.7308C106.689 46.5191 103.047 49.0555 103.067 51.9493C103.087 54.8432 106.771 57.9787 106.843 60.8011C106.918 63.7834 103.388 66.473 103.497 69.1796C103.552 70.5618 104.299 71.927 105.132 73.231C104.108 71.8351 102.743 70.395 102.22 68.7472C101.466 66.364 102.64 63.3647 101.688 61.0632C100.664 58.5711 97.6083 57.0901 96.3656 55.1393C94.7099 52.5315 94.034 49.0623 92.0574 48.4256C89.0122 47.4485 89.4731 51.2582 90.6543 56.0143C91.279 58.5337 90.2753 62.0675 91.5862 65.2882C92.7094 68.0493 95.9969 70.2146 97.3898 73.0607C98.7826 75.9069 98.39 79.6655 99.8477 82.2291C101.063 84.3637 103.053 85.8277 104.682 87.152L104.777 87.4142C104.831 87.4697 104.896 87.5131 104.968 87.5413C105.04 87.5695 105.117 87.5819 105.194 87.5776C105.744 88.0183 106.244 88.5171 106.686 89.0654C107.512 90.1548 106.593 92.2826 107.123 92.8103C108.574 94.2743 108.652 93.0793 108.563 91.8128C108.512 91.0808 110.205 89.9063 110.106 88.8134C110.181 88.6875 110.291 88.5867 110.424 88.524C110.997 88.3947 113.619 90.611 113.971 89.9063C114.237 89.3786 111.059 87.1827 111.24 86.5018C111.366 86.0183 113.595 86.1817 114.654 85.9741C114.683 85.9955 114.709 86.0207 114.732 86.049C115.043 86.4507 115.203 88.2347 116.098 87.9078C117.289 87.4652 118.904 81.9295 122.263 76.6321C124.287 73.442 128.35 70.9363 130.313 67.1369C132.276 63.3374 132.074 58.36 133.337 54.7955C135.294 49.2734 137.834 44.4219 136.065 42.3009ZM107.536 77.9122C107.679 80.6119 106.761 81.6571 105.883 82.6002C105.341 79.5361 107.45 79.5361 106.402 75.5154C106.305 75.1591 106.164 74.8161 105.982 74.494C106.771 75.7129 107.471 76.8636 107.536 77.9122ZM108.877 87.0261C108.98 87.1919 109.013 87.3911 108.97 87.581C108.628 87.3869 108.287 87.1997 107.973 87.009C108.406 86.9171 108.751 86.8899 108.867 87.0261H108.877Z" fill="#E0E0E0" fill-opacity="0.7"/>
<g opacity="0.2">
<path opacity="0.2" d="M112.742 75.0662L112.404 74.9062L111.38 78.3209L111.421 70.2182L113.278 64.9412L112.937 64.7914L111.424 69.0777L111.462 61.5366L114.449 56.5729L114.135 56.3652L111.465 60.7979L111.51 52.5385L114.275 48.3816L113.968 48.1637L111.513 51.8508L111.547 44.8477L113.309 41.1742L112.981 40.9938L111.551 43.9829L111.592 36.1934L113.899 31.4816L113.568 31.2977L111.595 35.3287L111.633 27.9579L111.271 27.9238L111.233 35.2163L107.317 29.3503L107.024 29.5308L111.23 35.8393L111.185 44.4085L107.287 40.3299L107.034 40.5682L111.185 44.909L111.148 52.0993L107.372 48.8106L107.15 49.0727L111.144 52.5589L111.103 60.9102L107.215 56.4333L106.949 56.658L111.1 61.4345L111.056 70.1228L111.028 70.2045L107.249 64.6007L106.952 64.7846L111.052 70.8616L111.011 79.2265L107.888 72.9622L107.567 73.1018L111.008 80.0028L110.957 90.2265L111.318 90.2572L111.373 79.3593L112.742 75.0662Z" fill="black"/>
<path opacity="0.2" d="M132.16 56.7669L131.996 56.4264L128.227 57.9823L130.125 54.0977L134.362 51.7112L134.164 51.3912L130.415 53.502L133.559 47.0538L133.228 46.8734L130.436 52.5998L131.146 46.2197L130.784 46.1482L129.958 53.5769L127.933 57.7304L128.169 51.1562L127.804 51.1086L127.541 58.5372L125.24 63.2491L124.588 58.5917L124.229 58.6087L124.96 63.8245L122.328 69.224L122.103 63.5555L121.741 63.5385L121.993 69.9083L119.057 75.9241L118.743 73.6159L118.385 73.6227L118.76 76.5335L114.046 86.199L114.374 86.3794L118.839 77.2314L118.856 77.3983L123.065 75.713L122.905 75.3726L119.16 76.874L119.133 76.6254L122.28 70.1773L126.302 68.938L126.168 68.5908L122.502 69.7211L125.342 63.8994L129.941 61.9588L129.777 61.6217L125.592 63.3853L127.981 58.4896L132.16 56.7669Z" fill="black"/>
<path opacity="0.2" d="M104.839 77.0239L104.477 76.966L104.228 80.5646L102.347 76.5337L103.282 71.9171L102.924 71.815L102.084 75.9685L99.5441 70.5145L100.223 64.8562L99.8616 64.7813L99.2505 69.8812L97.1373 65.3464L97.349 65.4349L97.6528 59.8686L97.2875 59.8141L97.011 64.9141L96.9154 64.8766L94.5394 59.7732L94.9968 54.5507L94.635 54.4894L94.2287 59.1093L91.7196 53.7268L91.3952 53.8562L94.058 59.5758L91.1426 57.7884L90.9753 58.0948L94.3277 60.1511L96.4375 64.6791L93.662 63.5386L93.5494 63.8757L96.656 65.1524L98.8476 69.8472L95.5704 67.9883L95.4133 68.3015L99.1003 70.3953L101.712 75.9958L98.7862 74.9233L98.6872 75.2638L101.924 76.452L104.177 81.2864L104.16 81.5485L101.35 80.0574L101.2 80.3774L104.484 82.1205L104.494 81.9707L108.802 91.214L109.13 91.0846L104.545 81.2489L104.839 77.0239Z" fill="black"/>
</g>
<path d="M107.775 90.7403C107.775 90.7403 108.092 89.6849 105.849 88.4321C104.946 87.8975 104.015 87.41 103.06 86.9715C103.06 86.9715 103.593 88.5478 104.75 89.3853C105.907 90.2229 106.399 90.6042 106.399 90.6042C105.462 90.1479 104.44 89.8905 103.398 89.8484C102.459 89.8234 101.535 90.0847 100.749 90.5974C101.728 91.1119 102.736 91.5667 103.77 91.9592C105.001 92.3922 106.295 92.6222 107.601 92.6401C107.601 92.6401 104.675 92.2996 104.098 92.8682C103.565 93.4917 103.091 94.163 102.681 94.8734C103.89 94.7711 105.106 94.778 106.314 94.8939C107.867 95.0947 109.922 94.3151 109.922 94.3151L111.677 95.1832L112.411 94.0938C112.411 94.0938 112.827 94.0564 114.22 94.7747C115.509 95.3759 116.839 95.8856 118.201 96.2999L115.586 92.9465L118.224 93.5661C119.542 93.8759 121.672 93.515 121.672 93.515C121.672 93.515 121.471 92.8341 120.024 92.2928C118.576 91.7515 115.811 90.8867 115.811 90.8867C115.811 90.8867 118.088 91.3702 119.6 90.3795C120.526 89.7702 121.361 89.0344 122.082 88.1938C122.082 88.1938 119.925 86.9273 117.886 87.3699C116.505 87.7302 115.212 88.3686 114.087 89.2458C114.087 89.2458 115.418 88.1904 115.845 86.7843C116.088 86.0175 116.259 85.23 116.357 84.4318C116.357 84.4318 113.889 85.2488 113.257 85.9876C112.626 86.7264 111.574 88.8713 111.574 88.8713C111.574 88.8713 112.629 86.7298 111.397 85.4667C110.164 84.2037 109.12 83.2266 109.12 83.2266C109.12 83.2266 108.079 84.7348 107.863 85.9502C107.648 87.1656 109.229 89.3547 109.229 89.3547L107.836 88.6227L107.775 90.7403Z" fill="#F74F5A"/>
<path d="M50.2039 46.9686C50.2039 46.9686 48.002 45.205 47.4387 44.0747C46.9574 43.1112 46.6092 41.746 47.0973 40.7213C47.2024 40.4771 47.3585 40.2581 47.5552 40.0788C47.7518 39.8995 47.9846 39.7642 48.2379 39.6817C48.4911 39.5992 48.7591 39.5715 49.024 39.6005C49.2888 39.6295 49.5445 39.7144 49.7738 39.8497C51.1393 40.7043 51.2759 43.6219 50.9311 45.0246C50.9106 45.1267 50.2278 46.9686 50.2039 46.9686Z" fill="#18CE6A"/>
<path d="M70.5707 61.6387C70.482 61.7238 68.9116 62.8779 68.9013 62.8507C68.8911 62.8235 68.024 60.1475 68.1674 58.8912C68.2903 57.8188 68.7443 56.4876 69.7138 55.9089C69.9381 55.7651 70.1905 55.6705 70.4542 55.6316C70.718 55.5926 70.987 55.6101 71.2434 55.6829C71.4999 55.7557 71.7378 55.8821 71.9415 56.0537C72.1451 56.2254 72.3097 56.4383 72.4244 56.6783C73.0901 58.1491 71.6222 60.665 70.5707 61.6387Z" fill="#C6FF00"/>
<path d="M24.4158 49.6205C24.4158 49.6205 32.4793 58.0569 32.4315 68.4168C32.3837 78.7768 24.2383 87.1417 24.2383 87.1417C24.2383 87.1417 16.1748 78.7053 16.2192 68.3419C16.2636 57.9786 24.4158 49.6205 24.4158 49.6205Z" fill="#18CE6A"/>
<path d="M35.9134 74.6269C35.8057 74.5112 35.7075 74.3871 35.6198 74.2558C35.036 73.357 34.5342 72.0429 34.9097 70.967C34.9867 70.7122 35.117 70.4766 35.2921 70.2758C35.4673 70.075 35.6832 69.9135 35.9255 69.8022C36.1679 69.6908 36.4312 69.632 36.6981 69.6298C36.965 69.6275 37.2292 69.6818 37.4735 69.7891C38.5659 70.3134 39.1053 72.0905 39.2214 73.534C39.6583 73.4319 40.0509 73.357 40.3889 73.2991L40.8259 72.3016C40.9863 71.9612 41.0956 71.6207 41.2355 71.2598C41.4301 70.7423 41.6042 70.1976 41.7783 69.6563C41.1399 69.3669 39.2828 68.4851 38.5898 67.7123C37.8968 66.9395 37.1833 65.69 37.395 64.5665C37.4328 64.3027 37.5262 64.0499 37.6691 63.8247C37.8119 63.5995 38.0011 63.4071 38.2239 63.2601C38.4468 63.1131 38.6984 63.0149 38.9621 62.9719C39.2259 62.9289 39.4957 62.9421 39.7539 63.0107C41.2833 63.4703 42.1846 66.245 42.2153 67.6885C42.2153 67.7362 42.1914 68.0289 42.1607 68.4068C42.3143 67.8723 42.4713 67.3378 42.6079 66.7897C43.0005 65.2406 43.3555 63.6473 43.7174 62.0506C43.7925 61.7102 43.871 61.3901 43.9461 61.0565C43.4101 60.8148 41.3892 59.8819 40.6654 59.0682C39.9417 58.2546 39.2589 57.046 39.4706 55.9225C39.5079 55.6588 39.6009 55.406 39.7435 55.1808C39.886 54.9557 40.0748 54.7632 40.2974 54.6161C40.52 54.4691 40.7714 54.3708 41.0349 54.3278C41.2984 54.2848 41.5681 54.298 41.8261 54.3666C43.3555 54.8296 44.2568 57.6009 44.2875 59.0478C44.2875 59.0989 44.2602 59.4632 44.2226 59.8717C44.4309 59.0104 44.6494 58.149 44.9054 57.3047C45.3135 55.8538 45.8164 54.431 46.4109 53.0457C46.2197 52.964 43.8301 51.9154 43.0244 51.0029C42.3109 50.1995 41.6179 48.9807 41.8295 47.8572C41.8669 47.5935 41.9599 47.3407 42.1024 47.1155C42.245 46.8903 42.4338 46.6979 42.6564 46.5508C42.879 46.4038 43.1304 46.3055 43.3939 46.2625C43.6574 46.2195 43.9271 46.2327 44.1851 46.3013C45.7179 46.7609 46.6157 49.5356 46.6499 50.9791C46.6499 51.0812 46.5338 52.4056 46.4758 52.8754C46.4758 52.8754 46.4758 52.8414 46.4928 52.8244C47.1089 51.4932 47.8387 50.2175 48.6743 49.0113C49.4215 47.9262 50.2308 46.885 51.0981 45.8928C51.8935 44.9633 52.6753 44.1633 53.3751 43.4619C53.7575 43.084 54.1125 42.747 54.4471 42.4406H54.4129C54.3856 42.4406 55.1606 40.6362 55.222 40.5272C55.9355 39.2778 58.0453 37.2861 59.6054 37.63C59.8648 37.6978 60.1071 37.8187 60.317 37.9852C60.5268 38.1516 60.6996 38.3598 60.8242 38.5965C60.9489 38.8333 61.0227 39.0934 61.0409 39.3601C61.0591 39.6269 61.0213 39.8945 60.93 40.1459C60.5886 41.232 59.3937 41.9639 58.3867 42.318C57.3796 42.6721 55.1025 42.5053 54.5427 42.4542C54.2013 42.7946 53.8394 43.1351 53.4468 43.547C52.7641 44.262 52.0028 45.0757 51.2313 46.0187C51.0264 46.2673 50.8148 46.5464 50.6031 46.812C51.0503 46.4375 51.6682 45.9336 51.7331 45.8928C52.9382 45.1165 55.7102 44.3369 56.9392 45.3685C57.139 45.5478 57.2993 45.7665 57.4101 46.0107C57.5209 46.255 57.5797 46.5195 57.583 46.7875C57.5862 47.0555 57.5336 47.3213 57.4287 47.5681C57.3238 47.8149 57.1687 48.0374 56.9733 48.2215C56.1677 49.0215 54.7816 49.1168 53.7302 48.9602C52.6787 48.8036 50.6577 47.5508 50.2378 47.258C49.7804 47.8538 49.3263 48.4768 48.8894 49.1543C48.082 50.3706 47.384 51.6557 46.8035 52.9946C46.7728 53.0729 46.7489 53.158 46.7147 53.2363C46.9025 53.0116 48.0257 51.8745 48.1144 51.7928C49.2239 50.8872 51.9004 49.8012 53.2352 50.6931C53.4534 50.8494 53.6367 51.0492 53.7734 51.2798C53.9101 51.5104 53.9973 51.7669 54.0294 52.0329C54.0615 52.2989 54.0378 52.5686 53.9599 52.825C53.8819 53.0814 53.7514 53.3189 53.5766 53.5223C52.8631 54.4075 51.4975 54.6594 50.4324 54.6185C49.2068 54.5743 46.7898 53.3384 46.6977 53.2908C46.1549 54.6451 45.6988 56.0324 45.3321 57.4443C45.0556 58.4861 44.8201 59.5551 44.5913 60.6309C44.844 60.3484 45.8852 59.2691 45.9569 59.2112C47.0664 58.3056 49.7428 57.2196 51.0776 58.1116C51.2959 58.2678 51.4791 58.4676 51.6159 58.6983C51.7526 58.9289 51.8397 59.1853 51.8718 59.4513C51.9039 59.7173 51.8803 59.9871 51.8023 60.2435C51.7244 60.4999 51.5938 60.7373 51.419 60.9407C50.7055 61.8293 49.34 62.0778 48.2749 62.037C47.0766 61.9927 44.7552 60.8216 44.5606 60.7194C44.4582 61.2097 44.3524 61.6965 44.2534 62.1868C43.9291 63.7869 43.6082 65.3904 43.2292 66.9531C43.1029 67.4978 42.9595 68.0324 42.8196 68.5669C43.2087 68.1515 43.9359 67.4127 44.0042 67.3549C45.1171 66.4492 47.7901 65.3632 49.1249 66.2552C49.3427 66.4118 49.5256 66.6117 49.662 66.8423C49.7984 67.073 49.8854 67.3293 49.9175 67.5951C49.9496 67.861 49.9261 68.1306 49.8484 68.3869C49.7707 68.6432 49.6406 68.8807 49.4663 69.0843C48.7528 69.9695 47.3873 70.2215 46.3222 70.1806C45.257 70.1397 43.2804 69.1967 42.7274 68.9243C42.485 69.8095 42.2255 70.6845 41.9285 71.5356C41.792 71.8999 41.6793 72.2778 41.5291 72.6182L41.3038 73.163C41.5018 73.1391 41.6111 73.1323 41.6111 73.1323C41.6111 73.1323 41.6315 73.6396 41.5872 74.4601C42.7581 73.6158 44.4514 72.8838 45.5506 73.3979C45.7898 73.5195 46.001 73.6895 46.1708 73.8969C46.3406 74.1043 46.4653 74.3447 46.5368 74.6028C46.6084 74.8609 46.6254 75.131 46.5867 75.396C46.548 75.6609 46.4544 75.915 46.3119 76.1419C46.2408 76.2628 46.1585 76.3768 46.0661 76.4824C45.858 77.7331 45.3366 78.9111 44.5504 79.9073C44.4889 79.9754 43.6901 80.721 43.2736 81.0955C43.6764 80.8742 44.0758 80.6563 44.4923 80.4146C45.0898 80.0741 45.7145 79.703 46.3187 79.3422L47.2473 78.7396C47.5682 78.5421 47.8481 78.314 48.1554 78.1029C48.5992 77.7795 49.0396 77.422 49.48 77.0816C49.1078 76.4824 48.0359 74.6984 47.8823 73.677C47.7287 72.6557 47.8106 71.2054 48.5958 70.3849C48.7728 70.1865 48.9903 70.0281 49.2336 69.9202C49.477 69.8124 49.7406 69.7576 50.0069 69.7595C50.2732 69.7615 50.536 69.8201 50.7778 69.9314C51.0195 70.0428 51.2347 70.2044 51.4088 70.4053C52.4329 71.6445 51.675 74.4635 50.9172 75.6857C50.8933 75.7266 50.7055 75.9683 50.4802 76.2509C50.9001 75.8934 51.32 75.5359 51.7331 75.1546C52.9074 74.0822 54.0682 72.9519 55.2357 71.8216L55.9867 71.1407C55.6658 70.6402 54.4915 68.7303 54.3276 67.6476C54.1637 66.565 54.2559 65.176 55.0445 64.3555C55.2215 64.1571 55.439 63.9987 55.6824 63.8908C55.9257 63.783 56.1894 63.7282 56.4557 63.7301C56.7219 63.7321 56.9848 63.7907 57.2265 63.902C57.4683 64.0134 57.6834 64.175 57.8575 64.3759C58.8817 65.6151 58.1238 68.4341 57.3659 69.6563C57.3386 69.7006 57.1133 69.9968 56.8607 70.3066C57.5025 69.704 58.1511 69.1116 58.8134 68.5396C59.9435 67.5544 61.1375 66.6446 62.3877 65.816C62.275 65.6424 60.8514 63.4328 60.6808 62.2242C60.5203 61.1586 60.6091 59.7526 61.3977 58.9355C61.5747 58.7371 61.7922 58.5787 62.0355 58.4708C62.2789 58.363 62.5425 58.3082 62.8088 58.3101C63.0751 58.3121 63.3379 58.3707 63.5797 58.482C63.8214 58.5934 64.0365 58.755 64.2107 58.9559C65.2348 60.1951 64.4769 63.0107 63.7157 64.2363C63.661 64.3214 62.8451 65.3564 62.5413 65.7173L62.5823 65.6866C63.8288 64.9113 65.1427 64.2493 66.5082 63.7086C67.7216 63.2203 68.963 62.8042 70.2258 62.4626C71.3934 62.1221 72.4824 61.9008 73.4485 61.7068C73.9708 61.6046 74.4522 61.5229 74.8994 61.448L74.8755 61.4276C74.8516 61.4106 76.48 60.3381 76.5824 60.2837C77.8592 59.6402 80.7029 59.1602 81.8158 60.3177C81.996 60.5165 82.1329 60.7504 82.2179 61.0047C82.3028 61.259 82.3339 61.5281 82.3092 61.7949C82.2844 62.0618 82.2045 62.3206 82.0743 62.5551C81.9442 62.7896 81.7666 62.9945 81.553 63.1571C80.6688 63.8686 79.2828 63.8142 78.2484 63.5452C77.214 63.2762 75.4081 61.8634 74.9677 61.5025C74.5034 61.5876 74.0084 61.6829 73.4622 61.8021C72.5029 62.0166 71.4139 62.2719 70.2668 62.626C69.9596 62.7179 69.6318 62.8336 69.3109 62.9358C69.8845 62.8745 70.6765 62.7996 70.7516 62.803C72.1786 62.8268 74.9199 63.7256 75.3807 65.2747C75.4496 65.5314 75.4643 65.7995 75.4237 66.0622C75.3831 66.3248 75.2882 66.5761 75.145 66.8002C75.0019 67.0243 74.8135 67.2163 74.592 67.3639C74.3705 67.5116 74.1206 67.6117 73.8582 67.6579C72.7487 67.8757 71.5402 67.1812 70.7482 66.4629C69.9562 65.7445 68.9593 63.5724 68.7545 63.1026C68.0512 63.3443 67.3309 63.6099 66.5969 63.9299C65.2622 64.4967 63.9804 65.1803 62.7666 65.9726L62.5618 66.1258C62.8417 66.0441 64.4018 65.7139 64.5145 65.7037C65.9347 65.5709 68.7545 66.1599 69.3826 67.6476C69.4806 67.8965 69.5255 68.1629 69.5144 68.43C69.5034 68.6971 69.4366 68.959 69.3184 69.199C69.2002 69.4389 69.0332 69.6516 68.8279 69.8236C68.6227 69.9955 68.3837 70.1229 68.1263 70.1976C67.0476 70.5381 65.7742 69.9831 64.9071 69.3533C63.9068 68.6315 62.5652 66.2484 62.5174 66.1599C61.3278 66.9856 60.1932 67.8874 59.1206 68.8596C58.3218 69.578 57.5434 70.3372 56.7685 71.1032C57.1338 71.0079 58.5847 70.7015 58.6905 70.6913C60.1106 70.5585 62.9305 71.1475 63.5586 72.6353C63.6572 72.8843 63.7025 73.1511 63.6917 73.4186C63.681 73.6861 63.6143 73.9484 63.4961 74.1887C63.3778 74.4291 63.2106 74.6421 63.005 74.8143C62.7995 74.9865 62.5601 75.114 62.3023 75.1886C61.227 75.5291 59.9502 74.9708 59.0831 74.3443C58.1101 73.6362 56.8129 71.362 56.6934 71.1679C56.352 71.5084 55.9867 71.8658 55.6385 72.2199C54.4949 73.3706 53.3547 74.5316 52.194 75.6414C51.7911 76.0262 51.3815 76.3904 50.9718 76.7581C51.5248 76.6288 52.5319 76.4177 52.6207 76.4177C54.0408 76.2849 56.8641 76.8739 57.4922 78.3617C57.5902 78.6105 57.6351 78.877 57.6241 79.1441C57.613 79.4112 57.5462 79.673 57.428 79.913C57.3098 80.1529 57.1428 80.3656 56.9375 80.5376C56.7323 80.7095 56.4933 80.8369 56.2359 80.9116C55.1572 81.2521 53.8838 80.6972 53.0167 80.0707C52.1496 79.4443 51.0128 77.548 50.7021 77.0067C50.0193 77.6127 49.3366 78.1982 48.6163 78.7396C48.3056 78.9677 48.0018 79.2196 47.6911 79.4205L46.7728 80.0401C46.1344 80.4418 45.537 80.8197 44.9327 81.1772C44.6289 81.361 44.3353 81.5177 44.0383 81.7015C44.5777 81.487 45.438 81.1636 45.5199 81.1432C46.9025 80.8027 49.7804 80.9423 50.6407 82.3177C50.7763 82.55 50.8618 82.808 50.8917 83.0752C50.9216 83.3423 50.8952 83.6128 50.8142 83.8692C50.7332 84.1256 50.5994 84.3623 50.4214 84.5641C50.2434 84.766 50.025 84.9285 49.7804 85.0413C48.7562 85.5452 47.4214 85.1911 46.4724 84.7009C45.4243 84.163 43.8471 82.1849 43.6559 81.9398C42.922 82.3654 42.2051 82.7705 41.5291 83.1348C39.7198 84.1187 38.1392 84.9017 36.9136 85.4839C32.9263 88.9804 27.3105 89.3651 27.3105 89.3651C27.3105 89.3651 27.0135 82.556 30.9667 78.0825C32.3411 76.5823 34.03 75.4025 35.9134 74.6269ZM43.0141 81.2623C42.8912 80.9865 41.9354 78.8247 41.8705 77.6025C41.6486 77.5616 41.4267 77.5139 41.2082 77.4663C40.8048 79.6103 39.9635 81.6487 38.7366 83.4548C39.4603 83.1144 40.2421 82.7194 41.0751 82.2905C41.7066 81.9739 42.3587 81.6266 43.0141 81.2623Z" fill="#18CE6A"/>
<path d="M6.53738 73.3263C6.53738 73.3263 13.2558 73.5374 17.3661 77.8645C21.4763 82.1917 21.4285 89.0041 21.4285 89.0041C21.4285 89.0041 14.7101 88.7964 10.5998 84.4659C6.48958 80.1353 6.53738 73.3263 6.53738 73.3263Z" fill="#18CE6A"/>
<g opacity="0.5">
<path opacity="0.5" d="M70.5707 61.6387C70.482 61.7238 68.9116 62.8779 68.9013 62.8507C68.8911 62.8235 68.024 60.1475 68.1674 58.8912C68.2903 57.8188 68.7443 56.4876 69.7138 55.9089C69.9381 55.7651 70.1905 55.6705 70.4542 55.6316C70.718 55.5926 70.987 55.6101 71.2434 55.6829C71.4999 55.7557 71.7378 55.8821 71.9415 56.0537C72.1451 56.2254 72.3097 56.4383 72.4244 56.6783C73.0901 58.1491 71.6222 60.665 70.5707 61.6387Z" fill="#18CE6A"/>
</g>
<g opacity="0.2">
<path opacity="0.2" d="M24.0811 77.7112L17.4856 71.7022L17.7689 71.3822L24.088 77.1392L24.1187 69.2611L24.0845 69.285L18.5063 61.0154L18.8545 60.7703L24.1221 68.5802L24.204 49.6205H24.6273L24.5727 62.4896L28.7717 58.8059L29.0483 59.1293L24.5693 63.0581L24.5318 72.2605L30.8951 66.5512L31.1785 66.8712L24.5283 72.8359L24.4908 81.211L29.277 77.4082L29.5399 77.7452L24.4908 81.7591L24.4669 87.1519L24.0436 87.1485L24.0845 77.7112H24.0811Z" fill="black"/>
<path opacity="0.2" d="M30.1612 80.0333L30.5811 79.9856L31.1136 84.7451L33.9471 81.5381L33.9403 81.5347L34.6606 75.7742L35.0805 75.8287L34.4353 80.9831L41.478 73.0029L41.7921 73.2889L37.0162 78.7021L40.0408 78.7396L40.034 79.1685L36.6406 79.1277L33.2917 82.9237L38.0232 82.9271L38.0198 83.3561L32.9127 83.3493L29.8676 86.8015L33.2029 87.0057L33.179 87.4347L29.5091 87.21L27.4779 89.5081L27.1638 89.2221L30.7347 85.1741L30.1612 80.0333Z" fill="black"/>
<path opacity="0.2" d="M14.2186 81.7286L8.60279 80.5744L8.68813 80.1523L13.7099 81.1872L6.38721 73.476L6.69104 73.1798L11.6616 78.4126L11.9245 75.3553L12.3444 75.3927L12.0508 78.8211L15.5329 82.4912L15.8913 77.7112L16.3146 77.7419L15.9289 82.9031L19.0969 86.2395L19.5441 82.8827L19.964 82.9406L19.469 86.6345L21.5788 88.8576L21.275 89.1538L17.5607 85.242L12.457 85.4395L12.4434 85.0105L17.1681 84.8267L14.222 81.7251L14.2186 81.7286Z" fill="black"/>
</g>
<path d="M41.8298 90.3518L0 97.0077L77.0674 110.326L140.196 99.4317L41.8298 90.3518Z" fill="#E0E0E0" fill-opacity="0.3"/>
<path opacity="0.15" d="M68.4508 100.719C80.212 100.719 89.7463 99.586 89.7463 98.189C89.7463 96.792 80.212 95.6594 68.4508 95.6594C56.6896 95.6594 47.1553 96.792 47.1553 98.189C47.1553 99.586 56.6896 100.719 68.4508 100.719Z" fill="black"/>
<path d="M66.6755 70.7593C66.6755 70.7593 64.9004 71.2632 59.4485 71.1372C53.9966 71.0112 46.1345 68.4817 43.0962 68.4817C40.0579 68.4817 36.7601 69.6188 35.5038 72.162C34.2475 74.7051 33.0936 77.8509 40.447 80.7584C47.8004 83.6658 53.3752 84.551 63.8967 87.2065C74.4181 89.8621 78.6001 89.9846 84.0383 88.5956C89.4766 87.2065 93.1635 83.6658 92.6583 78.7225C92.153 73.7791 91.0094 70.7593 88.3466 70.0001C85.6838 69.2409 66.6755 70.7593 66.6755 70.7593Z" fill="#263238" stroke="#263238" stroke-linecap="round" stroke-linejoin="round"/>
<path d="M75.1797 30.4905C75.1797 30.4905 75.3708 32.8941 74.6949 34.2354C74.019 35.5768 71.322 36.9284 69.0075 38.1779C66.6929 39.4273 63.4156 39.2367 62.0671 41.3509C60.7187 43.4651 60.8108 47.0262 60.8108 47.0262C60.8108 47.0262 58.6908 50.2946 56.9566 53.1782C55.2224 56.0618 54.2563 59.0442 56.4718 60.6681C58.6874 62.2921 61.3912 59.8987 62.8352 57.6041C64.2793 55.3094 65.6346 52.7015 65.6346 52.7015C65.6346 52.7015 67.4644 61.6452 67.0001 64.0488C66.5358 66.4524 65.3615 68.7607 65.3615 69.8161C65.3615 70.8715 66.2286 71.6443 67.5771 71.9337C68.9255 72.2231 73.5547 72.6146 76.7364 72.4137C79.9181 72.2128 88.9818 71.6443 89.3676 70.3948C89.7533 69.1454 90.3337 60.4911 90.3337 60.4911C90.3337 60.4911 96.0211 62.4146 97.7554 58.9522C99.4896 55.4898 99.5886 47.7173 98.3357 43.8566C97.0828 39.9959 93.8977 38.566 91.9723 37.6059C90.0469 36.6458 84.7418 34.1435 83.7791 33.0881C82.8164 32.0327 82.5263 26.8374 82.5263 25.1045C82.5263 23.3716 82.3351 25.0092 80.5018 26.3574C78.6686 27.7056 75.1797 30.4905 75.1797 30.4905Z" fill="#EB975A"/>
<path d="M98.3184 43.8566C97.0656 40.0095 93.8804 38.566 91.955 37.6059C90.0296 36.6458 84.7245 34.1435 83.7618 33.0881C82.7991 32.0327 82.509 26.8374 82.509 25.1045C82.509 23.3716 82.3178 25.0092 80.4845 26.3574C78.6513 27.7056 75.1794 30.4905 75.1794 30.4905C75.2162 31.0368 75.2162 31.5851 75.1794 32.1314C76.2753 32.6047 77.7296 33.1528 78.5387 33.1528C79.9452 33.1528 80.3685 34.1367 80.9283 35.1206C81.4882 36.1045 80.5084 37.228 80.5084 37.228C80.5084 37.228 85.0181 37.5106 86.568 37.9328C88.1179 38.3549 92.2042 38.9167 94.7407 41.0241C96.7447 42.6889 98.1273 45.7461 99.0388 47.7241C98.938 46.413 98.6965 45.1164 98.3184 43.8566Z" fill="#C77539"/>
<path d="M88.6778 19.242C89.4425 17.7985 90.6032 15.3064 89.0635 13.5667C87.5239 11.827 86.5544 12.8858 86.3632 11.1631C86.172 9.44039 85.7828 7.60535 84.0486 7.60535C82.3144 7.60535 81.0581 8.28626 79.9998 7.60535C78.9415 6.92445 78.071 5.01111 75.3707 5.01111C72.6703 5.01111 72.6703 9.14419 72.189 9.62423C71.9505 9.79636 71.6836 9.92542 71.4004 10.0055C71.2995 9.98017 71.2056 9.93282 71.1253 9.86688C71.045 9.80094 70.9804 9.71807 70.9361 9.62423C70.4547 8.66416 71.8032 8.75948 72.3836 7.31937C72.9639 5.87926 71.3218 4.91238 70.1646 5.78053C69.0073 6.64868 71.4174 6.54995 70.069 7.99006C68.7205 9.43017 67.9456 11.1631 69.2019 13.2807C70.4582 15.3983 71.8988 14.1454 71.8988 14.1454C72.189 13.9514 72.445 15.034 75.019 15.5072C77.4667 15.9532 79.1395 15.1668 79.3341 17.8495C79.5287 20.5323 81.932 22.0303 82.6148 22.415C83.2976 22.7997 81.5565 24.9139 81.932 25.874C82.3076 26.8341 83.5707 26.7422 84.3422 26.6434C85.1137 26.5447 84.629 25.394 86.2676 25.2033C87.9062 25.0127 88.4866 24.5224 89.1625 22.701C89.8385 20.8796 87.9063 20.6821 88.6778 19.242Z" fill="#0B0C0D" stroke="#263238" stroke-linecap="round" stroke-linejoin="round"/>
<path d="M82.4238 12.7328C82.4238 12.7328 84.1137 11.3709 85.1276 13.0732C85.7353 14.0946 86.5307 15.4564 87.4012 16.1883" stroke="#263238" stroke-linecap="round" stroke-linejoin="round"/>
<path d="M81.5908 17.448C82.6483 17.2507 83.7275 17.1946 84.7998 17.2812C86.319 17.448 86.1483 18.643 87.8381 18.643" stroke="#263238" stroke-linecap="round" stroke-linejoin="round"/>
<path d="M74.5308 11.0642C74.6723 11.2367 74.8313 11.3942 75.0053 11.534" stroke="#263238" stroke-linecap="round" stroke-linejoin="round"/>
<path d="M81.5122 11.0816C81.5122 11.0816 81.0718 12.583 79.3854 10.5403C77.6989 8.49762 76.5212 6.18255 74.606 8.19121C74.3719 8.39752 74.1904 8.65639 74.0764 8.94646C73.9625 9.23652 73.9193 9.54945 73.9505 9.85943" stroke="#263238" stroke-linecap="round" stroke-linejoin="round"/>
<path d="M70.2669 11.6328C70.1003 11.2883 69.9853 10.9212 69.9255 10.5433" stroke="#263238" stroke-linecap="round" stroke-linejoin="round"/>
<path d="M73.3054 13.2363C73.3054 13.2363 71.6804 13.427 70.6597 12.215" stroke="#263238" stroke-linecap="round" stroke-linejoin="round"/>
<path d="M91.9552 37.6058C90.4497 36.8569 86.8959 35.1716 84.9432 33.963C84.3048 35.8832 82.4203 40.2988 78.6481 40.2988C75.1762 40.2988 74.1555 37.0543 73.8687 35.2397C72.7182 36.2611 70.7621 37.2416 69.021 38.1812C66.7065 39.4341 63.4292 39.24 62.0807 41.3542C60.7322 43.4684 60.8244 47.0295 60.8244 47.0295C60.8244 47.0295 60.1109 48.1326 59.1721 49.6204C63.0639 49.4297 65.6584 52.7015 65.6584 52.7015C65.6584 52.7015 67.4882 61.6451 67.0239 64.0487C66.5597 66.4523 65.3853 68.7606 65.3853 69.816C65.3853 70.8714 66.2524 71.6442 67.6009 71.9336C68.9493 72.223 73.5785 72.6145 76.7602 72.4136C79.9419 72.2128 89.0056 71.6442 89.3914 70.3948C89.7772 69.1453 90.3575 60.491 90.3575 60.491L89.7772 52.8955C94.6248 49.6987 98.0113 51.9355 99.1208 52.8955C99.3564 49.6306 99.0833 46.0865 98.3596 43.8531C97.0657 40.0094 93.8806 38.5659 91.9552 37.6058Z" fill="#F5A623"/>
<path opacity="0.15" d="M85.1548 37.7933C85.1548 37.7933 83.7449 40.4659 81.0582 41.3068C79.5167 41.8134 77.8695 41.9107 76.2788 41.5894C76.2788 41.5894 78.252 42.7129 81.2118 42.0115C84.1716 41.3102 85.1548 37.7933 85.1548 37.7933Z" fill="black"/>
<path opacity="0.15" d="M89.1012 51.0065C89.1012 51.0065 89.2411 55.5039 87.5513 56.6274C85.8614 57.7509 80.5051 58.7382 78.3885 58.1731C76.272 57.6079 74.2919 54.6596 72.329 55.2213C70.366 55.7831 66.9727 59.4395 66.9727 59.4395L67.116 61.9691L73.1756 59.0174C73.1756 59.0174 77.2722 61.4005 81.7716 64.3591C86.2711 67.3176 82.055 68.0121 82.055 68.0121L76.4153 70.1195C76.4153 70.1195 80.0818 68.7168 82.9016 68.7168C85.7215 68.7168 83.8882 69.2786 83.8882 69.2786H89.2445L89.3538 70.3953L90.3779 63.5147L90.098 55.2213C90.098 55.2213 89.8044 49.6005 89.1012 51.0065Z" fill="black"/>
<path d="M65.6345 52.7018C65.6345 52.7018 64.1393 48.1296 64.7743 45.7294" stroke="#D08D1E" stroke-linecap="round" stroke-linejoin="round"/>
<path d="M89.7362 52.8958C89.3836 51.1024 89.4738 49.2505 89.9991 47.4996" stroke="#D08D1E" stroke-linecap="round" stroke-linejoin="round"/>
<path d="M67.5601 71.9337C67.5601 71.9337 72.2541 71.2528 75.4119 70.5038" stroke="#D08D1E" stroke-linecap="round" stroke-linejoin="round"/>
<path d="M56.3454 55.1391C56.3454 55.1391 55.3929 55.643 54.6385 57.478C53.884 59.3131 52.9315 62.7244 53.8806 63.7968C54.8296 64.8692 56.9838 63.9262 59.0013 63.6708C61.0189 63.4155 69.4613 58.4892 70.8542 57.6687C72.247 56.8482 73.3907 56.5282 73.8345 55.7724C74.2783 55.0166 74.1519 52.2929 74.2134 50.9686C74.2748 49.6442 73.9608 43.6999 73.9608 43.6999C73.9608 43.6999 73.517 42.2462 72.7557 42.3722C72.7557 42.3722 71.8681 41.8649 71.6769 42.3722L71.298 43.3935C71.298 43.3935 70.4752 43.1416 70.2738 43.5808C70.1347 44.0112 70.0498 44.4572 70.0212 44.9085C70.0212 44.9085 69.0687 45.3511 69.0687 45.9299C69.0687 46.5087 69.2599 49.9132 69.2599 50.8596C69.2599 51.8061 69.1336 53.2632 69.4511 53.8965C69.7686 54.5297 70.0826 55.0949 70.0826 55.0949C70.0826 55.0949 65.4569 55.7281 63.4939 55.7281C61.531 55.7281 58.1035 55.7928 57.4719 56.106" fill="#EB975A"/>
<path d="M73.8379 55.7793C74.0598 55.3946 74.1383 54.5163 74.1792 53.5664L71.1375 54.2269C71.1375 54.2269 71.4447 55.6193 69.7412 56.6986C68.0377 57.7778 58.7453 60.8691 58.1342 61.0257C57.5231 61.1823 64.0196 58.2442 61.548 58.3974C59.0764 58.5506 56.1268 61.1789 54.4233 61.1789C54.1509 61.1821 53.8794 61.1454 53.6177 61.07C53.4265 62.2309 53.4436 63.2897 53.901 63.7936C54.8501 64.8694 57.0042 63.923 59.0218 63.6676C61.0394 63.4123 69.4818 58.4859 70.8746 57.6654C72.2675 56.845 73.3975 56.5351 73.8379 55.7793Z" fill="#DC8241"/>
<path d="M94.8773 58.2442C91.8355 56.2832 85.4995 57.8016 83.4716 57.6756C81.4438 57.5497 75.7871 54.4584 75.7871 54.4584C75.7871 54.4584 76.9273 53.3213 76.9922 52.6233C77.057 51.9254 76.9922 50.0325 76.9922 48.9601C76.9922 47.8876 77.3097 46.8084 77.3711 45.9879C77.4326 45.1674 76.347 45.736 76.1694 45.9879C75.9919 46.2399 75.5345 48.7694 75.5345 48.7694C75.5345 48.7694 74.9644 47.0672 74.9644 46.8731C74.9644 46.679 74.838 44.3435 74.5206 43.3971C74.2031 42.4506 73.4418 43.3971 73.4418 43.3971C73.3803 42.8285 73.1892 42.3757 72.759 42.3757C72.3289 42.3757 71.9363 43.9554 71.9363 43.9554C71.9363 43.0056 71.6188 43.0703 71.3013 43.3869C70.9838 43.7035 70.9838 45.77 70.9838 45.77L70.6049 45.2015C70.1611 45.0755 69.9221 45.77 69.9221 46.4033C69.9221 47.0365 70.1747 48.9328 70.1747 50.5125C70.156 51.317 70.2201 52.1213 70.3659 52.9127C70.6413 54.02 71.113 55.0692 71.7588 56.0108C72.8375 57.5905 76.4494 59.5515 78.6684 61.2572C80.8874 62.9629 87.4146 65.8056 90.6475 66.3129C93.8804 66.8202 96.1097 68.0152 96.8573 66.6295C97.6049 65.2439 99.0012 58.4314 98.3184 56.1606" fill="#EB975A"/>
<path d="M90.6338 66.3331C93.8633 66.8403 96.096 68.0353 96.8436 66.6497C97.3796 65.6658 98.233 61.9719 98.4413 59.0849C97.7995 60.3615 96.0175 63.7082 94.8772 63.9363C93.4707 64.2189 87.4078 62.5302 86.7045 62.3906C86.0013 62.2511 95.5805 61.9685 92.0608 61.1242C88.5412 60.2798 85.8579 60.845 81.4779 59.5785C77.098 58.312 73.5442 57.3996 71.7314 56.031C72.8102 57.6107 76.4221 59.5717 78.641 61.2774C80.86 62.983 87.3941 65.8258 90.6338 66.3331Z" fill="#DC8241"/>
<path d="M75.5481 48.7627C75.8883 49.584 76.0601 50.4649 76.0533 51.3535" stroke="#DC8241" stroke-linecap="round" stroke-linejoin="round"/>
<path d="M73.4556 43.39C73.6492 44.2001 73.7771 45.0244 73.8379 45.8549C73.8379 46.6754 73.9642 48.5785 73.9642 48.5785" stroke="#DC8241" stroke-linecap="round" stroke-linejoin="round"/>
<path d="M71.9363 43.9587C71.9363 43.9587 72.1889 45.4125 72.3152 46.3589C72.392 47.1577 72.4137 47.9608 72.3801 48.7625" stroke="#DC8241" stroke-linecap="round" stroke-linejoin="round"/>
<path d="M70.9839 45.7903C70.9839 45.7903 71.1751 46.9274 71.3014 47.4347C71.3924 48.1048 71.4346 48.7807 71.4277 49.457" stroke="#DC8241" stroke-linecap="round" stroke-linejoin="round"/>
<path d="M66.9284 82.3754C66.2321 82.0548 65.5905 81.6275 65.0269 81.1089C64.2656 80.3531 65.0269 78.4568 64.0027 77.7044C62.9786 76.952 60.961 76.683 60.5889 77.8303C60.2168 78.9777 59.9539 79.7267 59.1926 79.9786C58.4313 80.2305 57.5437 80.2305 56.1509 80.8638C54.7581 81.497 54.7581 83.7712 54.7581 83.7712C57.4343 84.1294 60.0658 84.7649 62.6099 85.6675C66.2832 87.0566 67.9321 86.3008 67.9321 86.3008C67.9321 86.3008 68.0686 83.778 66.9284 82.3754Z" fill="#EB975A"/>
<path d="M65.3956 83.7373C65.3956 83.7373 63.2244 83.4275 62.7601 82.6547C62.2958 81.8818 63.0708 80.4928 61.8315 80.4928C60.5923 80.4928 60.7459 81.4188 59.6637 81.7286C58.5816 82.0384 56.8746 81.5754 57.6496 82.5015C58.4245 83.4275 61.5209 85.2829 63.3814 85.5894C65.242 85.8958 66.6348 84.8165 65.3956 83.7373Z" fill="#DC8241"/>
<path opacity="0.6" d="M65.3956 83.7373C65.3956 83.7373 63.2244 83.4275 62.7601 82.6547C62.2958 81.8818 63.0708 80.4928 61.8315 80.4928C60.5923 80.4928 60.7459 81.4188 59.6637 81.7286C58.5816 82.0384 56.8746 81.5754 57.6496 82.5015C58.4245 83.4275 61.5209 85.2829 63.3814 85.5894C65.242 85.8958 66.6348 84.8165 65.3956 83.7373Z" fill="#DC8241"/>
<path d="M66.9284 82.3754C66.2321 82.0548 65.5905 81.6275 65.0269 81.1089C64.2656 80.3531 65.0269 78.4568 64.0027 77.7044C62.9786 76.952 60.961 76.683 60.5889 77.8303C60.2168 78.9777 59.9539 79.7267 59.1926 79.9786C58.4313 80.2305 57.5437 80.2305 56.1509 80.8638C54.7581 81.497 54.7581 83.7712 54.7581 83.7712C57.4343 84.1294 60.0658 84.7649 62.6099 85.6675C66.2832 87.0566 67.9321 86.3008 67.9321 86.3008C67.9321 86.3008 68.0686 83.778 66.9284 82.3754Z" stroke="#263238" stroke-linecap="round" stroke-linejoin="round"/>
<path d="M76.3642 86.1206C78.2927 85.6281 80.1832 84.9978 82.0209 84.2345C84.4481 83.2574 86.8959 82.2905 89.2378 81.1228C92.7881 79.3524 94.0547 76.6969 93.1671 73.4116C92.2795 70.1262 90.7603 67.5966 84.2911 68.7338C77.8219 69.8709 75.7565 73.752 73.0254 76.7003C69.6321 80.3227 66.8327 82.1884 65.5491 82.008C64.0846 81.8037 63.7739 84.5375 65.8018 85.5487C69.0654 87.1828 72.8035 86.9956 76.3642 86.1206Z" fill="#263238" stroke="#263238" stroke-linecap="round" stroke-linejoin="round"/>
<path d="M66.6348 81.8784C66.6348 81.8784 69.7311 81.2622 72.9845 77.5547C76.2379 73.8472 76.7022 73.2275 76.7022 73.2275" stroke="#0B0C0D" stroke-linecap="round" stroke-linejoin="round"/>
<path d="M89.8965 80.8844C90.4458 80.4366 90.9553 79.9423 91.4191 79.4069" stroke="#0B0C0D" stroke-linecap="round" stroke-linejoin="round"/>
<path d="M79.8018 85.8957C79.8018 85.8957 84.6016 84.5169 88.4286 81.9669" stroke="#0B0C0D" stroke-linecap="round" stroke-linejoin="round"/>
<path d="M41.3245 68.7574C40.2002 68.5406 39.0504 68.4867 37.9107 68.5974C34.8689 68.8528 32.8411 70.7491 32.3325 72.3901C31.8238 74.031 33.5922 78.2152 37.5215 81.0137C41.4508 83.8122 45.5065 84.4182 50.9584 85.9434C55.7889 87.2882 60.8585 88.8713 60.5171 88.7828C59.9572 88.1768 59.37 87.2814 59.4383 86.1988C59.5134 85.0344 60.2986 84.122 60.9507 83.5569C59.9265 83.0905 58.2469 82.0248 55.6353 79.6247C51.4397 75.7605 47.1519 71.8964 44.6325 70.1227" fill="#263238"/>
<path d="M41.3245 68.7574C40.2002 68.5406 39.0504 68.4867 37.9107 68.5974C34.8689 68.8528 32.8411 70.7491 32.3325 72.3901C31.8238 74.031 33.5922 78.2152 37.5215 81.0137C41.4508 83.8122 45.5065 84.4182 50.9584 85.9434C55.7889 87.2882 60.8585 88.8713 60.5171 88.7828C59.9572 88.1768 59.37 87.2814 59.4383 86.1988C59.5134 85.0344 60.2986 84.122 60.9507 83.5569C59.9265 83.0905 58.2469 82.0248 55.6353 79.6247C51.4397 75.7605 47.1519 71.8964 44.6325 70.1227" stroke="#263238" stroke-linecap="round" stroke-linejoin="round"/>
<path d="M43.2943 70.3473C42.591 70.0069 42.1575 69.8298 42.1575 69.8298" stroke="#0B0C0D" stroke-linecap="round" stroke-linejoin="round"/>
<path d="M56.4102 79.7166C56.4102 79.7166 49.7498 74.4635 47.1109 72.6114C46.2773 72.0247 45.4124 71.4837 44.5198 70.9908" stroke="#0B0C0D" stroke-linecap="round" stroke-linejoin="round"/>
<path d="M76.1832 85.5482C74.5343 85.1669 74.408 85.5482 70.4787 85.4222C66.5493 85.2963 62.2377 83.9038 62.2377 83.9038C62.2377 83.9038 61.869 83.9617 60.9609 83.5396C60.3088 84.1047 59.5237 85.0171 59.4485 86.1815C59.3803 87.2641 59.9675 88.1595 60.5273 88.7655C61.2101 88.9493 61.869 89.1059 62.4903 89.2149C65.2794 89.7187 68.7035 90.9852 70.4787 91.741C71.9087 92.4015 73.4637 92.7498 75.0395 92.7624C76.4358 92.7624 75.893 92.9701 76.9069 92.7181C77.9208 92.4662 77.5897 91.7512 77.5897 91.7512C78.0219 91.7293 78.4486 91.6444 78.8562 91.4993C79.6175 91.2474 79.3649 90.2362 79.3649 90.2362C79.863 90.2543 80.3596 90.1733 80.826 89.9979C81.5975 89.5928 81.5975 88.7417 81.2664 87.9552C80.7475 86.7636 77.8355 85.9261 76.1832 85.5482Z" fill="#EB975A"/>
<path d="M76.9071 92.7083C77.542 92.5483 77.6444 92.2112 77.6308 91.9797C77.2728 92.0374 76.9112 92.0693 76.5486 92.0751C74.5344 92.0751 72.2096 90.3728 68.3554 89.76C66.2354 89.4195 62.8625 88.851 60.2407 88.3982C60.3359 88.5235 60.4373 88.6439 60.5446 88.7591C61.2273 88.9429 61.8862 89.0995 62.5075 89.2085C65.2966 89.7123 68.7207 90.9788 70.4959 91.7346C71.9259 92.3951 73.4809 92.7433 75.0568 92.756C76.436 92.7526 75.8932 92.9602 76.9071 92.7083Z" fill="#DC8241"/>
<path opacity="0.6" d="M76.9071 92.7083C77.542 92.5483 77.6444 92.2112 77.6308 91.9797C77.2728 92.0374 76.9112 92.0693 76.5486 92.0751C74.5344 92.0751 72.2096 90.3728 68.3554 89.76C66.2354 89.4195 62.8625 88.851 60.2407 88.3982C60.3359 88.5235 60.4373 88.6439 60.5446 88.7591C61.2273 88.9429 61.8862 89.0995 62.5075 89.2085C65.2966 89.7123 68.7207 90.9788 70.4959 91.7346C71.9259 92.3951 73.4809 92.7433 75.0568 92.756C76.436 92.7526 75.8932 92.9602 76.9071 92.7083Z" fill="#DC8241"/>
<path d="M76.1832 85.5482C74.5343 85.1669 74.408 85.5482 70.4787 85.4222C66.5493 85.2963 62.2377 83.9038 62.2377 83.9038C62.2377 83.9038 61.869 83.9617 60.9609 83.5396C60.3088 84.1047 59.5237 85.0171 59.4485 86.1815C59.3803 87.2641 59.9675 88.1595 60.5273 88.7655C61.2101 88.9493 61.869 89.1059 62.4903 89.2149C65.2794 89.7187 68.7035 90.9852 70.4787 91.741C71.9087 92.4015 73.4637 92.7497 75.0395 92.7624C76.4358 92.7624 75.893 92.9701 76.9069 92.7181C77.9208 92.4662 77.5897 91.7512 77.5897 91.7512C78.0219 91.7293 78.4486 91.6444 78.8562 91.4993C79.6175 91.2474 79.3649 90.2362 79.3649 90.2362C79.863 90.2543 80.3596 90.1733 80.826 89.9979C81.5975 89.5928 81.5975 88.7417 81.2664 87.9552C80.7475 86.7636 77.8355 85.9261 76.1832 85.5482Z" stroke="#263238" stroke-linecap="round" stroke-linejoin="round"/>
<path d="M79.3512 90.2264C78.7694 89.7067 78.1263 89.2597 77.436 88.8953" stroke="#263238" stroke-linecap="round" stroke-linejoin="round"/>
<path d="M77.576 91.7412C77.576 91.7412 76.4357 90.9854 76.1831 90.4781" stroke="#263238" stroke-linecap="round" stroke-linejoin="round"/>
<path d="M75.7872 92.6266C75.3044 92.3662 74.9081 91.971 74.647 91.4895" stroke="#263238" stroke-linecap="round" stroke-linejoin="round"/>
<path d="M74.2818 92.7524C73.6885 92.6377 73.1517 92.3256 72.7593 91.8672" stroke="#263238" stroke-linecap="round" stroke-linejoin="round"/>
<path d="M72.9605 12.6064C72.9605 12.6064 70.5503 14.816 70.7415 17.223C70.9326 19.63 70.1645 20.9679 70.4547 22.7008C70.7449 24.4337 71.1375 27.8076 71.8202 28.6622C72.503 29.5167 72.5918 30.4904 73.2677 30.9704C73.9436 31.4505 76.2548 31.4505 76.7362 30.6844C77.2175 29.9184 82.3314 26.9395 82.7172 25.8739C83.103 24.8082 83.004 24.512 83.004 24.512C83.004 24.512 86.3803 22.4932 85.8989 20.7671C85.4176 19.041 84.0657 18.3601 83.2942 18.9389C82.5226 19.5176 82.427 19.8036 82.427 19.8036C82.427 19.8036 80.4095 18.4792 80.7952 17.2298C81.181 15.9803 82.3827 15.5514 81.9969 14.1078C81.6111 12.6643 78.7299 13.3861 75.6608 13.621C73.2404 13.8185 74.0358 11.7213 72.9605 12.6064Z" fill="#EB975A"/>
<path d="M85.8821 20.7809C85.3973 19.048 84.0489 18.3739 83.2773 18.9527C82.5058 19.5314 82.4102 19.8174 82.4102 19.8174C82.4102 19.8174 80.3927 18.493 80.7784 17.2436C81.1642 15.9941 82.3659 15.5652 81.9801 14.1216C81.5943 12.6781 79.6928 11.1223 76.6238 11.3572C75.9205 11.4116 75.4084 11.4661 75.0056 11.5342C76.2892 11.4321 78.5014 11.4389 79.6587 12.4977C81.3485 14.0433 79.7986 15.589 79.3753 17.1346C78.952 18.6803 79.9386 20.7877 79.6587 22.3333C79.3787 23.879 77.9518 25.0059 77.9518 26.9737C77.9518 28.9415 78.0917 29.6428 76.2448 30.9093C76.1185 30.9944 75.999 31.0795 75.883 31.1647C76.2006 31.1063 76.4866 30.9359 76.6886 30.6846C77.1734 29.9152 82.2839 26.9397 82.6697 25.874C83.0554 24.8084 82.9564 24.5122 82.9564 24.5122C82.9564 24.5122 86.3703 22.5104 85.8821 20.7809Z" fill="#DC8241"/>
<path d="M75.3364 21.0739C75.3364 21.0739 76.3947 22.514 78.1255 21.0739" stroke="#263238" stroke-linecap="round" stroke-linejoin="round"/>
<path d="M71.0315 20.8765C71.1206 20.9925 71.2337 21.0881 71.363 21.1568C71.4923 21.2255 71.635 21.2658 71.7812 21.2748C71.9275 21.2839 72.074 21.2615 72.2109 21.2092C72.3477 21.1569 72.4717 21.076 72.5745 20.9718" stroke="#263238" stroke-linecap="round" stroke-linejoin="round"/>
<path d="M74.5036 25.2031C73.7321 25.3938 72.6704 25.1044 72.5748 24.8184C72.4792 24.5324 73.0561 20.7807 73.0561 20.7807L72.3733 19.6265C72.3733 19.6265 71.793 18.7584 71.0078 19.3371" stroke="#263238" stroke-linecap="round" stroke-linejoin="round"/>
<path d="M72.7693 26.9326L75.0497 26.9224" stroke="#263238" stroke-linecap="round" stroke-linejoin="round"/>
<path d="M78.7472 19.5279C78.104 19.1188 77.3606 18.8936 76.5979 18.8767C75.8352 18.8599 75.0826 19.0522 74.4219 19.4325" stroke="#263238" stroke-linecap="round" stroke-linejoin="round"/>
<path d="M85.1308 21.1143C85.1308 21.1143 84.728 20.0691 83.9257 20.3892C83.1235 20.7092 82.9596 21.751 82.9596 21.751C82.9596 21.751 83.6014 21.5092 83.6014 22.3127C83.6014 23.1162 82.8777 22.7962 82.8777 22.7962" stroke="#263238" stroke-linecap="round" stroke-linejoin="round"/>
</g>
<defs>
<clipPath id="clip0">
<rect y="0.326416" width="140.196" height="110" fill="white"/>
</clipPath>
</defs>
</svg>
