<svg width="105" height="101" viewBox="0 0 105 101" fill="none" xmlns="http://www.w3.org/2000/svg">
<path d="M98.1258 57.2262C97.4781 54.6047 96.6112 52.0424 95.5345 49.5663C94.5837 47.3686 93.5144 45.2243 92.3311 43.1428C91.3063 41.3388 90.2844 39.695 89.2933 38.2001C89.2793 38.1552 89.2624 38.113 89.2512 38.0737C89.0126 37.374 88.788 36.6687 88.5662 35.9775C87.5077 32.6336 82.8781 20.7111 69.8007 16.9429C69.4301 16.7266 69.0482 16.513 68.6496 16.3023C66.7953 15.3151 64.8328 14.5466 62.8015 14.0122C62.5207 13.9307 62.24 13.8689 61.9592 13.8071C61.6785 13.7452 61.3977 13.6778 61.117 13.6216C60.5386 13.5317 59.9518 13.4052 59.3482 13.3406C58.103 13.1888 56.8488 13.123 55.5946 13.1439C52.8622 13.2248 50.1535 13.6766 47.5426 14.4871C46.1396 14.925 44.7659 15.4515 43.4295 16.0634C42.7529 16.3866 42.0567 16.6957 41.3941 17.0778L40.3778 17.6398C40.0381 17.8281 39.7152 18.0416 39.3783 18.2411C36.625 19.9447 34.0315 21.8944 31.6295 24.0661C29.6727 25.8136 27.8124 27.6662 26.0566 29.6158C18.2853 35.1064 12.7208 40.6335 11.7915 42.8815C11.3114 44.0476 11.7915 45.8291 13.0549 48.0405C12.6787 48.7289 12.3081 49.423 11.9487 50.1311C11.0227 51.9184 10.1951 53.7551 9.46969 55.6329L9.18894 56.3635L8.94188 57.1194L8.81834 57.5016L8.71166 57.9006C8.63866 58.1816 8.56286 58.426 8.50952 58.7436C8.43984 59.0498 8.39199 59.3606 8.36633 59.6736C8.36633 59.8535 8.33545 60.0108 8.33545 60.2075C8.33545 60.3171 8.33545 60.4295 8.35229 60.5391C8.36914 60.6487 8.38037 60.7498 8.39721 60.8566C8.53651 61.5799 8.82323 62.2667 9.23947 62.8742C9.91528 63.8388 10.7244 64.7025 11.6427 65.4396C12.4793 66.1301 13.3548 66.7718 14.2649 67.3616C16.0501 68.5129 17.8964 69.5663 19.7958 70.5172C23.6141 72.4218 27.5273 74.1297 31.52 75.6341C36.7757 77.6347 42.0258 79.3657 47.2422 80.8606C59.2303 89.5433 70.8675 95.7925 76.0081 94.2724C82.325 92.4038 86.6009 88.9138 89.4028 84.5388C89.4955 84.4769 89.5881 84.4151 89.6836 84.3421L89.8492 84.2128L89.9784 84.1032C92.7527 81.8342 95.0236 79.011 96.6462 75.8139C98.1175 72.817 98.9421 69.5436 99.0663 66.2067C99.171 63.184 98.8544 60.1615 98.1258 57.2262ZM32.8171 72.2734C28.8866 70.7645 25.0402 69.1516 21.4073 67.3391C19.6163 66.459 17.8732 65.4844 16.1853 64.4196C15.3839 63.9133 14.6107 63.3636 13.8691 62.773C13.2052 62.2544 12.6132 61.6496 12.1088 60.9746C11.9479 60.7555 11.8307 60.5075 11.7634 60.2441C11.7634 60.2244 11.7634 60.2047 11.7634 60.1907C11.7662 60.1768 11.7662 60.1624 11.7634 60.1485L11.7803 59.9322C11.7941 59.7487 11.8214 59.5665 11.8617 59.387C11.8975 59.1777 11.9444 58.9704 12.0021 58.766L12.0835 58.4457L12.1846 58.1169L12.3895 57.4594L12.6254 56.7963C13.2832 55.021 14.0329 53.2811 14.8714 51.5838L15.0988 51.1342C19.8716 57.673 29.0494 66.513 38.9628 74.5045C36.9133 73.802 34.8647 73.0583 32.8171 72.2734ZM62.2147 15.7937C53.6181 15.5633 44.2465 18.9689 35.9194 23.4845C37.3816 22.2418 38.9153 21.0859 40.5125 20.0226C42.8741 18.4397 45.4197 17.1508 48.0928 16.1843C50.5294 15.3208 53.0702 14.7869 55.6479 14.5966C56.8347 14.5242 58.0251 14.5336 59.2107 14.6247C59.789 14.65 60.3505 14.7456 60.8952 14.8046C61.1759 14.8439 61.4567 14.8973 61.7178 14.9423C61.9789 14.9872 62.2596 15.035 62.5235 15.0996C63.7443 15.3565 64.9452 15.7002 66.1172 16.1281C64.8244 15.9372 63.5211 15.8255 62.2147 15.7937ZM96.9494 66.0606C96.7317 69.0744 95.8883 72.0096 94.4732 74.6787C93.899 75.7491 93.234 76.7682 92.4855 77.7247C96.1942 65.434 92.7971 50.0103 90.5202 42.0834C90.801 42.5977 91.0817 43.1231 91.3428 43.6654C92.4078 45.7569 93.3599 47.9039 94.1953 50.0974C95.1301 52.5371 95.8644 55.0491 96.3907 57.6083C96.9616 60.387 97.1496 63.2309 96.9494 66.0606Z" fill="#E0E0E0" fill-opacity="0.3"/>
<path d="M33.8448 19.1883C33.5247 19.385 33.2047 19.444 33.1317 19.3232C33.0587 19.2024 33.2552 18.9438 33.5753 18.7471C33.8953 18.5505 34.2126 18.4914 34.2884 18.6123C34.3642 18.7331 34.1648 18.9916 33.8448 19.1883Z" fill="#404851"/>
<path d="M32.9633 15.3218C32.6461 15.5184 32.326 15.5803 32.2502 15.4566C32.1744 15.333 32.3738 15.0773 32.6938 14.8946C33.0139 14.712 33.3339 14.6389 33.4069 14.7598C33.4799 14.8806 33.2834 15.1251 32.9633 15.3218Z" fill="#404851"/>
<path d="M23.4317 2.22185C23.1116 2.41855 22.9151 2.67425 22.9881 2.79789C23.0611 2.92153 23.384 2.8569 23.7012 2.6602C24.0185 2.46351 24.2206 2.2078 24.1448 2.07855C24.069 1.94929 23.7518 2.02516 23.4317 2.22185Z" fill="#404851"/>
<path d="M26.4665 4.73389C26.1492 4.93059 25.9499 5.1891 26.0229 5.30993C26.0959 5.43076 26.4187 5.37175 26.736 5.17505C27.0532 4.97836 27.2554 4.72265 27.1796 4.61306C27.1038 4.50348 26.7865 4.54001 26.4665 4.73389Z" fill="#404851"/>
<path d="M33.3366 23.1529L31.8683 24.0577L28.8053 18.5755L28.6789 18.3479L26.9523 15.2457L26.3908 14.2314C23.8402 15.6282 21.216 16.8861 18.5297 17.9995V21.495L16.9126 22.4869L16.003 18.4828L12.8276 15.8667L14.4448 14.872L17.5583 16.4568C19.7661 14.5533 22.0754 12.771 24.4761 11.1179L20.5708 5.32105L20.3294 4.96138L19.8942 4.32633L19.6892 4.02005L18.1956 1.79739L19.6527 0.881348L21.4524 2.32004L21.983 2.7331L22.8898 2.17111C23.0186 2.09174 23.1737 2.06684 23.3208 2.10188C23.468 2.13693 23.5952 2.22904 23.6745 2.35797C23.7538 2.4869 23.7787 2.64207 23.7437 2.78936C23.7087 2.93664 23.6166 3.06398 23.4878 3.14335L22.9263 3.48616L23.5973 4.02286L25.0825 5.20865L25.9248 4.68881C26.0543 4.60944 26.2101 4.58484 26.3578 4.62041C26.5054 4.65598 26.633 4.74881 26.7123 4.87848C26.7916 5.00815 26.8162 5.16404 26.7806 5.31186C26.7451 5.45967 26.6523 5.5873 26.5228 5.66667L26.0314 5.96733L28.8109 8.18718C29.4622 7.7685 30.0939 7.36949 30.6976 6.99858C36.8067 3.25293 38.0814 4.88832 38.0814 4.88832C38.0814 4.88832 38.9713 6.76816 32.8706 10.5082C32.2698 10.8763 31.6268 11.2613 30.9587 11.6518L31.2057 12.8404L31.2282 12.9444L31.683 15.139L32.1743 14.8355C32.2407 14.7962 32.3141 14.7704 32.3905 14.7595C32.4668 14.7486 32.5445 14.7528 32.6192 14.772C32.6939 14.7912 32.7641 14.8249 32.8258 14.8712C32.8875 14.9176 32.9394 14.9756 32.9787 15.042C33.0179 15.1084 33.0437 15.182 33.0546 15.2584C33.0655 15.3348 33.0612 15.4126 33.0421 15.4873C33.0229 15.5621 32.9892 15.6323 32.943 15.694C32.8967 15.7558 32.8387 15.8078 32.7723 15.8471L31.9301 16.3641L32.0845 17.12L32.4888 19.0701L33.0503 18.7301C33.114 18.6908 33.1849 18.6644 33.2589 18.6525C33.3328 18.6407 33.4084 18.6435 33.4813 18.6608C33.5542 18.6782 33.6229 18.7097 33.6836 18.7537C33.7443 18.7976 33.7957 18.8531 33.835 18.9169C33.8742 18.9808 33.9006 19.0517 33.9124 19.1257C33.9243 19.1998 33.9215 19.2754 33.9041 19.3483C33.8868 19.4212 33.8553 19.49 33.8114 19.5508C33.7675 19.6115 33.7121 19.663 33.6483 19.7023L32.7414 20.2643L33.3366 23.1529Z" fill="#FFF8E1"/>
<path d="M35.375 5.54872C35.2534 5.52821 35.1287 5.53522 35.0102 5.56926C34.8916 5.6033 34.7822 5.6635 34.6899 5.74542C34.9495 5.80912 35.1907 5.93224 35.3946 6.10509C35.5947 6.26645 35.7334 6.49159 35.7877 6.74295C35.8472 7.00372 35.8472 7.27458 35.7877 7.53535C35.9014 7.48876 36.0035 7.41783 36.087 7.32754C36.1704 7.23726 36.2331 7.1298 36.2706 7.0127C36.3219 6.85756 36.3387 6.69308 36.32 6.53075C36.3013 6.36841 36.2474 6.21211 36.1622 6.07274C36.0769 5.93338 35.9623 5.81429 35.8263 5.72379C35.6904 5.63329 35.5364 5.57355 35.375 5.54872Z" fill="#282F39"/>
<path d="M18.1254 17.4406C17.2186 18.0026 16.4409 18.3622 16.3623 18.2527C16.2837 18.1431 16.9743 17.6008 17.8812 17.0444C18.788 16.488 19.5657 16.1227 19.6471 16.2323C19.7285 16.3419 19.0323 16.8842 18.1254 17.4406Z" fill="#C5CED7"/>
<path d="M34.0436 16.597L32.0466 13.3431L31.8959 13.4358L33.8929 16.6897L34.0436 16.597Z" fill="#C5CED7"/>
<path d="M34.922 20.4919L32.925 17.238L32.7743 17.3307L34.7713 20.5846L34.922 20.4919Z" fill="#C5CED7"/>
<path d="M25.6788 3.3069L27.6758 6.56079L27.8265 6.46814L25.8295 3.21425L25.6788 3.3069Z" fill="#C5CED7"/>
<path d="M22.6044 0.765644L24.6013 4.01953L24.752 3.92688L22.7551 0.672991L22.6044 0.765644Z" fill="#C5CED7"/>
<path d="M31.2055 12.8629L26.9521 15.2457L26.3906 14.2314C27.2694 13.7677 30.9725 11.6743 30.9725 11.6743L31.2055 12.8629Z" fill="#C5CED7"/>
<path d="M23.6055 4.02864L20.5705 5.32121L20.3291 4.96154L22.9345 3.49194L23.6055 4.02864Z" fill="#C5CED7"/>
<path d="M32.0845 17.1061L28.8053 18.5757L28.679 18.3481L31.9301 16.3502L32.0845 17.1061Z" fill="#C5CED7"/>
<path d="M22.0305 13.4868C22.0102 13.4524 22.0031 13.4119 22.0103 13.3727C22.0175 13.3335 22.0386 13.2982 22.0698 13.2733C22.2466 13.1356 22.4544 12.9923 22.6846 12.8124C22.7015 12.7968 22.7214 12.7849 22.7432 12.7775C22.765 12.7701 22.7881 12.7674 22.8109 12.7696C22.8338 12.7718 22.856 12.7789 22.876 12.7902C22.8959 12.8016 22.9133 12.8171 22.9268 12.8357C22.9404 12.8542 22.9499 12.8755 22.9547 12.898C22.9594 12.9205 22.9594 12.9437 22.9546 12.9662C22.9497 12.9887 22.9402 13.0099 22.9265 13.0285C22.9129 13.047 22.8955 13.0624 22.8755 13.0737C22.6481 13.2423 22.4432 13.3969 22.2691 13.5318C22.2348 13.5577 22.1916 13.569 22.149 13.5632C22.1064 13.5574 22.0678 13.535 22.0417 13.5009L22.0305 13.4868ZM23.2573 12.5792C23.2363 12.5441 23.2292 12.5023 23.2376 12.4622C23.2459 12.4221 23.269 12.3867 23.3023 12.3628L23.9227 11.9132C23.9581 11.8883 24.0019 11.8784 24.0446 11.8858C24.0872 11.8932 24.1252 11.9172 24.1501 11.9526C24.1751 11.988 24.185 12.0318 24.1776 12.0745C24.1702 12.1172 24.1462 12.1552 24.1108 12.1802L23.4904 12.6213C23.473 12.6339 23.4534 12.6429 23.4326 12.6479C23.4118 12.6528 23.3902 12.6536 23.3691 12.6502C23.348 12.6468 23.3277 12.6393 23.3095 12.6281C23.2913 12.6169 23.2755 12.6022 23.263 12.5848L23.2573 12.5792ZM24.5011 11.6969C24.4794 11.6619 24.4719 11.62 24.4803 11.5797C24.4886 11.5394 24.5122 11.5039 24.546 11.4805L25.1721 11.0422C25.2093 11.0176 25.2548 11.0088 25.2985 11.0177C25.3422 11.0267 25.3805 11.0527 25.4051 11.0899C25.4297 11.1272 25.4384 11.1727 25.4295 11.2164C25.4205 11.2602 25.3946 11.2986 25.3574 11.3232L24.7313 11.7615C24.7139 11.7737 24.6942 11.7823 24.6734 11.7868C24.6526 11.7913 24.6311 11.7916 24.6102 11.7876C24.5892 11.7837 24.5693 11.7756 24.5516 11.7639C24.5338 11.7522 24.5185 11.7371 24.5067 11.7194C24.5067 11.7194 24.5011 11.6997 24.5011 11.6969ZM25.7504 10.8286C25.7288 10.7929 25.7217 10.7503 25.7306 10.7095C25.7395 10.6687 25.7637 10.6329 25.7982 10.6094C26.0059 10.4633 26.2165 10.3284 26.427 10.1767C26.4446 10.1641 26.4645 10.1551 26.4856 10.1504C26.5067 10.1456 26.5285 10.1452 26.5497 10.1492C26.571 10.1531 26.5912 10.1613 26.6092 10.1733C26.6272 10.1853 26.6426 10.2008 26.6545 10.2189C26.6776 10.2546 26.6862 10.2978 26.6783 10.3397C26.6705 10.3815 26.6469 10.4188 26.6123 10.4436L25.9835 10.8764C25.9658 10.8886 25.9459 10.8973 25.9248 10.9018C25.9038 10.9063 25.8821 10.9066 25.861 10.9027C25.8398 10.8988 25.8197 10.8907 25.8017 10.879C25.7837 10.8672 25.7681 10.852 25.756 10.8342L25.7504 10.8286ZM27.0082 9.96596C26.9866 9.93026 26.9795 9.88762 26.9884 9.84684C26.9973 9.80607 27.0214 9.77025 27.0559 9.74678L27.6848 9.31686C27.722 9.29264 27.7674 9.28422 27.8108 9.29344C27.8542 9.30266 27.8922 9.32877 27.9164 9.36604C27.9406 9.4033 27.9491 9.44866 27.9398 9.49213C27.9306 9.53561 27.9045 9.57364 27.8673 9.59786L27.2328 10.0137C27.2151 10.026 27.1952 10.0346 27.1742 10.0392C27.1532 10.0437 27.1315 10.044 27.1103 10.0401C27.0892 10.0362 27.069 10.0281 27.051 10.0163C27.033 10.0046 27.0175 9.98936 27.0054 9.97158C27.0054 9.97158 27.0082 9.96877 27.0082 9.96596ZM28.2688 9.10331C28.247 9.06717 28.2398 9.0241 28.2487 8.98285C28.2576 8.94161 28.2818 8.9053 28.3165 8.88132L28.9482 8.45421C28.9658 8.44215 28.9857 8.43373 29.0066 8.42946C29.0275 8.42519 29.049 8.42514 29.07 8.42933C29.0909 8.43352 29.1108 8.44186 29.1284 8.45385C29.1461 8.46585 29.1612 8.48126 29.1728 8.49917C29.1851 8.51685 29.1937 8.53679 29.1982 8.55783C29.2027 8.57887 29.203 8.6006 29.1991 8.62176C29.1952 8.64292 29.1872 8.66309 29.1754 8.68112C29.1637 8.69914 29.1485 8.71466 29.1307 8.72678L28.499 9.15389C28.4628 9.17765 28.4186 9.18626 28.3761 9.17785C28.3336 9.16945 28.2961 9.1447 28.2716 9.10893L28.2688 9.10331ZM29.5322 8.26033C29.5106 8.22463 29.5035 8.18199 29.5124 8.14121C29.5212 8.10044 29.5454 8.06462 29.5799 8.04115L30.2116 7.61404C30.248 7.59098 30.2919 7.58278 30.3343 7.59115C30.3766 7.59951 30.414 7.6238 30.439 7.659C30.4511 7.67685 30.4596 7.69693 30.4639 7.71808C30.4682 7.73923 30.4683 7.76103 30.4641 7.7822C30.4599 7.80338 30.4516 7.82351 30.4395 7.84143C30.4275 7.85935 30.4121 7.87471 30.3941 7.88661L29.7596 8.30529C29.7417 8.31742 29.7217 8.32589 29.7005 8.3302C29.6794 8.3345 29.6576 8.33457 29.6365 8.33039C29.6153 8.3262 29.5952 8.31786 29.5773 8.30583C29.5594 8.2938 29.5441 8.27834 29.5322 8.26033ZM30.7984 7.41735C30.7766 7.38121 30.7694 7.33814 30.7783 7.29689C30.7872 7.25565 30.8114 7.21934 30.8461 7.19536L31.4834 6.77106C31.5206 6.74721 31.5658 6.73915 31.609 6.74863C31.6522 6.75812 31.6898 6.78438 31.7136 6.82164C31.7374 6.8589 31.7455 6.90411 31.736 6.94732C31.7266 6.99053 31.7003 7.02821 31.6631 7.05206L31.0286 7.47636C31.0107 7.48849 30.9907 7.49696 30.9696 7.50126C30.9484 7.50557 30.9266 7.50564 30.9055 7.50146C30.8843 7.49727 30.8642 7.48893 30.8463 7.4769C30.8284 7.46487 30.8131 7.44941 30.8012 7.4314L30.7984 7.41735Z" fill="#C5CED7"/>
<path d="M23.179 15.3555C23.1696 15.3362 23.1642 15.3152 23.1631 15.2938C23.1619 15.2723 23.1651 15.2508 23.1725 15.2307C23.1798 15.2105 23.1911 15.192 23.2058 15.1763C23.2204 15.1605 23.238 15.1479 23.2576 15.1392C23.4541 15.0436 23.6844 14.9312 23.937 14.802C23.9759 14.7832 24.0204 14.7804 24.0613 14.794C24.1022 14.8077 24.1362 14.8367 24.156 14.875C24.1657 14.8942 24.1714 14.9151 24.173 14.9365C24.1745 14.9579 24.1718 14.9794 24.165 14.9998C24.1582 15.0202 24.1475 15.039 24.1334 15.0552C24.1194 15.0714 24.1022 15.0846 24.083 15.0942C23.8275 15.2235 23.5973 15.3359 23.398 15.4314C23.3614 15.4486 23.3198 15.4518 23.281 15.4404C23.2422 15.429 23.2089 15.4038 23.1874 15.3696L23.179 15.3555ZM24.5435 14.6755C24.5245 14.637 24.5213 14.5926 24.5344 14.5518C24.5474 14.5109 24.5759 14.4767 24.6136 14.4563L25.2874 14.1051C25.306 14.0896 25.3277 14.0784 25.3511 14.0723C25.3745 14.0663 25.3989 14.0655 25.4226 14.07C25.4463 14.0746 25.4687 14.0844 25.4882 14.0986C25.5077 14.1129 25.5238 14.1314 25.5352 14.1526C25.5467 14.1739 25.5533 14.1975 25.5546 14.2216C25.5558 14.2458 25.5517 14.2699 25.5425 14.2922C25.5333 14.3146 25.5192 14.3346 25.5013 14.3508C25.4834 14.3671 25.4622 14.3791 25.4391 14.3861L24.7652 14.7401C24.7284 14.7592 24.6857 14.7637 24.6457 14.7528C24.6056 14.7419 24.5712 14.7163 24.5491 14.6811L24.5435 14.6755ZM25.8939 13.9674C25.8836 13.9484 25.8772 13.9276 25.875 13.9061C25.8728 13.8847 25.8749 13.863 25.8812 13.8423C25.8875 13.8217 25.8978 13.8025 25.9115 13.7858C25.9253 13.7692 25.9422 13.7555 25.9613 13.7454L26.6323 13.3858C26.6684 13.3736 26.7077 13.3746 26.7432 13.3885C26.7787 13.4024 26.8082 13.4283 26.8266 13.4618C26.845 13.4952 26.8511 13.534 26.8438 13.5715C26.8365 13.609 26.8163 13.6427 26.7867 13.6668L26.1101 14.0349C26.0736 14.0537 26.0314 14.0582 25.9918 14.0472C25.9522 14.0363 25.9183 14.0108 25.8967 13.9758L25.8939 13.9674ZM27.2331 13.2453C27.2227 13.2265 27.2161 13.2058 27.2137 13.1844C27.2113 13.1631 27.2132 13.1415 27.2192 13.1208C27.2252 13.1002 27.2352 13.081 27.2487 13.0642C27.2622 13.0475 27.2788 13.0336 27.2976 13.0233L27.9658 12.658C28.0039 12.6377 28.0484 12.6331 28.0898 12.6452C28.1313 12.6573 28.1663 12.6851 28.1876 12.7226C28.198 12.7414 28.2046 12.7621 28.207 12.7834C28.2093 12.8048 28.2075 12.8264 28.2015 12.847C28.1955 12.8677 28.1855 12.8869 28.172 12.9037C28.1585 12.9204 28.1419 12.9343 28.1231 12.9446L27.4577 13.3183C27.4208 13.3385 27.3778 13.3439 27.3371 13.3334C27.2965 13.323 27.2613 13.2975 27.2387 13.2621L27.2331 13.2453ZM28.5694 12.5147C28.5492 12.4765 28.5446 12.432 28.5567 12.3906C28.5688 12.3491 28.5965 12.314 28.634 12.2927L29.305 11.9134C29.3236 11.903 29.344 11.8965 29.3652 11.8941C29.3863 11.8918 29.4077 11.8937 29.4281 11.8997C29.4484 11.9057 29.4674 11.9157 29.4839 11.9292C29.5004 11.9426 29.514 11.9592 29.524 11.978C29.5452 12.0156 29.5506 12.0601 29.539 12.1018C29.5275 12.1434 29.4998 12.1787 29.4622 12.2L28.7941 12.5681C28.7573 12.5878 28.7144 12.5927 28.6742 12.5817C28.634 12.5707 28.5995 12.5447 28.5779 12.5091L28.5694 12.5147ZM29.903 11.7757C29.8927 11.7571 29.8862 11.7366 29.8838 11.7155C29.8815 11.6943 29.8834 11.6729 29.8894 11.6525C29.8954 11.6321 29.9054 11.6131 29.9188 11.5966C29.9323 11.5801 29.9488 11.5665 29.9676 11.5565L30.633 11.1856C30.6515 11.1747 30.672 11.1676 30.6933 11.1648C30.7146 11.1621 30.7363 11.1636 30.757 11.1694C30.7777 11.1751 30.797 11.185 30.8138 11.1984C30.8306 11.2118 30.8445 11.2285 30.8548 11.2474C30.875 11.2855 30.8796 11.3301 30.8675 11.3715C30.8555 11.413 30.8277 11.4481 30.7902 11.4694L30.1248 11.8403C30.088 11.8604 30.0449 11.8658 30.0043 11.8554C29.9636 11.845 29.9284 11.8195 29.9058 11.7841L29.903 11.7757ZM31.2366 11.0338C31.2154 10.9962 31.21 10.9517 31.2216 10.9101C31.2331 10.8684 31.2608 10.8331 31.2984 10.8119L31.9638 10.4409C31.9823 10.4301 32.0028 10.423 32.0241 10.4202C32.0454 10.4174 32.0671 10.419 32.0878 10.4247C32.1085 10.4305 32.1278 10.4404 32.1446 10.4538C32.1614 10.4672 32.1753 10.4839 32.1855 10.5028C32.2058 10.5409 32.2104 10.5854 32.1983 10.6269C32.1862 10.6683 32.1585 10.7034 32.121 10.7247L31.4584 11.0985C31.4216 11.1186 31.3785 11.124 31.3378 11.1136C31.2972 11.1031 31.262 11.0777 31.2394 11.0423L31.2366 11.0338ZM32.5674 10.2892C32.5462 10.2516 32.5407 10.207 32.5523 10.1654C32.5639 10.1238 32.5915 10.0885 32.6291 10.0672L33.2973 9.69069C33.3158 9.67685 33.337 9.66709 33.3596 9.66208C33.3821 9.65707 33.4055 9.65691 33.4281 9.66162C33.4507 9.66633 33.472 9.67579 33.4907 9.68939C33.5094 9.70298 33.5249 9.7204 33.5364 9.74047C33.5478 9.76055 33.5548 9.78283 33.557 9.80584C33.5592 9.82884 33.5564 9.85205 33.549 9.87391C33.5415 9.89578 33.5295 9.91581 33.5137 9.93266C33.4979 9.94952 33.4787 9.96282 33.4574 9.97169L32.7892 10.3482C32.7523 10.3684 32.7093 10.3738 32.6686 10.3633C32.628 10.3529 32.5928 10.3274 32.5702 10.292L32.5674 10.2892Z" fill="#C5CED7"/>
<path d="M34.305 63.7651H34.2769C33.7154 63.678 33.1286 63.5852 32.5559 63.4841C32.4814 63.471 32.4152 63.4289 32.3718 63.367C32.3283 63.3051 32.3112 63.2284 32.3243 63.1539C32.3373 63.0794 32.3794 63.0131 32.4412 62.9696C32.5031 62.9261 32.5797 62.909 32.6542 62.9221C33.2157 63.0195 33.7856 63.1132 34.3639 63.2031C34.4403 63.2109 34.5104 63.2488 34.5588 63.3083C34.6072 63.3679 34.6301 63.4442 34.6222 63.5206C34.6144 63.597 34.5766 63.6671 34.5171 63.7156C34.4576 63.7641 34.3813 63.7869 34.305 63.7791V63.7651ZM30.8798 63.175H30.8405C30.279 63.0654 29.6922 62.9474 29.1307 62.8266C29.0563 62.8102 28.9914 62.7648 28.9503 62.7005C28.9092 62.6363 28.8953 62.5583 28.9117 62.4837C28.9281 62.4092 28.9734 62.3443 29.0376 62.3032C29.1019 62.2621 29.1798 62.2482 29.2542 62.2646C29.8158 62.3854 30.3773 62.5034 30.9388 62.613C31.0132 62.6223 31.0809 62.6609 31.127 62.7201C31.1731 62.7794 31.1937 62.8546 31.1844 62.9291C31.1751 63.0036 31.1366 63.0714 31.0774 63.1175C31.0181 63.1636 30.943 63.1843 30.8686 63.175H30.8798ZM27.4827 62.436C27.465 62.4387 27.447 62.4387 27.4294 62.436C26.8678 62.2983 26.2895 62.155 25.7448 62.0004C25.708 61.9905 25.6734 61.9733 25.6432 61.95C25.6129 61.9267 25.5875 61.8976 25.5685 61.8645C25.5301 61.7976 25.5198 61.7181 25.5399 61.6436C25.56 61.569 25.6089 61.5056 25.6757 61.4671C25.7426 61.4286 25.822 61.4183 25.8964 61.4384C26.4579 61.5874 27.0195 61.7335 27.581 61.8712C27.6175 61.8791 27.652 61.8943 27.6826 61.9158C27.7132 61.9372 27.7392 61.9646 27.759 61.9963C27.7789 62.028 27.7923 62.0633 27.7983 62.1002C27.8044 62.1371 27.803 62.1748 27.7943 62.2112C27.7807 62.2813 27.7408 62.3435 27.6829 62.3853C27.6251 62.427 27.5535 62.4452 27.4827 62.436ZM24.1445 61.5171C24.1207 61.5149 24.0972 61.5102 24.0744 61.5031C23.5129 61.3317 22.9513 61.149 22.4151 60.9608C22.3406 60.9358 22.2791 60.8822 22.2441 60.8119C22.2091 60.7415 22.2035 60.6602 22.2284 60.5856C22.2534 60.5111 22.3069 60.4496 22.3771 60.4145C22.4474 60.3795 22.5288 60.3738 22.6032 60.3988C23.1395 60.5842 23.6925 60.7669 24.2456 60.9355C24.2833 60.9467 24.3182 60.9656 24.3481 60.9912C24.378 61.0167 24.4022 61.0483 24.4191 61.0838C24.436 61.1192 24.4453 61.1579 24.4464 61.1972C24.4475 61.2365 24.4403 61.2756 24.4253 61.312C24.4083 61.3728 24.3714 61.4261 24.3205 61.4633C24.2695 61.5005 24.2076 61.5195 24.1445 61.5171ZM20.8625 60.3791C20.8318 60.3769 20.8015 60.3703 20.7727 60.3594C20.2112 60.1459 19.6778 59.9211 19.1528 59.6935C19.1179 59.6782 19.0864 59.6561 19.0601 59.6286C19.0338 59.6011 19.0131 59.5687 18.9993 59.5332C18.9855 59.4978 18.9788 59.4599 18.9796 59.4218C18.9804 59.3837 18.9887 59.3462 19.004 59.3113C19.0193 59.2765 19.0413 59.2449 19.0687 59.2186C19.0962 59.1922 19.1286 59.1715 19.1641 59.1577C19.1995 59.1439 19.2373 59.1372 19.2754 59.138C19.3134 59.1388 19.3509 59.1471 19.3858 59.1624C19.9024 59.3872 20.4386 59.6092 20.9833 59.8199C21.0577 59.8359 21.1228 59.8809 21.1641 59.9449C21.2054 60.009 21.2197 60.0868 21.2037 60.1613C21.1877 60.2359 21.1427 60.301 21.0787 60.3423C21.0148 60.3837 20.937 60.3979 20.8625 60.3819V60.3791ZM17.676 58.9882C17.6368 58.9882 17.5983 58.9785 17.5637 58.9601C17.0359 58.7044 16.5137 58.4318 16.0083 58.1564C15.975 58.138 15.9456 58.1131 15.9218 58.0833C15.898 58.0535 15.8803 58.0193 15.8698 57.9826C15.8592 57.946 15.856 57.9076 15.8602 57.8697C15.8645 57.8317 15.8762 57.795 15.8946 57.7616C15.9131 57.7282 15.9379 57.6988 15.9677 57.675C15.9975 57.6512 16.0317 57.6335 16.0683 57.623C16.1049 57.6124 16.1433 57.6092 16.1812 57.6134C16.219 57.6177 16.2557 57.6294 16.2891 57.6478C16.786 57.9288 17.3026 58.1874 17.822 58.4402C17.8569 58.4561 17.8882 58.4789 17.914 58.5074C17.9398 58.5358 17.9594 58.5692 17.9718 58.6056C17.9842 58.6419 17.989 58.6804 17.9859 58.7186C17.9828 58.7569 17.9719 58.7941 17.9539 58.828C17.9287 58.8824 17.8868 58.9273 17.8342 58.9561C17.7817 58.9849 17.7213 58.9962 17.662 58.9882H17.676ZM14.613 57.3219C14.5652 57.3196 14.5188 57.305 14.4782 57.2797C14.1694 57.0924 13.8634 56.8985 13.5602 56.6981C13.3749 56.5744 13.1896 56.4508 12.9987 56.3244C12.9664 56.3037 12.9388 56.2767 12.9173 56.245C12.8959 56.2132 12.8812 56.1775 12.8741 56.1398C12.867 56.1022 12.8677 56.0635 12.8761 56.0261C12.8844 55.9888 12.9004 55.9535 12.9229 55.9225C12.9435 55.8899 12.9706 55.8618 13.0025 55.8401C13.0345 55.8184 13.0705 55.8035 13.1085 55.7964C13.1464 55.7893 13.1854 55.7901 13.223 55.7987C13.2607 55.8074 13.2961 55.8237 13.3271 55.8467C13.5068 55.9703 13.6865 56.0939 13.869 56.212C14.1666 56.3993 14.467 56.5866 14.7702 56.7739C14.8392 56.7976 14.8963 56.8473 14.9294 56.9124C14.9624 56.9775 14.9689 57.0529 14.9474 57.1227C14.9258 57.1924 14.878 57.2511 14.814 57.2862C14.75 57.3213 14.6749 57.33 14.6046 57.3106L14.613 57.3219ZM11.7521 55.3549C11.6932 55.352 11.6364 55.3315 11.5893 55.2959C11.1288 54.9363 10.674 54.5597 10.2361 54.172C10.2067 54.1475 10.1827 54.1172 10.1655 54.0832C10.1483 54.0491 10.1382 54.0118 10.1358 53.9737C10.1334 53.9355 10.1389 53.8973 10.1517 53.8614C10.1646 53.8254 10.1847 53.7924 10.2108 53.7645C10.2351 53.735 10.2651 53.7107 10.299 53.6932C10.333 53.6757 10.3702 53.6653 10.4083 53.6627C10.4464 53.6601 10.4846 53.6652 10.5207 53.6779C10.5567 53.6906 10.5898 53.7105 10.6179 53.7364C11.0474 54.1129 11.4938 54.481 11.9458 54.8351C12.0017 54.8691 12.044 54.9215 12.0654 54.9834C12.0868 55.0452 12.0859 55.1126 12.063 55.1739C12.04 55.2352 11.9964 55.2866 11.9396 55.3191C11.8829 55.3516 11.8166 55.3633 11.7521 55.3521V55.3549ZM9.14112 53.062C9.07 53.0588 9.00277 53.0287 8.95301 52.9777C8.53469 52.5675 8.1276 52.1347 7.74016 51.7076C7.71472 51.6792 7.69512 51.6461 7.68248 51.6101C7.66984 51.5741 7.66441 51.5359 7.6665 51.4979C7.66858 51.4598 7.67814 51.4225 7.69464 51.3881C7.71113 51.3537 7.73423 51.3228 7.76262 51.2974C7.79101 51.2719 7.82413 51.2523 7.86009 51.2397C7.89606 51.227 7.93416 51.2216 7.97222 51.2237C8.01028 51.2257 8.04756 51.2353 8.08193 51.2518C8.1163 51.2683 8.14708 51.2915 8.17252 51.3199C8.55154 51.7442 8.9502 52.1628 9.3601 52.5675C9.38815 52.5938 9.41051 52.6255 9.4258 52.6608C9.44109 52.6961 9.44898 52.7341 9.44898 52.7726C9.44898 52.8111 9.44109 52.8491 9.4258 52.8844C9.41051 52.9197 9.38815 52.9514 9.3601 52.9777C9.3311 53.0052 9.29656 53.0262 9.2588 53.0393C9.22103 53.0524 9.18091 53.0573 9.14112 53.0536V53.062ZM6.82491 50.4713C6.78365 50.469 6.74334 50.458 6.70658 50.4392C6.66982 50.4203 6.63744 50.3939 6.61153 50.3617C6.24655 49.898 5.89561 49.4203 5.56994 48.9567C5.54745 48.9257 5.53153 48.8905 5.52315 48.8531C5.51477 48.8157 5.51411 48.7771 5.52121 48.7394C5.52831 48.7018 5.54301 48.666 5.56443 48.6343C5.58585 48.6026 5.61352 48.5755 5.64574 48.5549C5.67653 48.5322 5.7116 48.5161 5.74882 48.5075C5.78604 48.4989 5.82462 48.498 5.86221 48.5049C5.89979 48.5117 5.93558 48.5261 5.96739 48.5473C5.99921 48.5685 6.02637 48.5959 6.04722 48.6279C6.36728 49.0944 6.7098 49.5608 7.06635 50.0132C7.08936 50.0423 7.10639 50.0757 7.11645 50.1114C7.12651 50.1471 7.12941 50.1845 7.12497 50.2213C7.12053 50.2581 7.10885 50.2937 7.0906 50.326C7.07234 50.3583 7.04788 50.3867 7.01863 50.4094C6.96229 50.4494 6.89373 50.4683 6.82491 50.4628V50.4713ZM4.85964 47.6051C4.81181 47.6031 4.76529 47.5889 4.72451 47.5638C4.68372 47.5387 4.65002 47.5036 4.62661 47.4618C4.32621 46.956 4.04545 46.4362 3.78435 45.9135C3.75047 45.8446 3.74534 45.765 3.77009 45.6923C3.79483 45.6196 3.84743 45.5597 3.91631 45.5258C3.98518 45.4919 4.0647 45.4867 4.13735 45.5115C4.21001 45.5363 4.26987 45.5889 4.30375 45.6578C4.55642 46.1664 4.83156 46.6722 5.12074 47.1668C5.14122 47.1991 5.15488 47.2353 5.16088 47.2731C5.16687 47.311 5.16509 47.3496 5.15562 47.3867C5.14616 47.4238 5.12921 47.4586 5.10583 47.4889C5.08246 47.5192 5.05313 47.5444 5.01967 47.563C4.97115 47.5908 4.91542 47.6036 4.85964 47.5995V47.6051ZM3.32111 44.4805C3.266 44.4786 3.21265 44.4606 3.16772 44.4286C3.12278 44.3967 3.08825 44.3521 3.06843 44.3006C2.84664 43.7527 2.6473 43.1963 2.47324 42.64C2.46074 42.6037 2.4558 42.5652 2.45874 42.5269C2.46167 42.4886 2.47242 42.4513 2.49031 42.4174C2.5082 42.3834 2.53285 42.3535 2.56275 42.3294C2.59265 42.3054 2.62716 42.2877 2.66415 42.2775C2.70042 42.265 2.73887 42.26 2.77712 42.263C2.81537 42.2659 2.85262 42.2767 2.88656 42.2946C2.92049 42.3125 2.95041 42.3372 2.97444 42.3671C2.99848 42.397 3.01614 42.4315 3.02632 42.4686C3.19477 43.0081 3.3913 43.5504 3.60467 44.0843C3.62005 44.1194 3.6281 44.1573 3.62831 44.1956C3.62853 44.2339 3.6209 44.2719 3.60591 44.3071C3.59093 44.3424 3.56889 44.3742 3.54115 44.4007C3.51342 44.4271 3.48057 44.4476 3.44464 44.4608C3.40547 44.4766 3.36324 44.4833 3.32111 44.4805ZM2.28794 41.1648C2.22186 41.166 2.15748 41.1438 2.10612 41.1022C2.05477 41.0605 2.01973 41.0021 2.00719 40.9371C1.87804 40.3752 1.77697 39.7766 1.70117 39.2006C1.69619 39.1628 1.69871 39.1244 1.70857 39.0875C1.71843 39.0507 1.73545 39.0161 1.75865 38.9858C1.78186 38.9556 1.81079 38.9302 1.8438 38.9111C1.87681 38.892 1.91325 38.8796 1.95104 38.8747C1.98883 38.8697 2.02723 38.8722 2.06405 38.8821C2.10087 38.8919 2.13538 38.909 2.16562 38.9322C2.19587 38.9554 2.22124 38.9844 2.2403 39.0174C2.25936 39.0504 2.27173 39.0869 2.27671 39.1247C2.34971 39.6867 2.44797 40.2487 2.5715 40.8107C2.581 40.8478 2.5828 40.8865 2.5768 40.9244C2.57081 40.9623 2.55713 40.9985 2.53662 41.0309C2.5161 41.0632 2.48919 41.0911 2.45753 41.1126C2.42587 41.1342 2.39013 41.1491 2.35251 41.1563C2.33128 41.161 2.30967 41.1638 2.28794 41.1648ZM1.84154 37.7198C1.76708 37.7198 1.69567 37.6902 1.64302 37.6375C1.59037 37.5848 1.56079 37.5133 1.56079 37.4388C1.56079 37.1044 1.56079 36.7616 1.56079 36.4244C1.56079 36.1715 1.59729 35.9158 1.62536 35.6629C1.62769 35.6224 1.63876 35.5828 1.65781 35.547C1.67686 35.5112 1.70345 35.4799 1.73573 35.4553C1.76801 35.4308 1.80523 35.4135 1.84482 35.4047C1.88441 35.3959 1.92544 35.3958 1.96508 35.4044C2.00333 35.4074 2.04056 35.4183 2.07445 35.4364C2.10834 35.4544 2.13818 35.4792 2.16212 35.5092C2.18606 35.5392 2.2036 35.5738 2.21365 35.6109C2.2237 35.648 2.22606 35.6867 2.22056 35.7247C2.19248 35.9664 2.17283 36.2108 2.1616 36.4525C2.14195 36.7756 2.13914 37.1016 2.1616 37.4219C2.1639 37.4602 2.15834 37.4986 2.14527 37.5346C2.13219 37.5707 2.11188 37.6037 2.08557 37.6316C2.05927 37.6595 2.02754 37.6817 1.99233 37.6969C1.95712 37.7121 1.91918 37.7198 1.88085 37.7198H1.84154ZM2.22898 34.2748H2.17283C2.13466 34.2665 2.09864 34.2503 2.06709 34.2272C2.03553 34.2041 2.00913 34.1747 1.98958 34.1409C1.97002 34.107 1.95774 34.0695 1.95352 34.0306C1.9493 33.9917 1.95324 33.9524 1.96508 33.9151C2.10975 33.3432 2.28787 32.7802 2.49851 32.2292C2.51196 32.1935 2.5323 32.1609 2.55834 32.1332C2.58439 32.1055 2.61564 32.0831 2.65032 32.0675C2.68499 32.0518 2.72241 32.0431 2.76043 32.042C2.79845 32.0408 2.83633 32.0471 2.87191 32.0606C2.90749 32.074 2.94006 32.0944 2.96779 32.1205C2.99551 32.1465 3.01782 32.1778 3.03347 32.2125C3.04911 32.2472 3.05777 32.2847 3.05895 32.3227C3.06013 32.3608 3.05382 32.3987 3.04036 32.4343C2.83755 32.9642 2.66599 33.5056 2.52658 34.0556C2.51187 34.122 2.47361 34.1808 2.41888 34.2211C2.36416 34.2614 2.29669 34.2805 2.22898 34.2748ZM3.45587 31.0209C3.41573 31.0189 3.37648 31.0084 3.34076 30.99C3.3057 30.9739 3.27433 30.9507 3.2486 30.922C3.22288 30.8932 3.20334 30.8595 3.19123 30.8228C3.17911 30.7862 3.17467 30.7474 3.17817 30.709C3.18168 30.6705 3.19307 30.6332 3.21162 30.5994C3.46991 30.088 3.77312 29.571 4.07914 29.0624C4.1201 28.9972 4.18525 28.9509 4.26028 28.9338C4.33531 28.9166 4.41406 28.93 4.47922 28.971C4.54437 29.012 4.59058 29.0772 4.6077 29.1523C4.62481 29.2274 4.61141 29.3062 4.57046 29.3715C4.26163 29.866 3.97807 30.3662 3.7282 30.8607C3.7041 30.9117 3.66524 30.9542 3.61668 30.9828C3.56811 31.0113 3.51208 31.0246 3.45587 31.0209ZM5.28919 28.0705C5.23259 28.0667 5.17816 28.0472 5.13197 28.0143C5.10021 27.9923 5.07333 27.964 5.05299 27.9312C5.03265 27.8983 5.0193 27.8616 5.01377 27.8234C5.00824 27.7852 5.01064 27.7462 5.02083 27.7089C5.03103 27.6717 5.04879 27.6369 5.07301 27.6068C5.41272 27.1488 5.78051 26.6852 6.16794 26.2299C6.21783 26.1714 6.2889 26.1352 6.36551 26.1291C6.44211 26.1231 6.51799 26.1477 6.57644 26.1976C6.63489 26.2476 6.67113 26.3187 6.67719 26.3954C6.68324 26.472 6.65861 26.548 6.60873 26.6065C6.22971 27.0504 5.87035 27.5028 5.53906 27.9524C5.51177 27.993 5.47436 28.0258 5.43054 28.0475C5.38671 28.0692 5.33799 28.079 5.28919 28.0761V28.0705ZM7.53521 25.4179C7.46585 25.4155 7.39984 25.3874 7.34991 25.3392C7.32186 25.3129 7.2995 25.2811 7.28421 25.2459C7.26893 25.2106 7.26104 25.1725 7.26104 25.1341C7.26104 25.0956 7.26893 25.0576 7.28421 25.0223C7.2995 24.987 7.32186 24.9552 7.34991 24.9289C7.74858 24.5159 8.16971 24.086 8.60207 23.6982C8.62972 23.6724 8.66219 23.6522 8.69761 23.639C8.73303 23.6257 8.77072 23.6195 8.80852 23.6208C8.84633 23.6221 8.8835 23.6309 8.91793 23.6466C8.95235 23.6622 8.98335 23.6846 9.00916 23.7122C9.03497 23.7399 9.05508 23.7724 9.06834 23.8079C9.0816 23.8433 9.08776 23.881 9.08645 23.9189C9.08515 23.9567 9.07641 23.9939 9.06074 24.0284C9.04507 24.0628 9.02278 24.0939 8.99512 24.1197C8.57119 24.5187 8.15287 24.9233 7.76824 25.3308C7.73983 25.3625 7.70459 25.3873 7.6652 25.4033C7.6258 25.4194 7.58327 25.4263 7.54083 25.4235L7.53521 25.4179ZM10.062 23.0435C10.0224 23.0416 9.98372 23.0314 9.9484 23.0134C9.91308 22.9955 9.88194 22.9703 9.85704 22.9395C9.83147 22.911 9.81199 22.8776 9.79978 22.8413C9.78757 22.8051 9.78291 22.7667 9.78606 22.7285C9.78922 22.6904 9.80013 22.6533 9.81813 22.6195C9.83612 22.5857 9.86083 22.5559 9.89073 22.5321C10.3315 22.1612 10.7891 21.7902 11.2524 21.4306C11.2821 21.406 11.3165 21.3879 11.3535 21.3773C11.3905 21.3666 11.4293 21.3637 11.4675 21.3687C11.5057 21.3737 11.5424 21.3865 11.5755 21.4064C11.6085 21.4262 11.6371 21.4526 11.6595 21.484C11.684 21.5137 11.7021 21.5481 11.7127 21.5852C11.7234 21.6222 11.7263 21.6611 11.7213 21.6993C11.7163 21.7375 11.7035 21.7743 11.6837 21.8073C11.6638 21.8404 11.6375 21.869 11.6061 21.8914C11.1513 22.2426 10.6993 22.6079 10.2669 22.976C10.2143 23.021 10.148 23.0467 10.0788 23.0491L10.062 23.0435ZM12.8134 20.9192C12.7698 20.917 12.7273 20.9047 12.6893 20.8833C12.6513 20.8618 12.6188 20.8318 12.5944 20.7955C12.571 20.765 12.5542 20.73 12.5449 20.6927C12.5356 20.6553 12.5341 20.6165 12.5404 20.5786C12.5467 20.5407 12.5608 20.5044 12.5816 20.4721C12.6025 20.4399 12.6298 20.4122 12.6618 20.3909C13.1362 20.0565 13.6247 19.7278 14.1161 19.413C14.1479 19.3926 14.1836 19.3786 14.2209 19.3719C14.2581 19.3652 14.2964 19.3659 14.3334 19.374C14.3704 19.382 14.4055 19.3974 14.4366 19.419C14.4677 19.4407 14.4943 19.4682 14.5147 19.5001C14.5352 19.5321 14.5492 19.5677 14.5559 19.605C14.5626 19.6424 14.5619 19.6806 14.5538 19.7177C14.5457 19.7547 14.5304 19.7898 14.5088 19.821C14.4871 19.8521 14.4596 19.8787 14.4277 19.8992C13.9448 20.2111 13.4619 20.537 12.9959 20.8658C12.9484 20.9027 12.8903 20.9234 12.8302 20.9248L12.8134 20.9192Z" fill="white"/>
<path d="M99.333 95.9554C99.333 95.9554 78.9111 100.673 53.7219 100.673C28.5328 100.673 8.11084 95.9554 8.11084 95.9554C8.11084 95.9554 28.5328 91.2375 53.7219 91.2375C78.9111 91.2375 99.333 95.9554 99.333 95.9554Z" fill="#E0E0E0" fill-opacity="0.5"/>
<path d="M91.096 42.0273H59.2587C57.1437 42.0273 55.4292 43.7433 55.4292 45.8601V91.3164C55.4292 93.4332 57.1437 95.1492 59.2587 95.1492H91.096C93.211 95.1492 94.9255 93.4332 94.9255 91.3164V45.8601C94.9255 43.7433 93.211 42.0273 91.096 42.0273Z" fill="#D8761D"/>
<path d="M63.4026 60.823C72.3867 53.8459 83.8779 50.5499 94.9227 51.7244V45.8601C94.9227 44.8441 94.5196 43.8696 93.8021 43.1509C93.0845 42.4322 92.1112 42.0281 91.096 42.0273H59.2587C58.243 42.0273 57.269 42.4312 56.5508 43.1499C55.8327 43.8687 55.4292 44.8436 55.4292 45.8601V71.3265C56.9761 67.0948 59.823 63.5571 63.4026 60.823Z" fill="#E88636"/>
<path d="M65.4996 95.152H59.5981V96.453H65.4996V95.152Z" fill="#282F39"/>
<path d="M90.7559 95.152H84.8545V96.453H90.7559V95.152Z" fill="#282F39"/>
<path d="M62.9336 62.4498H87.4181C88.3027 62.4498 89.151 62.8015 89.7765 63.4276C90.402 64.0536 90.7534 64.9027 90.7534 65.788V95.1519H59.5898V65.7908C59.5898 65.3516 59.6764 64.9167 59.8445 64.511C60.0126 64.1053 60.259 63.7367 60.5695 63.4264C60.8801 63.1161 61.2488 62.8701 61.6544 62.7025C62.0601 62.535 62.4948 62.4491 62.9336 62.4498Z" fill="#8E3D00"/>
<path d="M63.2958 63.0709H87.0559C87.875 63.0709 88.6605 63.3966 89.2397 63.9762C89.8188 64.5559 90.1442 65.3421 90.1442 66.1619V95.152H60.2131V66.145C60.2176 65.3291 60.5441 64.5481 61.1216 63.9722C61.6991 63.3964 62.4806 63.0724 63.2958 63.0709Z" fill="#AF550B"/>
<path d="M86.9772 68.1598H63.3743C63.3427 68.1602 63.3114 68.1543 63.2821 68.1425C63.2528 68.1306 63.2262 68.1131 63.2037 68.0909C63.1813 68.0687 63.1634 68.0422 63.1513 68.013C63.1391 67.9839 63.1328 67.9526 63.1328 67.921C63.1325 67.8892 63.1384 67.8576 63.1504 67.8281C63.1624 67.7986 63.1802 67.7718 63.2027 67.7493C63.2252 67.7268 63.252 67.709 63.2814 67.697C63.3109 67.685 63.3425 67.679 63.3743 67.6793H86.9772C87.009 67.679 87.0405 67.685 87.07 67.697C87.0995 67.709 87.1262 67.7268 87.1487 67.7493C87.1712 67.7718 87.189 67.7986 87.201 67.8281C87.213 67.8576 87.219 67.8892 87.2186 67.921C87.2186 67.9526 87.2123 67.9839 87.2002 68.013C87.188 68.0422 87.1702 68.0687 87.1477 68.0909C87.1253 68.1131 87.0986 68.1306 87.0693 68.1425C87.0401 68.1543 87.0087 68.1602 86.9772 68.1598Z" fill="#D3D3D3"/>
<path d="M64.2644 67.9208H63.731L63.6439 68.9099C63.6375 68.9609 63.6421 69.0127 63.6572 69.0618C63.6724 69.1109 63.6978 69.1562 63.7317 69.1948C63.7657 69.2333 63.8075 69.2642 63.8543 69.2853C63.9011 69.3065 63.9519 69.3174 64.0033 69.3174C64.0546 69.3174 64.1054 69.3065 64.1522 69.2853C64.199 69.2642 64.2408 69.2333 64.2748 69.1948C64.3088 69.1562 64.3342 69.1109 64.3493 69.0618C64.3645 69.0127 64.369 68.9609 64.3626 68.9099L64.2644 67.9208ZM64.183 68.4153H63.8011V68.0613H64.183V68.4153Z" fill="#E5E5E5"/>
<path d="M63.9919 68.2751C63.9809 68.2751 63.9699 68.2729 63.9597 68.2686C63.9495 68.2644 63.9402 68.2582 63.9324 68.2504C63.9246 68.2425 63.9184 68.2333 63.9141 68.223C63.9099 68.2128 63.9077 68.2018 63.9077 68.1908V67.8648C63.9084 67.8429 63.9176 67.8222 63.9334 67.807C63.9491 67.7918 63.9701 67.7833 63.9919 67.7833C64.0138 67.7833 64.0348 67.7918 64.0505 67.807C64.0663 67.8222 64.0754 67.8429 64.0762 67.8648V68.1908C64.0762 68.2131 64.0673 68.2346 64.0515 68.2504C64.0357 68.2662 64.0143 68.2751 63.9919 68.2751Z" fill="#BCB7B3"/>
<path d="M89.2569 47.3887H61.0974C60.2694 47.3887 59.5981 48.0605 59.5981 48.8892V53.8122C59.5981 54.6409 60.2694 55.3127 61.0974 55.3127H89.2569C90.0849 55.3127 90.7561 54.6409 90.7561 53.8122V48.8892C90.7561 48.0605 90.0849 47.3887 89.2569 47.3887Z" fill="#8E3D00"/>
<path d="M89.2065 47.9814H61.148C60.6317 47.9814 60.2131 48.4004 60.2131 48.9172V53.784C60.2131 54.3007 60.6317 54.7197 61.148 54.7197H89.2065C89.7228 54.7197 90.1414 54.3007 90.1414 53.784V48.9172C90.1414 48.4004 89.7228 47.9814 89.2065 47.9814Z" fill="#AF550B"/>
<path d="M86.9772 51.0191H63.3743C63.3425 51.0195 63.3109 51.0135 63.2814 51.0015C63.252 50.9895 63.2252 50.9717 63.2027 50.9491C63.1802 50.9266 63.1624 50.8998 63.1504 50.8704C63.1384 50.8409 63.1325 50.8093 63.1328 50.7774C63.1328 50.7458 63.1391 50.7145 63.1513 50.6854C63.1634 50.6562 63.1813 50.6298 63.2037 50.6075C63.2262 50.5853 63.2528 50.5678 63.2821 50.556C63.3114 50.5441 63.3427 50.5382 63.3743 50.5386H86.9772C87.0087 50.5382 87.0401 50.5441 87.0693 50.556C87.0986 50.5678 87.1253 50.5853 87.1477 50.6075C87.1702 50.6298 87.188 50.6562 87.2002 50.6854C87.2123 50.7145 87.2186 50.7458 87.2186 50.7774C87.219 50.8093 87.213 50.8409 87.201 50.8704C87.189 50.8998 87.1712 50.9266 87.1487 50.9491C87.1262 50.9717 87.0995 50.9895 87.07 51.0015C87.0405 51.0135 87.009 51.0195 86.9772 51.0191Z" fill="#D3D3D3"/>
<path d="M64.2644 50.7775H63.731L63.6439 51.7694C63.6375 51.8204 63.6421 51.8722 63.6572 51.9213C63.6724 51.9704 63.6978 52.0157 63.7317 52.0543C63.7657 52.0928 63.8075 52.1237 63.8543 52.1448C63.9011 52.166 63.9519 52.1769 64.0033 52.1769C64.0546 52.1769 64.1054 52.166 64.1522 52.1448C64.199 52.1237 64.2408 52.0928 64.2748 52.0543C64.3088 52.0157 64.3342 51.9704 64.3493 51.9213C64.3645 51.8722 64.369 51.8204 64.3626 51.7694L64.2644 50.7775ZM64.183 51.2748H63.8011V50.9208H64.183V51.2748Z" fill="#E5E5E5"/>
<path d="M63.9919 51.1343C63.9698 51.1336 63.9488 51.1245 63.9332 51.1089C63.9175 51.0932 63.9084 51.0722 63.9077 51.05V50.7241C63.9077 50.713 63.9099 50.702 63.9141 50.6918C63.9184 50.6816 63.9246 50.6723 63.9324 50.6645C63.9402 50.6566 63.9495 50.6504 63.9597 50.6462C63.9699 50.6419 63.9809 50.6398 63.9919 50.6398C64.0143 50.6398 64.0357 50.6486 64.0515 50.6645C64.0673 50.6803 64.0762 50.7017 64.0762 50.7241V51.05C64.0755 51.0722 64.0664 51.0932 64.0507 51.1089C64.0351 51.1245 64.0141 51.1336 63.9919 51.1343Z" fill="#BCB7B3"/>
<path d="M55.4261 84.9434H54.0645V87.7336H55.4261V84.9434Z" fill="#282F39"/>
<path d="M55.4261 49.4454H54.0645V52.2357H55.4261V49.4454Z" fill="#282F39"/>
<path d="M94.9226 63.9841V65.6336C95.282 65.6336 95.574 66.2489 95.574 67.0048V70.1744C95.574 70.9303 95.2932 71.5457 94.9226 71.5457V73.1951C95.7143 73.1951 96.3572 71.8435 96.3572 70.1744V67.0048C96.3572 65.3385 95.7143 63.9841 94.9226 63.9841Z" fill="#282F39"/>
<path d="M86.0817 23.2878C86.0817 22.6332 85.9529 21.985 85.7026 21.3802C85.4523 20.7754 85.0854 20.2259 84.6229 19.763C84.1604 19.3001 83.6114 18.9329 83.0071 18.6824C82.4029 18.4319 81.7552 18.303 81.1012 18.303H69.346C68.0251 18.303 66.7583 18.8282 65.8243 19.763C64.8902 20.6978 64.3655 21.9657 64.3655 23.2878V25.7549H67.2713V24.128C67.2713 23.3686 67.5727 22.6403 68.1092 22.1033C68.6457 21.5663 69.3734 21.2646 70.1321 21.2646H80.315C81.0733 21.2654 81.8003 21.5674 82.3362 22.1043C82.8721 22.6412 83.1731 23.3691 83.1731 24.128V25.7549H86.0789L86.0817 23.2878Z" fill="#282F39"/>
<path d="M85.492 25.7548H83.7092V42.0271H85.492V25.7548Z" fill="#D3D3D3"/>
<path d="M66.7406 25.7548H64.9578V42.0271H66.7406V25.7548Z" fill="#D3D3D3"/>
<path d="M85.492 25.7548H83.7092V27.8566H85.492V25.7548Z" fill="#BCB7B3"/>
<path d="M66.7406 25.7548H64.9578V27.8566H66.7406V25.7548Z" fill="#BCB7B3"/>
<path d="M32.2614 38.8888L26.5761 43.9045L19.0912 43.3257L13.4172 48.3498L20.2143 69.5733L26.1662 65.4286L33.3591 65.128L39.3279 60.9833L46.5236 60.6827L39.7406 39.4508L32.2614 38.8888Z" fill="#D82C28"/>
<path d="M19.0069 44.3511L25.4642 64.5489L20.5286 67.977L14.3071 48.5042L19.0069 44.3511Z" fill="white"/>
<path d="M26.9159 44.9636L33.0728 64.2314L25.4644 64.5489L19.0071 44.3511L26.9159 44.9636Z" fill="#C0C9C8"/>
<path d="M32.9295 39.6501L39.384 59.848L33.0727 64.2315L26.9158 44.9637L32.9295 39.6501Z" fill="white"/>
<path d="M39.1116 40.1278L45.3359 59.5979L39.384 59.848L32.9294 39.6501L39.1116 40.1278Z" fill="#C0C9C8"/>
<path d="M16.3818 52.1459L17.7435 49.7238L19.9249 49.9682L21.1294 49.2349L20.902 48.5211L19.9811 47.8327L20.4556 46.4671L24.7427 45.8433L25.773 46.9785L25.3715 47.5939L23.9678 47.0375L22.5752 48.0575L22.0278 48.8639L22.3029 49.2854L23.7151 50.0835L23.9257 48.7712L25.2817 48.6251L25.5989 49.0691L25.4249 50.0582L26.4552 50.3279L27.202 51.4547L26.4524 52.2921L25.3912 52.4775L24.5321 54.8351L22.9739 55.4982L22.9599 56.6053L23.8723 57.1589L24.3805 56.3328L28.1426 56.3721L29.2487 57.8557L27.9573 59.6344L28.5833 61.6969L29.5239 62.4472L29.0943 62.9698L26.0285 62.1465L25.1329 59.4546L23.6561 59.331L23.2687 58.1199L21.966 57.0099L21.5 54.8941L19.6554 54.2787L19.3269 51.6008L18.4454 51.036L17.1202 52.3792L16.3818 52.1459Z" fill="#59A6EC"/>
<path d="M28.8811 53.0869L28.1146 54.3036L29.1618 56.6021L30.6442 57.0658L32.7807 55.9643L34.4315 58.7152L35.8858 59.9797L36.6776 59.7099L36.3575 55.2056L34.673 53.2246L35.1839 52.2945L34.0778 51.578L35.2794 49.3019L37.2194 49.7824L38.0645 50.2292L38.4379 51.4038L39.6367 51.755L39.6704 51.0891L38.7327 50.7856L38.7776 48.2932L36.978 46.8348L38.1824 45.1179L37.0004 43.727L37.3289 42.4457L36.394 41.3835L32.5645 42.0214L30.88 44.3143L28.0528 45.7839L27.3369 48.4702L28.7547 49.9538L30.0321 50.7631L31.0625 49.8302L31.391 50.8558L31.2225 52.2945L29.9395 51.8983L28.8811 53.0869Z" fill="#59A6EC"/>
<path d="M38.9853 54.8687L37.7444 55.7117L37.4468 57.0857L38.3592 57.7433L39.2941 56.9452L40.1925 57.1223L40.7175 56.5603L41.5598 57.3105L41.9781 56.8609L40.7821 55.737C40.7821 55.737 41.5317 54.7956 41.47 54.7113C41.4082 54.627 40.4059 53.7981 40.4059 53.7981L39.5215 54.0959L39.6086 55.0317L38.9853 54.8687Z" fill="#59A6EC"/>
<g style="mix-blend-mode:multiply" opacity="0.5">
<g style="mix-blend-mode:multiply" opacity="0.5">
<path d="M22.9742 55.4984L22.9601 56.6056L23.8726 57.1591L24.3779 56.333L28.1428 56.3723L29.249 57.856L27.9575 59.6347L28.5836 61.6972L29.5241 62.4474L29.0946 62.9701L26.0259 62.1467L25.1331 59.4548L23.7996 59.3452L20.6607 49.5217L21.1296 49.2351L20.8994 48.5186L20.1638 47.9706L20.0515 47.6222L20.4558 46.4673L24.7429 45.8463L25.7704 46.9759L25.3718 47.5969L23.968 47.0377L22.5755 48.0577L22.0252 48.8614L22.3032 49.2857L23.7153 50.0837L23.9259 48.7715L25.2791 48.6253L25.5992 49.0693L25.4223 50.0584L26.4555 50.3282L27.2023 51.4521L26.4527 52.2923L25.3914 52.4778L24.5295 54.8353L22.9742 55.4984Z" fill="#59A6EC"/>
</g>
<g style="mix-blend-mode:multiply" opacity="0.5">
<path d="M38.1852 45.1267L36.9807 46.8436L38.7804 48.302L38.7354 50.7972L39.6732 51.0979L39.6395 51.7638L38.4406 51.4098L38.0672 50.238L37.2222 49.7912L36.0795 49.5074L33.6313 41.8532L36.3968 41.3923L37.3317 42.4545L37.0032 43.7358L38.1852 45.1267Z" fill="#59A6EC"/>
</g>
<g style="mix-blend-mode:multiply" opacity="0.5">
<path d="M40.7768 55.7484L41.9728 56.8724L41.5545 57.322L40.7122 56.5717L40.1872 57.1337L39.2888 56.9567L38.6262 57.5187L37.9973 55.5517L38.9799 54.8942L39.5948 55.0656L39.5078 54.1299L40.3921 53.832C40.3921 53.832 41.3944 54.675 41.4562 54.7453C41.518 54.8155 40.7768 55.7484 40.7768 55.7484Z" fill="#59A6EC"/>
</g>
</g>
<path d="M18.8723 48.9648C18.7716 49.0116 18.6811 49.0779 18.6061 49.1598C18.5311 49.2417 18.473 49.3377 18.4352 49.4421C18.3974 49.5466 18.3805 49.6575 18.3857 49.7685C18.3908 49.8794 18.4178 49.9883 18.4652 50.0888C18.6589 50.5019 19.9644 51.2634 19.9644 51.2634C19.9644 51.2634 20.189 49.7544 19.9925 49.3414C19.8925 49.144 19.719 48.9939 19.5094 48.9235C19.2998 48.8531 19.071 48.8679 18.8723 48.9648ZM19.4983 50.2799C19.4249 50.3186 19.3445 50.342 19.2618 50.3488C19.1792 50.3556 19.096 50.3455 19.0173 50.3193C18.9386 50.293 18.866 50.2511 18.804 50.196C18.7419 50.141 18.6916 50.0739 18.6561 49.9989C18.6197 49.9238 18.5988 49.8422 18.5944 49.7588C18.59 49.6755 18.6023 49.5921 18.6305 49.5136C18.6587 49.435 18.7024 49.363 18.7588 49.3015C18.8153 49.2401 18.8834 49.1906 18.9593 49.1559C19.0327 49.1172 19.1131 49.0938 19.1958 49.087C19.2784 49.0803 19.3616 49.0903 19.4403 49.1166C19.519 49.1428 19.5916 49.1847 19.6537 49.2398C19.7157 49.2948 19.766 49.3619 19.8015 49.4369C19.8375 49.5121 19.8582 49.5937 19.8624 49.6769C19.8666 49.7602 19.8542 49.8434 19.826 49.9218C19.7978 50.0003 19.7543 50.0723 19.698 50.1338C19.6418 50.1952 19.5739 50.2449 19.4983 50.2799Z" fill="#D82C28"/>
<path d="M32.236 47.4558C32.1353 47.5026 32.0449 47.5689 31.9699 47.6508C31.8949 47.7327 31.8368 47.8286 31.799 47.9331C31.7611 48.0375 31.7443 48.1484 31.7494 48.2594C31.7546 48.3704 31.7816 48.4793 31.8289 48.5798C32.0227 48.9928 33.3282 49.7543 33.3282 49.7543C33.3282 49.7543 33.5528 48.2454 33.3562 47.8323C33.2562 47.635 33.0827 47.4849 32.8732 47.4145C32.6636 47.344 32.4348 47.3589 32.236 47.4558ZM32.8621 48.7709C32.7887 48.8096 32.7083 48.833 32.6256 48.8398C32.5429 48.8465 32.4598 48.8365 32.3811 48.8102C32.3024 48.784 32.2298 48.7421 32.1677 48.687C32.1057 48.632 32.0554 48.5649 32.0198 48.4899C31.9835 48.4148 31.9625 48.3331 31.9581 48.2498C31.9537 48.1664 31.966 48.0831 31.9943 48.0045C32.0225 47.926 32.0661 47.8539 32.1226 47.7925C32.1791 47.7311 32.2472 47.6816 32.3231 47.6469C32.3958 47.6104 32.475 47.5888 32.5562 47.5832C32.6373 47.5776 32.7188 47.5882 32.7958 47.6143C32.8728 47.6404 32.9439 47.6816 33.0049 47.7354C33.0659 47.7893 33.1157 47.8547 33.1513 47.9279C33.1877 48.0022 33.2091 48.083 33.2143 48.1656C33.2195 48.2483 33.2083 48.3311 33.1814 48.4094C33.1546 48.4877 33.1125 48.56 33.0577 48.622C33.0029 48.684 32.9365 48.7346 32.8621 48.7709Z" fill="#D82C28"/>
<path d="M25.5851 57.08C25.4845 57.1268 25.394 57.1931 25.319 57.275C25.244 57.3569 25.1859 57.4528 25.1481 57.5573C25.1102 57.6617 25.0934 57.7726 25.0986 57.8836C25.1037 57.9946 25.1307 58.1035 25.1781 58.204C25.3746 58.6171 26.6773 59.3785 26.6773 59.3785C26.6773 59.3785 26.9019 57.8724 26.7053 57.4594C26.6059 57.2615 26.4326 57.1108 26.2229 57.0398C26.0133 56.9688 25.7842 56.9833 25.5851 57.08ZM26.2112 58.3951C26.1379 58.4342 26.0574 58.4579 25.9747 58.4649C25.8919 58.4719 25.8086 58.4619 25.7298 58.4356C25.651 58.4093 25.5784 58.3673 25.5163 58.312C25.4543 58.2567 25.4042 58.1894 25.369 58.1141C25.3008 57.9637 25.2943 57.7926 25.351 57.6375C25.4078 57.4824 25.5231 57.3559 25.6722 57.2851C25.7455 57.246 25.826 57.2223 25.9087 57.2153C25.9915 57.2083 26.0748 57.2183 26.1536 57.2446C26.2324 57.2709 26.305 57.3129 26.3671 57.3682C26.4291 57.4235 26.4792 57.4908 26.5144 57.5661C26.5826 57.7165 26.5891 57.8877 26.5323 58.0427C26.4756 58.1978 26.3603 58.3243 26.2112 58.3951Z" fill="#D82C28"/>
<path d="M42.2723 54.3495L39.9766 60.7526L54.5978 66.0037L56.8935 59.6006L42.2723 54.3495Z" fill="#FFF8E1"/>
<path d="M54.0411 64.4333L44.9824 61.1799L44.8753 61.4788L53.9339 64.7322L54.0411 64.4333Z" fill="#C5CED7"/>
<path d="M54.2889 63.7331L45.2302 60.4797L45.1231 60.7786L54.1817 64.032L54.2889 63.7331Z" fill="#C5CED7"/>
<path d="M54.5418 63.0307L45.4832 59.7773L45.376 60.0762L54.4346 63.3296L54.5418 63.0307Z" fill="#C5CED7"/>
<path d="M42.274 54.3501L39.9783 60.7532L43.9844 62.192L46.2801 55.7889L42.274 54.3501Z" fill="#689F38"/>
<path d="M40.9585 60.2932L42.1576 60.7239L42.0495 61.0252L41.6305 60.8747L41.237 61.9723L40.8719 61.8412L41.2654 60.7436L40.8504 60.5945L40.9585 60.2932ZM42.3057 60.7771L42.6709 60.9082L42.1693 62.3071L41.8042 62.176L42.3057 60.7771ZM40.909 63.9991C40.8842 63.9257 40.8466 63.8611 40.796 63.8054C40.7459 63.7484 40.6902 63.7088 40.629 63.6869C40.5586 63.6615 40.4876 63.6563 40.4162 63.6712C40.3466 63.6853 40.284 63.7176 40.2283 63.7682C40.1731 63.8174 40.1319 63.88 40.1047 63.9558C40.0775 64.0317 40.0693 64.1068 40.0802 64.1813C40.0915 64.2544 40.1193 64.3192 40.1636 64.3757C40.2097 64.4313 40.2681 64.4718 40.3386 64.4971C40.3958 64.5176 40.4609 64.5245 40.5339 64.5177C40.6069 64.5109 40.6771 64.491 40.7444 64.4581L40.8756 64.7643C40.7712 64.8169 40.6578 64.8483 40.5356 64.8584C40.4151 64.8677 40.3037 64.854 40.2013 64.8172C40.0629 64.7675 39.9493 64.6907 39.8605 64.5867C39.7717 64.4827 39.7151 64.364 39.6909 64.2307C39.6666 64.0973 39.679 63.9621 39.7282 63.8251C39.7768 63.6894 39.8533 63.5787 39.9576 63.493C40.0619 63.4073 40.1818 63.3535 40.3173 63.3316C40.4541 63.3102 40.593 63.3248 40.734 63.3754C40.8377 63.4127 40.9323 63.4714 41.0176 63.5516C41.1034 63.6305 41.1683 63.7198 41.212 63.8197L40.909 63.9991ZM39.8984 67.8668L39.4614 67.7098L39.2889 67.0352L39.0432 67.1677L38.9187 67.5149L38.5536 67.3838L39.0552 65.9849L39.4203 66.116L39.2028 66.7227L39.945 66.3045L40.368 66.4564L39.6425 66.8468L39.8984 67.8668ZM38.0427 68.8088L39.146 69.2051L39.0416 69.4965L38.3034 69.2313L38.2096 69.4928L38.876 69.7321L38.7723 70.0215L38.1052 69.7841L38.0107 70.0475L38.7689 70.3198L38.6644 70.6112L37.5411 70.2078L38.0427 68.8088ZM39.2674 69.2487L40.4665 69.6793L40.3585 69.9807L39.9395 69.8302L39.5459 70.9278L39.1808 70.7966L39.5743 69.6991L39.1593 69.55L39.2674 69.2487ZM37.8429 72.4C37.7842 72.3293 37.7172 72.2648 37.6421 72.2062C37.5683 72.1482 37.5029 72.1089 37.4457 72.0884C37.4004 72.0721 37.3614 72.0679 37.3286 72.0756C37.2976 72.0825 37.2764 72.1019 37.2649 72.1339C37.254 72.1645 37.256 72.1945 37.271 72.2239C37.2864 72.2519 37.3084 72.2786 37.3369 72.3039C37.3658 72.3278 37.4093 72.3614 37.4674 72.4048C37.5544 72.4676 37.6242 72.5242 37.6767 72.5746C37.7306 72.6254 37.7696 72.6883 37.7938 72.7631C37.8185 72.8365 37.8142 72.9198 37.7808 73.0129C37.7474 73.1061 37.6942 73.177 37.6211 73.2259C37.5485 73.2734 37.4631 73.2983 37.3647 73.3005C37.2676 73.3032 37.1666 73.2856 37.0615 73.2479C36.9457 73.2063 36.8372 73.1448 36.7358 73.0633C36.6362 72.981 36.5571 72.8895 36.4986 72.7889L36.7426 72.5544C36.7906 72.6423 36.8554 72.7234 36.9369 72.7977C37.0197 72.8725 37.0983 72.9232 37.1728 72.95C37.2273 72.9696 37.2735 72.9749 37.3112 72.9659C37.3503 72.9574 37.3767 72.9339 37.3906 72.8953C37.402 72.8634 37.3996 72.8325 37.3833 72.8026C37.3683 72.7732 37.345 72.746 37.3134 72.7212C37.2836 72.6954 37.2398 72.6625 37.1822 72.6222C37.096 72.5612 37.0264 72.5062 36.9734 72.4571C36.9209 72.4067 36.8818 72.3461 36.8561 72.2754C36.8323 72.2037 36.8368 72.122 36.8697 72.0302C36.9007 71.9437 36.9505 71.876 37.0191 71.8271C37.089 71.7786 37.1721 71.7521 37.2683 71.7476C37.3663 71.7423 37.4712 71.7597 37.5829 71.7998C37.684 71.8361 37.7785 71.8866 37.8665 71.9512C37.9549 72.0145 38.0277 72.0834 38.0851 72.1581L37.8429 72.4Z" fill="#FFF8E1"/>
<path d="M44.6588 66.8177L41.2949 65.6096L39.788 67.4342L38.6961 67.042L44.6414 60.1125L45.5679 60.4452L45.7602 69.5791L44.6738 69.1889L44.6588 66.8177ZM41.9272 64.853L44.6569 65.8333L44.636 61.586L41.9272 64.853ZM47.977 70.3752L46.9182 69.995L49.7975 61.9643L50.8563 62.3445L47.977 70.3752ZM38.8582 78.3088L36.9723 77.6314L35.8075 80.8801L34.7432 80.4979L37.6225 72.4672L40.2805 73.4218C41.1848 73.7466 41.8058 74.202 42.1435 74.7882C42.4848 75.3756 42.5143 76.0628 42.2322 76.8497C42.0529 77.3497 41.7607 77.7366 41.3555 78.0103C40.9539 78.2853 40.4794 78.4282 39.9319 78.4391L40.5958 82.5251L40.572 82.5913L39.436 82.1833L38.8582 78.3088ZM37.2827 76.7655L38.9095 77.3497C39.4352 77.5385 39.9013 77.5524 40.3076 77.3912C40.7177 77.2313 41.0044 76.9234 41.1679 76.4674C41.3459 75.971 41.3334 75.537 41.1306 75.1653C40.9314 74.7949 40.5531 74.5075 39.9956 74.3031L38.3743 73.7209L37.2827 76.7655ZM43.894 80.2356L42.7668 83.3795L41.708 82.9993L44.5873 74.9686L47.5486 76.0321C48.4272 76.3477 49.0343 76.8189 49.3697 77.4457C49.7089 78.0739 49.746 78.7575 49.481 79.4966C49.2015 80.2762 48.7415 80.7895 48.1009 81.0368C47.4653 81.2817 46.6935 81.2411 45.7855 80.915L43.894 80.2356ZM44.2045 79.3697L46.107 80.053C46.6731 80.2563 47.1544 80.2797 47.5508 80.1233C47.9485 79.9631 48.2376 79.6311 48.4182 79.1274C48.5896 78.6494 48.576 78.2128 48.3774 77.8177C48.1787 77.4227 47.8185 77.1252 47.2968 76.9254L45.3336 76.2203L44.2045 79.3697ZM31.3985 93.1947L35.2036 94.5613L34.8931 95.4272L30.0238 93.6784L32.903 85.6477L33.9673 86.03L31.3985 93.1947ZM41.3962 95.397L38.0323 94.1889L36.5254 96.0135L35.4335 95.6213L41.3788 88.6918L42.3053 89.0245L42.4976 98.1584L41.4112 97.7682L41.3962 95.397ZM38.6646 93.4323L41.3943 94.4126L41.3734 90.1654L38.6646 93.4323ZM31.4696 109.073L30.4053 108.691L28.5819 101.051L26.3631 107.239L25.2988 106.857L28.1781 98.8263L29.2424 99.2085L31.0669 106.88L33.2956 100.664L34.3488 101.043L31.4696 109.073ZM39.2193 107.667L35.7397 106.417L34.7193 109.263L38.7614 110.715L38.4509 111.581L33.35 109.749L36.2293 101.718L41.2751 103.53L40.9626 104.402L36.9756 102.97L36.0501 105.551L39.5298 106.801L39.2193 107.667Z" fill="#FFF8E1"/>
<path d="M44.2746 58.586L44.4487 58.4062L44.3083 58.1252L44.3869 58.0437C44.3969 58.0319 44.402 58.0167 44.4014 58.0012C44.4007 57.9858 44.3943 57.9711 44.3833 57.9602C44.3724 57.9492 44.3578 57.9428 44.3423 57.9421C44.3268 57.9414 44.3117 57.9466 44.2999 57.9566L44.2493 58.0072L44.1174 57.7402L44.1932 57.6616C44.1995 57.6558 44.2045 57.6488 44.208 57.641C44.2115 57.6332 44.2133 57.6248 44.2133 57.6163C44.2134 57.6078 44.2117 57.5993 44.2083 57.5915C44.205 57.5836 44.2 57.5766 44.1938 57.5708C44.1876 57.5649 44.1803 57.5604 44.1722 57.5576C44.1642 57.5547 44.1557 57.5536 44.1472 57.5542C44.1387 57.5548 44.1304 57.5572 44.1228 57.5611C44.1153 57.5651 44.1087 57.5706 44.1033 57.5773L44.0612 57.6222L43.8928 57.2766L44.0612 57.1024C44.6003 56.5404 44.4571 56.3746 44.4571 56.3746C44.4571 56.3746 44.2774 56.2341 43.7384 56.7933L43.5755 56.9675L43.2246 56.8101L43.2667 56.7652C43.2782 56.7533 43.2846 56.7372 43.2843 56.7206C43.284 56.704 43.2772 56.6882 43.2653 56.6767C43.2534 56.6651 43.2374 56.6588 43.2208 56.659C43.2042 56.6593 43.1884 56.6662 43.1768 56.6781L43.1039 56.7568L42.8231 56.6331L42.8708 56.5825C42.8808 56.5707 42.886 56.5555 42.8853 56.5401C42.8846 56.5246 42.8782 56.5099 42.8673 56.499C42.8563 56.488 42.8417 56.4816 42.8262 56.4809C42.8108 56.4803 42.7956 56.4855 42.7838 56.4954L42.7024 56.5797L42.4216 56.4477L42.2476 56.6275L43.1993 57.3918C42.9929 57.6298 42.7989 57.8783 42.6182 58.1364L42.2504 58.0549L42.1072 58.2011L42.5087 58.3921L42.7108 58.7855L42.854 58.6394L42.7585 58.2713C43.0114 58.0841 43.2533 57.8824 43.4829 57.6672L44.2746 58.586Z" fill="#F5C242"/>
<path d="M49.1337 57.6964L46.5598 56.772L45.6362 59.348L48.2101 60.2724L49.1337 57.6964Z" fill="#C5CED7"/>
<path d="M52.9074 59.0403L52.8516 59.1964L55.566 60.1697L55.6218 60.0136L52.9074 59.0403Z" fill="#404851"/>
<path d="M52.7949 59.3531L52.739 59.5092L55.4532 60.4829L55.5091 60.3268L52.7949 59.3531Z" fill="#404851"/>
<path d="M52.6872 59.6686L52.6311 59.8246L55.344 60.8021L55.4001 60.6461L52.6872 59.6686Z" fill="#404851"/>
<path d="M52.5769 59.9798L52.521 60.1359L55.2349 61.1106L55.2908 60.9545L52.5769 59.9798Z" fill="#404851"/>
<path d="M52.4671 60.292L52.4111 60.448L55.125 61.4227L55.181 61.2667L52.4671 60.292Z" fill="#404851"/>
<path d="M58.6912 61.7389L51.0323 62.5397L49.783 50.5694L57.4391 49.7658C57.6311 49.7461 57.8231 49.8033 57.973 49.925C58.123 50.0466 58.2187 50.2228 58.2392 50.4149L59.337 60.9381C59.3574 61.13 59.3009 61.3221 59.1798 61.4723C59.0587 61.6225 58.883 61.7184 58.6912 61.7389Z" fill="#083060"/>
<path d="M58.461 61.7642L50.8161 62.565L49.564 50.5919L57.2229 49.791C57.3179 49.7809 57.414 49.7897 57.5055 49.8169C57.5971 49.8441 57.6824 49.8892 57.7565 49.9495C57.8306 50.0099 57.8921 50.0843 57.9374 50.1685C57.9826 50.2527 58.0108 50.345 58.0203 50.4401L59.1208 60.9633C59.1305 61.0594 59.121 61.1564 59.0931 61.2487C59.0651 61.3411 59.0191 61.427 58.9577 61.5014C58.8964 61.5759 58.8209 61.6374 58.7356 61.6825C58.6504 61.7276 58.5571 61.7554 58.461 61.7642Z" fill="#003C94"/>
<path d="M50.3669 51.0245L57.1247 50.3192C57.1828 50.3129 57.2415 50.3183 57.2975 50.3348C57.3536 50.3514 57.4058 50.3789 57.4512 50.4157C57.4966 50.4525 57.5342 50.4979 57.562 50.5494C57.5898 50.6008 57.6072 50.6572 57.6132 50.7154L58.6772 60.8059L50.3669 51.0245Z" fill="#054DA3"/>
<path d="M55.8895 52.9072L55.7238 52.7779C55.2268 52.4231 54.6194 52.2576 54.0112 52.3115H53.9691H53.9298C53.3231 52.3849 52.7625 52.6729 52.3492 53.1236C52.3015 53.1741 52.2565 53.2275 52.2144 53.2809C51.8067 53.8039 51.6175 54.4648 51.6866 55.1246C51.7557 55.7844 52.0777 56.3916 52.585 56.8186C52.6378 56.8648 52.6931 56.9079 52.7507 56.9479C53.2454 57.3113 53.8544 57.4839 54.4661 57.434H54.5082H54.5503C55.1585 57.3512 55.7166 57.0519 56.1225 56.591C56.1704 56.5402 56.2154 56.4868 56.2573 56.4309C56.6645 55.9084 56.8537 55.2483 56.7851 54.5892C56.7165 53.9301 56.3955 53.3233 55.8895 52.896V52.9072ZM56.5633 54.5173L55.5273 54.6269C55.481 54.2162 55.377 53.8142 55.2185 53.4327C55.4072 53.329 55.5826 53.2025 55.7407 53.0561C56.1848 53.4256 56.4775 53.9457 56.5633 54.5173ZM53.1942 53.7193C53.4705 53.7805 53.7542 53.8014 54.0365 53.7811L54.1404 54.7758L53.1493 54.877C53.1099 54.4912 53.1212 54.102 53.183 53.7193H53.1942ZM54.1067 52.525C54.4155 52.556 54.7215 52.865 54.949 53.3371C54.7157 53.4443 54.4678 53.5163 54.2134 53.5507L54.1067 52.525ZM53.8989 52.5475L54.0056 53.5703C53.7489 53.5883 53.4909 53.5703 53.2392 53.517C53.3599 53.0084 53.5957 52.6402 53.8877 52.5475H53.8989ZM54.1544 54.9837L54.2583 55.9756C53.9808 56.014 53.7103 56.0926 53.4553 56.2089C53.3118 55.8485 53.2174 55.4705 53.1746 55.0849L54.1544 54.9837ZM54.2808 56.1836L54.3874 57.2092C54.0786 57.1783 53.7754 56.8692 53.5452 56.3971C53.7757 56.2931 54.0194 56.2212 54.2695 56.1836H54.2808ZM54.5952 57.1895L54.4885 56.1611C54.7454 56.1441 55.0033 56.163 55.255 56.2173C55.1118 56.7259 54.8788 57.094 54.584 57.1895H54.5952ZM54.4661 55.9532L54.3622 54.9613L55.3532 54.8573C55.3862 55.2439 55.3683 55.6331 55.2999 56.015C55.0264 55.9544 54.7455 55.9336 54.4661 55.9532ZM54.3397 54.7533L54.2358 53.7586C54.5132 53.7212 54.7837 53.6436 55.0388 53.5282C55.1813 53.8889 55.2757 54.2668 55.3195 54.6522L54.3397 54.7533ZM55.5835 52.9297C55.4475 53.0484 55.2999 53.1529 55.1427 53.2416C55.0207 52.9743 54.8437 52.7359 54.6233 52.5419C54.965 52.6021 55.2891 52.7374 55.5722 52.9381L55.5835 52.9297ZM53.3992 52.6712C53.2233 52.9057 53.099 53.1748 53.0342 53.4608C52.8623 53.4076 52.6966 53.336 52.5401 53.2472C52.7762 52.9942 53.0659 52.7974 53.388 52.6712H53.3992ZM52.4025 53.4074C52.5871 53.5166 52.7841 53.6034 52.9893 53.6659C52.9149 54.0727 52.897 54.4878 52.936 54.8994L51.8972 55.009C51.8587 54.4324 52.0347 53.8619 52.3913 53.4074H52.4025ZM51.9196 55.217L52.9556 55.1074C53.0036 55.5186 53.1075 55.9213 53.2644 56.3044C53.0756 56.4055 52.9009 56.5312 52.745 56.6781C52.2949 56.3117 51.9968 55.791 51.9084 55.217H51.9196ZM52.9135 56.8074C53.047 56.6869 53.194 56.5822 53.3515 56.4955C53.4744 56.7613 53.6513 56.9987 53.8709 57.1924C53.5231 57.139 53.1919 57.0073 52.9023 56.8074H52.9135ZM55.0949 57.0659C55.2708 56.8303 55.3951 56.5603 55.4599 56.2735C55.632 56.3262 55.7977 56.3978 55.954 56.4871C55.7124 56.7445 55.4145 56.9426 55.0837 57.0659H55.0949ZM56.0916 56.3269C55.9077 56.2182 55.7117 56.1314 55.5077 56.0684C55.5811 55.6615 55.5981 55.2464 55.5582 54.8348L56.597 54.728C56.6287 55.3066 56.4446 55.8764 56.0804 56.3269H56.0916Z" fill="#F5C242"/>
<path d="M54.3358 61.8185L53.1924 61.9382L53.01 62.6774L52.6388 62.7163L53.3959 59.8778L53.7108 59.8449L55.0401 62.4649L54.6708 62.5036L54.3358 61.8185ZM53.2701 61.6306L54.198 61.5335L53.5998 60.3056L53.2701 61.6306ZM54.0998 66.3608C53.7818 66.3043 53.5455 66.2192 53.3909 66.1052C53.2373 65.9899 53.1506 65.8373 53.1308 65.6473C53.1083 65.4324 53.1754 65.2459 53.332 65.0881C53.4897 64.9288 53.706 64.8348 53.9809 64.806C54.1684 64.7864 54.339 64.8052 54.4928 64.8623C54.6478 64.9194 54.772 65.0075 54.8653 65.1266C54.9598 65.2455 55.015 65.3806 55.0308 65.5318L54.669 65.5697C54.6518 65.4047 54.5858 65.2809 54.471 65.1981C54.3561 65.1141 54.2031 65.0822 54.0119 65.1022C53.8344 65.1207 53.6998 65.1746 53.6081 65.2638C53.5174 65.3516 53.4794 65.4649 53.4939 65.6036C53.5055 65.7148 53.5622 65.8043 53.664 65.872C53.767 65.9383 53.9349 65.9914 54.1677 66.0315C54.4018 66.0714 54.5866 66.1235 54.7222 66.1876C54.8589 66.2504 54.9632 66.3298 55.0351 66.4258C55.1083 66.5218 55.1522 66.6391 55.1667 66.7778C55.1898 66.999 55.1221 67.1855 54.9636 67.3373C54.805 67.4878 54.5814 67.5782 54.2927 67.6084C54.1052 67.628 53.9265 67.6107 53.7566 67.5565C53.5866 67.501 53.4507 67.4154 53.3489 67.2997C53.2484 67.1839 53.1898 67.0466 53.1732 66.8879L53.535 66.8501C53.5523 67.015 53.6265 67.1393 53.7578 67.2228C53.8902 67.305 54.0582 67.3354 54.2619 67.3141C54.4519 67.2942 54.5934 67.2402 54.6865 67.1521C54.7797 67.0641 54.8193 66.9532 54.8053 66.8194C54.7913 66.6857 54.7337 66.5875 54.6324 66.5248C54.5309 66.4609 54.3534 66.4062 54.0998 66.3608ZM56.3792 66.1222C56.0613 66.0658 55.825 65.9806 55.6703 65.8666C55.5168 65.7513 55.4301 65.5987 55.4102 65.4087C55.3877 65.1938 55.4548 65.0074 55.6114 64.8495C55.7691 64.6902 55.9854 64.5962 56.2603 64.5674C56.4478 64.5478 56.6184 64.5666 56.7722 64.6238C56.9272 64.6808 57.0514 64.7689 57.1447 64.888C57.2392 65.0069 57.2944 65.142 57.3102 65.2933L56.9484 65.3311C56.9312 65.1662 56.8652 65.0423 56.7504 64.9596C56.6355 64.8756 56.4825 64.8436 56.2913 64.8636C56.1138 64.8822 55.9792 64.9361 55.8875 65.0252C55.7969 65.1131 55.7588 65.2263 55.7733 65.365C55.7849 65.4763 55.8416 65.5657 55.9434 65.6334C56.0464 65.6997 56.2143 65.7529 56.4471 65.7929C56.6812 65.8328 56.8661 65.8849 57.0016 65.949C57.1383 66.0118 57.2426 66.0912 57.3146 66.1873C57.3878 66.2832 57.4316 66.4005 57.4461 66.5392C57.4692 66.7604 57.4015 66.9469 57.243 67.0987C57.0844 67.2492 56.8608 67.3396 56.5721 67.3698C56.3846 67.3894 56.206 67.3721 56.0361 67.3179C55.866 67.2624 55.7301 67.1768 55.6283 67.0611C55.5278 66.9453 55.4692 66.8081 55.4527 66.6493L55.8144 66.6115C55.8317 66.7764 55.9059 66.9007 56.0372 66.9842C56.1696 67.0664 56.3376 67.0968 56.5413 67.0755C56.7313 67.0556 56.8728 67.0016 56.966 66.9136C57.0591 66.8255 57.0987 66.7146 57.0847 66.5809C57.0707 66.4471 57.0131 66.3489 56.9118 66.2863C56.8104 66.2224 56.6328 66.1677 56.3792 66.1222ZM54.1906 71.5283L54.3022 72.5968L53.9423 72.6345L53.6571 69.9051L54.6638 69.7997C54.9624 69.7685 55.2041 69.8202 55.3887 69.9551C55.5746 70.0897 55.6807 70.2827 55.7069 70.5339C55.7346 70.7988 55.6729 71.0118 55.5217 71.1729C55.3716 71.3327 55.1422 71.4287 54.8336 71.461L54.1906 71.5283ZM54.1598 71.234L54.8066 71.1663C54.999 71.1461 55.1418 71.0857 55.2348 70.985C55.3278 70.8831 55.3653 70.7465 55.3474 70.5753C55.3304 70.4128 55.2656 70.2882 55.153 70.2015C55.0403 70.1147 54.8944 70.0788 54.7153 70.0938L54.048 70.1636L54.1598 71.234ZM56.428 76.1111C56.4559 76.3785 56.4354 76.6169 56.3663 76.8263C56.2971 77.0344 56.1855 77.1996 56.0315 77.3218C55.8775 77.4441 55.6905 77.5167 55.4706 77.5397C55.2556 77.5622 55.0596 77.5297 54.8824 77.4421C54.7051 77.3533 54.56 77.2162 54.4472 77.0309C54.3354 76.8443 54.2649 76.6224 54.2355 76.3652L54.2149 76.1684C54.1875 75.9059 54.2089 75.6693 54.2791 75.4586C54.3493 75.2478 54.462 75.0806 54.6171 74.957C54.7733 74.832 54.9589 74.7583 55.1738 74.7358C55.3925 74.7129 55.5905 74.7458 55.7678 74.8347C55.9463 74.9221 56.091 75.0617 56.202 75.2535C56.3128 75.4441 56.3822 75.6724 56.41 75.9386L56.428 76.1111ZM56.0516 75.9723C56.0177 75.6487 55.9268 75.4074 55.7789 75.2485C55.6307 75.0884 55.4398 75.0206 55.2061 75.0451C54.9787 75.0689 54.8084 75.1745 54.6954 75.3619C54.5834 75.548 54.5416 75.7949 54.57 76.1028L54.591 76.3033C54.6237 76.617 54.7151 76.857 54.8652 77.0232C55.0163 77.188 55.2075 77.2584 55.4387 77.2342C55.6711 77.2098 55.8422 77.1066 55.9521 76.9246C56.0618 76.7413 56.102 76.4913 56.0727 76.1748L56.0516 75.9723ZM55.8672 81.3714L55.2261 81.4385L55.3414 82.5426L54.9796 82.5805L54.6945 79.8511L55.598 79.7566C55.9054 79.7244 56.1489 79.7697 56.3285 79.8924C56.5093 80.0149 56.6137 80.2099 56.6417 80.4774C56.6594 80.6473 56.6287 80.8003 56.5494 80.9362C56.4713 81.0719 56.3537 81.1796 56.1965 81.2593L56.9587 82.3506L56.961 82.3731L56.5749 82.4135L55.8672 81.3714ZM55.1953 81.1442L55.7483 81.0863C55.927 81.0676 56.064 81.0066 56.1593 80.9031C56.2559 80.7995 56.2961 80.6702 56.2799 80.5152C56.2622 80.3465 56.1981 80.2225 56.0875 80.1431C55.9781 80.0636 55.8284 80.0331 55.6383 80.0518L55.0872 80.1095L55.1953 81.1442ZM58.8287 79.7179L57.9515 79.8097L58.2057 82.2429L57.8477 82.2803L57.5934 79.8471L56.718 79.9388L56.6871 79.6426L58.7978 79.4217L58.8287 79.7179Z" fill="black"/>
<path d="M42.5003 61.5003L42.5256 61.9639H30.1107L30.0854 60.9945L42.5003 61.5003Z" fill="#12171E"/>
<path d="M57.3802 61.9639H15.1157C14.297 61.9639 13.6333 62.6281 13.6333 63.4475V94.0337C13.6333 94.8531 14.297 95.5173 15.1157 95.5173H57.3802C58.1989 95.5173 58.8626 94.8531 58.8626 94.0337V63.4475C58.8626 62.6281 58.1989 61.9639 57.3802 61.9639Z" fill="#F5C242"/>
<g style="mix-blend-mode:multiply" opacity="0.5">
<path d="M55.589 74.8981C51.4675 79.2675 46.7397 82.9064 40.7989 84.3619C39.8129 84.652 38.794 84.8153 37.7668 84.848C32.0703 84.848 26.1296 84.9689 20.9216 82.9064C18.2826 81.8836 15.4666 79.9644 13.6445 77.3596V94.0337C13.6442 94.2288 13.6822 94.422 13.7566 94.6024C13.8309 94.7827 13.94 94.9466 14.0777 95.0846C14.2154 95.2227 14.3789 95.3322 14.559 95.407C14.739 95.4817 14.932 95.5202 15.1269 95.5202H57.3802C57.7736 95.5194 58.1507 95.3625 58.4286 95.0838C58.7065 94.8051 58.8626 94.4275 58.8626 94.0337V71.203C57.8491 72.5068 56.6418 73.7319 55.589 74.8981Z" fill="#F5C242"/>
</g>
<path d="M53.9045 61.9639C53.9045 63.2822 54.4278 64.5465 55.3592 65.4787C56.2906 66.4109 57.5539 66.9346 58.8711 66.9346V63.4475C58.8703 63.0543 58.7139 62.6773 58.4361 62.3992C58.1582 62.1212 57.7816 61.9646 57.3887 61.9639H53.9045Z" fill="#915620"/>
<path d="M13.6333 63.4475V66.9346C14.9503 66.9339 16.2131 66.4099 17.1443 65.4779C18.0756 64.5459 18.5991 63.282 18.5998 61.9639H15.1157C14.7225 61.9639 14.3455 62.1202 14.0675 62.3984C13.7895 62.6767 13.6333 63.054 13.6333 63.4475Z" fill="#915620"/>
<path d="M53.9045 95.5201H57.3887C57.7821 95.5193 58.1591 95.3624 58.4371 95.0837C58.715 94.805 58.8711 94.4274 58.8711 94.0336V90.5493C57.5541 90.5501 56.2913 91.074 55.36 92.006C54.4288 92.9381 53.9053 94.202 53.9045 95.5201Z" fill="#915620"/>
<path d="M13.6333 90.5493V94.0336C13.6329 94.2287 13.671 94.4219 13.7453 94.6023C13.8197 94.7826 13.9288 94.9465 14.0665 95.0845C14.2042 95.2226 14.3677 95.3321 14.5477 95.4069C14.7278 95.4816 14.9208 95.5201 15.1157 95.5201H18.5998C18.5991 94.202 18.0756 92.9381 17.1443 92.006C16.2131 91.074 14.9503 90.5501 13.6333 90.5493Z" fill="#915620"/>
<g style="mix-blend-mode:multiply" opacity="0.5">
<path d="M14.8208 63.8408C14.8208 63.9609 14.8563 64.0784 14.9227 64.1784C14.9892 64.2784 15.0837 64.3565 15.1944 64.403C15.305 64.4495 15.427 64.4622 15.5448 64.4396C15.6627 64.4169 15.7712 64.36 15.8569 64.2758C15.9425 64.1917 16.0014 64.0841 16.0262 63.9665C16.0509 63.849 16.0404 63.7268 15.9961 63.6152C15.9517 63.5036 15.8753 63.4076 15.7766 63.3392C15.6779 63.2709 15.5613 63.2333 15.4413 63.2311C15.3603 63.2296 15.2799 63.2442 15.2047 63.2742C15.1295 63.3042 15.061 63.3489 15.0032 63.4056C14.9454 63.4624 14.8995 63.5301 14.8682 63.6049C14.8369 63.6796 14.8208 63.7598 14.8208 63.8408Z" fill="#683A15"/>
</g>
<g style="mix-blend-mode:multiply" opacity="0.5">
<path d="M14.8208 93.6429C14.8208 93.763 14.8563 93.8805 14.9227 93.9805C14.9892 94.0805 15.0837 94.1587 15.1944 94.2051C15.305 94.2516 15.427 94.2643 15.5448 94.2417C15.6627 94.219 15.7712 94.1621 15.8569 94.0779C15.9425 93.9938 16.0014 93.8862 16.0262 93.7686C16.0509 93.6511 16.0404 93.5289 15.9961 93.4173C15.9517 93.3057 15.8753 93.2097 15.7766 93.1414C15.6779 93.073 15.5613 93.0354 15.4413 93.0332C15.3603 93.0317 15.2799 93.0464 15.2047 93.0763C15.1295 93.1063 15.061 93.151 15.0032 93.2077C14.9454 93.2645 14.8995 93.3322 14.8682 93.407C14.8369 93.4817 14.8208 93.5619 14.8208 93.6429Z" fill="#683A15"/>
</g>
<g style="mix-blend-mode:multiply" opacity="0.5">
<g style="mix-blend-mode:multiply" opacity="0.5">
<path d="M56.4565 63.8407C56.4565 63.9613 56.4923 64.0792 56.5592 64.1795C56.6262 64.2798 56.7213 64.3579 56.8326 64.4041C56.944 64.4502 57.0665 64.4623 57.1846 64.4388C57.3028 64.4152 57.4114 64.3572 57.4966 64.2719C57.5818 64.1866 57.6398 64.078 57.6633 63.9597C57.6868 63.8414 57.6748 63.7188 57.6286 63.6074C57.5825 63.496 57.5044 63.4007 57.4043 63.3337C57.3041 63.2667 57.1863 63.231 57.0658 63.231C56.9042 63.231 56.7492 63.2952 56.635 63.4096C56.5207 63.5239 56.4565 63.679 56.4565 63.8407Z" fill="#683A15"/>
</g>
<g style="mix-blend-mode:multiply" opacity="0.5">
<path d="M56.4565 93.643C56.4565 93.7636 56.4923 93.8814 56.5592 93.9817C56.6262 94.082 56.7213 94.1601 56.8326 94.2063C56.944 94.2524 57.0665 94.2645 57.1846 94.241C57.3028 94.2175 57.4114 94.1594 57.4966 94.0741C57.5818 93.9888 57.6398 93.8802 57.6633 93.7619C57.6868 93.6436 57.6748 93.521 57.6286 93.4096C57.5825 93.2982 57.5044 93.203 57.4043 93.136C57.3041 93.069 57.1863 93.0332 57.0658 93.0332C56.9858 93.0332 56.9066 93.049 56.8326 93.0796C56.7587 93.1103 56.6916 93.1552 56.635 93.2118C56.5784 93.2684 56.5335 93.3356 56.5029 93.4096C56.4723 93.4836 56.4565 93.5629 56.4565 93.643Z" fill="#683A15"/>
</g>
</g>
<path d="M29.9705 61.9639H32.2165C32.2165 61.4683 32.4132 60.993 32.7633 60.6426C33.1134 60.2921 33.5883 60.0953 34.0835 60.0953H38.4071C38.9022 60.0953 39.3771 60.2921 39.7273 60.6426C40.0774 60.993 40.2741 61.4683 40.2741 61.9639H42.5201C42.5205 61.4227 42.4143 60.8867 42.2076 60.3866C42.0009 59.8865 41.6978 59.432 41.3156 59.0492C40.9334 58.6664 40.4795 58.3627 39.98 58.1555C39.4804 57.9483 38.945 57.8417 38.4043 57.8417H34.0807C33.5399 57.8417 33.0045 57.9483 32.505 58.1555C32.0054 58.3627 31.5516 58.6664 31.1694 59.0492C30.7871 59.432 30.484 59.8865 30.2773 60.3866C30.0707 60.8867 29.9645 61.4227 29.9648 61.9639H29.9705Z" fill="#683A15"/>
<path d="M22.8757 95.5201H18.5999V96.453H22.8757V95.5201Z" fill="#282F39"/>
<path d="M53.896 95.5201H49.6201V96.453H53.896V95.5201Z" fill="#282F39"/>
<path d="M28.9249 90.0899L31.8399 90.717C32.0127 90.7542 32.1829 90.6441 32.2201 90.4711L32.8466 87.5536C32.8838 87.3806 32.7738 87.2103 32.601 87.1731L29.6859 86.546C29.5131 86.5089 29.3429 86.6189 29.3058 86.7919L28.6792 89.7094C28.6421 89.8824 28.7521 90.0528 28.9249 90.0899Z" fill="#D82C28"/>
<path d="M29.712 88.0316L30.4813 88.1974L30.6469 87.4275L31.3601 87.582L31.1944 88.352L31.9637 88.5177L31.8093 89.2315L31.04 89.0657L30.8772 89.8356L30.1612 89.6811L30.3269 88.9111L29.5576 88.7482L29.712 88.0316Z" fill="#FFF8E1"/>
<path d="M39.1596 86.0365C38.9579 86.7869 38.9828 87.5802 39.2311 88.3164C39.4793 89.0526 39.9399 89.6987 40.5546 90.1733C41.1693 90.6479 41.9107 90.9296 42.6852 90.983C43.4597 91.0364 44.2327 90.859 44.9066 90.4732C45.5805 90.0875 46.1252 89.5106 46.4719 88.8154C46.8187 88.1202 46.9519 87.3378 46.8549 86.5669C46.7579 85.796 46.435 85.0711 45.9269 84.4836C45.4188 83.8961 44.7482 83.4724 43.9998 83.2659C42.9908 82.9914 41.9143 83.1291 41.0067 83.6486C40.0991 84.1681 39.4348 85.027 39.1596 86.0365Z" fill="#FFF8E1"/>
<path d="M40.1169 86.2078L40.5128 86.1713L40.5605 85.0276L41.327 85.4772L41.6639 85.0248L42.2535 86.1179L42.4725 84.2633L42.9301 84.7213L43.8622 83.8053L44.1963 85.0698L44.8252 84.9096L44.0615 86.6152L45.1284 85.9774L45.1873 86.5394L46.0773 86.545L45.5327 87.5509L45.8527 87.787L44.0727 88.6524L44.0756 89.2257L42.7673 88.7002L42.5791 88.6468L42.245 90.3918L41.8885 90.2934L42.4584 88.6131L42.304 88.5709L40.9087 88.3546L41.2035 87.8628L40.1169 86.2078Z" fill="#D82C28"/>
<path d="M52.0488 82.7039C53.3094 81.6867 53.3263 80.5712 53.3263 80.5712L53.52 80.5403L53.7137 82.3948C53.8541 84.4967 52.8714 85.3396 52.5036 85.5869L52.0488 82.7039Z" fill="#282F39"/>
<path d="M54.7046 87.4667L52.8854 87.7477L52.5513 85.629C52.9584 85.3648 53.9298 84.505 53.7866 82.3723L53.5957 80.5458H54.0533H54.0842H54.2667L55.4206 80.5037C55.4206 80.5037 55.6732 80.2676 55.8585 80.2929C55.8585 80.2929 55.9652 80.2929 55.9765 80.3744L56.2825 80.3266C56.2825 80.3266 56.3976 80.3098 56.2993 80.4222C56.2011 80.5346 55.968 80.6891 55.4037 80.7875C55.3354 80.9355 55.2486 81.0743 55.1454 81.2005L55.0949 81.2595C54.775 81.6332 54.3277 81.8746 53.8399 81.9367L54.7046 87.4667Z" fill="#282F39"/>
<path d="M49.199 81.5235C49.3253 81.6022 49.5892 81.6753 50.1451 81.5994H50.162C50.3948 81.8492 50.6861 82.037 51.0096 82.1459C51.3331 82.2548 51.6786 82.2814 52.0149 82.2232L52.0711 82.5744C52.1956 82.4682 52.3138 82.3547 52.4248 82.2344C52.878 81.7874 53.1669 81.2002 53.2446 80.5681H53.1744L53.0565 79.8151V79.728C53.0414 79.6364 53.0003 79.5512 52.938 79.4825C52.8758 79.4137 52.7951 79.3643 52.7056 79.3402C52.6408 79.3261 52.5738 79.3261 52.5091 79.3402C52.384 79.3596 52.2717 79.4279 52.1969 79.5301C52.1222 79.6324 52.091 79.7601 52.1104 79.8853V79.9724L52.2283 80.7255L50.0609 81.3409C50.0609 81.3409 49.7493 81.1948 49.5808 81.2734C49.5808 81.2734 49.4797 81.3128 49.491 81.3886L49.185 81.4364C49.185 81.4364 49.067 81.4448 49.199 81.5235Z" fill="#282F39"/>
<path d="M25.363 68.6038C25.2397 69.0607 25.2545 69.544 25.4055 69.9926C25.5566 70.4411 25.837 70.8348 26.2116 71.1239C26.5861 71.4129 27.0378 71.5844 27.5096 71.6166C27.9815 71.6488 28.4522 71.5402 28.8625 71.3047C29.2727 71.0692 29.604 70.7173 29.8144 70.2934C30.0249 69.8695 30.1051 69.3927 30.0448 68.9232C29.9846 68.4537 29.7867 68.0126 29.4761 67.6557C29.1654 67.2987 28.7561 67.042 28.2997 66.9178C27.9963 66.8353 27.6796 66.8134 27.3677 66.8535C27.0558 66.8936 26.7549 66.9948 26.4821 67.1514C26.2093 67.308 25.9701 67.5168 25.7781 67.7661C25.5861 68.0153 25.445 68.2999 25.363 68.6038Z" fill="#FFF8E1"/>
<path d="M26.5424 68.927C26.4801 69.1504 26.4854 69.3873 26.5577 69.6077C26.6301 69.8281 26.7661 70.022 26.9487 70.165C27.1312 70.3079 27.352 70.3934 27.5832 70.4106C27.8143 70.4278 28.0453 70.3759 28.247 70.2616C28.4487 70.1473 28.6119 69.9756 28.716 69.7684C28.8201 69.5611 28.8604 69.3276 28.8318 69.0974C28.8032 68.8672 28.7069 68.6507 28.5553 68.4753C28.4036 68.2999 28.2033 68.1735 27.9798 68.1121C27.6813 68.0301 27.3624 68.0698 27.093 68.2225C26.8236 68.3752 26.6256 68.6285 26.5424 68.927Z" fill="#D82C28"/>
<path d="M54.6653 68.2187L50.7461 66.3258L48.8548 70.2484L52.7741 72.1412L54.6653 68.2187Z" fill="#FFF8E1"/>
<path d="M52.0826 66.9668L50.75 66.3235L48.8594 70.2464L50.1921 70.8897L52.0826 66.9668Z" fill="#D82C28"/>
<path d="M54.6645 68.2256L53.3472 67.5894L51.4559 71.5119L52.7733 72.1482L54.6645 68.2256Z" fill="#689F38"/>
<path d="M21.2588 84.3365C21.6069 84.5922 21.9045 84.8254 22.1235 85.0165L22.6317 84.7664L23.3027 85.1935L22.5587 85.792L22.3369 86.7249L21.6631 86.2978V85.7358C21.3823 85.6178 21.0567 85.4549 20.6776 85.2469L19.7989 86.9835L19.0942 86.5395L19.2037 86.0449C19.1753 86.0273 19.1498 86.0055 19.1279 85.9803C19.0875 85.9359 19.0596 85.8817 19.0469 85.823C19.0343 85.7643 19.0374 85.7033 19.0559 85.6462C19.0745 85.5891 19.1078 85.538 19.1525 85.4979C19.1971 85.4579 19.2516 85.4304 19.3104 85.4183H19.3525V85.3902C19.3247 85.3718 19.2993 85.3501 19.2767 85.3256C19.2292 85.2702 19.2005 85.2011 19.195 85.1283C19.1894 85.0556 19.2072 84.9829 19.2458 84.921C19.2696 84.8828 19.3007 84.8497 19.3373 84.8237C19.3739 84.7977 19.4153 84.7791 19.4592 84.7692H19.4901L19.5266 84.6034L19.3469 84.491C19.0664 84.3139 18.813 84.0972 18.5945 83.8476C18.2772 83.4851 18.3586 83.2434 18.3895 83.176V83.1535L18.4063 83.1338C18.513 82.999 18.8808 82.7601 19.9786 83.4514L20.1554 83.5666L20.293 83.4598C20.2707 83.3935 20.2695 83.3218 20.2897 83.2548C20.3099 83.1878 20.3504 83.1288 20.4056 83.0858C20.4609 83.0429 20.5281 83.0182 20.598 83.0153C20.6678 83.0123 20.7369 83.0311 20.7956 83.0692L20.8208 83.0495C20.8027 83.0009 20.7961 82.9487 20.8014 82.897C20.8068 82.8453 20.824 82.7956 20.8517 82.7517C20.9002 82.6751 20.9768 82.6206 21.0651 82.6C21.1528 82.5805 21.2447 82.5967 21.3206 82.6449L21.7192 82.333L22.4604 82.7967L21.2588 84.3365Z" fill="#FFF8E1"/>
<path d="M22.0926 82.8585L21.7557 82.6477L21.357 82.9568L21.2026 82.8613C21.1917 82.8528 21.1792 82.8467 21.1659 82.8434C21.1526 82.8401 21.1387 82.8396 21.1251 82.842C21.1116 82.8444 21.0987 82.8496 21.0873 82.8573C21.0759 82.865 21.0663 82.875 21.059 82.8866C21.0517 82.8983 21.0469 82.9113 21.0449 82.9249C21.043 82.9386 21.0439 82.9524 21.0477 82.9657C21.0514 82.9789 21.0579 82.9912 21.0667 83.0018C21.0755 83.0123 21.0864 83.0209 21.0987 83.027L21.1941 83.0861L20.8207 83.367L20.6776 83.2771C20.6669 83.2704 20.655 83.2659 20.6426 83.2639C20.6301 83.2618 20.6174 83.2622 20.6052 83.2651C20.5929 83.268 20.5813 83.2732 20.5711 83.2806C20.5609 83.288 20.5522 83.2973 20.5456 83.308C20.5384 83.3184 20.5334 83.3302 20.5309 83.3426C20.5284 83.355 20.5285 83.3678 20.5311 83.3801C20.5338 83.3925 20.5389 83.4042 20.5462 83.4145C20.5535 83.4248 20.5629 83.4335 20.5737 83.4401L20.6579 83.4935L20.1806 83.8672C20.0683 83.7942 19.9616 83.7239 19.8606 83.6621C18.8274 83.0046 18.6084 83.2856 18.6084 83.2856C18.6084 83.2856 18.4512 83.6059 19.4844 84.2578L19.8072 84.4573L19.6781 85.0502L19.5939 84.9968C19.583 84.9884 19.5705 84.9823 19.5572 84.979C19.5438 84.9757 19.53 84.9752 19.5164 84.9776C19.5029 84.98 19.49 84.9852 19.4786 84.9928C19.4672 85.0005 19.4576 85.0105 19.4503 85.0222C19.443 85.0338 19.4382 85.0469 19.4362 85.0605C19.4343 85.0741 19.4352 85.088 19.439 85.1012C19.4427 85.1144 19.4492 85.1267 19.458 85.1373C19.4668 85.1479 19.4777 85.1565 19.49 85.1626L19.6332 85.2525L19.5321 85.7133L19.4394 85.6543C19.4287 85.6472 19.4165 85.6423 19.4038 85.64C19.3911 85.6377 19.378 85.638 19.3654 85.6409C19.3528 85.6438 19.341 85.6492 19.3305 85.6568C19.3201 85.6644 19.3113 85.6741 19.3047 85.6852C19.2972 85.6957 19.292 85.7076 19.2895 85.7202C19.2869 85.7328 19.2872 85.7458 19.2901 85.7583C19.293 85.7708 19.2986 85.7826 19.3064 85.7927C19.3143 85.8029 19.3242 85.8113 19.3356 85.8173L19.4872 85.9157L19.3721 86.4186L19.7062 86.6294L20.5765 84.9097C21.0093 85.1528 21.4544 85.3732 21.9101 85.57V86.1657L22.1908 86.3371L22.3537 85.6571L22.8983 85.216L22.6176 85.0446L22.0841 85.3087C21.7119 84.9795 21.322 84.6709 20.9162 84.3842L22.0926 82.8585Z" fill="#054DA1"/>
<path d="M26.4666 61.9639H22.8757V95.5173H26.4666V61.9639Z" fill="#683A15"/>
<path d="M27.1151 61.9639H22.2244V63.7988C22.2244 64.4479 22.482 65.0704 22.9406 65.5294C23.3992 65.9884 24.0212 66.2462 24.6697 66.2462C25.3183 66.2462 25.9403 65.9884 26.3988 65.5294C26.8574 65.0704 27.1151 64.4479 27.1151 63.7988V61.9639Z" fill="#915620"/>
<path d="M24.0603 64.105C24.0603 64.2256 24.096 64.3435 24.163 64.4438C24.2299 64.544 24.3251 64.6222 24.4364 64.6683C24.5477 64.7145 24.6702 64.7266 24.7884 64.703C24.9066 64.6795 25.0151 64.6214 25.1003 64.5362C25.1855 64.4509 25.2436 64.3422 25.2671 64.224C25.2906 64.1057 25.2785 63.9831 25.2324 63.8717C25.1863 63.7602 25.1082 63.665 25.008 63.598C24.9078 63.531 24.79 63.4952 24.6695 63.4952C24.508 63.4952 24.353 63.5595 24.2387 63.6738C24.1245 63.7882 24.0603 63.9433 24.0603 64.105Z" fill="#D3D3D3"/>
<path d="M22.2244 95.5199H27.1151V93.6822C27.1143 93.0336 26.8564 92.4118 26.3979 91.9534C25.9393 91.495 25.3178 91.2375 24.6697 91.2375C24.0217 91.2375 23.4001 91.495 22.9416 91.9534C22.4831 92.4118 22.2251 93.0336 22.2244 93.6822V95.5199Z" fill="#915620"/>
<path d="M25.2678 93.3789C25.2678 93.2583 25.2321 93.1404 25.1651 93.0402C25.0982 92.9399 25.003 92.8617 24.8917 92.8156C24.7804 92.7694 24.6579 92.7574 24.5397 92.7809C24.4215 92.8044 24.313 92.8625 24.2278 92.9478C24.1426 93.033 24.0845 93.1417 24.061 93.26C24.0375 93.3782 24.0496 93.5008 24.0957 93.6123C24.1418 93.7237 24.2199 93.8189 24.3201 93.8859C24.4203 93.9529 24.5381 93.9887 24.6586 93.9887C24.8201 93.9887 24.9751 93.9244 25.0893 93.8101C25.2036 93.6957 25.2678 93.5406 25.2678 93.3789Z" fill="#D3D3D3"/>
<path d="M25.2678 85.8147C25.2678 85.6941 25.2321 85.5762 25.1651 85.4759C25.0982 85.3757 25.003 85.2975 24.8917 85.2514C24.7804 85.2052 24.6579 85.1931 24.5397 85.2167C24.4215 85.2402 24.313 85.2983 24.2278 85.3835C24.1426 85.4688 24.0845 85.5775 24.061 85.6958C24.0375 85.814 24.0496 85.9366 24.0957 86.0481C24.1418 86.1595 24.2199 86.2547 24.3201 86.3217C24.4203 86.3887 24.5381 86.4245 24.6586 86.4245C24.8201 86.4245 24.9751 86.3602 25.0893 86.2459C25.2036 86.1315 25.2678 85.9764 25.2678 85.8147Z" fill="#D3D3D3"/>
<path d="M25.2678 78.7419C25.2678 78.6208 25.2317 78.5025 25.1643 78.402C25.0968 78.3015 25.001 78.2233 24.889 78.1775C24.777 78.1317 24.654 78.1203 24.5355 78.1448C24.417 78.1692 24.3085 78.2284 24.2238 78.3148C24.139 78.4012 24.0819 78.5109 24.0597 78.6299C24.0375 78.7489 24.0511 78.8719 24.099 78.9831C24.1468 79.0943 24.2266 79.1887 24.3283 79.2544C24.43 79.32 24.5488 79.3538 24.6698 79.3516C24.8294 79.3487 24.9815 79.2831 25.0933 79.1691C25.2052 79.0551 25.2678 78.9016 25.2678 78.7419Z" fill="#D3D3D3"/>
<path d="M25.2678 71.6665C25.2678 71.5459 25.2321 71.428 25.1651 71.3278C25.0982 71.2275 25.003 71.1493 24.8917 71.1032C24.7804 71.057 24.6579 71.045 24.5397 71.0685C24.4215 71.092 24.313 71.1501 24.2278 71.2354C24.1426 71.3206 24.0845 71.4293 24.061 71.5476C24.0375 71.6658 24.0496 71.7884 24.0957 71.8999C24.1418 72.0113 24.2199 72.1065 24.3201 72.1735C24.4203 72.2405 24.5381 72.2763 24.6586 72.2763C24.8201 72.2763 24.9751 72.212 25.0893 72.0977C25.2036 71.9833 25.2678 71.8282 25.2678 71.6665Z" fill="#D3D3D3"/>
<path d="M49.6231 61.9639H46.0322V95.5173H49.6231V61.9639Z" fill="#683A15"/>
<path d="M50.2718 61.9639H45.3811V63.7988C45.3811 64.1202 45.4444 64.4384 45.5672 64.7354C45.6901 65.0323 45.8703 65.3021 46.0973 65.5294C46.3244 65.7566 46.594 65.9369 46.8907 66.0599C47.1873 66.1829 47.5053 66.2462 47.8265 66.2462C48.475 66.2462 49.097 65.9884 49.5556 65.5294C50.0142 65.0704 50.2718 64.4479 50.2718 63.7988V61.9639Z" fill="#915620"/>
<path d="M47.217 64.105C47.217 64.2256 47.2528 64.3435 47.3197 64.4438C47.3867 64.544 47.4818 64.6222 47.5931 64.6683C47.7045 64.7145 47.8269 64.7266 47.9451 64.703C48.0633 64.6795 48.1719 64.6214 48.2571 64.5362C48.3423 64.4509 48.4003 64.3422 48.4238 64.224C48.4473 64.1057 48.4352 63.9831 48.3891 63.8717C48.343 63.7602 48.2649 63.665 48.1647 63.598C48.0646 63.531 47.9468 63.4952 47.8263 63.4952C47.6647 63.4952 47.5097 63.5595 47.3955 63.6738C47.2812 63.7882 47.217 63.9433 47.217 64.105Z" fill="#D3D3D3"/>
<path d="M45.3811 95.5199H50.2718V93.6822C50.2711 93.0336 50.0131 92.4118 49.5546 91.9534C49.0961 91.495 48.4745 91.2375 47.8265 91.2375C47.1784 91.2375 46.5568 91.495 46.0983 91.9534C45.6398 92.4118 45.3818 93.0336 45.3811 93.6822V95.5199Z" fill="#915620"/>
<path d="M48.4355 93.3789C48.4355 93.2583 48.3998 93.1404 48.3328 93.0402C48.2659 92.9399 48.1707 92.8617 48.0594 92.8156C47.9481 92.7694 47.8256 92.7574 47.7074 92.7809C47.5892 92.8044 47.4807 92.8625 47.3955 92.9478C47.3103 93.033 47.2523 93.1417 47.2287 93.26C47.2052 93.3782 47.2173 93.5008 47.2634 93.6123C47.3095 93.7237 47.3876 93.8189 47.4878 93.8859C47.588 93.9529 47.7058 93.9887 47.8263 93.9887C47.9878 93.9887 48.1428 93.9244 48.2571 93.8101C48.3713 93.6957 48.4355 93.5406 48.4355 93.3789Z" fill="#D3D3D3"/>
<path d="M48.4355 85.8147C48.4355 85.6941 48.3998 85.5762 48.3328 85.4759C48.2659 85.3757 48.1707 85.2975 48.0594 85.2514C47.9481 85.2052 47.8256 85.1931 47.7074 85.2167C47.5892 85.2402 47.4807 85.2983 47.3955 85.3835C47.3103 85.4688 47.2523 85.5775 47.2287 85.6958C47.2052 85.814 47.2173 85.9366 47.2634 86.0481C47.3095 86.1595 47.3876 86.2547 47.4878 86.3217C47.588 86.3887 47.7058 86.4245 47.8263 86.4245C47.9878 86.4245 48.1428 86.3602 48.2571 86.2459C48.3713 86.1315 48.4355 85.9764 48.4355 85.8147Z" fill="#D3D3D3"/>
<path d="M48.4355 78.742C48.4355 78.6214 48.3998 78.5035 48.3328 78.4032C48.2659 78.3029 48.1707 78.2248 48.0594 78.1786C47.9481 78.1325 47.8256 78.1204 47.7074 78.1439C47.5892 78.1674 47.4807 78.2255 47.3955 78.3108C47.3103 78.3961 47.2523 78.5047 47.2287 78.623C47.2052 78.7413 47.2173 78.8639 47.2634 78.9753C47.3095 79.0867 47.3876 79.1819 47.4878 79.2489C47.588 79.316 47.7058 79.3517 47.8263 79.3517C47.9878 79.3517 48.1428 79.2875 48.2571 79.1731C48.3713 79.0588 48.4355 78.9037 48.4355 78.742Z" fill="#D3D3D3"/>
<path d="M48.4355 71.6665C48.4355 71.5459 48.3998 71.428 48.3328 71.3278C48.2659 71.2275 48.1707 71.1493 48.0594 71.1032C47.9481 71.057 47.8256 71.045 47.7074 71.0685C47.5892 71.092 47.4807 71.1501 47.3955 71.2354C47.3103 71.3206 47.2523 71.4293 47.2287 71.5476C47.2052 71.6658 47.2173 71.7884 47.2634 71.8999C47.3095 72.0113 47.3876 72.1065 47.4878 72.1735C47.588 72.2405 47.7058 72.2763 47.8263 72.2763C47.9878 72.2763 48.1428 72.212 48.2571 72.0977C48.3713 71.9833 48.4355 71.8282 48.4355 71.6665Z" fill="#D3D3D3"/>
<path d="M18.2883 70.7279L19.0744 71.6439L20.2732 71.5175L19.6443 72.5459L20.1356 73.6474L18.9649 73.3692L18.0693 74.1785L17.9738 72.9759L16.9294 72.3745L18.0412 71.9109L18.2883 70.7279Z" fill="#282F39"/>
<path d="M42.4836 75.2351L41.501 75.3419L41.1978 74.0493L42.5033 73.9088L42.4836 75.2351Z" fill="#283039"/>
<path d="M42.5304 71.7313L40.7105 71.9288C40.5595 71.9452 40.4503 72.0811 40.4667 72.2323L40.6641 74.0536C40.6804 74.2048 40.8162 74.3141 40.9673 74.2977L42.7871 74.1002C42.9382 74.0838 43.0473 73.9479 43.0309 73.7967L42.8336 71.9753C42.8172 71.8241 42.6814 71.7149 42.5304 71.7313Z" fill="#D5DCE0"/>
<path d="M42.5246 72.0453L40.7773 72.2346L40.9665 73.9834L42.7138 73.794L42.5246 72.0453Z" fill="#C3CCD5"/>
<path d="M42.4222 72.172L40.8982 72.3372L41.0632 73.8625L42.5872 73.6973L42.4222 72.172Z" fill="#283039"/>
<path d="M42.2214 72.4259L41.1636 72.5408L41.2783 73.5995L42.3362 73.4847L42.2214 72.4259Z" fill="#12171E"/>
<path opacity="0.2" d="M41.9779 72.4532L41.1609 72.5432L41.2732 73.5997L41.4304 73.5828C41.5277 73.1706 41.7146 72.7849 41.9779 72.4532Z" fill="#2D3842"/>
<path d="M34.1706 75.9377C34.0641 75.9537 33.966 76.005 33.8922 76.0835C33.8183 76.162 33.773 76.2631 33.7635 76.3705C33.7621 76.3873 33.7621 76.4042 33.7635 76.421L34.2969 81.3412C34.3103 81.4649 34.3723 81.5782 34.4692 81.6562C34.5661 81.7342 34.6899 81.7705 34.8135 81.7571L44.1205 80.7568C44.1819 80.7501 44.2415 80.7314 44.2957 80.7016C44.3499 80.6719 44.3977 80.6317 44.4363 80.5834C44.4749 80.535 44.5036 80.4796 44.5207 80.4201C44.5378 80.3607 44.543 80.2984 44.536 80.2369L44.0082 75.3561C43.9947 75.2309 43.9322 75.1162 43.8343 75.0371C43.7363 74.9581 43.6111 74.9212 43.486 74.9346L34.1706 75.9377Z" fill="#054DA3"/>
<path d="M34.0525 79.0705L34.2996 81.3437C34.313 81.4674 34.3749 81.5808 34.4718 81.6587C34.5687 81.7367 34.6925 81.773 34.8161 81.7596L44.1203 80.7565C44.1817 80.7498 44.2413 80.7311 44.2955 80.7013C44.3497 80.6716 44.3975 80.6314 44.4361 80.5831C44.4747 80.5347 44.5034 80.4793 44.5205 80.4198C44.5376 80.3604 44.5428 80.2981 44.5358 80.2366L44.1456 76.6062C43.8489 76.8685 43.5251 77.0983 43.1798 77.2918C40.5379 78.753 37.0397 80.2451 34.0525 79.0705Z" fill="#003C94"/>
<path d="M35.7721 75.3034L34.3513 75.4572L34.4008 75.9153L35.8216 75.7616L35.7721 75.3034Z" fill="#12171E"/>
<path d="M37.2171 74.7541L36.0747 74.8811L36.1254 75.3373L37.2677 75.2103L37.2171 74.7541Z" fill="#12171E"/>
<path d="M33.7689 76.4406L33.8138 76.8481L44.05 75.7381L44.0079 75.3335C43.9945 75.2126 43.9338 75.1019 43.8391 75.0255C43.7445 74.9492 43.6235 74.9135 43.5026 74.9261L34.1731 75.9376C34.0531 75.9511 33.9432 76.0115 33.8674 76.1057C33.7917 76.2 33.7562 76.3204 33.7689 76.4406Z" fill="#C3CCD5"/>
<path d="M43.5165 74.9258L34.1871 75.9374C34.0933 75.9489 34.0053 75.9886 33.9346 76.0514C33.8639 76.1141 33.8139 76.1968 33.7913 76.2886L43.9798 75.1843C43.9383 75.099 43.8716 75.0284 43.7888 74.9822C43.7059 74.9359 43.6109 74.9163 43.5165 74.9258Z" fill="#D5DCE0"/>
<path d="M34.2517 80.9675L34.2938 81.3412C34.3072 81.4649 34.3692 81.5782 34.4661 81.6562C34.563 81.7342 34.6868 81.7704 34.8104 81.7571L44.1202 80.7567C44.1816 80.7501 44.2412 80.7313 44.2954 80.7016C44.3496 80.6718 44.3974 80.6316 44.436 80.5833C44.4746 80.535 44.5033 80.4795 44.5204 80.4201C44.5375 80.3606 44.5427 80.2984 44.5357 80.2369L44.4964 79.866L34.2517 80.9675Z" fill="#C3CCD5"/>
<path d="M34.4456 81.6333C34.4946 81.6797 34.5532 81.7148 34.6172 81.7362C34.6812 81.7575 34.7491 81.7646 34.8162 81.757L44.1203 80.7566C44.1876 80.7488 44.2524 80.7267 44.3105 80.6918C44.3686 80.6569 44.4186 80.61 44.4572 80.5543L34.4456 81.6333Z" fill="#D5DCE0"/>
<path d="M42.899 77.559C42.9665 78.179 42.8487 78.8051 42.5606 79.3581C42.2725 79.9111 41.827 80.3661 41.2804 80.6657C40.7339 80.9652 40.1109 81.0958 39.4902 81.0409C38.8694 80.986 38.279 80.7481 37.7934 80.3572C37.3078 79.9664 36.9489 79.4402 36.7622 78.8452C36.5755 78.2502 36.5692 77.6131 36.7443 77.0146C36.9194 76.416 37.2679 75.8829 37.7458 75.4826C38.2236 75.0824 38.8094 74.8329 39.4289 74.7659C40.2589 74.6769 41.0903 74.9209 41.7409 75.4445C42.3914 75.9681 42.8079 76.7285 42.899 77.559Z" fill="#D5DCE0"/>
<path d="M42.6125 77.5896C42.6753 78.1528 42.5698 78.7219 42.3092 79.225C42.0486 79.728 41.6448 80.1424 41.1488 80.4157C40.6528 80.6889 40.087 80.8087 39.5229 80.7599C38.9589 80.7111 38.422 80.4959 37.9802 80.1415C37.5384 79.7872 37.2116 79.3096 37.0412 78.7692C36.8707 78.2289 36.8643 77.6501 37.0227 77.106C37.1811 76.562 37.4972 76.0773 37.931 75.7132C38.3649 75.3491 38.8969 75.122 39.4597 75.0607C40.2128 74.9779 40.9679 75.1978 41.5591 75.672C42.1504 76.1462 42.5292 76.8359 42.6125 77.5896Z" fill="#404751"/>
<path d="M42.2195 77.6319C42.2723 78.1177 42.1799 78.6081 41.954 79.0413C41.7282 79.4745 41.3791 79.8309 40.9508 80.0654C40.5225 80.3 40.0344 80.4021 39.5481 80.359C39.0618 80.3158 38.5993 80.1293 38.219 79.8229C37.8386 79.5166 37.5576 79.1042 37.4115 78.638C37.2654 78.1718 37.2607 77.6727 37.398 77.2039C37.5353 76.735 37.8085 76.3174 38.183 76.004C38.5575 75.6905 39.0165 75.4953 39.5018 75.443C39.8239 75.4079 40.1498 75.4367 40.4607 75.5277C40.7717 75.6188 41.0617 75.7703 41.3141 75.9736C41.5665 76.1769 41.7764 76.428 41.9317 76.7125C42.0871 76.9971 42.1849 77.3095 42.2195 77.6319Z" fill="#283039"/>
<path d="M42.0287 77.6658C42.0765 78.1132 41.9908 78.5648 41.7824 78.9635C41.5739 79.3622 41.252 79.6901 40.8574 79.9058C40.4628 80.1214 40.0131 80.2152 39.5653 80.1752C39.1175 80.1352 38.6915 79.9632 38.3413 79.681C37.9911 79.3988 37.7324 79.019 37.5977 78.5896C37.4631 78.1603 37.4587 77.7006 37.585 77.2687C37.7113 76.8369 37.9627 76.4522 38.3074 76.1632C38.652 75.8743 39.0746 75.6941 39.5216 75.6454C39.8188 75.6131 40.1194 75.6397 40.4063 75.7237C40.6933 75.8078 40.9608 75.9477 41.1937 76.1353C41.4265 76.323 41.6202 76.5547 41.7634 76.8173C41.9067 77.08 41.9968 77.3683 42.0287 77.6658Z" fill="#12171E"/>
<path d="M40.8326 77.7837C40.8558 77.9948 40.8159 78.208 40.718 78.3964C40.6201 78.5848 40.4686 78.7399 40.2826 78.842C40.0966 78.9442 39.8845 78.9888 39.6731 78.9703C39.4617 78.9518 39.2606 78.871 39.0951 78.7381C38.9297 78.6051 38.8074 78.426 38.7436 78.2235C38.6799 78.0209 38.6776 77.804 38.7371 77.6002C38.7965 77.3963 38.9151 77.2147 39.0777 77.0783C39.2403 76.9419 39.4397 76.8569 39.6506 76.8339C39.9332 76.8032 40.2164 76.8859 40.438 77.064C40.6596 77.2421 40.8015 77.5009 40.8326 77.7837Z" fill="#31476C"/>
<path opacity="0.2" d="M41.7313 76.7526C41.4651 76.3108 41.057 75.9727 40.5737 75.7935C40.0904 75.6144 39.5606 75.6049 39.0712 75.7665C38.5818 75.9281 38.1618 76.2514 37.8799 76.6832C37.5981 77.1151 37.4712 77.63 37.52 78.1435C37.5494 78.4241 37.6313 78.6968 37.7614 78.9471C38.5389 78.8763 39.2932 78.6448 39.9766 78.267C40.6599 77.8892 41.2575 77.3735 41.7313 76.7526Z" fill="#2D3842"/>
<path d="M40.2824 77.2442C40.2109 77.1869 40.1579 77.1097 40.1301 77.0224C40.1024 76.935 40.1012 76.8413 40.1266 76.7533C40.152 76.6652 40.203 76.5866 40.273 76.5275C40.3431 76.4684 40.429 76.4314 40.52 76.4212C40.6111 76.411 40.7031 76.428 40.7845 76.4702C40.8658 76.5123 40.9329 76.5776 40.9772 76.6579C41.0214 76.7381 41.041 76.8297 41.0332 76.9211C41.0255 77.0124 40.9909 77.0994 40.9338 77.1711C40.8567 77.2666 40.745 77.3279 40.6231 77.3416C40.5012 77.3553 40.3787 77.3203 40.2824 77.2442Z" fill="#D5DCE0"/>
<path d="M40.0717 78.0673C40.0081 78.0755 39.9434 78.0647 39.8859 78.0362C39.8284 78.0078 39.7806 77.963 39.7485 77.9074C39.7163 77.8519 39.7013 77.788 39.7052 77.724C39.7092 77.6599 39.7319 77.5984 39.7707 77.5472C39.8094 77.496 39.8624 77.4575 39.923 77.4363C39.9835 77.4151 40.049 77.4124 40.1111 77.4283C40.1733 77.4442 40.2293 77.4782 40.2722 77.5259C40.3152 77.5736 40.3431 77.6329 40.3524 77.6964C40.3588 77.7393 40.3565 77.783 40.3457 77.8249C40.335 77.8669 40.316 77.9063 40.2899 77.9409C40.2637 77.9754 40.231 78.0044 40.1935 78.0261C40.156 78.0478 40.1146 78.0618 40.0717 78.0673Z" fill="#D5DCE0"/>
<path d="M33.7776 76.289L29.1423 61.9639L30.0857 60.9945L30.1109 61.9639L33.8309 76.1569L33.7776 76.289Z" fill="#12171E"/>
<path d="M43.7187 74.9568L42.5255 61.9636L42.5002 61.5L43.1937 61.9636L43.8394 75.0326L43.7187 74.9568Z" fill="#12171E"/>
<path d="M69.065 10.8426C68.4895 11.6463 68.8741 13.0456 69.9999 14.7934C71.9259 17.7804 76.0277 21.7789 81.2581 25.5245C89.5459 31.4619 97.5249 34.5163 99.0775 32.3414C99.8327 31.2849 98.9315 29.1887 96.8539 26.6345C94.6556 23.9313 91.1434 20.7111 86.8844 17.6567C78.5881 11.7221 70.6092 8.67054 69.065 10.8426Z" fill="#E39719"/>
<path d="M69.065 10.8426C68.4895 11.6463 68.8741 13.0456 69.9999 14.7934C72.1954 17.4966 75.7076 20.7167 79.9695 23.7683C88.2573 29.7057 96.2363 32.7601 97.7888 30.5852C98.3503 29.7844 97.9798 28.3794 96.8539 26.6345C94.6556 23.9313 91.1434 20.7111 86.8844 17.6567C78.5882 11.7221 70.6092 8.67054 69.065 10.8426Z" fill="#F5A623"/>
<path d="M77.6787 15.4595C78.926 18.2784 80.9053 20.7114 83.4106 22.5053C85.9159 24.2991 88.8557 25.3883 91.9241 25.6595C92.3759 25.0143 92.7705 24.3307 93.1033 23.6167C93.3663 23.058 93.5896 22.4815 93.7715 21.8914C94.2712 20.3099 94.415 18.6374 94.1926 16.9937C94.0118 15.6698 93.5149 14.4091 92.7439 13.3183L92.6316 13.1665C92.5811 13.0963 92.5277 13.0289 92.4716 12.9614C92.3677 12.835 92.2554 12.7113 92.1431 12.5905L92.101 12.5484C92.0561 12.5006 92.0112 12.4556 91.9634 12.4107L91.9185 12.3657C91.8652 12.3123 91.809 12.2589 91.7501 12.2084C91.6911 12.1578 91.6378 12.1072 91.5816 12.0622L91.489 11.9808L91.4019 11.9133L91.2952 11.829L91.1324 11.7082C88.2519 9.6457 84.2315 10.0222 80.8933 12.3179C80.3041 12.7252 79.7491 13.18 79.2341 13.678C78.665 14.2256 78.1446 14.8216 77.6787 15.4595Z" fill="#F5A623"/>
<path d="M77.6787 15.4594C78.926 18.2784 80.9053 20.7113 83.4106 22.5052C85.9159 24.299 88.8557 25.3882 91.9241 25.6594C92.3759 25.0142 92.7705 24.3307 93.1033 23.6166C93.3663 23.058 93.5896 22.4814 93.7715 21.8913C94.2712 20.3098 94.415 18.6373 94.1926 16.9936C93.6963 17.6479 93.0753 18.1972 92.3654 18.6096C91.6555 19.022 90.8709 19.2893 90.0571 19.3961C87.3366 19.7164 84.6049 18.2721 82.8951 16.1253C82.0085 14.9854 81.3308 13.6973 80.8933 12.3207C80.3041 12.7279 79.7491 13.1828 79.2341 13.6807C78.6652 14.2274 78.1447 14.8225 77.6787 15.4594Z" fill="#E39719"/>
<path d="M77.6787 15.4595C78.926 18.2785 80.9053 20.7114 83.4106 22.5053C85.9159 24.2991 88.8557 25.3883 91.9241 25.6595C92.3759 25.0143 92.7704 24.3307 93.1033 23.6167C93.3663 23.0581 93.5895 22.4815 93.7715 21.8914C90.4361 22.7569 87.2187 22.1724 84.8548 20.4864C82.882 19.0672 81.23 17.2481 80.0062 15.1476C79.7254 14.6783 79.4727 14.1922 79.2341 13.6892C78.6655 14.2332 78.1451 14.8255 77.6787 15.4595Z" fill="white"/>
<path d="M91.2445 23.8303C91.5674 25.536 91.0508 27.2922 90.3517 28.8882C89.6527 30.4843 88.7655 31.9932 88.2798 33.6651C87.7941 35.337 87.7632 37.2393 88.7093 38.6921C88.7399 37.8487 89.0128 37.0321 89.4954 36.3402C90.0998 37.5687 91.1458 38.5232 92.4237 39.0124C91.3821 36.7251 91.8902 34.0613 92.4433 31.6082C92.9964 29.1552 93.5663 26.5194 92.6174 24.1928C92.2356 24.0411 91.6179 23.968 91.2445 23.8303Z" fill="#DDD7D7"/>
<path d="M90.7114 24.0325C91.7334 25.7437 91.8709 27.8399 91.7474 29.8322C91.6239 31.8244 91.2645 33.8054 91.4021 35.7949C91.5396 37.7843 92.2584 39.8552 93.853 41.0466C93.5526 40.1246 93.5234 39.1356 93.7688 38.1974C94.9048 39.2833 96.4094 39.8987 97.9801 39.9199C95.9503 37.8658 95.4533 34.7945 95.0715 31.9284C94.6897 29.0623 94.2658 25.9966 92.3229 23.8639C91.8653 23.8639 91.1719 24.0325 90.7114 24.0325Z" fill="white"/>
<path d="M43.1629 34.9884L43.3735 35.7779L43.584 34.9884C43.8125 34.0333 44.3703 33.1896 45.1591 32.6055C44.3715 32.0203 43.8141 31.177 43.584 30.2227L43.3735 29.4303L43.1629 30.2227C42.9311 31.1763 42.3741 32.019 41.5879 32.6055C42.3758 33.1904 42.9333 34.0338 43.1629 34.9884Z" fill="#FAFAFA"/>
<path d="M47.815 40.2262L48.0957 41.3136L48.3765 40.2262C48.6911 38.9112 49.4585 37.7492 50.5439 36.9442C49.458 36.1408 48.6903 34.9795 48.3765 33.665L48.0957 32.5775L47.815 33.665C47.5002 34.9798 46.7316 36.1411 45.6448 36.9442C46.7311 37.7489 47.4995 38.9109 47.815 40.2262Z" fill="#FAFAFA"/>
<path d="M100.299 75.5779L100.428 75.0946L100.557 75.5779C100.697 76.1636 101.039 76.681 101.523 77.0391C101.04 77.3976 100.698 77.9149 100.557 78.5002L100.428 78.9864L100.299 78.5002C100.158 77.9149 99.8165 77.3976 99.3333 77.0391C99.8171 76.681 100.159 76.1636 100.299 75.5779Z" fill="#FAFAFA"/>
<path d="M103.154 72.366L103.331 71.6973L103.508 72.366C103.703 73.1717 104.174 73.8836 104.839 74.3779C104.173 74.8718 103.702 75.5839 103.508 76.3898L103.331 77.0558L103.154 76.3898C102.96 75.5839 102.489 74.8718 101.823 74.3779C102.488 73.8836 102.959 73.1717 103.154 72.366Z" fill="#FAFAFA"/>
<path d="M61.4148 13.5093L61.5748 12.908L61.7348 13.5093C61.9088 14.2366 62.3332 14.8793 62.9336 15.3245C62.3333 15.7685 61.9087 16.4103 61.7348 17.1369L61.5748 17.7382L61.4148 17.1369C61.2397 16.4101 60.8142 15.7684 60.2131 15.3245C60.8144 14.8796 61.2398 14.2369 61.4148 13.5093Z" fill="#FAFAFA"/>
<path d="M64.9548 9.52192L65.1766 8.69299L65.3956 9.52192C65.6356 10.5236 66.2212 11.4082 67.0492 12.02C66.2207 12.6312 65.6349 13.5161 65.3956 14.518L65.1766 15.3441L64.9548 14.518C64.7155 13.5168 64.1309 12.6322 63.304 12.02C64.1304 11.4073 64.7148 10.5229 64.9548 9.52192Z" fill="#FAFAFA"/>
<path d="M4.53976 55.3127L4.41061 54.8293L4.28146 55.3127C4.14149 55.8983 3.79947 56.4158 3.31567 56.7738C3.79896 57.1336 4.14075 57.6517 4.28146 58.2378L4.41061 58.7211L4.53976 58.2378C4.68047 57.6517 5.02226 57.1336 5.50555 56.7738C5.02175 56.4158 4.67973 55.8983 4.53976 55.3127Z" fill="#FAFAFA"/>
<path d="M1.68452 52.0953L1.50764 51.4293L1.33077 52.0953C1.13765 52.9033 0.666536 53.6176 0 54.1128C0.66492 54.6071 1.13578 55.319 1.33077 56.1247L1.50764 56.7907L1.68452 56.1247C1.8795 55.319 2.35036 54.6071 3.01528 54.1128C2.34875 53.6176 1.87763 52.9033 1.68452 52.0953Z" fill="#FAFAFA"/>
</svg>
