<svg width="432" height="451" viewBox="0 0 432 451" fill="none" xmlns="http://www.w3.org/2000/svg">
<path d="M156.009 102.754H156.139C153.758 92.2813 157.175 78.706 150.212 70.0881C148.892 68.9231 147.484 67.8638 146.002 66.92C158.228 74.7664 153.596 90.689 156.009 102.754Z" fill="#28BFFD"/>
<path d="M135.3 52.9021C135.3 60.9619 132.45 69.3171 132.45 73.388C132.45 73.4701 132.45 73.5522 132.45 73.6342C132.58 69.4484 135.3 61.1096 135.3 53.1483C135.316 53.0663 135.3 52.9842 135.3 52.9021Z" fill="#28BFFD"/>
<path d="M135.073 39.0975C152.431 39.0975 166.405 61.5204 166.535 79.9051C166.535 79.8066 166.535 79.7081 166.535 79.6096C166.535 61.1757 152.496 38.5723 135.056 38.5723C133.712 38.5723 133.356 39.1632 133.437 40.3451C133.534 39.5079 133.971 39.0975 135.073 39.0975Z" fill="#28BFFD"/>
<path d="M133.454 40.2953C133.292 42.183 135.251 46.3688 135.3 52.902C135.3 52.7871 135.3 52.6886 135.3 52.5737C135.316 46.5001 133.632 42.4292 133.454 40.2953Z" fill="#28BFFD"/>
<path d="M156.007 102.755C153.545 90.69 158.225 74.8496 145.999 66.9704C147.482 67.9142 148.889 68.9734 150.21 70.1385C149.018 68.6651 147.596 67.4007 145.999 66.3959C157.059 73.4051 162.581 85.9953 163.957 98.602C165.548 92.4958 166.418 86.2196 166.548 79.9054C166.419 61.5206 152.444 39.0978 135.086 39.0978C133.984 39.0978 133.547 39.5082 133.466 40.2961C133.644 42.43 135.328 46.5009 135.328 52.5745C135.328 52.6894 135.328 52.7879 135.328 52.9028C135.328 53.0177 135.328 53.0669 135.328 53.149C135.328 61.1103 132.608 69.4491 132.479 73.6349C132.543 86.9638 143.603 99.0453 156.007 102.755Z" fill="#28BFFD"/>
<path d="M279.074 100.095C287.98 91.5266 304.448 87.6691 304.901 72.7971C304.545 85.9291 296.627 97.2062 286.604 104.806C292.699 103.072 298.566 100.597 304.075 97.436C319.75 88.0959 331.894 64.3598 323.069 49.1103C321.126 45.8273 319.216 51.671 311.216 56.4313C304.286 60.5679 295.542 62.4228 292.077 64.4911C280.709 71.2705 275.868 87.2751 279.074 100.095Z" fill="#28BFFD"/>
<path d="M185.416 78.296C182.404 83.9592 177.32 88.8344 175.701 91.6578C170.762 100.932 173.936 113.736 181.287 121.057C183.846 111.586 193.383 102.163 187.683 91.9532C192.768 100.998 191.958 111.832 188.266 121.106C191.673 117.412 194.63 113.318 197.075 108.91C203.876 96.1226 202.483 75.0787 190.387 68.4634C187.813 67.0189 188.898 71.7793 185.416 78.296Z" fill="#28BFFD"/>
<path d="M93.2316 141.493C92.7134 144.497 96.8426 141.969 104.032 143.266C110.283 144.399 116.452 147.829 119.577 148.387C129.811 150.242 140.806 143.184 145.372 133.811C135.657 134.32 123.884 128.066 116.096 136.749C122.994 129.034 133.406 126.424 143.235 127.081C138.708 124.955 133.946 123.39 129.05 122.419C114.93 119.875 95.6605 127.787 93.2316 141.493Z" fill="#28BFFD"/>
<path d="M81.8793 88.9658C85.6198 94.1529 87.7573 100.949 89.6356 103.542C95.7889 112.045 108.549 114.622 118.232 111.027C110.881 104.626 106.638 91.8876 95.0278 92.6755C105.278 91.904 114.589 97.3046 121.26 104.658C119.44 99.9496 117.058 95.4843 114.168 91.3623C105.683 79.6421 86.3323 71.8942 75.305 80.1345C72.8275 81.9402 77.4911 82.9907 81.8793 88.9658Z" fill="#28BFFD"/>
<path d="M34.1418 174.651C33.7208 185.485 43.2907 195.876 54.3827 199.274C52.2939 189.425 57.3298 176.293 46.4645 169.431C56.1801 175.489 60.6655 185.846 61.5075 196.155C63.1386 191.208 64.1133 186.064 64.4061 180.856C64.9728 165.919 53.0711 147.074 37.5747 146.385C34.1742 146.237 37.5747 150.16 37.3318 157.777C37.0079 164.507 34.2552 171.352 34.1418 174.651Z" fill="#F5A623"/>
<path d="M6.76056 217.281C9.9991 222.977 11.3269 230.282 12.9785 233.122C18.4031 242.478 32.005 245.991 43.1779 242.79C36.1179 235.584 33.4623 221.828 20.6053 222.009C31.9402 221.828 41.3158 228.099 47.5014 236.273C46.2396 231.216 44.3173 226.353 41.7854 221.812C34.3043 208.926 14.2578 199.553 0.882603 207.547C-2.06447 209.304 3.00385 210.699 6.76056 217.281Z" fill="#F5A623"/>
<path d="M56.7464 270.81C53.5068 266.761 49.7494 263.168 45.5735 260.124C33.4451 251.638 11.3907 251.654 2.54949 264.638C0.60637 267.495 5.78803 266.625 11.9089 270.958C17.2686 274.717 21.4625 280.807 24.1343 282.678C32.9431 288.85 46.8041 286.24 55.532 278.575C46.1402 275.046 37.9791 263.801 26.3851 269.35C36.6513 264.343 47.7595 266.034 56.7464 270.81Z" fill="#F5A623"/>
<path d="M94.3943 273.158C95.5619 268.077 96.0413 262.858 95.8193 257.646C94.9611 242.741 81.3754 225.144 65.8305 226.064C62.4139 226.261 66.2354 229.823 66.6726 237.439C67.0612 244.005 64.9076 251.129 65.0533 254.412C65.6848 265.246 76.1938 274.652 87.5773 276.983C84.5492 267.298 88.3059 253.805 76.8253 248.043C87.0753 253.132 92.5808 263.03 94.3943 273.158Z" fill="#F5A623"/>
<path d="M85.7821 308.056C79.5479 321.582 83.1913 343.611 97.279 350.325C100.372 351.802 98.6878 346.812 101.894 339.918C104.679 333.926 109.893 328.739 111.286 325.751C115.82 315.902 111.01 302.573 102.104 295.039C100.21 305.003 90.559 315.049 97.9267 325.653C91.3686 316.264 91.1743 304.888 94.3481 295.105C90.9367 299.016 88.0559 303.372 85.7821 308.056Z" fill="#F5A623"/>
<path d="M67.5975 295.893C62.4568 296.142 57.3712 297.081 52.4735 298.683C38.5478 303.608 25.4965 321.664 30.5486 336.438C31.6821 339.721 34.03 335.043 41.1386 332.547C47.308 330.397 54.6271 330.578 57.7038 329.511C67.8242 325.965 73.8965 313.096 73.0383 301.441C64.6666 307.006 50.8381 306.989 48.4577 319.727C50.5466 308.467 58.4648 300.358 67.5975 295.893Z" fill="#F5A623"/>
<path d="M155.364 195.401C159.006 191.946 162.22 188.054 164.934 183.812C172.479 171.435 172.317 150.358 160.643 143.021C158.084 141.379 158.878 146.304 155.04 152.541C151.704 158.024 146.28 162.571 144.612 165.312C139.139 174.275 141.568 187.242 148.482 194.99C151.591 185.683 161.663 176.934 156.578 166.313C161.031 175.604 159.59 186.372 155.364 195.401Z" fill="#28BFFD"/>
<path d="M138.372 223.766C132.51 216.379 131.895 203.264 119.281 202.295C124.29 202.709 129.123 204.359 133.357 207.104C137.591 209.848 141.097 213.602 143.57 218.037C143.085 213.211 141.924 208.479 140.121 203.986C134.696 191.264 116.415 180.71 102.003 187.013C98.7645 188.408 103.622 190.165 106.326 196.648C108.723 202.279 108.885 209.239 110.083 212.046C114.05 221.271 126.907 225.768 138.372 223.766Z" fill="#F5A623"/>
<path d="M187.601 212.374C183.666 215.936 178.306 218.299 176.266 220.089C169.789 225.932 168.655 236.733 172.25 244.432C176.93 237.784 186.969 233.106 185.463 223.602C186.807 232.022 183.115 240.213 177.61 246.385C181.294 244.457 184.74 242.094 187.876 239.343C196.766 231.284 201.656 214.573 194.191 206.136C192.621 204.281 192.102 208.27 187.601 212.374Z" fill="#F5A623"/>
<path d="M261.308 115.755C260.304 105.906 265.842 93.693 256.887 86.2077C264.854 92.7737 267.979 103.181 267.834 113.178C269.688 108.481 270.982 103.576 271.687 98.5682C273.452 84.1559 264.66 65.0488 251.026 63.3088C248.046 62.9313 250.75 66.9694 249.843 74.3397C249.066 80.7251 245.99 87.1434 245.601 90.3279C244.273 100.85 251.835 111.585 261.308 115.755Z" fill="#28BFFD"/>
<path d="M300.741 159.878C306.829 146.746 304.287 125.784 291.851 119.875C289.13 118.578 290.474 123.273 287.365 129.986C284.677 135.814 279.803 140.952 278.459 143.857C274.039 153.411 277.909 166.001 285.665 172.895C287.673 163.292 296.692 153.345 290.523 143.48C296.077 152.229 295.866 163.095 292.693 172.55C295.866 168.668 298.568 164.413 300.741 159.878Z" fill="#FA4D56"/>
<path d="M317.397 166.198C315.406 163.916 314.823 168.775 309.301 173.733C304.573 178.033 298.096 180.824 295.748 182.974C288.008 190.016 286.712 203.132 291.181 212.521C296.735 204.478 308.88 198.897 306.921 187.341C308.686 197.6 304.314 207.515 297.723 214.967C302.163 212.655 306.315 209.818 310.094 206.513C320.846 196.845 326.579 176.572 317.397 166.198Z" fill="#FA4D56"/>
<path d="M371.244 160.486C377.462 152.951 390.012 148.437 389.056 136.733C389.947 147.108 384.749 156.628 377.576 163.49C382.193 161.564 386.569 159.09 390.611 156.119C402.027 147.354 409.443 127.656 401.136 116.51C399.339 114.081 398.351 118.857 392.522 123.322C387.453 127.213 380.766 129.445 378.24 131.382C369.933 137.85 367.569 150.735 371.244 160.486Z" fill="#FA4D56"/>
<path d="M394.461 233.286C401.586 226.72 414.621 223.831 415.172 212.111C414.718 222.518 408.338 231.251 400.339 237.094C405.16 235.801 409.813 233.933 414.2 231.53C426.669 224.373 436.562 205.824 429.81 193.775C428.32 191.116 426.733 195.729 420.37 199.389C414.848 202.557 407.934 203.887 405.181 205.463C396.113 210.584 392.081 223.207 394.461 233.286Z" fill="#FA4D56"/>
<path d="M419.239 249.931C419.401 246.878 415.596 249.931 408.293 249.439C401.961 249.061 395.452 246.369 392.294 246.156C381.899 245.532 371.778 253.838 368.329 263.67C377.883 262.029 390.335 266.838 397.071 257.301C391.112 265.788 381.073 269.596 371.163 270.105C375.887 271.68 380.779 272.677 385.736 273.076C400.164 273.962 418.413 263.834 419.239 249.931Z" fill="#FA4D56"/>
<path d="M353.206 259.714C357.228 256.752 360.887 253.314 364.103 249.471C373.155 238.194 375.714 217.265 365.075 208.434C362.727 206.529 362.905 211.405 358.29 217.15C354.275 222.074 348.316 225.932 346.324 228.411C339.733 236.618 340.495 249.75 346.324 258.368C350.583 249.537 361.723 242.133 358.015 231.004C361.367 240.82 358.549 251.326 353.206 259.714Z" fill="#FA4D56"/>
<path d="M349.401 171.452C352.122 179.544 349.806 188.178 345.402 195.073C348.722 192.625 351.74 189.782 354.389 186.603C361.837 177.344 363.926 160.142 355.182 152.886C353.255 151.245 353.401 155.332 349.596 160.06C346.357 164.147 341.402 167.282 339.767 169.318C334.358 176.048 334.909 186.865 339.767 193.94C343.28 186.685 352.446 180.529 349.401 171.452Z" fill="#FA4D56"/>
<path d="M335.441 290.509C337.355 295.163 339.807 299.571 342.744 303.641C351.391 315.229 370.854 322.698 381.817 314.277C384.213 312.422 379.485 311.454 375.065 305.545C371.243 300.407 369.008 293.66 367.098 291.1C360.799 282.679 348.006 280.299 338.388 284.041C345.837 290.328 350.306 303.05 361.851 302.015C351.634 303.033 342.226 297.78 335.441 290.509Z" fill="#FA4D56"/>
<path d="M351.426 86.3888C348.414 96.3363 340.091 103.181 330.877 106.793C335.863 106.812 340.833 106.216 345.677 105.02C359.538 101.261 373.691 85.8143 370.145 72.354C369.367 69.3993 366.696 73.4702 359.619 75.3908C353.498 77.0323 346.471 76.5891 343.427 77.4262C333.371 80.1511 326.359 91.264 326.149 101.704C334.682 97.0093 347.993 97.6002 351.426 86.3888Z" fill="#28BFFD"/>
<path d="M316.056 159.977C320.519 157.693 324.69 154.865 328.476 151.556C339.163 141.888 344.944 121.632 335.812 111.224C333.804 108.959 333.221 113.802 327.715 118.743C322.971 123.027 316.494 125.817 314.129 127.951C306.373 134.977 305.045 148.093 309.482 157.498C315.069 149.488 327.213 143.923 325.302 132.367C327.067 142.643 322.663 152.623 316.056 159.977Z" fill="#FA4D56"/>
<path d="M222.56 76.4578C224.843 67.922 233.458 59.4355 228.325 50.1938C232.907 58.4013 232.163 68.119 228.827 76.4578C231.902 73.1282 234.572 69.4357 236.777 65.4598C242.898 53.9693 241.635 34.9772 230.754 29.0021C228.357 27.7054 229.345 32.0061 226.22 37.8826C223.516 42.9877 218.868 47.3705 217.524 49.9148C213.071 58.3193 215.937 69.859 222.56 76.4578Z" fill="#28BFFD"/>
<path d="M292.758 33.9753C293.422 43.3483 288.596 51.8348 282.038 57.9083C286.226 56.2568 290.201 54.0961 293.875 51.4737C304.32 43.7422 311.266 26.0962 303.98 15.9517C302.36 13.7357 301.421 18.0364 296.11 21.976C291.479 25.3903 285.423 27.3109 283.156 29.018C275.561 34.6155 273.246 46.2701 276.419 55.1178C282.103 48.4205 293.487 44.5301 292.758 33.9753Z" fill="#28BFFD"/>
<path d="M210.87 18.0206C212.603 26.343 209.251 34.5833 204.166 40.8702C207.726 38.8527 211.032 36.4055 214.012 33.582C222.432 25.3745 226.512 8.63124 218.724 0.440166C217.023 -1.34907 216.7 2.62336 212.408 6.82559C208.652 10.4533 203.47 12.932 201.608 14.7376C195.503 20.7127 194.839 31.4645 198.758 39.0153C203.065 32.3016 212.797 27.3771 210.87 18.0206Z" fill="#28BFFD"/>
<path d="M167.037 47.0093C169.66 55.2168 178.922 60.486 187.326 60.1412C183.229 53.2798 183.116 42.2489 173.951 39.918C182.047 41.9699 187.958 48.5687 191.277 56.0047C191.065 51.9039 190.375 47.843 189.221 43.9069C185.594 32.6298 172.526 21.5989 161.855 25.1282C159.523 25.8997 162.924 27.9351 164.77 33.6968C166.292 38.6869 166.227 44.5142 167.037 47.0093Z" fill="#28BFFD"/>
<path d="M50.8219 116.017C54.1899 120.006 56.3436 125.423 58.0276 127.393C63.5494 133.959 74.107 135.223 81.7662 131.694C75.3863 126.95 71.1114 116.805 61.752 118.217C70.0588 116.953 77.9447 120.761 83.855 126.326C82.0702 122.611 79.858 119.123 77.2646 115.935C69.6378 106.94 53.4127 101.835 44.8791 109.238C43.0169 110.863 46.9356 111.421 50.8219 116.017Z" fill="#28BFFD"/>
<path d="M251.172 28.2305C253.358 34.9934 260.985 39.3598 267.931 39.13C264.547 33.4668 264.45 24.3565 256.888 22.436C263.608 24.0775 268.449 29.5765 271.186 35.7157C270.996 32.3075 270.404 28.9348 269.421 25.6697C266.409 16.3788 255.609 7.26852 246.848 10.174C244.921 10.8142 247.707 12.4885 249.245 17.2488C250.573 21.3033 250.508 26.2278 251.172 28.2305Z" fill="#28BFFD"/>
<path d="M93.9262 58.3354C97.5534 60.6663 100.517 64.4253 102.33 65.5744C108.241 69.3991 116.904 67.8561 122.085 63.1942C115.932 60.9946 110.151 54.0346 103.091 57.4161C109.342 54.3958 116.499 55.4956 122.523 58.4503C120.237 55.96 117.665 53.7557 114.863 51.8843C106.767 46.6315 92.6956 46.5494 87.7244 54.4614C86.5747 56.1686 89.7809 55.6597 93.9262 58.3354Z" fill="#28BFFD"/>
<path d="M235.647 111.011C236.695 108.347 237.418 105.563 237.8 102.722C238.756 94.5142 233.671 83.7295 225.931 82.7939C224.231 82.5969 225.802 84.8786 225.316 89.048C224.879 92.6757 223.162 96.3363 222.968 98.1419C222.272 104.084 226.595 110.158 231.987 112.472C231.372 106.924 234.465 99.9311 229.348 95.7453C233.882 99.4551 235.679 105.348 235.647 111.011Z" fill="#28BFFD"/>
<path d="M266.105 241.034C265.622 237.656 264.742 234.349 263.482 231.185C259.709 222.173 248.196 214.047 239.679 217.708C237.8 218.512 240.731 219.94 242.674 224.536C244.294 228.525 244.682 233.335 245.524 235.305C248.261 241.871 256.228 245.548 263.142 244.711C259.288 239.376 258.43 230.298 250.722 229.034C257.556 230.15 262.851 235.157 266.105 241.034Z" fill="#FA4D56"/>
<path d="M263.172 199.504C264.278 196.284 264.986 192.937 265.277 189.54C265.974 179.773 259.383 167.233 250.153 166.559C248.113 166.412 250.153 169.038 249.732 174.028C249.425 178.345 247.579 182.777 247.433 184.928C246.931 192.019 252.372 198.995 258.898 201.441C257.861 194.875 261.165 186.438 254.898 181.743C260.468 185.88 262.93 192.791 263.172 199.504Z" fill="#FA4D56"/>
<path d="M192.458 290.985C194.633 288.383 196.488 285.522 197.98 282.466C202.109 273.618 200.457 259.485 192.102 255.479C190.256 254.593 191.146 257.761 189.041 262.292C187.212 266.198 183.892 269.645 183.002 271.599C179.99 278.034 182.564 286.52 187.778 291.198C189.155 284.731 195.259 278.066 191.098 271.369C194.741 277.377 194.563 284.632 192.458 290.985Z" fill="#F5A623"/>
<path d="M95.1735 203.936C92.5664 194.497 82.2193 184.944 73.2647 187.521C71.3054 188.063 74.042 189.852 75.3536 194.678C76.5032 198.847 76.2442 203.657 76.8271 205.725C78.7055 212.586 86.1379 217.216 93.1008 217.363C89.9756 211.552 90.267 202.458 82.8022 200.177C89.425 202.179 94.0237 207.843 96.5174 214.08C96.4628 210.657 96.0118 207.252 95.1735 203.936Z" fill="#F5A623"/>
<path d="M91.0647 170.269C96.1978 174.028 103.808 173.552 109.282 170.269C103.906 166.986 99.2582 160.288 92.263 162.521C93.8377 162.019 95.4713 161.732 97.1208 161.667C95.4817 161.399 93.8013 161.592 92.263 162.225C94.9386 161.233 97.7837 160.795 100.629 160.939C103.475 161.083 106.263 161.805 108.828 163.062C107.529 161.461 106.099 159.973 104.553 158.614C99.7915 154.752 93.8241 152.743 87.7291 152.951C85.6802 153.017 83.6691 153.527 81.8311 154.447C79.9932 155.368 78.3711 156.676 77.0742 158.286C77.4143 159.139 80.0537 159.648 83.017 162.192C83.9335 162.93 84.7941 163.737 85.5916 164.605C87.8586 166.854 89.7531 169.317 91.0647 170.269Z" fill="#28BFFD"/>
<path d="M124.984 315.985C121.373 325.062 123.851 338.966 132.433 342.577C134.311 343.348 133.226 340.229 135.089 335.6C136.708 331.579 139.784 327.951 140.562 325.932C143.201 319.366 140.157 311.011 134.667 306.661C133.664 313.227 127.964 320.22 132.498 326.638C128.449 320.958 128.223 313.621 130.004 307.153C127.987 309.882 126.301 312.847 124.984 315.985Z" fill="#F5A623"/>
<path d="M330.095 232.81C332.344 230.274 334.285 227.475 335.876 224.471C340.297 215.755 339.115 201.589 330.856 197.304C329.059 196.352 329.852 199.553 327.618 204.002C325.675 207.859 322.258 211.192 321.286 213.112C318.048 219.448 320.396 228.017 325.448 232.81C327.067 226.392 333.35 219.924 329.367 213.112C332.945 219.186 332.524 226.49 330.095 232.81Z" fill="#FA4D56"/>
<path d="M286.51 295.712C283.809 297.739 281.357 300.087 279.207 302.705C273.183 310.354 271.58 324.487 278.802 330.348C280.422 331.628 280.243 328.345 283.32 324.438C285.992 321.057 289.991 318.463 291.335 316.772C295.707 311.224 295.125 302.36 291.109 296.598C288.307 302.557 280.843 307.629 283.401 315.114C281.118 308.565 282.948 301.392 286.51 295.712Z" fill="#FA4D56"/>
<path d="M388.184 204.281C390.788 202.122 393.121 199.647 395.13 196.91C400.798 188.966 401.704 174.783 394.191 169.284C392.572 168.086 392.863 171.369 389.981 175.423C387.471 178.936 383.601 181.71 382.354 183.467C378.241 189.245 379.261 198.059 383.536 203.624C386.062 197.518 393.252 192.134 390.353 184.747C392.96 191.231 391.454 198.404 388.184 204.281Z" fill="#FA4D56"/>
<path d="M330.099 305.43C330.487 297.337 324.156 289.54 316.659 286.897C317.97 294.317 314.392 304.034 321.662 309.221C315.185 304.642 312.254 296.845 311.817 289.179C310.65 292.875 309.922 296.7 309.647 300.571C309.097 311.717 316.869 325.85 327.459 326.424C329.775 326.539 327.459 323.601 327.767 317.905C327.945 312.98 329.953 307.892 330.099 305.43Z" fill="#FA4D56"/>
<path d="M364.767 109.353C361.528 112.111 357.027 113.802 355.391 115.181C349.967 119.695 348.736 128.493 351.473 134.977C355.456 129.724 363.779 126.31 362.807 118.464C363.698 125.424 360.459 131.973 355.812 136.799C358.877 135.389 361.759 133.602 364.394 131.481C371.859 125.259 376.28 111.783 370.402 104.511C369.106 102.919 368.572 106.185 364.767 109.353Z" fill="#FA4D56"/>
<path d="M215.192 147.945C223.912 147.945 230.98 140.78 230.98 131.941C230.98 123.102 223.912 115.936 215.192 115.936C206.473 115.936 199.404 123.102 199.404 131.941C199.404 140.78 206.473 147.945 215.192 147.945Z" fill="#17CE6A"/>
<path d="M294.861 242.266C294.861 244.697 295.573 247.074 296.905 249.096C298.238 251.118 300.132 252.694 302.348 253.625C304.565 254.555 307.003 254.799 309.356 254.324C311.708 253.85 313.869 252.679 315.566 250.959C317.262 249.24 318.417 247.049 318.885 244.664C319.353 242.279 319.113 239.807 318.195 237.561C317.277 235.314 315.722 233.394 313.728 232.043C311.733 230.692 309.388 229.971 306.99 229.971C305.397 229.971 303.82 230.289 302.348 230.907C300.877 231.525 299.54 232.43 298.414 233.572C297.287 234.714 296.394 236.069 295.785 237.561C295.175 239.052 294.861 240.651 294.861 242.266Z" fill="#17CE6A"/>
<path d="M123.899 271.074C126.202 271.077 128.455 270.387 130.372 269.093C132.288 267.798 133.783 265.955 134.667 263.799C135.55 261.643 135.783 259.269 135.336 256.979C134.889 254.688 133.781 252.584 132.153 250.932C130.526 249.279 128.451 248.154 126.192 247.697C123.933 247.24 121.592 247.473 119.463 248.366C117.335 249.259 115.516 250.771 114.236 252.712C112.956 254.654 112.272 256.936 112.272 259.271C112.277 262.397 113.503 265.394 115.682 267.606C117.86 269.818 120.815 271.065 123.899 271.074Z" fill="#17CE6A"/>
<path d="M246.771 448.814C227.339 411.979 235.743 375.407 237.897 363.325C249.232 300.259 301.81 273.962 320.836 273.043C334.88 272.154 348.924 274.769 361.739 280.66C380.085 288.637 347.57 264.95 318.359 264.95C252.098 264.95 286.556 296.139 286.556 229.182C286.738 206.764 279.675 184.902 266.445 166.937C272.129 180.758 277.521 195.696 276.549 210.781C274.266 245.729 230.319 354.527 235.484 220.088C237.249 174.127 249.912 129.905 297.584 110.83C258.721 112.57 225.801 149.406 215.422 185.338C201.577 149.422 173.029 125.752 143.639 103.821C186.21 158.335 213.381 184.123 213.527 261.947C213.705 372.534 166.698 296.533 166.698 244.891C166.695 225.417 171.239 206.219 179.96 188.867C164.269 202.18 149.501 224.241 149.712 252.886C150.23 321.188 180.235 274.832 98.494 281.136C-16.4744 289.983 186.388 271.418 193.238 367.741C193.642 373.256 201.334 397.633 190.873 450.128C194.112 450.128 201.787 449.29 215.163 447.107C237.573 443.463 232.78 448.552 246.771 448.814Z" fill="#17CE6A"/>
</svg>
