<svg width="45" height="46" viewBox="0 0 45 46" fill="none" xmlns="http://www.w3.org/2000/svg">
<rect x="0.5" y="0.663574" width="44" height="44" rx="22" stroke="white"/>
<path d="M33.8714 15.3504C33.0288 15.7316 32.1259 15.9723 31.183 16.0927C32.146 15.5109 32.8883 14.588 33.2494 13.5046C32.3466 14.0463 31.3435 14.4275 30.2802 14.6482C29.3974 13.7253 28.1937 13.1636 26.8294 13.1636C24.2413 13.1636 22.1548 15.2701 22.1548 17.8582C22.1548 18.2194 22.1949 18.5805 22.2752 18.9215C18.383 18.7209 14.9323 16.8551 12.6251 14.0263C12.2238 14.7084 11.9831 15.531 11.9831 16.3736C11.9831 17.9987 12.8056 19.4432 14.0696 20.2657C13.3072 20.2457 12.5849 20.025 11.9429 19.6839V19.7441C11.9429 22.0112 13.568 23.9171 15.6947 24.3385C15.2934 24.4388 14.8921 24.499 14.4508 24.499C14.1498 24.499 13.8489 24.4789 13.568 24.4187C14.1699 26.2845 15.8953 27.6287 17.9417 27.6688C16.3367 28.9328 14.3103 29.6751 12.1235 29.6751C11.7423 29.6751 11.3812 29.655 11 29.6149C13.0665 30.9391 15.5342 31.7215 18.1824 31.7215C26.8093 31.7215 31.5241 24.5792 31.5241 18.3799L31.504 17.778C32.4469 17.1159 33.2294 16.2933 33.8714 15.3504Z" fill="white"/>
</svg>
