<svg width="665" height="417" viewBox="0 0 665 417" fill="none" xmlns="http://www.w3.org/2000/svg">
<path d="M431.009 92.7892H576.672C576.672 92.7892 575.973 86.2457 559.782 80.97C543.591 75.6944 531.991 89.1467 513.693 80.97C495.396 72.7933 485.688 61.0708 462.09 67.6036C438.492 74.1364 431.009 92.7892 431.009 92.7892Z" stroke="#0DC473" stroke-opacity="0.5" stroke-width="2.22" stroke-miterlimit="10"/>
<path d="M89.2314 145.685H188.88C188.88 145.685 188.397 140.872 177.323 137.025C166.25 133.178 158.305 143.042 145.791 137.025C133.277 131.008 126.633 122.38 110.507 127.194C105.832 128.551 101.508 130.908 97.8344 134.101C94.1608 137.294 91.2254 141.246 89.2314 145.685V145.685Z" stroke="#0DC473" stroke-opacity="0.5" stroke-width="1.75" stroke-miterlimit="10"/>
<path d="M663.958 214.183C663.943 215.327 663.589 216.442 662.942 217.387C662.295 218.331 661.382 219.063 660.32 219.49C659.257 219.918 658.092 220.021 656.97 219.788C655.849 219.555 654.821 218.995 654.017 218.18C653.213 217.365 652.669 216.33 652.452 215.206C652.235 214.081 652.356 212.918 652.799 211.863C653.242 210.807 653.988 209.906 654.943 209.273C655.897 208.64 657.017 208.303 658.163 208.305C658.93 208.311 659.688 208.468 660.394 208.766C661.1 209.064 661.74 209.499 662.278 210.045C662.816 210.59 663.242 211.237 663.53 211.947C663.818 212.657 663.963 213.417 663.958 214.183V214.183Z" stroke="white" stroke-width="1.93" stroke-miterlimit="10"/>
<path d="M250.654 7.17527C250.639 8.3195 250.286 9.4338 249.64 10.378C248.993 11.3222 248.081 12.0542 247.019 12.4818C245.957 12.9095 244.792 13.0137 243.671 12.7814C242.55 12.5491 241.522 11.9906 240.718 11.1763C239.914 10.3619 239.368 9.32802 239.15 8.20462C238.932 7.08121 239.051 5.91848 239.493 4.86265C239.934 3.80682 240.679 2.90505 241.632 2.27077C242.585 1.63648 243.704 1.29801 244.849 1.29791C246.398 1.30927 247.88 1.93454 248.968 3.03645C250.056 4.13837 250.663 5.62689 250.654 7.17527V7.17527Z" stroke="white" stroke-width="1.93" stroke-miterlimit="10"/>
<path d="M525.896 29.8037C525.879 30.6329 525.618 31.4386 525.144 32.1199C524.671 32.8011 524.007 33.3276 523.236 33.6332C522.464 33.9389 521.62 34.0101 520.808 33.838C519.996 33.6659 519.253 33.2582 518.673 32.6658C518.092 32.0735 517.699 31.323 517.543 30.5084C517.387 29.6938 517.476 28.8514 517.797 28.0867C518.118 27.3221 518.658 26.6693 519.35 26.2102C520.041 25.751 520.852 25.506 521.682 25.5059C522.241 25.5101 522.794 25.6247 523.309 25.8433C523.824 26.0618 524.291 26.3799 524.683 26.7793C525.074 27.1787 525.383 27.6515 525.591 28.1705C525.8 28.6895 525.903 29.2446 525.896 29.8037Z" fill="white"/>
<path d="M9.32107 223.412C13.8929 223.412 17.5992 219.655 17.5992 215.021C17.5992 210.386 13.8929 206.629 9.32107 206.629C4.7492 206.629 1.04297 210.386 1.04297 215.021C1.04297 219.655 4.7492 223.412 9.32107 223.412Z" stroke="white" stroke-width="1.93" stroke-miterlimit="10"/>
<path d="M399.929 278.877C404.229 258.849 410.282 239.841 421.527 219.781C432.772 199.72 449.339 178.672 474.367 153.239C474.367 153.239 473.582 158.418 471.529 166.981C468.73 178.484 465.024 189.748 460.445 200.666C449.522 227.141 429.913 259.096 399.929 278.877Z" fill="#F9EBE3"/>
<path d="M391.264 291.319C399.864 275.653 396.231 254.658 389.576 236.027C382.921 217.396 373.31 200.881 370.655 192.736C366.475 205.989 363.916 219.699 363.032 233.566C362.043 255.26 366.129 280.166 391.264 291.319Z" fill="#F9EBE3"/>
<path d="M389.533 294.746C406.863 278.705 428.537 271.108 449.576 266.703C470.615 262.297 490.73 260.997 503.846 258.58C500.509 262.255 496.97 265.741 493.245 269.024C484.775 276.724 475.543 283.542 465.691 289.374C443.19 302.665 413.84 310.831 389.533 294.746Z" fill="#F9EBE3"/>
<path d="M363.43 329.012C377.847 310.412 371.321 285.732 361.044 266.563C354.394 254.402 346.25 243.118 336.801 232.975C335.921 236.699 335.232 240.464 334.736 244.257C333.446 253.106 332.957 262.053 333.274 270.99C334.113 291.556 339.843 315.871 363.43 329.012Z" fill="#F9EBE3"/>
<path d="M364.376 327.743C380.782 315.924 403.305 309.768 426.247 309.037C449.189 308.306 472.744 313.335 490.3 325.562C481.411 330.739 471.966 334.895 462.144 337.951C445.727 343.151 424.613 346.063 406.594 338.542C388.576 331.021 378.072 328.195 372.041 327.432C366.01 326.669 364.376 327.743 364.376 327.743Z" fill="#F9EBE3"/>
<path d="M343.885 346.429C343.978 346.994 344.035 347.565 344.057 348.137L344.939 348.245L346.498 348.298C350.744 337.307 348.648 322.855 341.058 309.95C331.64 293.833 313.815 280.198 290.529 276.642C292.005 283.543 294.24 290.26 297.195 296.67C302.226 307.565 310.601 320.427 324.771 327.26C338.478 333.868 342.95 340.927 343.885 346.429Z" fill="#F9EBE3"/>
<path d="M195.965 284.27C182.516 273.827 170.368 262.469 159.176 246.739C147.984 231.009 137.803 210.82 127.171 182.636C127.171 182.636 130.772 185.086 136.46 189.696C144.11 195.932 151.259 202.758 157.843 210.111C173.915 227.893 191.192 254.261 195.965 284.27Z" fill="#F9EBE3"/>
<path d="M202.362 295.305C193.557 283.164 176.732 278.49 160.67 276.975C144.609 275.46 129.138 276.975 122.204 276.105C130.634 283.97 139.979 290.795 150.038 296.434C165.863 304.89 185.741 310.606 202.362 295.305Z" fill="#F9EBE3"/>
<path d="M204.34 297.852C198.148 278.866 199.685 259.579 203.362 241.893C207.038 224.208 212.747 208.338 215.284 197.432C216.93 201.291 218.366 205.237 219.585 209.251C222.504 218.478 224.517 227.967 225.594 237.585C227.992 259.558 224.347 284.958 204.34 297.852Z" fill="#F9EBE3"/>
<path d="M221.144 330C212.092 312.346 191.568 308.596 173.905 309.671C162.658 310.44 151.559 312.673 140.889 316.311C143.362 318.307 145.939 320.172 148.608 321.898C154.722 326.025 161.199 329.585 167.96 332.535C183.613 339.165 203.588 343.409 221.144 330Z" fill="#F9EBE3"/>
<path d="M220.552 328.829C217.187 312.078 220.068 292.641 227.121 274.804C234.173 256.968 245.73 240.722 260.631 231.611C261.535 240.242 261.499 248.946 260.523 257.57C258.954 271.989 254.073 289.202 242.57 300.334C231.066 311.465 225.422 318.503 222.853 322.898C220.283 327.292 220.552 328.829 220.552 328.829Z" fill="#F9EBE3"/>
<path d="M232.367 352.274C227.067 341.346 230.217 325.917 239.398 313.045C248.58 300.173 263.867 289.922 283.477 291.19C281.882 297.304 279.481 303.179 276.338 308.661C271.135 317.805 262.749 327.561 250.461 330.956C238.635 334.287 234.098 339.681 232.539 344.151C231.629 346.773 231.569 349.615 232.367 352.274Z" fill="#F9EBE3"/>
<path fill-rule="evenodd" clip-rule="evenodd" d="M215.403 356.84C216.029 356.808 216.656 356.844 217.274 356.948C220.821 357.528 224.595 356.862 228.239 356.701L228.315 356.625C231.873 352.328 224.014 354.745 236.195 339.939C242.344 332.418 237.7 306.942 216.166 284.991C224.95 302.322 221.198 326.057 219.252 319.621C217.241 312.959 217.403 284.4 206.351 276.277C194.103 267.19 180.361 260.31 165.745 255.948C182.14 275.664 186.096 293.726 180.398 293.79C177.926 293.79 167.293 255.529 149.597 252.316C134.944 249.651 118.141 249.092 99.0688 250.887C100.692 266.488 101.66 281.079 107.551 292.383C121.527 319.148 164.262 316.344 167.412 323.768C169.83 329.452 130.612 324.434 113.658 310.09C121.441 328.356 135.804 344.796 146.308 352.156C156.811 359.516 182.946 346.482 189.881 346.386C196.535 346.289 194.46 352.478 176.528 356.658C177.711 356.593 175.367 356.808 176.528 356.658C178.549 356.228 178.614 356.926 180.635 356.507C182.399 356.012 184.272 356.057 186.01 356.636C189.369 356.443 192.736 356.443 196.095 356.636C197.691 356.54 199.293 356.54 200.889 356.636C205.846 355.873 210.415 356.454 215.403 356.84Z" fill="#17CE6A"/>
<path d="M119.603 270.56C119.603 270.56 161.864 294.747 220.23 356.056" stroke="#FBF4EF" stroke-width="1.05" stroke-miterlimit="10"/>
<path d="M154.994 278.694L163.262 302.483" stroke="#FBF4EF" stroke-width="1.05" stroke-miterlimit="10"/>
<path fill-rule="evenodd" clip-rule="evenodd" d="M564.212 301.355C570.426 289.535 571.522 274.332 573.285 258.053C553.407 256.119 535.851 256.571 520.531 259.278C502.019 262.555 490.719 302.493 488.139 302.461C482.183 302.354 486.419 283.508 503.642 262.996C488.353 267.469 473.963 274.578 461.123 284.002C449.533 292.426 449.544 322.253 447.415 329.216C445.351 335.931 441.556 311.111 450.823 293.049C428.247 315.871 423.226 342.475 429.612 350.35C442.255 365.877 452.393 348.771 456.091 353.316C457.166 354.605 457.5 355.035 456.177 356.786C457.951 356.367 458.618 356.862 460.241 356.786C462.273 356.722 464.842 355.991 466.509 356.561C467.584 356.561 468.304 356.367 469.39 356.314C470.067 356.276 470.745 356.276 471.422 356.314C479.539 355.948 486.408 356.561 494.525 356.625C495.901 356.625 497.277 356.625 498.654 356.701C509.813 356.024 520.94 355.454 532.121 356.324C542.899 345.882 551.59 333.484 557.729 319.792C539.958 334.728 498.965 339.756 501.524 333.847C504.857 326.1 549.505 329.248 564.212 301.355Z" fill="#17CE6A"/>
<path d="M551.773 278.511C551.773 278.511 519.263 292.587 457.983 356.335" stroke="#FBF4EF" stroke-width="1.05" stroke-miterlimit="10"/>
<path d="M514.747 286.785L506.587 309.95" stroke="#FBF4EF" stroke-width="1.05" stroke-miterlimit="10"/>
<path fill-rule="evenodd" clip-rule="evenodd" d="M301.495 356.174C303.259 349.768 304.251 343.174 304.451 336.533C301.43 345.128 295.27 352.542 290.335 357.098C294.066 356.872 297.796 356.292 301.495 356.174Z" fill="#94D0DB"/>
<path fill-rule="evenodd" clip-rule="evenodd" d="M234.367 356.668C236.012 356.668 237.657 356.668 239.291 356.604C237.087 354.885 234.485 352.736 231.421 350.039C231.97 352.381 232.496 354.573 232.937 356.69L234.367 356.668Z" fill="#94D0DB"/>
<path d="M254.632 354.863C255.953 354.75 257.281 354.987 258.481 355.551C261.811 355.168 265.16 354.977 268.511 354.981C270.016 354.874 271.511 354.82 273.016 354.809C275.499 354.519 277.972 354.143 280.542 353.939C283.53 353.692 286.53 353.81 289.518 353.799C276.435 316.193 239.108 226.313 171.142 189.921C171.142 189.921 155.015 252.305 241.129 356.131C244.655 355.905 248.149 355.497 251.665 355.143C252.643 355.035 253.632 354.938 254.632 354.863Z" fill="#F5A623"/>
<path d="M183.871 218.244L264.888 354.444" stroke="#F99441" stroke-width="1.05" stroke-miterlimit="10"/>
<path d="M222.67 283.464L225.616 252.606" stroke="#F99441" stroke-width="1.05" stroke-miterlimit="10"/>
<path d="M230.281 320.674L248.805 327.4" stroke="#F99441" stroke-width="1.05" stroke-miterlimit="10"/>
<path d="M371.763 350.082C376.783 350.855 382.105 351.554 387.104 352.413C388.931 352.591 390.747 352.868 392.544 353.241C394.361 353.101 395.608 354.24 397.21 354.423C397.489 354.423 397.747 354.509 398.016 354.552C492.913 251.402 478.797 186.375 478.797 186.375C382.105 238.068 375.891 295.735 357.313 347.643C360.872 348.32 364.431 349.029 368.011 349.598C369.204 349.792 370.902 349.523 371.763 350.082Z" fill="#F5A623"/>
<path d="M464.939 214.183L376.331 350.759" stroke="#F99441" stroke-width="1.05" stroke-miterlimit="10"/>
<path d="M423.645 277.834L421.936 247.663" stroke="#F99441" stroke-width="1.05" stroke-miterlimit="10"/>
<path d="M414.582 314.732L395.811 320.727" stroke="#F99441" stroke-width="1.05" stroke-miterlimit="10"/>
<path d="M121.344 356.948C121.344 356.948 70.5252 321.931 76.7391 251.413" stroke="#04A80C" stroke-width="2.06" stroke-miterlimit="10"/>
<path d="M77.5023 256.646C82.7747 256.646 87.049 252.374 87.049 247.104C87.049 241.835 82.7747 237.563 77.5023 237.563C72.2298 237.563 67.9556 241.835 67.9556 247.104C67.9556 252.374 72.2298 256.646 77.5023 256.646Z" fill="#17CE6A"/>
<path d="M84.125 233.771C84.2028 234.849 83.959 235.927 83.4244 236.867C82.8897 237.807 82.0882 238.567 81.1211 239.052C80.1541 239.537 79.0649 239.725 77.9912 239.591C76.9175 239.458 75.9075 239.009 75.0889 238.302C74.2703 237.595 73.6797 236.661 73.3919 235.619C73.1042 234.576 73.132 233.472 73.472 232.446C73.812 231.419 74.4489 230.516 75.3021 229.851C76.1554 229.186 77.1867 228.789 78.2658 228.71C79.7138 228.606 81.1438 229.081 82.2422 230.03C83.3405 230.978 84.0176 232.324 84.125 233.771Z" fill="#17CE6A"/>
<path d="M120.129 355.69C120.129 355.69 67.2355 361.17 45.0137 309.553" stroke="#04A80C" stroke-width="2.06" stroke-miterlimit="10"/>
<path d="M50.3135 302.203C51.1017 303.461 51.5001 304.923 51.4588 306.406C51.4175 307.889 50.9382 309.327 50.0812 310.538C49.2242 311.75 48.0279 312.681 46.6427 313.215C45.2575 313.748 43.7453 313.86 42.2965 313.537C40.8476 313.214 39.5268 312.47 38.5002 311.398C37.4736 310.326 36.7871 308.975 36.527 307.514C36.267 306.053 36.445 304.548 37.0387 303.188C37.6325 301.829 38.6154 300.675 39.8637 299.872C40.7012 299.333 41.6374 298.966 42.6179 298.792C43.5985 298.617 44.6039 298.639 45.5759 298.856C46.5479 299.073 47.4672 299.48 48.2804 300.055C49.0937 300.63 49.7847 301.36 50.3135 302.203Z" fill="#17CE6A"/>
<path d="M44.1053 297.722C44.6273 295.382 43.1526 293.063 40.8114 292.541C38.4701 292.019 36.1489 293.493 35.6269 295.833C35.1048 298.173 36.5796 300.493 38.9209 301.014C41.2621 301.536 43.5832 300.062 44.1053 297.722Z" fill="#17CE6A"/>
<path d="M548.784 356.948C548.784 356.948 599.602 321.931 593.389 251.413" stroke="#04A80C" stroke-width="2.06" stroke-miterlimit="10"/>
<path d="M583.111 246.417C582.974 248.3 583.398 250.181 584.33 251.823C585.263 253.464 586.661 254.793 588.349 255.64C590.037 256.487 591.939 256.814 593.813 256.581C595.687 256.347 597.45 255.563 598.879 254.328C600.307 253.093 601.337 251.463 601.838 249.642C602.338 247.822 602.288 245.894 601.692 244.103C601.096 242.312 599.982 240.737 598.491 239.579C596.999 238.421 595.198 237.73 593.314 237.596C590.791 237.415 588.299 238.243 586.387 239.897C584.474 241.551 583.296 243.896 583.111 246.417Z" fill="#17CE6A"/>
<path d="M586.015 233.77C585.937 234.849 586.181 235.927 586.716 236.868C587.251 237.808 588.053 238.569 589.02 239.054C589.988 239.539 591.078 239.726 592.152 239.591C593.226 239.457 594.236 239.008 595.054 238.299C595.873 237.591 596.462 236.656 596.749 235.613C597.036 234.57 597.007 233.465 596.665 232.439C596.323 231.412 595.685 230.51 594.83 229.846C593.975 229.182 592.943 228.787 591.863 228.71C590.416 228.606 588.987 229.081 587.891 230.03C586.794 230.979 586.119 232.324 586.015 233.77Z" fill="#17CE6A"/>
<path d="M550.01 355.69C549.956 355.69 602.904 361.17 625.115 309.553" stroke="#04A80C" stroke-width="2.06" stroke-miterlimit="10"/>
<path d="M619.814 302.203C619.026 303.461 618.628 304.923 618.669 306.406C618.71 307.889 619.19 309.327 620.046 310.538C620.903 311.75 622.1 312.681 623.485 313.215C624.87 313.748 626.382 313.86 627.831 313.537C629.28 313.214 630.601 312.47 631.627 311.398C632.654 310.326 633.341 308.975 633.601 307.514C633.861 306.053 633.683 304.548 633.089 303.188C632.495 301.829 631.512 300.675 630.264 299.872C629.426 299.333 628.49 298.966 627.51 298.792C626.529 298.617 625.524 298.639 624.552 298.856C623.58 299.073 622.661 299.48 621.847 300.055C621.034 300.63 620.343 301.36 619.814 302.203Z" fill="#17CE6A"/>
<path d="M631.194 301.048C633.536 300.53 635.014 298.212 634.496 295.871C633.978 293.53 631.659 292.053 629.317 292.571C626.975 293.089 625.496 295.407 626.015 297.747C626.533 300.088 628.852 301.566 631.194 301.048Z" fill="#17CE6A"/>
<path d="M17.0186 356.948H656.012" stroke="#04A80C" stroke-width="1.91" stroke-miterlimit="10"/>
<path d="M163.283 374.773L70.5464 415.979H598.119L507.942 374.773H163.283Z" stroke="#04A80C" stroke-width="1.91" stroke-miterlimit="10"/>
<path d="M301.892 293.382L283.691 322.973L318.621 364.426H353.851L386.705 322.264L366.365 293.382H301.892Z" fill="#28BFFD"/>
<path d="M283.681 322.962C283.681 322.962 205.34 329.011 185.677 349.534C166.014 370.056 177.345 383.638 194.407 392.319C218.435 404.536 289.357 401.914 334.263 387.076L341.606 344.301L283.681 322.962Z" fill="#28BFFD"/>
<path d="M384.673 321.941C384.673 321.941 466.734 329.022 486.386 349.534C506.039 370.045 494.707 383.637 477.646 392.319C453.629 404.536 367.063 402.505 322.157 387.667L330.457 344.301L384.673 321.941Z" fill="#28BFFD"/>
<path d="M403.068 356.948L385.426 354.853L382.728 347.901L389.64 344.828C389.64 344.828 388.683 334.996 397.166 333.363C405.648 331.73 415.7 338.553 425.516 334.148C434.579 330.097 445.663 326.368 456.005 331.999C456.743 332.408 457.317 333.059 457.63 333.842C457.943 334.625 457.977 335.492 457.725 336.297V336.415C457.463 337.219 456.933 337.91 456.222 338.369C455.511 338.829 454.664 339.03 453.822 338.94C448.052 338.309 442.233 339.573 437.245 342.539C430.794 346.483 415.012 352.586 403.133 356.959L403.068 356.948Z" fill="#C77F47"/>
<path d="M347.067 352.274L381.706 348.879" stroke="#2CA1D0" stroke-width="1.3" stroke-miterlimit="10" stroke-linecap="round"/>
<path d="M327.233 389.236C299.614 382.864 270.727 366.521 270.727 366.521L272.447 363.599" stroke="#2CA1D0" stroke-width="1.3" stroke-miterlimit="10" stroke-linecap="round"/>
<path d="M282.745 351.812C282.745 351.812 410.518 347.879 443.297 368.53" stroke="#2CA1D0" stroke-width="1.3" stroke-miterlimit="10" stroke-linecap="round"/>
<path d="M220.52 360.021C220.52 360.021 243.666 349.19 259.48 356.282" stroke="#2CA1D0" stroke-width="1.3" stroke-miterlimit="10" stroke-linecap="round"/>
<path d="M274.263 364.405L282.746 351.575L274.285 346.998C274.285 346.998 276.005 337.274 267.705 334.986C259.406 332.697 248.816 338.714 239.377 333.557C230.658 328.807 219.897 324.23 209.157 329.012C208.386 329.36 207.76 329.965 207.385 330.723C207.011 331.482 206.911 332.346 207.103 333.17V333.299C207.299 334.123 207.775 334.854 208.449 335.367C209.123 335.88 209.955 336.144 210.802 336.114C216.602 335.938 222.303 337.65 227.046 340.992C237.593 348.513 274.263 364.405 274.263 364.405Z" fill="#C77F47"/>
<path d="M303.011 337.263L322.33 351.253" stroke="#2CA1D0" stroke-width="1.3" stroke-miterlimit="10" stroke-linecap="round"/>
<path d="M385.641 163.109C372.568 142.017 370.364 107.333 370.364 107.333L338.23 94.0745V93L336.295 93.5372L334.349 93V94.0745L302.452 106.968C302.452 106.968 298.99 143.07 285.971 164.162C273.07 185.007 282.326 211.041 336.349 207.206C390.318 211.041 398.553 183.954 385.641 163.109Z" fill="black"/>
<path d="M354.227 179.875L385.329 189.825C391.146 191.974 392.629 198.42 391.103 204.405L366.376 293.382H301.871L279.52 202.536C278.585 198.367 280.595 192.274 284.605 190.716L318.223 178.328L354.227 179.875Z" fill="#FA4D56"/>
<path d="M377.18 226.013L409.69 298.69C410.935 302.102 413.374 304.949 416.555 306.705C419.737 308.461 423.446 309.007 426.999 308.242C429.076 307.785 431.033 306.893 432.74 305.625C434.447 304.357 435.866 302.742 436.903 300.886C437.94 299.031 438.572 296.976 438.757 294.858C438.942 292.741 438.676 290.608 437.976 288.601C431.579 270.485 412.335 233.803 405.723 215.666C404.97 213.59 403.772 211.704 402.214 210.139C400.655 208.574 398.774 207.367 396.701 206.604C394.628 205.841 392.413 205.539 390.211 205.72C388.01 205.9 385.874 206.559 383.953 207.65C380.84 209.422 378.453 212.237 377.214 215.596C375.975 218.956 375.963 222.645 377.18 226.013Z" fill="#C77F47"/>
<path d="M386.469 190.695C386.469 190.695 397.101 191.651 410.282 226.453L379.416 242.463L369.375 212.614L386.469 190.695Z" fill="#FA4D56"/>
<path d="M381.545 240.701L385.889 220.952" stroke="#462C3B" stroke-opacity="0.5" stroke-width="1.3" stroke-miterlimit="10" stroke-linecap="round"/>
<path d="M417.507 274.213C416.625 273.923 417.12 275.804 339.198 242.828L335.855 247.298C335.693 251.929 336.758 256.377 339.628 258.268L416.625 306.781L417.507 274.213Z" fill="#C77F47"/>
<path d="M335.854 247.277L335.424 209.316C335.421 209.112 335.459 208.91 335.535 208.721C335.611 208.532 335.724 208.36 335.867 208.215C336.01 208.07 336.18 207.955 336.368 207.877C336.556 207.798 336.758 207.758 336.961 207.758C337.328 207.756 337.683 207.887 337.962 208.125C338.24 208.364 338.423 208.695 338.477 209.058L348.776 254.024L335.854 247.277Z" fill="#C77F47"/>
<path d="M395.07 265.994L410.304 271.903" stroke="#B06C37" stroke-width="0.95" stroke-miterlimit="10"/>
<path d="M293.904 226.013L261.394 298.69C260.149 302.102 257.711 304.949 254.529 306.705C251.348 308.461 247.638 309.007 244.085 308.242C242.009 307.784 240.054 306.891 238.348 305.622C236.642 304.354 235.224 302.739 234.188 300.883C233.152 299.027 232.521 296.973 232.337 294.856C232.153 292.739 232.419 290.607 233.119 288.601C239.505 270.485 258.76 233.803 265.372 215.666C266.125 213.59 267.323 211.704 268.881 210.139C270.44 208.574 272.321 207.367 274.394 206.604C276.467 205.841 278.682 205.539 280.884 205.72C283.086 205.9 285.221 206.559 287.142 207.65C290.255 209.423 292.64 212.237 293.878 215.597C295.115 218.957 295.125 222.646 293.904 226.013Z" fill="#C77F47"/>
<path d="M284.627 190.695C284.627 190.695 273.994 191.651 260.803 226.453L291.669 242.463L301.71 212.614L284.627 190.695Z" fill="#FA4D56"/>
<path d="M288.615 240.701L284.272 220.952" stroke="#462C3B" stroke-opacity="0.5" stroke-width="1.3" stroke-miterlimit="10" stroke-linecap="round"/>
<path d="M253.589 274.213C254.471 273.923 253.976 275.804 331.887 242.828L335.231 247.298C335.553 252.552 333.984 256.603 331.113 258.483L254.46 306.834L253.589 274.213Z" fill="#C77F47"/>
<path d="M335.231 247.277L335.693 209.316C335.696 209.112 335.658 208.91 335.582 208.721C335.506 208.532 335.393 208.36 335.25 208.215C335.107 208.07 334.937 207.955 334.749 207.877C334.561 207.798 334.359 207.758 334.155 207.758C333.79 207.76 333.437 207.893 333.16 208.131C332.882 208.369 332.698 208.697 332.64 209.058L322.34 254.024L335.231 247.277Z" fill="#C77F47"/>
<path d="M335.51 208.714L335.865 249.2" stroke="#B06C37" stroke-width="0.95" stroke-miterlimit="10"/>
<path d="M276.027 265.994L261.492 271.903" stroke="#B06C37" stroke-width="0.95" stroke-miterlimit="10"/>
<path d="M323.76 175.212L299.861 184.882C310.592 190.533 322.501 193.584 334.629 193.789C347.525 193.878 360.269 191.007 371.88 185.398L346.939 174.18L323.76 175.212Z" fill="#C77F47"/>
<path d="M346.992 151.509C344.022 151.668 341.066 152.027 338.144 152.583C332.994 153.54 328.791 150.832 327.758 154.324C327.758 154.388 323.544 150.832 323.544 150.832L321.394 185.14C321.394 185.14 335.08 193.478 349.959 184.71L346.992 151.509Z" fill="#C77F47"/>
<path d="M320.287 147.05C320.287 147.05 326.501 162.468 348.067 163.543L346.261 142.999L320.287 147.05Z" fill="#472D3C" fill-opacity="0.7"/>
<path d="M370.547 107.986C370.547 127.617 355.26 143.53 336.403 143.53C317.546 143.53 302.258 127.617 302.258 107.986C302.258 88.3557 317.546 75 336.403 75C355.26 75 370.547 88.3557 370.547 107.986Z" fill="black"/>
<path d="M363.183 108.906C363.169 118.211 362.087 127.483 359.957 136.542C358.377 143.246 353.926 147.92 347.637 151.692L346.497 152.369C343.173 154.328 339.392 155.383 335.532 155.426C331.673 155.469 327.869 154.5 324.501 152.616C317.685 148.737 312.912 143.633 311.45 136.445C309.767 127.355 308.796 118.147 308.547 108.906C308.547 108.906 305.946 80.712 335.424 81.26C364.903 81.808 363.183 108.906 363.183 108.906Z" fill="#C77F47"/>
<path d="M311.709 137.004C306.731 141.807 294.325 127.677 298.926 122.047C303.173 116.847 309.193 122.778 309.193 122.778L310.214 128.075L311.73 135.209L312.128 136.81L311.709 137.004Z" fill="#C77F47"/>
<path d="M359.936 136.681C365.215 140.829 377.997 125.464 372.837 121.026C367.676 116.589 362.151 122.423 362.151 122.423L361.226 127.795L359.839 134.951L359.474 136.552L359.936 136.681Z" fill="#C77F47"/>
<path d="M303.42 117.921L309.698 125.862L308.43 106.51L303.42 117.921Z" fill="black"/>
<path d="M367.537 117.921L361.86 125.679L363.161 106.51L367.537 117.921Z" fill="black"/>
<path d="M336.274 124.927L336.736 128.494L335.134 129.504" stroke="#462C3B" stroke-opacity="0.5" stroke-width="1.55" stroke-miterlimit="10" stroke-linecap="round"/>
<path d="M326.824 136.681H344.111C344.111 136.681 342.165 139.518 335.51 139.518C328.221 139.507 326.824 136.681 326.824 136.681Z" fill="#E66B5A"/>
<path d="M326.824 136.681L330.769 134.64C331.193 134.442 331.651 134.33 332.117 134.309C332.584 134.289 333.05 134.361 333.489 134.522L335.575 135.327L337.445 134.586C337.886 134.418 338.355 134.339 338.826 134.356C339.297 134.373 339.76 134.484 340.187 134.683L344.111 136.681H326.824Z" fill="#E66B5A"/>
<path d="M326.824 119.361C325.765 120.171 324.469 120.61 323.136 120.61C321.803 120.61 320.507 120.171 319.449 119.361" stroke="black" stroke-opacity="0.5" stroke-width="1.55" stroke-miterlimit="10" stroke-linecap="round"/>
<path d="M350.981 119.361C349.923 120.171 348.627 120.61 347.294 120.61C345.96 120.61 344.664 120.171 343.606 119.361" stroke="black" stroke-opacity="0.5" stroke-width="1.55" stroke-miterlimit="10" stroke-linecap="round"/>
<path d="M340.918 110.711C340.918 110.711 349.712 111.163 355.571 114.73C355.571 114.73 355.571 111.034 349.992 109.411C348.484 108.897 346.876 108.747 345.299 108.973C343.722 109.199 342.22 109.794 340.918 110.711Z" fill="black"/>
<path d="M329.662 110.711C329.662 110.711 320.867 111.163 315.008 114.73C315.008 114.73 315.008 111.034 320.588 109.411C322.096 108.897 323.704 108.747 325.281 108.973C326.858 109.199 328.359 109.794 329.662 110.711Z" fill="black"/>
<path d="M311.697 86.9228C311.697 86.9228 321.964 107.703 366.311 108.735C366.311 108.735 371.106 89.061 348.379 81.2495C325.652 73.4381 311.697 86.9228 311.697 86.9228Z" fill="black"/>
<path d="M305.397 112.194C305.397 112.194 319.083 108.186 320.846 85.5792C320.846 85.5792 306.989 87.6852 305.397 112.194Z" fill="black"/>
<path d="M309.139 130.363C309.139 130.363 308.451 126.592 303.237 126.699" stroke="#462C3B" stroke-opacity="0.6" stroke-width="1.3" stroke-miterlimit="10" stroke-linecap="round"/>
<path d="M362.108 130.363C362.108 130.363 362.807 126.592 368.021 126.699" stroke="#462C3B" stroke-opacity="0.6" stroke-width="1.3" stroke-miterlimit="10" stroke-linecap="round"/>
</svg>
