<svg width="130" height="114" viewBox="0 0 130 114" fill="none" xmlns="http://www.w3.org/2000/svg">
<path d="M36.8691 30.1309L37.4291 25.5821L42.7074 27.4487L43.5201 23.0464" stroke="#F5A623" stroke-width="2" stroke-linecap="round" stroke-linejoin="round"/>
<path d="M35.6973 36.4918C36.2915 36.4843 36.8757 36.6446 37.383 36.9542C37.6874 37.138 38.411 38.4302 39.2324 39.3406C40.0537 40.2509 36.2142 43.3208 36.2142 43.3208L35.6973 41.0234V36.4918Z" fill="#FFB1AD"/>
<path d="M40.9898 48.4413C40.9898 48.4413 41.6819 43.8321 41.7336 43.4358C41.8743 42.3388 41.5039 39.7715 41.3201 39.1283C41.1363 38.485 40.0106 37.118 39.554 36.3484C39.0974 35.5788 38.4053 34.7173 38.1181 35.0389C37.8309 35.3606 37.6931 35.8057 37.92 36.762C38.1468 37.7182 39.0543 38.6372 39.0227 39.1484C38.9911 39.6595 34.9391 41.1097 35.2406 42.4595C35.5422 43.8092 36.7914 44.7252 37.225 45.492C37.6586 46.2587 36.9378 48.8117 36.9378 48.8117L40.9898 48.4413Z" fill="#D3844A"/>
<path d="M39.2888 34.4437L38.3181 34.2062C37.9561 34.1176 37.5908 34.3393 37.5022 34.7013L34.9159 45.2704C34.8274 45.6325 35.049 45.9978 35.4111 46.0864L36.3818 46.3239C36.7438 46.4125 37.1091 46.1908 37.1977 45.8288L39.7839 35.2596C39.8725 34.8976 39.6509 34.5323 39.2888 34.4437Z" fill="#18CE6A"/>
<path d="M39.6728 33.0863L38.6045 32.8248L38.0926 34.9169L39.1609 35.1783L39.6728 33.0863Z" fill="#18CE6A"/>
<path d="M44.3149 32.1159C47.4557 30.1388 48.399 25.9899 46.4219 22.8491C44.4448 19.7083 40.296 18.765 37.1552 20.7421C34.0144 22.7191 33.071 26.868 35.0481 30.0088C37.0252 33.1496 41.1741 34.093 44.3149 32.1159Z" stroke="#18CE6A" stroke-width="4" stroke-miterlimit="10"/>
<path d="M36.1654 41.684C36.1654 41.684 37.5381 42.9274 37.6673 43.3726C37.7965 43.8177 37.5237 44.0273 37.093 43.9182C36.6622 43.8091 35.39 42.6891 35.255 42.5225C35.1927 42.4616 35.1432 42.3887 35.1093 42.3084C35.0755 42.228 35.0581 42.1417 35.0581 42.0544C35.0581 41.9672 35.0755 41.8809 35.1093 41.8005C35.1432 41.7202 35.1927 41.6473 35.255 41.5864C35.3953 41.4968 35.5619 41.4576 35.7274 41.4754C35.8928 41.4931 36.0473 41.5667 36.1654 41.684Z" fill="#D3844A"/>
<path d="M37.6671 43.3731V43.419C37.6828 43.4643 37.6915 43.5118 37.6929 43.5597C37.7013 43.6343 37.6894 43.7097 37.6585 43.778C37.6344 43.8223 37.6012 43.8611 37.5612 43.8918C37.5211 43.9225 37.475 43.9444 37.4259 43.956C37.3125 43.982 37.1947 43.982 37.0813 43.956C36.9566 43.9243 36.8382 43.8719 36.7309 43.801C36.4999 43.6569 36.2775 43.4997 36.0647 43.33C35.8493 43.1548 35.6425 42.9739 35.4501 42.7987C35.3563 42.7145 35.2681 42.6244 35.1859 42.5288C35.1168 42.4361 35.0644 42.3321 35.0308 42.2215C35.0071 42.1383 35.0021 42.0509 35.0159 41.9656C35.0298 41.8802 35.0624 41.7989 35.1113 41.7276C35.137 41.6882 35.1679 41.6525 35.2031 41.6213L35.2376 41.584L35.206 41.6242C35.1759 41.659 35.149 41.6965 35.1256 41.7362C35.0863 41.807 35.0624 41.8853 35.0555 41.9659C35.0485 42.0466 35.0587 42.1278 35.0854 42.2043C35.1202 42.3088 35.1738 42.4061 35.2434 42.4915C35.318 42.5747 35.4157 42.6551 35.5104 42.7442C35.7 42.9136 35.9125 43.0916 36.1278 43.2611C36.3343 43.4317 36.55 43.5908 36.774 43.7378C36.8747 43.8038 36.9838 43.856 37.0985 43.8929C37.2013 43.9217 37.3094 43.9267 37.4144 43.9072C37.4575 43.8993 37.4985 43.8828 37.535 43.8586C37.5715 43.8344 37.6028 43.8031 37.6269 43.7665C37.6607 43.705 37.6775 43.6356 37.6757 43.5655C37.6812 43.5197 37.6812 43.4734 37.6757 43.4276L37.6671 43.3731Z" fill="#F17154"/>
<path d="M36.2889 40.0354C36.2889 40.0354 37.8942 41.4914 38.0464 42.0112C38.1986 42.5309 37.8769 42.7779 37.36 42.6487C36.8431 42.5194 35.3498 41.2128 35.2091 41.0175C35.0651 40.8719 34.9844 40.6753 34.9844 40.4705C34.9844 40.2656 35.0651 40.0691 35.2091 39.9234C35.4589 39.6764 35.9529 39.731 36.2889 40.0354Z" fill="#D3844A"/>
<path d="M38.0375 42.0113L38.0548 42.0658C38.0701 42.1192 38.0798 42.1741 38.0835 42.2295C38.0928 42.3161 38.0779 42.4036 38.0404 42.4822C38.013 42.5339 37.975 42.5792 37.929 42.6153C37.883 42.6514 37.83 42.6775 37.7733 42.6919C37.641 42.722 37.5036 42.722 37.3713 42.6919C37.2264 42.6555 37.0886 42.5954 36.9635 42.5138C36.6937 42.3466 36.4347 42.1624 36.1881 41.9624C35.9354 41.7586 35.6913 41.5489 35.4702 41.3422C35.3597 41.2451 35.2561 41.1405 35.1601 41.0291C35.0782 40.922 35.0177 40.8002 34.982 40.6702C34.9552 40.5598 34.9552 40.4446 34.982 40.3342C35.0019 40.2496 35.0359 40.1691 35.0825 40.0958C35.1125 40.0502 35.1471 40.0079 35.1859 39.9695L35.2261 39.9264L35.1888 39.9723C35.153 40.0125 35.1221 40.0569 35.0969 40.1044C35.0509 40.1879 35.023 40.2802 35.0151 40.3752C35.0072 40.4702 35.0194 40.5658 35.0509 40.6558C35.0908 40.7751 35.1521 40.886 35.2319 40.9832C35.318 41.0808 35.4329 41.1785 35.542 41.2704C35.766 41.4714 36.013 41.6781 36.2657 41.8763C36.5059 42.0762 36.7581 42.2613 37.0209 42.4305C37.1382 42.509 37.2658 42.5708 37.4 42.6143C37.5217 42.6474 37.6494 42.6523 37.7733 42.6287C37.8222 42.6175 37.8685 42.5968 37.9094 42.5677C37.9503 42.5386 37.985 42.5018 38.0117 42.4593C38.0509 42.3871 38.0707 42.3059 38.0691 42.2238C38.0694 42.1697 38.0637 42.1157 38.0519 42.063L38.0375 42.0113Z" fill="#F17154"/>
<path d="M36.3403 38.3787C36.3403 38.3787 37.9485 39.8347 38.1007 40.3516C38.2529 40.8685 37.9313 41.1184 37.4115 40.9891C36.8917 40.8599 35.4185 39.5533 35.2634 39.358C35.1208 39.2116 35.041 39.0153 35.041 38.8109C35.041 38.6065 35.1208 38.4102 35.2634 38.2639C35.4817 38.0542 36.0158 38.0714 36.3403 38.3787Z" fill="#D3844A"/>
<path d="M38.1011 40.3518L38.1183 40.4092C38.1326 40.4619 38.1422 40.5157 38.147 40.57C38.1547 40.6575 38.1399 40.7455 38.1039 40.8256C38.0763 40.8768 38.0383 40.9217 37.9923 40.9573C37.9463 40.9929 37.8934 41.0185 37.8369 41.0324C37.7046 41.0625 37.5671 41.0625 37.4348 41.0324C37.29 40.9961 37.1522 40.9359 37.027 40.8543C36.7583 40.6854 36.4995 40.5013 36.2517 40.303C36.0018 40.0991 35.7577 39.8894 35.5337 39.6827C35.424 39.5849 35.3204 39.4803 35.2236 39.3697C35.1437 39.2618 35.0843 39.1401 35.0484 39.0107C35.014 38.8874 35.0132 38.7572 35.046 38.6335C35.0788 38.5098 35.1441 38.3971 35.2351 38.3071L35.2753 38.264L35.238 38.31C35.2029 38.3518 35.1721 38.397 35.1461 38.445C35.102 38.5292 35.0755 38.6215 35.0681 38.7162C35.0607 38.811 35.0726 38.9063 35.103 38.9963C35.1418 39.1154 35.2021 39.2264 35.281 39.3237C35.3701 39.4213 35.4821 39.519 35.5941 39.6109C35.8152 39.8119 36.0621 40.0158 36.3149 40.2168C36.5561 40.4168 36.8093 40.6019 37.073 40.7711C37.1904 40.8486 37.318 40.9094 37.4521 40.952C37.5728 40.9845 37.6992 40.9904 37.8225 40.9692C37.8733 40.959 37.9216 40.9387 37.9645 40.9096C38.0074 40.8805 38.044 40.8432 38.0724 40.7998C38.1113 40.7265 38.1311 40.6444 38.1298 40.5614C38.1301 40.5073 38.1243 40.4534 38.1126 40.4006L38.1011 40.3518Z" fill="#F17154"/>
<path d="M36.3289 36.7511C36.3289 36.7511 37.9342 38.207 38.0864 38.7239C38.2386 39.2409 37.917 39.4907 37.4001 39.3615C36.8832 39.2322 35.4071 37.9256 35.2491 37.7303C35.1052 37.5846 35.0244 37.3881 35.0244 37.1833C35.0244 36.9784 35.1052 36.7819 35.2491 36.6362C35.4588 36.4294 36.0015 36.4438 36.3289 36.7511Z" fill="#D3844A"/>
<path d="M38.0869 38.726L38.1041 38.7835C38.1199 38.8358 38.1295 38.8898 38.1329 38.9443C38.1419 39.0318 38.127 39.1202 38.0898 39.1999C38.0622 39.2511 38.0242 39.2959 37.9782 39.3316C37.9322 39.3672 37.8792 39.3928 37.8227 39.4066C37.6904 39.4368 37.553 39.4368 37.4207 39.4066C37.2762 39.3693 37.1385 39.3092 37.0129 39.2286C36.7442 39.0597 36.4853 38.8756 36.2375 38.6772C35.9877 38.4733 35.7436 38.2637 35.5225 38.0569C35.412 37.9599 35.3083 37.8553 35.2123 37.7439C35.1291 37.6383 35.0676 37.5173 35.0314 37.3878C35.0056 37.291 35.0005 37.1898 35.0163 37.0909C35.0321 36.9919 35.0686 36.8974 35.1233 36.8135C35.1526 36.7673 35.1863 36.724 35.2238 36.6843L35.2611 36.6383L35.2267 36.6871C35.1927 36.7291 35.1629 36.7743 35.1376 36.8221C35.092 36.9057 35.0639 36.9977 35.055 37.0925C35.0461 37.1873 35.0567 37.2829 35.086 37.3735C35.1258 37.4924 35.1882 37.6026 35.2697 37.698C35.3559 37.7956 35.4708 37.8932 35.5799 37.9851C35.8039 38.1862 36.0509 38.3929 36.3007 38.5911C36.5424 38.7904 36.7956 38.9755 37.0588 39.1453C37.1768 39.2218 37.3043 39.2826 37.4379 39.3262C37.5587 39.3588 37.6851 39.3647 37.8083 39.3435C37.8592 39.3332 37.9074 39.313 37.9503 39.2839C37.9932 39.2548 38.0299 39.2174 38.0582 39.174C38.0986 39.1013 38.1184 39.0189 38.1156 38.9357C38.116 38.8816 38.1102 38.8277 38.0984 38.7749L38.0869 38.726Z" fill="#F17154"/>
<path d="M41.6161 47.551L36.9696 46.6895C36.9696 46.6895 31.028 65.4993 33.3857 69.5714L41.2341 66.1397C40.4588 61.8522 41.6161 47.551 41.6161 47.551Z" fill="#E49E14"/>
<path d="M52.681 77.2279C52.681 77.2279 44.9475 69.279 41.1941 65.9248L33.3945 69.5834C35.2353 73.6411 45.114 83.0144 45.114 83.0144L52.681 77.2279Z" fill="#E49E14"/>
<path d="M42.4517 23.7815L43.5228 23.0262L44.2781 24.0974" stroke="#F5A623" stroke-width="2" stroke-linecap="round" stroke-linejoin="round"/>
<path d="M38.9679 38.8495C38.9679 38.8495 37.3052 36.061 37.9283 35.1794C38.5515 34.2978 39.2436 35.8772 39.6341 36.4918" fill="#D3844A"/>
<path d="M27.5815 54.6895C27.5011 54.7412 27.4121 54.7871 27.3231 54.833C26.6138 55.169 25.8872 55.1518 25.6259 54.8072L25.4277 54.8646C25.0917 54.9508 24.8534 54.9651 24.8074 54.8876L23.676 53.3197L23.4922 53.0669L28.3741 50.7466L28.9485 52.9147C28.9801 53.0239 28.7532 53.2421 28.3741 53.4891C28.4574 53.8653 28.1358 54.3477 27.5815 54.6895Z" fill="#F5A623"/>
<g style="mix-blend-mode:multiply" opacity="0.3">
<path d="M25.428 54.8648C25.092 54.951 24.8537 54.9653 24.8077 54.8878L23.6763 53.3198L24.5091 53.5266C24.5091 53.5266 25.026 54.2933 25.428 54.8648Z" fill="#5A50BF"/>
</g>
<path d="M23.4922 53.0673C23.4922 53.0673 19.2794 55.402 15.9654 55.6289C15.8186 55.6396 15.6718 55.6082 15.5421 55.5386C15.4124 55.4689 15.3052 55.3638 15.2331 55.2354L15.0895 54.9684C14.559 53.9978 14.2004 52.9426 14.0299 51.8497C14.0165 51.7313 14.0303 51.6114 14.0704 51.4991C14.1104 51.3869 14.1756 51.2853 14.261 51.2022C14.3464 51.119 14.4496 51.0565 14.5629 51.0194C14.6761 50.9823 14.7963 50.9716 14.9144 50.9882C16.9493 51.2274 19.0118 51.0216 20.9593 50.3851C21.347 50.2645 21.7433 50.1238 22.1482 49.9658L23.4922 53.0673Z" fill="#F5A623"/>
<g style="mix-blend-mode:multiply" opacity="0.3">
<path d="M23.4925 53.0676C23.4925 53.0676 19.2797 55.4023 15.9657 55.6292C15.8189 55.6399 15.6721 55.6086 15.5424 55.5389C15.4127 55.4692 15.3056 55.3641 15.2334 55.2357L15.0898 54.9687C17.4504 55.2185 22.4357 52.858 22.4357 52.858C21.9985 52.0014 21.5054 51.1744 20.9597 50.3825C21.3473 50.2619 21.7436 50.1212 22.1485 49.9633L23.4925 53.0676Z" fill="#F5A623"/>
</g>
<path d="M21.1095 49.5873C20.9439 49.6597 20.773 49.7192 20.5983 49.7653C19.955 49.9376 18.858 50.0525 18.2119 49.1335C18.178 49.0867 18.1636 49.0285 18.1716 48.9712C18.1796 48.914 18.2095 48.862 18.255 48.8263C18.2897 48.798 18.3321 48.781 18.3768 48.7774C18.4214 48.7738 18.466 48.7838 18.5048 48.8062C18.7333 48.9284 18.9854 49.0001 19.244 49.0165C19.5026 49.0328 19.7618 48.9934 20.0038 48.9009C20.2749 48.8078 20.5312 48.6763 20.7648 48.5104L21.1095 49.5873Z" fill="#FF5D62"/>
<g style="mix-blend-mode:multiply" opacity="0.3">
<path d="M21.109 49.5872C20.9435 49.6596 20.7726 49.7191 20.5979 49.7653C20.4112 49.4551 20.1183 49.0588 20.0034 48.9037C20.2745 48.8106 20.5307 48.6791 20.7644 48.5132L21.109 49.5872Z" fill="#FF5D62"/>
</g>
<path d="M26.4647 53.036C26.3642 53.0849 26.2636 53.1337 26.1631 53.1767C24.7703 53.8143 23.613 54.1589 23.5125 53.9521C19.182 44.8602 13.1743 43.4186 13.1743 43.4186L17.2866 41.2246L20.1182 39.7141L27.3693 36.6528C27.3693 36.6528 24.7043 42.2297 29.0377 51.3187C29.1411 51.5399 27.9924 52.3095 26.4647 53.036Z" fill="#F5A623"/>
<g style="mix-blend-mode:multiply" opacity="0.4">
<path d="M26.1631 53.1769C24.7703 53.8144 23.613 54.159 23.5125 53.9522C19.182 44.8603 13.1743 43.4187 13.1743 43.4187L17.2866 41.2247C19.4389 42.7848 21.3069 44.7033 22.809 46.8964C24.1149 48.884 25.2376 50.9861 26.1631 53.1769Z" fill="#F5A623"/>
</g>
<path d="M24.6039 35.199C25.1769 34.9756 25.7617 34.7839 26.3557 34.6247C26.93 34.4754 27.1799 34.4897 27.2689 34.6764C27.2689 34.6764 27.9323 35.8021 27.3665 36.6607C27.3252 36.7481 27.2643 36.8247 27.1885 36.8847C26.4792 37.5309 23.8085 39.0299 20.5347 40.5893C17.2609 42.1486 14.4122 43.2801 13.4616 43.4265C13.3671 43.4476 13.269 43.4476 13.1745 43.4265C12.155 43.3231 11.6955 42.0998 11.6955 42.0998C11.6065 41.9131 11.753 41.7121 12.2297 41.356C12.7309 40.999 13.2505 40.6683 13.7861 40.3653C15.1732 39.5554 17.0657 38.5733 19.1075 37.5969C21.1493 36.6205 23.102 35.7676 24.6039 35.199Z" fill="#ECA024"/>
<path d="M19.1796 37.7439C14.961 39.7541 11.6786 41.6667 11.8481 42.0199C12.0175 42.3731 15.5698 41.0234 19.7855 39.0132C24.0012 37.003 27.2836 35.0904 27.117 34.7372C26.9505 34.384 23.3953 35.7337 19.1796 37.7439Z" fill="#BC7F21"/>
<path d="M19.251 37.8964C17.9559 38.5138 16.8187 39.0882 15.8538 39.5993C13.7114 40.748 12.4077 41.5665 12.0918 41.8967C12.7638 41.8421 15.5379 40.8428 19.7191 38.8527C20.7673 38.353 21.7121 37.882 22.5449 37.4513C25.0375 36.159 26.5394 35.2085 26.8898 34.8438C26.2063 34.9069 23.4294 35.9063 19.251 37.8964Z" fill="#FFBB4A"/>
<g style="mix-blend-mode:multiply" opacity="0.3">
<path d="M27.5816 54.6899C27.5012 54.7416 27.4122 54.7875 27.3232 54.8335C26.6138 55.1694 25.8873 55.1522 25.626 54.8076C25.626 54.8076 26.0625 54.6497 26.2003 54.5836C26.1974 54.5836 26.6225 55.0517 27.5816 54.6899Z" fill="#5A50BF"/>
</g>
<path d="M16.4743 55.5825C16.4743 55.5825 16.4513 55.818 16.9711 56.6077C17.4909 57.3974 17.8326 57.3084 18.0824 58.0263C18.2269 58.4218 18.3318 58.8306 18.3955 59.2468L22.212 58.2963C22.212 58.2963 21.6893 56.9839 21.6721 56.5905C21.6549 56.197 22.0483 54.9019 22.212 54.3476C22.3819 53.9323 22.4335 53.4781 22.3613 53.0353C22.2723 52.4983 21.0202 50.7379 20.7819 50.6546C20.5435 50.5713 20.4229 50.9418 20.3626 51.384C20.3023 51.8263 20.8537 52.6734 20.9714 52.975C21.0461 53.1559 20.8393 53.6441 20.6641 54.0002C20.5338 54.2584 20.316 54.4619 20.0496 54.5745C19.7882 54.6836 19.4235 54.8617 18.9985 54.9852C18.1706 55.2376 17.3275 55.4372 16.4743 55.5825Z" fill="#D3844A"/>
<path d="M17.3354 50.5519C17.3354 50.5519 17.8179 52.1227 17.9098 52.3984C18.0017 52.6741 18.2774 53.1249 18.6048 53.0618C18.9321 52.9986 19.0097 52.6856 18.9982 52.3208C18.9311 51.6283 18.8111 50.9418 18.6392 50.2676C18.4439 49.7363 17.3354 49.742 17.3354 50.5519Z" fill="#D3844A"/>
<path d="M16.2212 50.8219C16.2212 50.8219 16.6778 52.3037 16.7525 52.5651C16.8271 52.8264 17.1028 53.171 17.4043 53.1222C17.7059 53.0734 17.792 52.835 17.7805 52.4904C17.7164 51.8367 17.6031 51.1887 17.4417 50.552C17.2665 50.0494 16.2212 50.0552 16.2212 50.8219Z" fill="#D3844A"/>
<path d="M15.2651 51.0455C15.2651 51.0455 15.6672 52.3464 15.7332 52.5761C15.7993 52.8058 16.0405 53.1074 16.3076 53.0643C16.5746 53.0212 16.6464 52.8144 16.6378 52.51C16.5835 51.9371 16.4876 51.3689 16.3506 50.81C16.187 50.3706 15.2651 50.3763 15.2651 51.0455Z" fill="#D3844A"/>
<path d="M18.5474 50.4144C18.5474 50.4144 18.9753 51.7957 19.0442 52.037C19.1131 52.2782 19.3687 52.6113 19.6501 52.5567C19.9315 52.5022 20.0119 52.2926 20.0005 51.9824C19.9402 51.3742 19.8346 50.7714 19.6846 50.179C19.5237 49.6965 18.5474 49.7023 18.5474 50.4144Z" fill="#D3844A"/>
<path d="M29.009 73.0717C26.479 68.7813 22.5476 57.5643 22.5476 57.5643L17.479 58.7647C17.479 58.7647 19.5897 73.6288 21.9302 77.9507C22.4166 78.7826 23.0852 79.4934 23.8858 80.0298C27.4611 82.6891 41.3861 86.3304 41.3861 86.3304L45.1912 77.5975C45.1912 77.5975 33.9656 74.2031 29.009 73.0717Z" fill="#F1A21F"/>
<path d="M16.155 37.2042L6.5864 32.4688L8.6282 31.7623L1.81934 25.8466L13.0363 32.4113L10.1761 32.8363L16.155 37.2042Z" fill="white"/>
<path d="M18.3146 35.1793L11.4483 27.0063L13.5992 27.1758L9.73389 19.0287L17.3813 29.5363L14.59 28.7811L18.3146 35.1793Z" fill="white"/>
<path d="M21.9645 33.4194L19.1904 24.8559L20.8187 25.6715L20.3822 18.0786L23.0242 28.7155L21.0829 27.2394L21.9645 33.4194Z" fill="white"/>
<path d="M61.0617 34.6019L63.2142 43.5062C63.3208 43.9471 63.7646 44.2182 64.2055 44.1116L76.3143 41.1844C76.7552 41.0778 77.0262 40.634 76.9196 40.1931L74.7671 31.2888C74.6605 30.8479 74.2167 30.5769 73.7758 30.6834L61.667 33.6106C61.2261 33.7172 60.9551 34.161 61.0617 34.6019Z" fill="#18CE6A"/>
<path d="M66.3238 38.6351L67.2139 42.3168C67.2597 42.5064 67.4506 42.623 67.6402 42.5772L71.322 41.6871C71.5116 41.6413 71.6281 41.4504 71.5823 41.2608L70.6923 37.579C70.6464 37.3894 70.4556 37.2729 70.2659 37.3187L66.5842 38.2087C66.3946 38.2546 66.278 38.4455 66.3238 38.6351Z" fill="#53E193"/>
<path d="M65.1627 33.8382L66.0527 37.5199C66.0986 37.7096 66.2895 37.8261 66.4791 37.7803L70.1608 36.8903C70.3504 36.8444 70.467 36.6535 70.4212 36.4639L69.5311 32.7822C69.4853 32.5926 69.2944 32.476 69.1048 32.5218L65.423 33.4119C65.2334 33.4577 65.1169 33.6486 65.1627 33.8382Z" fill="#53E193"/>
<path d="M71.0768 37.4855L71.9668 41.1673C72.0126 41.3569 72.2035 41.4735 72.3931 41.4276L76.0749 40.5376C76.2645 40.4918 76.3811 40.3009 76.3352 40.1113L75.4452 36.4295C75.3994 36.2399 75.2085 36.1233 75.0189 36.1692L71.3371 37.0592C71.1475 37.105 71.0309 37.2959 71.0768 37.4855Z" fill="#53E193"/>
<path d="M69.9161 32.6879L70.8062 36.3697C70.852 36.5593 71.0429 36.6759 71.2325 36.63L74.9142 35.74C75.1039 35.6941 75.2204 35.5033 75.1746 35.3137L74.2846 31.6319C74.2387 31.4423 74.0478 31.3257 73.8582 31.3716L70.1765 32.2616C69.9869 32.3074 69.8703 32.4983 69.9161 32.6879Z" fill="#53E193"/>
<path d="M61.6957 34.6205L63.77 43.2011C63.8091 43.3629 63.972 43.4624 64.1339 43.4233L66.4675 42.8592C66.6293 42.82 66.7288 42.6571 66.6897 42.4952L64.6154 33.9147C64.5763 33.7528 64.4134 33.6533 64.2515 33.6925L61.9179 34.2566C61.7561 34.2957 61.6566 34.4587 61.6957 34.6205Z" fill="#53E193"/>
<path d="M67.585 40.2768L70.3045 39.6163" stroke="white" stroke-width="2" stroke-miterlimit="10" stroke-linecap="round"/>
<path d="M68.6157 38.5859L69.2733 41.3083" stroke="white" stroke-width="2" stroke-miterlimit="10" stroke-linecap="round"/>
<path d="M72.5068 38.0654L74.8961 39.5243" stroke="white" stroke-width="2" stroke-miterlimit="10" stroke-linecap="round"/>
<path d="M74.4315 37.6003L72.9727 39.9925" stroke="white" stroke-width="2" stroke-miterlimit="10" stroke-linecap="round"/>
<path d="M67.4561 33.7869L68.1137 36.5093" stroke="white" stroke-width="2" stroke-miterlimit="10" stroke-linecap="round"/>
<path d="M72.2109 32.6381L72.8686 35.3605" stroke="white" stroke-width="2" stroke-miterlimit="10" stroke-linecap="round"/>
<path d="M71.5939 33.8441C71.6868 33.8225 71.7845 33.8385 71.8657 33.8885C71.9469 33.9385 72.0051 34.0185 72.0276 34.1112C72.041 34.2007 72.0205 34.2919 71.97 34.367C71.9195 34.4421 71.8428 34.4956 71.7548 34.5168C71.6669 34.5381 71.5741 34.5256 71.4949 34.4819C71.4157 34.4382 71.3557 34.3664 71.3269 34.2806C71.3052 34.1874 71.321 34.0893 71.371 34.0077C71.421 33.926 71.501 33.8673 71.5939 33.8441Z" fill="white"/>
<path d="M73.3339 33.4362C73.4239 33.4212 73.5162 33.4408 73.5923 33.4909C73.6685 33.5411 73.7229 33.6182 73.7447 33.7067C73.7664 33.7953 73.754 33.8888 73.7098 33.9685C73.6655 34.0483 73.5928 34.1084 73.5062 34.1369C73.4602 34.1484 73.4123 34.1508 73.3654 34.1437C73.3185 34.1367 73.2734 34.1204 73.2328 34.0958C73.1922 34.0713 73.1569 34.0389 73.1289 34.0006C73.1009 33.9623 73.0808 33.9188 73.0697 33.8727C73.0479 33.7798 73.0634 33.6821 73.1128 33.6005C73.1621 33.5189 73.2415 33.4599 73.3339 33.4362Z" fill="white"/>
<path d="M71.7204 48.5647L71.4131 47.551C71.2214 46.9347 70.8135 46.4085 70.2644 46.0692C69.4718 45.5724 68.3662 44.8602 68.1164 44.5874C67.7172 44.1509 65.7242 39.9381 65.931 39.7715C66.1378 39.6049 66.4766 39.3149 67.1687 39.895C67.5966 40.254 68.237 41.2045 68.7223 41.9397C68.9018 42.21 69.1601 42.4187 69.4621 42.5374C69.7642 42.656 70.0954 42.679 70.4109 42.603L73.7019 41.8076C74.7845 42.1493 75.1636 44.507 75.1177 45.0756C75.0717 45.6442 75.557 47.6084 75.557 47.6084" fill="#D3844A"/>
<path d="M71.083 48.1797L75.6778 47.0626C75.6778 47.0626 82.1679 62.1306 80.3271 68.6006L72.381 65.7576C72.9008 61.4126 71.083 48.1797 71.083 48.1797Z" fill="#E49E14"/>
<path d="M61.0288 76.2423C61.0288 76.2423 68.7652 68.2962 72.5157 64.942L80.3239 68.592C78.4832 72.6497 68.6073 82.023 68.6073 82.023L61.0288 76.2423Z" fill="#E49E14"/>
<path d="M85.0238 36.8134L81.4234 50.5472C81.3619 50.7819 81.5023 51.0221 81.737 51.0836L100.54 56.013C100.775 56.0746 101.015 55.9342 101.077 55.6994L104.677 41.9657C104.739 41.731 104.598 41.4908 104.364 41.4293L85.5603 36.4998C85.3255 36.4383 85.0854 36.5787 85.0238 36.8134Z" fill="#18CE6A"/>
<path d="M85.0376 37.1602L81.8091 49.6869C81.7425 49.9454 81.898 50.2089 82.1565 50.2755L99.3629 54.7102C99.6214 54.7768 99.8849 54.6213 99.9515 54.3628L103.18 41.8361C103.247 41.5776 103.091 41.3141 102.833 41.2475L85.6262 36.8128C85.3678 36.7462 85.1042 36.9018 85.0376 37.1602Z" fill="white"/>
<path d="M100.475 44.6563L101.477 48.335L101.204 50.6898L100.113 54.8078C100.081 54.9281 100.002 55.0307 99.8947 55.0936C99.7872 55.1565 99.6593 55.1745 99.5386 55.1438L82.3571 50.6381C82.2364 50.6064 82.1333 50.5281 82.0703 50.4204C82.0073 50.3127 81.9896 50.1844 82.0211 50.0637L85.3035 37.5487C85.3352 37.4281 85.4135 37.325 85.5212 37.262C85.6288 37.199 85.7571 37.1813 85.8778 37.2128L94.9094 39.5877L96.0064 40.0098L100.475 44.6563Z" fill="#EEF7FF"/>
<path d="M83.597 40.6842L82.0794 46.4732C82.0585 46.553 82.1062 46.6346 82.186 46.6555L83.2526 46.9352C83.3324 46.9561 83.4141 46.9084 83.435 46.8286L84.9526 41.0396C84.9735 40.9598 84.9258 40.8782 84.846 40.8572L83.7793 40.5776C83.6996 40.5567 83.6179 40.6044 83.597 40.6842Z" fill="#18CE6A"/>
<path d="M83.592 42.6456L83.0607 44.6731L82.5352 44.5352C82.2664 44.465 82.0365 44.291 81.896 44.0514C81.7555 43.8118 81.7158 43.5262 81.7857 43.2573V43.2573C81.8565 42.9883 82.0311 42.7584 82.2712 42.6179C82.5113 42.4774 82.7973 42.4378 83.0665 42.5078L83.592 42.6456Z" stroke="#18CE6A" stroke-miterlimit="10"/>
<path d="M88.6724 59.2094L88.8792 58.1727C89.009 57.5436 88.907 56.8888 88.592 56.3291C88.1268 55.5164 87.4921 54.3648 87.4031 54.0058C87.2595 53.4315 87.4979 48.7764 87.7621 48.7276C88.0263 48.6788 88.4541 48.584 88.7901 49.4226C88.9969 49.9423 89.1118 51.0853 89.1922 51.9612C89.2212 52.2844 89.3494 52.5908 89.5591 52.8386C89.7688 53.0863 90.0498 53.2633 90.3638 53.3453L93.6376 54.2069C94.4273 55.0196 93.6376 57.2739 93.3361 57.7534C93.0345 58.233 92.5234 60.1944 92.5234 60.1944" fill="#D3844A"/>
<path d="M88.3129 58.7042L92.9076 59.8529C92.9076 59.8529 91.9858 78.2894 85.9437 82.6027L81.4121 74.9094C83.8933 71.3082 88.3129 58.7042 88.3129 58.7042Z" fill="#F1A21F"/>
<path d="M65.813 77.5231C65.813 77.5231 76.401 75.4267 81.4122 74.9041L85.9352 82.6003C82.0698 84.8173 68.5756 86.6494 68.5756 86.6494L65.813 77.5231Z" fill="#F1A21F"/>
<path d="M108.944 104.744H117.344V89.1133H108.944V104.744Z" fill="#7686D3"/>
<path d="M119.098 108.906H123.808V88.3357H119.098V108.906Z" fill="#FAB620"/>
<path d="M119.095 88.3354H116.427L113.679 98.2831H108.094V108.906H119.095V88.3354Z" fill="#E89F0F"/>
<path d="M121.453 93.6302C122.262 93.6302 122.917 92.9745 122.917 92.1656C122.917 91.3568 122.262 90.701 121.453 90.701C120.644 90.701 119.988 91.3568 119.988 92.1656C119.988 92.9745 120.644 93.6302 121.453 93.6302Z" fill="#FFD180"/>
<path d="M120.195 103.411H122.708V94.4744H120.195V103.411Z" fill="#FFD180"/>
<path d="M120.195 104.747H122.708V103.831H120.195V104.747Z" fill="#FFD180"/>
<path d="M120.195 106.043H122.708V105.127H120.195V106.043Z" fill="#FFD180"/>
<path d="M102.187 104.744H110.586V89.1133H102.187V104.744Z" fill="#9DE2FF"/>
<path d="M112.341 108.906H117.051V88.3357H112.341V108.906Z" fill="#36C0F9"/>
<path d="M112.338 88.3354H109.67L106.921 98.2831H101.336V108.906H112.338V88.3354Z" fill="#28B4ED"/>
<path d="M113.228 92.1662C113.227 92.457 113.312 92.7417 113.473 92.9839C113.634 93.2262 113.863 93.4152 114.132 93.5269C114.4 93.6385 114.696 93.6679 114.981 93.6112C115.267 93.5546 115.529 93.4144 115.734 93.2085C115.94 93.0027 116.079 92.7404 116.135 92.455C116.191 92.1696 116.162 91.874 116.049 91.6057C115.937 91.3374 115.748 91.1085 115.505 90.948C115.262 90.7875 114.978 90.7028 114.687 90.7045C114.3 90.7068 113.93 90.8616 113.657 91.1353C113.384 91.409 113.23 91.7795 113.228 92.1662Z" fill="#9DE2FF"/>
<path d="M113.438 103.411H115.951V94.4744H113.438V103.411Z" fill="#9DE2FF"/>
<path d="M113.438 104.747H115.951V103.831H113.438V104.747Z" fill="#9DE2FF"/>
<path d="M113.438 106.043H115.951V105.127H113.438V106.043Z" fill="#9DE2FF"/>
<path d="M92.3535 108.906H100.142V99.4981H92.3535V108.906Z" fill="white"/>
<path d="M92.354 108.906H94.1689V99.4981H92.354V108.906Z" fill="#F5FAFF"/>
<path d="M92.4027 107.774L92.7731 107.303C92.7444 107.28 89.9646 105.083 89.8554 103.205C89.8095 102.358 90.0076 101.703 90.4298 101.31C90.5764 101.175 90.7508 101.073 90.9408 101.012C91.1307 100.951 91.3317 100.932 91.5297 100.957C92.1557 101.043 92.8621 101.683 92.8708 101.689L93.2728 101.25C93.2383 101.218 92.4113 100.477 91.6129 100.365C91.3271 100.328 91.0367 100.355 90.7623 100.442C90.4878 100.53 90.2361 100.677 90.0249 100.873C89.6314 101.232 89.1806 101.936 89.2552 103.24C89.3845 105.388 92.2878 107.677 92.4027 107.774Z" fill="#F5FAFF"/>
<path d="M92.4371 75.1968C92.4371 75.1968 91.7221 75.7711 91.4291 75.9721C91.1362 76.1732 90.1024 76.5264 89.1892 77.3477C88.276 78.169 91.7737 81.6294 91.7737 81.6294L93.1263 79.3809L92.4371 75.1968Z" fill="#FFB1AD"/>
<path d="M84.4736 83.7833C84.4736 83.7833 86.2828 81.417 86.5154 81.0925C86.748 80.768 86.8859 77.5258 87.1328 76.917C87.3798 76.3082 88.4251 74.8235 88.9593 74.1027C89.4934 73.3819 90.3032 72.3337 90.5358 72.6812C90.7685 73.0287 90.7369 73.7409 90.4124 74.6684C90.0879 75.596 89.4302 76.6787 89.4073 77.1783C89.3843 77.678 93.2755 79.5446 92.8332 80.8427C92.391 82.1407 89.9615 83.0481 89.4417 83.7661C88.9219 84.484 87.6756 86.4282 87.6756 86.4282L84.4736 83.7833Z" fill="#D3844A"/>
<path d="M95.2483 68.3623L93.0457 81.644C93.0378 81.6833 93.0218 81.7204 92.9987 81.7531C92.9756 81.7858 92.9459 81.8133 92.9116 81.8338C92.8772 81.8544 92.839 81.8675 92.7993 81.8724C92.7596 81.8773 92.7193 81.8739 92.681 81.8623L88.896 80.6016C88.834 80.5792 88.7817 80.5361 88.7477 80.4796C88.7137 80.4231 88.7002 80.3567 88.7094 80.2914L90.8804 67.1992C90.8896 67.1497 90.9117 67.1034 90.9445 67.0651C90.9772 67.0268 91.0195 66.9978 91.067 66.981L91.3714 66.8805C91.4281 66.8603 91.49 66.8603 91.5466 66.8805L95.0616 68.0521C95.1236 68.0746 95.176 68.1176 95.21 68.1741C95.244 68.2306 95.2575 68.297 95.2483 68.3623Z" fill="#342D7A"/>
<path d="M92.3335 80.2774L89.1286 79.2177C89.1023 79.2091 89.0799 79.1913 89.0657 79.1676C89.0514 79.1438 89.0463 79.1157 89.0511 79.0885L90.9091 67.9634C90.9115 67.9469 90.9175 67.9312 90.9268 67.9173C90.936 67.9035 90.9483 67.8919 90.9626 67.8834C90.9769 67.8748 90.9929 67.8696 91.0095 67.868C91.0261 67.8665 91.0428 67.8687 91.0584 67.8744L94.2604 68.9427C94.2861 68.9512 94.3081 68.9685 94.3223 68.9917C94.3365 69.0148 94.342 69.0422 94.3379 69.069L92.4799 80.1941C92.4763 80.2095 92.4695 80.224 92.4601 80.2366C92.4506 80.2493 92.4386 80.2599 92.4249 80.2677C92.4111 80.2755 92.3959 80.2804 92.3802 80.2821C92.3644 80.2837 92.3485 80.2821 92.3335 80.2774Z" fill="#9393CE"/>
<path d="M93.3616 68.2758L93.3329 68.4424L92.0205 68.0059L92.0492 67.8364L93.3616 68.2758Z" fill="#6363AD"/>
<path d="M91.2483 80.6075C91.1909 80.7942 90.9066 80.8689 90.6137 80.7741C90.3208 80.6793 90.1341 80.4553 90.1915 80.2687C90.249 80.082 90.5361 80.0102 90.829 80.1021C91.122 80.194 91.3086 80.4237 91.2483 80.6075Z" fill="#6363AD"/>
<path d="M91.2397 67.2516L94.5164 68.3486C94.5442 68.3572 94.568 68.3756 94.5833 68.4005C94.5986 68.4253 94.6044 68.4548 94.5997 68.4836L93.2442 76.6507" stroke="#1B1951" stroke-width="0.21" stroke-miterlimit="10" stroke-linecap="round"/>
<path d="M85.0679 83.0049L88.8356 84.659L88.1952 85.6268L85.0679 83.0049Z" fill="#FF706A"/>
<path d="M88.8413 74.2496C88.8413 74.2496 90.1278 72.4404 90.2944 72.4576C90.461 72.4749 90.7711 72.9659 90.6103 73.9308C90.4495 74.8957 89.2491 76.8026 89.2491 76.8026L88.8413 74.2496Z" fill="#D3844A"/>
<path d="M71.1289 103.317C70.0031 102.381 68.8688 101.307 67.7833 100.202C65.44 97.8152 63.335 95.2795 62.0599 93.6885C61.2645 92.6949 60.7964 92.0631 60.7964 92.0631L67.9757 78.4081C67.9757 78.4081 76.4674 97.5252 77.0073 99.3085C77.7195 101.692 76.3267 107.631 71.1289 103.317Z" fill="#F5A623"/>
<path d="M68.7397 101.149C68.7397 101.149 73.8083 106.967 76.0425 104.848C78.2767 102.728 88.8418 85.5928 88.8418 85.5928C88.8418 85.5928 86.5215 83.9588 84.7123 82.7642L73.3919 95.7501L68.7397 101.149Z" fill="#FAB620"/>
<path d="M67.7834 100.201C65.4401 97.8142 63.3351 95.2785 62.0601 93.6876L64.389 89.0411L66.3992 87.97C66.3992 87.97 67.0913 96.522 67.7834 100.201Z" fill="#008481"/>
<path d="M64.8915 102.461C64.501 105.045 64.1822 107.495 63.9812 109.169H44.2553C44.06 107.699 43.8246 105.545 43.5833 103.047C43.434 101.493 43.2789 99.8073 43.1296 98.0728C42.3916 89.5552 41.7454 79.8488 42.0326 78.792C42.5438 76.8995 52.5948 74.45 52.5948 74.45L59.6363 74.6596C59.6363 74.6596 67.8006 76.6497 68.1079 78.792C68.4151 80.9343 65.6066 97.7712 64.8915 102.461Z" fill="#F5A623"/>
<path d="M46.3716 94.5787C46.3716 94.5787 45.1425 99.5698 43.5831 103.047C43.4338 101.494 43.2787 99.8082 43.1294 98.0736L46.3716 94.5787Z" fill="#E89F0F"/>
<path d="M42.0843 78.6632C42.0843 78.6632 31.2177 100.856 32.0592 103.383C32.9006 105.91 39.6979 104.532 41.4583 103.148C43.2187 101.763 46.3718 94.5812 46.3718 94.5812C46.3718 94.5812 49.5336 77.0321 42.0843 78.6632Z" fill="#F5A623"/>
<path d="M59.0786 109.083C59.0786 109.083 64.1903 109.135 64.3798 109.161C64.4711 109.166 64.5618 109.144 64.6405 109.097C64.7192 109.051 64.7824 108.982 64.822 108.899C64.8617 108.817 64.876 108.725 64.8633 108.634C64.8505 108.544 64.8112 108.459 64.7503 108.391C64.4057 107.857 63.0789 107.857 62.5936 107.817C62.1083 107.776 61.8929 107.458 61.0142 107.331L59.0786 109.083Z" fill="#FF8D71"/>
<path d="M55.4405 105.312C55.4405 105.312 57.4795 105.648 58.3467 105.8C59.214 105.952 61.6693 105.125 62.8439 104.959C64.0184 104.792 68.7883 108.907 68.4696 109.034C68.0971 109.143 67.7054 109.171 67.3213 109.115C66.9371 109.059 66.5697 108.921 66.244 108.709C65.3365 108.135 63.6422 107.141 63.2976 107.153C62.953 107.164 61.3448 107.868 60.7331 108.264C60.1215 108.66 59.392 109.126 58.476 109.143C57.5599 109.16 55.6444 109.123 53.6802 108.959L55.4405 105.312Z" fill="#D3844A"/>
<path d="M55.8538 105.129L57.0743 109.132H55.4346L55.8538 105.129Z" fill="#FF706A"/>
<path d="M32.2428 101.617C32.2428 101.617 30.2326 107.935 33.2192 108.698C36.2058 109.462 55.9374 109.169 55.9374 109.169C55.9374 109.169 56.0581 106.349 56.0581 104.787C56.0581 104.787 48.0488 102.964 45.1828 102.384L39.3102 101.192L32.2428 101.617Z" fill="#F5A623"/>
<path d="M57.1808 81.3276C53.2953 81.675 51.5493 74.7226 51.5493 74.7226L51.7503 74.6709C51.9636 74.615 52.1547 74.4954 52.2984 74.3282C52.442 74.161 52.5313 73.954 52.5544 73.7347C52.7464 72.2732 52.729 70.7918 52.5027 69.3352C52.1955 67.483 59.9951 69.8378 59.9951 69.8378L59.8687 72.0318L59.7682 73.8008C59.7538 74.0495 59.8256 74.2956 59.9716 74.4976C60.1176 74.6995 60.3287 74.8449 60.5694 74.9093C60.5694 74.9093 61.0662 80.9858 57.1808 81.3276Z" fill="#D3844A"/>
<path d="M60.5692 74.9099C59.3164 74.7047 58.1421 74.1653 57.1702 73.3485C56.1983 72.5318 55.4647 71.468 55.0469 70.2692L57.9387 71.0589L59.8685 72.0324L59.768 73.8014C59.7536 74.0501 59.8254 74.2962 59.9714 74.4982C60.1173 74.7001 60.3285 74.8455 60.5692 74.9099Z" fill="#9E5E2F"/>
<path d="M65.3967 58.217C65.3967 58.217 65.8734 65.0604 64.1131 64.7043L63.9092 58.8804L65.3967 58.217Z" fill="#2C2B31"/>
<path d="M65.8133 64.032L64.208 64.1067" stroke="white" stroke-width="0.84" stroke-miterlimit="10" stroke-linecap="round"/>
<path d="M64.3949 65.8863C64.3719 66.3314 64.3403 66.7736 64.303 67.213C64.0704 69.9354 63.5563 72.4482 62.4852 73.192C61.0034 74.2172 58.3786 73.5222 56.3483 72.7124C53.9906 71.7676 52.572 69.7689 51.4405 67.4973C49.0512 62.6958 49.7893 58.7644 49.7893 58.7644H64.3776C64.3776 58.7644 64.5873 62.2938 64.3949 65.8863Z" fill="#D3844A"/>
<path d="M57.9906 66.5821C57.9906 67.0243 57.3014 67.3833 56.4514 67.3833C55.6013 67.3833 54.9121 67.0243 54.9121 66.5821C54.9121 66.1398 55.6013 65.7809 56.4514 65.7809C57.3014 65.7809 57.9906 66.1255 57.9906 66.5821Z" fill="#9E5E2F"/>
<path d="M64.3941 65.8867C64.3712 66.3318 64.3396 66.7741 64.3022 67.2135C63.9203 67.067 63.6733 66.8315 63.6733 66.5673C63.6733 66.3031 63.9605 66.0303 64.3941 65.8867Z" fill="#9E5E2F"/>
<path d="M54.3034 59.6586C54.3034 59.6586 54.7571 66.0596 53.8698 66.3755C52.9824 66.6914 52.4167 64.3825 51.8797 64.4141C51.3426 64.4457 49.8235 64.3194 49.8235 64.3194C49.8235 64.3194 47.4515 60.7154 47.9569 57.8695C48.4623 55.0236 50.8688 54.7393 51.894 55.0868C55.1793 49.7655 63.7801 54.9087 64.5583 50.0297C67.9412 52.6142 67.6081 55.6927 66.1923 57.5852C65.7255 58.2166 65.1046 58.7179 64.3889 59.0411C64.3889 59.0411 57.3388 58.8286 54.3034 59.6586Z" fill="#2C2B31"/>
<path d="M57.8095 66.4035C59.1196 66.4035 60.1816 65.3415 60.1816 64.0315C60.1816 62.7214 59.1196 61.6594 57.8095 61.6594C56.4995 61.6594 55.4375 62.7214 55.4375 64.0315C55.4375 65.3415 56.4995 66.4035 57.8095 66.4035Z" stroke="white" stroke-width="0.84" stroke-miterlimit="10"/>
<path d="M63.4409 66.4035C64.7509 66.4035 65.8129 65.3415 65.8129 64.0315C65.8129 62.7214 64.7509 61.6594 63.4409 61.6594C62.1309 61.6594 61.0688 62.7214 61.0688 64.0315C61.0688 65.3415 62.1309 66.4035 63.4409 66.4035Z" stroke="white" stroke-width="0.84" stroke-miterlimit="10"/>
<path d="M60.1816 64.0317C60.3061 63.9277 60.4631 63.8707 60.6253 63.8707C60.7875 63.8707 60.9445 63.9277 61.069 64.0317" stroke="white" stroke-width="0.84" stroke-miterlimit="10"/>
<path d="M51.1357 64.1813L55.4376 64.032" stroke="white" stroke-width="0.84" stroke-miterlimit="10" stroke-linecap="round"/>
<path d="M52.4825 65.1456C52.3461 64.7319 52.0724 64.3771 51.7069 64.14C51.3413 63.9029 50.9058 63.7977 50.4723 63.8419C49.2806 63.9194 49.0365 65.2002 49.3236 66.3432C49.6108 67.4861 50.8686 69.6198 52.8903 68.741L52.4825 65.1456Z" fill="#D3844A"/>
<path d="M43.3477 78.3559C43.3477 78.3559 43.4137 78.3358 43.5401 78.3071C43.6664 78.2784 43.856 78.2439 44.1 78.2181C44.3931 78.1903 44.6876 78.1827 44.9817 78.1951C45.1634 78.2008 45.3446 78.2171 45.5244 78.2439L45.8116 78.287L46.1131 78.3645C46.5562 78.4803 46.9813 78.6561 47.3767 78.8872C47.5748 79.0279 47.7931 79.1743 47.9855 79.3265L48.2727 79.5936L48.4134 79.7343L48.5369 79.8894C48.714 80.0938 48.8708 80.315 49.005 80.5499L49.2146 80.9089C49.2812 81.0298 49.3388 81.1556 49.3869 81.2851C49.6297 81.7981 49.7924 82.3453 49.8693 82.9076C49.9668 84.0112 49.8527 85.1233 49.5334 86.1842C49.3984 86.6925 49.2462 87.1692 49.0767 87.6201C48.9073 88.071 48.7637 88.496 48.6173 88.8865C48.3301 89.6676 48.0429 90.308 47.8649 90.756C47.6868 91.204 47.5576 91.4538 47.5576 91.4538L47.8103 90.733C47.974 90.2764 48.1923 89.6188 48.4565 88.8291C48.7207 88.0394 49.0164 87.106 49.2806 86.1182C49.5753 85.0928 49.6727 84.0209 49.5678 82.9593C49.501 82.424 49.3528 81.902 49.1284 81.4114C49.0815 81.2866 49.0268 81.1648 48.9648 81.0467C48.9016 80.9318 48.8355 80.817 48.7695 80.705C48.645 80.4797 48.4988 80.2671 48.333 80.0703L48.2181 79.921C48.175 79.8722 48.1291 79.832 48.086 79.7889L47.8247 79.5276C47.6466 79.361 47.4456 79.2404 47.2503 79.0853C46.8781 78.8513 46.4763 78.6678 46.0557 78.5397L45.7685 78.4564L45.4813 78.399C45.3078 78.3629 45.1324 78.3371 44.9558 78.3214C44.6697 78.2907 44.3818 78.2811 44.0943 78.2927C43.8531 78.2927 43.6635 78.3214 43.52 78.3387C43.3764 78.3559 43.3477 78.3559 43.3477 78.3559Z" fill="#E89F0F"/>
<path d="M68.0562 80.593C68.0562 80.593 68.0562 80.7108 68.0562 80.9146C68.0562 81.1185 68.0332 81.4086 68.0074 81.7561C67.9586 82.4539 67.8667 83.3786 67.7518 84.3004C67.6369 85.2222 67.4962 86.1412 67.3699 86.8275C67.3096 87.1721 67.2464 87.4564 67.2091 87.6575C67.1717 87.8585 67.1401 87.9705 67.1401 87.9705C67.1401 87.9705 67.1401 87.8527 67.1401 87.6488C67.1401 87.4449 67.1602 87.1549 67.189 86.8046C67.2378 86.1096 67.3268 85.1849 67.4417 84.2631C67.5565 83.3413 67.7001 82.4223 67.8236 81.736C67.8839 81.3914 67.9471 81.1071 67.9873 80.906C68.0275 80.705 68.0562 80.593 68.0562 80.593Z" fill="#E89F0F"/>
<path d="M93.149 80.1793C93.149 80.1793 91.6528 81.2734 91.4776 81.7013C91.3025 82.1292 91.5523 82.3676 92.006 82.3044C92.4598 82.2412 93.8296 81.2591 93.9789 81.1097C94.0469 81.0552 94.1033 80.9876 94.1447 80.9109C94.186 80.8343 94.2116 80.7501 94.2199 80.6633C94.2282 80.5766 94.2191 80.489 94.193 80.4059C94.1669 80.3228 94.1244 80.2457 94.0679 80.1793C93.9378 80.0744 93.7756 80.0172 93.6085 80.0172C93.4413 80.0172 93.2792 80.0744 93.149 80.1793Z" fill="#D3844A"/>
<path d="M91.4862 81.7012V81.7472C91.4713 81.7908 91.4616 81.8361 91.4575 81.8821C91.4494 81.9524 91.4593 82.0235 91.4862 82.0889C91.5282 82.1674 91.5994 82.2262 91.6844 82.2526C91.7871 82.2817 91.895 82.2876 92.0003 82.2698C92.1171 82.2446 92.2301 82.204 92.3363 82.1492C92.5752 82.0272 92.8072 81.892 93.0312 81.7443C93.261 81.5978 93.4907 81.4428 93.7003 81.2934C93.8009 81.2159 93.9071 81.1441 93.9875 81.0694C94.0636 80.9942 94.1267 80.9069 94.1742 80.811C94.2075 80.7369 94.2247 80.6567 94.2247 80.5755C94.2247 80.4943 94.2075 80.4141 94.1742 80.34C94.1543 80.2986 94.1323 80.2584 94.1081 80.2194L94.0794 80.1792L94.111 80.2165C94.1405 80.2533 94.1664 80.2927 94.1885 80.3343C94.2303 80.4096 94.2545 80.4934 94.2595 80.5794C94.2645 80.6654 94.25 80.7514 94.2172 80.8311C94.1731 80.9374 94.1098 81.0347 94.0306 81.1183C93.9407 81.2054 93.8447 81.286 93.7434 81.3595C93.5338 81.5145 93.3069 81.6725 93.0743 81.8247C92.8461 81.9719 92.6093 82.1052 92.365 82.2239C92.2505 82.2819 92.1273 82.3207 92.0003 82.3387C91.8841 82.3531 91.7661 82.3403 91.6557 82.3014C91.6083 82.285 91.565 82.2585 91.5288 82.2238C91.4927 82.1892 91.4644 82.147 91.446 82.1004C91.4205 82.0295 91.4155 81.9528 91.4317 81.8793C91.4406 81.8331 91.4541 81.7878 91.4719 81.7443L91.4862 81.7012Z" fill="#F17154"/>
<path d="M93.2182 78.5279C93.2182 78.5279 91.4665 79.8087 91.2597 80.3083C91.053 80.808 91.3488 81.0866 91.8771 81.0148C92.4055 80.943 94.0108 79.7943 94.1889 79.6163C94.3453 79.4845 94.4436 79.2964 94.4624 79.0927C94.4812 78.889 94.419 78.6861 94.2894 78.5279C94.0711 78.2551 93.5743 78.2579 93.2182 78.5279Z" fill="#D3844A"/>
<path d="M91.2596 80.3083L91.2423 80.3629C91.2259 80.4142 91.2153 80.4671 91.2107 80.5208C91.1994 80.6035 91.2103 80.6878 91.2423 80.7649C91.291 80.8564 91.3734 80.9254 91.4721 80.9573C91.5929 80.9943 91.7209 81.0022 91.8454 80.9803C91.9833 80.9518 92.1167 80.9045 92.2417 80.8396C92.5214 80.6989 92.7919 80.5406 93.0515 80.3657C93.3243 80.1963 93.5914 80.0154 93.8326 79.8402C93.9532 79.7512 94.0767 79.6679 94.1744 79.5789C94.2638 79.4906 94.3358 79.3864 94.3869 79.2716C94.4275 79.1853 94.4498 79.0914 94.4522 78.996C94.4547 78.9006 94.4373 78.8057 94.4012 78.7174C94.3795 78.6683 94.3536 78.6212 94.3237 78.5766L94.2892 78.5278L94.3266 78.5738C94.3611 78.6164 94.3909 78.6626 94.4156 78.7116C94.4548 78.7889 94.48 78.8725 94.4902 78.9586C94.5014 79.072 94.4846 79.1863 94.4414 79.2917C94.3913 79.417 94.3182 79.532 94.226 79.6306C94.1194 79.7346 94.0052 79.8306 93.8843 79.9177C93.6431 80.0987 93.376 80.2825 93.1061 80.4605C92.8402 80.6324 92.564 80.7878 92.279 80.9257C92.1459 80.9943 92.0023 81.04 91.854 81.0607C91.7196 81.0772 91.5832 81.0635 91.4548 81.0205C91.3996 81.0004 91.3492 80.9692 91.3067 80.9286C91.2642 80.8881 91.2305 80.8392 91.2079 80.785C91.1794 80.7028 91.1744 80.6143 91.1935 80.5294C91.2023 80.4751 91.2177 80.422 91.2394 80.3715L91.2596 80.3083Z" fill="#F17154"/>
<path d="M93.3272 76.8711C93.3272 76.8711 91.5783 78.1519 91.3715 78.6516C91.1648 79.1512 91.4606 79.4327 91.989 79.358C92.5174 79.2833 94.1227 78.1375 94.2863 77.9595C94.4426 77.8276 94.5409 77.6399 94.5602 77.4364C94.5795 77.2329 94.5183 77.03 94.3897 76.8711C94.2174 76.6327 93.6833 76.604 93.3272 76.8711Z" fill="#D3844A"/>
<path d="M91.3713 78.6431L91.3541 78.6977C91.3376 78.7501 91.3261 78.804 91.3196 78.8585C91.3096 78.9406 91.3215 79.0238 91.3541 79.0997C91.3777 79.1458 91.4101 79.1868 91.4495 79.2203C91.4889 79.2538 91.5346 79.2792 91.5838 79.295C91.7042 79.3295 91.8309 79.3364 91.9543 79.3151C92.0925 79.2876 92.226 79.2402 92.3506 79.1744C92.6302 79.0331 92.9016 78.8758 93.1633 78.7034C93.4332 78.5311 93.7003 78.3531 93.9444 78.1779C94.0621 78.0889 94.1856 78.0027 94.2833 77.9166C94.3734 77.8279 94.4456 77.7226 94.4958 77.6065C94.5357 77.5204 94.5575 77.4271 94.56 77.3323C94.5625 77.2374 94.5455 77.1431 94.5101 77.0551C94.4888 77.0049 94.4628 76.9568 94.4326 76.9115L94.401 76.8627L94.4355 76.9086C94.4709 76.9516 94.5008 76.9989 94.5245 77.0493C94.5689 77.138 94.5939 77.235 94.5979 77.334C94.6018 77.4331 94.5846 77.5318 94.5475 77.6237C94.4994 77.7486 94.4272 77.8628 94.3349 77.9597C94.2286 78.063 94.1154 78.1589 93.9961 78.2468C93.752 78.4278 93.4878 78.6116 93.215 78.7867C92.9491 78.9595 92.6729 79.1159 92.3879 79.2548C92.2543 79.3221 92.1108 79.3677 91.9629 79.3898C91.8283 79.4051 91.692 79.3904 91.5637 79.3467C91.5093 79.3267 91.4596 79.2957 91.4176 79.2557C91.3757 79.2157 91.3423 79.1675 91.3196 79.1141C91.2912 79.0309 91.2863 78.9415 91.3053 78.8556C91.3126 78.801 91.3281 78.7478 91.3512 78.6977L91.3713 78.6431Z" fill="#F17154"/>
<path d="M93.5113 75.2545C93.5113 75.2545 91.7624 76.5352 91.5556 77.0349C91.3489 77.5346 91.6447 77.8132 92.173 77.7414C92.7014 77.6696 94.3067 76.518 94.4704 76.3428C94.6279 76.2119 94.7272 76.0239 94.7466 75.82C94.766 75.616 94.7038 75.4127 94.5738 75.2545C94.4101 75.0132 93.8674 74.9845 93.5113 75.2545Z" fill="#D3844A"/>
<path d="M91.5556 77.0347L91.5384 77.0893C91.5219 77.1407 91.5103 77.1936 91.5039 77.2473C91.4938 77.3293 91.5057 77.4126 91.5384 77.4885C91.5616 77.5348 91.5939 77.576 91.6334 77.6095C91.6728 77.6431 91.7187 77.6683 91.7682 77.6838C91.8883 77.7193 92.015 77.7271 92.1386 77.7067C92.2768 77.6792 92.4103 77.6318 92.5349 77.566C92.814 77.4253 93.0844 77.268 93.3447 77.095C93.6175 76.9227 93.8846 76.7418 94.1258 76.5666C94.2464 76.4776 94.3699 76.3943 94.4676 76.3053C94.5584 76.2187 94.6315 76.1153 94.683 76.0009C94.7202 75.9138 94.7395 75.82 94.7395 75.7252C94.7395 75.6305 94.7202 75.5367 94.683 75.4495C94.6625 75.3991 94.6385 75.3502 94.6112 75.3031L94.5796 75.2543L94.614 75.3002C94.6456 75.3453 94.6744 75.3923 94.7002 75.4409C94.7448 75.5293 94.7706 75.626 94.776 75.7248C94.7814 75.8236 94.7664 75.9225 94.7318 76.0153C94.6812 76.1402 94.6071 76.2543 94.5135 76.3513C94.4068 76.4553 94.2926 76.5513 94.1718 76.6384C93.9306 76.8194 93.6664 77.0031 93.3935 77.1783C93.1277 77.3502 92.8515 77.5056 92.5665 77.6435C92.4329 77.7108 92.2894 77.7564 92.1415 77.7785C92.0071 77.7948 91.8708 77.781 91.7423 77.7383C91.6875 77.7182 91.6374 77.6869 91.5954 77.6464C91.5533 77.6058 91.5202 77.5569 91.4982 77.5028C91.4746 77.4183 91.4746 77.3289 91.4982 77.2444C91.5059 77.1898 91.5213 77.1366 91.5442 77.0864L91.5556 77.0347Z" fill="#F17154"/>
<path d="M41.3862 101.617L42.0238 101.727C42.4258 101.801 43.0059 101.896 43.698 102.031C44.3901 102.166 45.1941 102.318 46.0557 102.496L48.7551 103.071L51.443 103.674C52.3045 103.863 53.0971 104.064 53.7835 104.225C54.4698 104.386 55.0355 104.541 55.4318 104.641L56.0579 104.805L55.4204 104.699C55.0183 104.621 54.4382 104.526 53.7461 104.392C53.0541 104.257 52.2471 104.104 51.3885 103.929L48.689 103.355L46.0011 102.755C45.1396 102.562 44.347 102.361 43.6606 102.2C42.9743 102.04 42.4086 101.885 42.0094 101.787L41.3862 101.617Z" fill="#E89F0F"/>
<path d="M57.8094 81.2278C57.8094 81.2278 57.8295 81.3455 57.8611 81.5523C57.8927 81.7591 57.9358 82.0548 57.976 82.4138C58.0564 83.1231 58.1368 84.0708 58.177 85.0242C58.2172 85.9776 58.2172 86.9282 58.177 87.6432C58.1368 88.3583 58.0765 88.8321 58.0765 88.8321C58.0765 88.8321 58.0765 88.7115 58.0535 88.5047C58.0305 88.298 58.0248 87.9993 58.0047 87.6432C57.9846 87.2871 57.9645 86.8736 57.9386 86.4285C57.9128 85.9834 57.8955 85.5095 57.8726 85.0357C57.8352 84.088 57.8065 83.1375 57.8008 82.4224C57.8008 82.0663 57.8008 81.7677 57.8008 81.5609L57.8094 81.2278Z" fill="#E89F0F"/>
<path d="M57.3527 83.2547C57.3533 83.3424 57.3278 83.4283 57.2794 83.5015C57.231 83.5746 57.162 83.6318 57.0811 83.6656C57.0001 83.6994 56.911 83.7084 56.8249 83.6914C56.7389 83.6745 56.6598 83.6323 56.5978 83.5703C56.5358 83.5082 56.4936 83.4292 56.4766 83.3431C56.4596 83.2571 56.4686 83.1679 56.5025 83.087C56.5363 83.0061 56.5934 82.937 56.6666 82.8887C56.7398 82.8403 56.8257 82.8147 56.9134 82.8153C57.0297 82.8161 57.141 82.8626 57.2232 82.9448C57.3055 83.0271 57.352 83.1384 57.3527 83.2547Z" fill="#E89F0F"/>
<path d="M57.508 86.6266C57.5086 86.7142 57.4831 86.8 57.4349 86.8731C57.3866 86.9462 57.3178 87.0033 57.237 87.0373C57.1563 87.0712 57.0672 87.0803 56.9813 87.0636C56.8953 87.0469 56.8162 87.005 56.7541 86.9432C56.692 86.8815 56.6495 86.8027 56.6322 86.7168C56.6149 86.631 56.6235 86.5419 56.6569 86.4609C56.6903 86.38 56.747 86.3107 56.8198 86.262C56.8926 86.2133 56.9782 86.1873 57.0658 86.1873C57.1826 86.1873 57.2946 86.2335 57.3775 86.3158C57.4603 86.3981 57.5073 86.5098 57.508 86.6266Z" fill="#E89F0F"/>
<path d="M51.4777 55.4546C51.4777 55.4546 51.1733 54.5155 49.3555 54.2743C49.3555 54.2743 50.7655 53.6598 51.8108 54.6074C51.8108 54.6074 51.492 52.5168 52.4454 51.8678C52.4454 51.8678 52.2186 53.6827 52.8245 54.8487L51.4777 55.4546Z" fill="#2C2B31"/>
<path d="M58.9759 63.2417C58.961 63.2418 58.9462 63.2385 58.9328 63.2321C58.9193 63.2256 58.9075 63.2161 58.8983 63.2044C58.7808 63.0706 58.6352 62.9644 58.4719 62.8934C58.3085 62.8224 58.1315 62.7884 57.9535 62.7937C57.5129 62.7975 57.0854 62.9447 56.7359 63.213C56.7161 63.2321 56.6896 63.2425 56.6621 63.2419C56.6346 63.2414 56.6085 63.2299 56.5895 63.2101C56.5704 63.1903 56.56 63.1638 56.5606 63.1363C56.5611 63.1089 56.5725 63.0827 56.5923 63.0637C56.7686 62.8779 56.9805 62.7295 57.2153 62.6274C57.4502 62.5252 57.7032 62.4715 57.9593 62.4692C58.1739 62.4856 58.3825 62.5476 58.5712 62.6511C58.7599 62.7546 58.9243 62.8972 59.0534 63.0694C59.063 63.079 59.0707 63.0904 59.0759 63.103C59.0811 63.1156 59.0838 63.1291 59.0838 63.1427C59.0838 63.1563 59.0811 63.1697 59.0759 63.1823C59.0707 63.1949 59.063 63.2063 59.0534 63.2159C59.0432 63.2257 59.031 63.2331 59.0176 63.2376C59.0042 63.2421 58.9899 63.2435 58.9759 63.2417Z" fill="#342D7A"/>
<path d="M63.9751 63.1357C63.9604 63.1358 63.946 63.1327 63.9326 63.1268C63.9192 63.1209 63.9073 63.1122 63.8975 63.1012C63.7801 62.9671 63.6346 62.8604 63.4713 62.789C63.308 62.7175 63.1309 62.6829 62.9527 62.6877C62.5124 62.6935 62.0856 62.8405 61.7351 63.107C61.7158 63.1256 61.6901 63.136 61.6633 63.136C61.6365 63.136 61.6108 63.1256 61.5915 63.107C61.5816 63.0978 61.5737 63.0867 61.5683 63.0744C61.5629 63.062 61.5601 63.0487 61.5601 63.0352C61.5601 63.0217 61.5629 63.0084 61.5683 62.996C61.5737 62.9836 61.5816 62.9725 61.5915 62.9634C61.7664 62.7764 61.9775 62.6269 62.212 62.5242C62.4466 62.4215 62.6996 62.3677 62.9556 62.3661C63.1706 62.382 63.3797 62.4441 63.5685 62.5482C63.7573 62.6523 63.9214 62.7959 64.0497 62.9691C64.0683 62.9884 64.0787 63.0142 64.0787 63.0409C64.0787 63.0677 64.0683 63.0935 64.0497 63.1127C64.0285 63.1293 64.0019 63.1375 63.9751 63.1357Z" fill="#342D7A"/>
<path d="M58.3755 64.9563C58.5881 64.9563 58.7603 64.73 58.7603 64.4509C58.7603 64.1717 58.5881 63.9454 58.3755 63.9454C58.163 63.9454 57.9907 64.1717 57.9907 64.4509C57.9907 64.73 58.163 64.9563 58.3755 64.9563Z" fill="#1C1B4C"/>
<path d="M63.8259 64.3532C63.8061 64.4249 63.7667 64.4896 63.7121 64.5401C63.6575 64.5906 63.5898 64.6248 63.5168 64.6389C63.4438 64.653 63.3683 64.6464 63.2988 64.6199C63.2293 64.5933 63.1686 64.5479 63.1236 64.4888C63.0785 64.4296 63.0509 64.359 63.0438 64.285C63.0367 64.2109 63.0505 64.1364 63.0835 64.0697C63.1165 64.0031 63.1675 63.947 63.2307 63.9078C63.2939 63.8686 63.3667 63.8478 63.4411 63.8478C63.558 63.8663 63.6632 63.9291 63.7349 64.0233C63.8066 64.1174 63.8392 64.2356 63.8259 64.3532Z" fill="#1C1B4C"/>
<path d="M60.8306 68.2395C60.8306 68.2395 62.1458 68.1017 62.008 66.9817C62.008 66.9817 62.6225 68.4434 60.8306 68.2395Z" fill="#9E5E2F"/>
<path d="M59.0674 70.1056C59.0674 70.1056 59.3143 70.1228 59.6618 70.163L60.2362 70.2147C60.3396 70.2147 60.4516 70.2147 60.5607 70.2377H60.8909C61.0029 70.2377 61.1121 70.2377 61.2212 70.2377C61.3303 70.2377 61.4366 70.2377 61.5371 70.2147C61.6376 70.1917 61.741 70.1975 61.8242 70.1745C61.9075 70.1515 62.0109 70.1486 62.0913 70.1228L62.3182 70.0654L62.4933 70.0051L62.6542 69.9591L62.545 70.0855C62.5077 70.1257 62.4646 70.1774 62.4072 70.229C62.3498 70.2807 62.278 70.3267 62.2004 70.3784C62.0159 70.4903 61.8168 70.5763 61.6089 70.634C61.4912 70.667 61.3712 70.691 61.2499 70.7058C61.1293 70.723 61.0029 70.7201 60.8766 70.7259C60.7502 70.7316 60.6296 70.7259 60.509 70.6971C60.3909 70.6829 60.2738 70.6608 60.1586 70.6311C60.0504 70.6068 59.9438 70.5751 59.8399 70.5363C59.7394 70.5047 59.6503 70.4588 59.5527 70.4243C59.3774 70.3402 59.2142 70.233 59.0674 70.1056Z" fill="#9E5E2F"/>
<path d="M50.4927 65.37C50.4927 65.37 52.052 65.1748 51.9458 67.2625C51.9458 67.2625 52.5718 64.8761 50.4927 65.37Z" fill="#9E5E2F"/>
<path d="M10.9204 109.138H128.041" stroke="#DBC279" stroke-width="2" stroke-miterlimit="10" stroke-linecap="round"/>
<path d="M1.25391 109.138H7.64637" stroke="#DBC279" stroke-width="2" stroke-miterlimit="10" stroke-linecap="round"/>
<path d="M29.6353 112.48H58.947" stroke="#DBC279" stroke-width="2" stroke-miterlimit="10" stroke-linecap="round"/>
<path d="M70.3018 111.619H99.6135" stroke="#DBC279" stroke-width="2" stroke-miterlimit="10" stroke-linecap="round"/>
<path d="M58.944 107.688H44.9214C44.8278 107.688 44.752 107.763 44.752 107.857V108.736C44.752 108.829 44.8278 108.905 44.9214 108.905H58.944C59.0376 108.905 59.1135 108.829 59.1135 108.736V107.857C59.1135 107.763 59.0376 107.688 58.944 107.688Z" fill="#BBB8B8"/>
<path d="M87.4514 108.905H58.2028C58.1765 108.904 58.1506 108.898 58.1273 108.886C58.104 108.873 58.0839 108.856 58.0688 108.834C58.0536 108.812 58.0438 108.787 58.0402 108.761C58.0365 108.735 58.0391 108.709 58.0478 108.684L65.5143 86.9534C65.525 86.9205 65.5457 86.8918 65.5735 86.8712C65.6013 86.8506 65.6348 86.8392 65.6693 86.8385H94.9064C94.933 86.8384 94.9592 86.8447 94.9829 86.8568C95.0066 86.869 95.027 86.8866 95.0425 86.9082C95.058 86.9299 95.068 86.9549 95.0718 86.9813C95.0756 87.0076 95.073 87.0345 95.0643 87.0596L87.5978 108.793C87.5872 108.824 87.5676 108.851 87.5415 108.871C87.5155 108.891 87.4841 108.903 87.4514 108.905Z" fill="#BBB8B8"/>
<path d="M88.3591 108.905H59.1134C59.0868 108.905 59.0606 108.899 59.0369 108.887C59.0132 108.874 58.9928 108.857 58.9773 108.835C58.9618 108.813 58.9518 108.788 58.948 108.762C58.9442 108.736 58.9468 108.709 58.9555 108.684L66.422 86.9534C66.4328 86.92 66.454 86.891 66.4823 86.8704C66.5107 86.8497 66.5448 86.8386 66.5799 86.8385H95.8141C95.8407 86.8384 95.8669 86.8447 95.8906 86.8568C95.9143 86.869 95.9347 86.8866 95.9502 86.9082C95.9657 86.9299 95.9757 86.9549 95.9795 86.9813C95.9833 87.0076 95.9807 87.0345 95.972 87.0596L88.5055 108.793C88.4949 108.824 88.4753 108.851 88.4492 108.871C88.4232 108.891 88.3918 108.903 88.3591 108.905Z" fill="#DADADA"/>
<path d="M78.0989 100.143C79.9497 100.143 81.4502 99.1264 81.4502 97.8719C81.4502 96.6173 79.9497 95.6003 78.0989 95.6003C76.248 95.6003 74.7476 96.6173 74.7476 97.8719C74.7476 99.1264 76.248 100.143 78.0989 100.143Z" fill="#BBB8B8"/>
<path d="M101.592 45.6439C100.259 40.4977 94.9092 39.5874 94.9092 39.5874C95.7683 39.9463 96.5207 40.5198 97.0946 41.253C99.2196 44.2425 97.8728 46.9563 97.8728 46.9563H97.9044C98.3296 46.8882 98.7647 46.9167 99.1775 47.0396C99.5902 47.1625 99.97 47.3766 100.289 47.6662C100.608 47.9557 100.857 48.3133 101.019 48.7123C101.181 49.1114 101.251 49.5418 101.224 49.9716C101.204 50.3257 101.165 50.6785 101.106 51.0284L101.566 49.2737C101.887 48.0861 101.895 46.8359 101.592 45.6439Z" fill="#D5EAF7"/>
<path d="M68.4648 24.9158C72.2689 21.1117 72.2689 14.9442 68.4648 11.1401C64.6608 7.33605 58.4932 7.33605 54.6891 11.1401C50.8851 14.9442 50.8851 21.1117 54.6891 24.9158C58.4932 28.7199 64.6608 28.7199 68.4648 24.9158Z" fill="#36C0F9"/>
<path d="M61.5774 26.6016C66.3132 26.6016 70.1524 22.7625 70.1524 18.0266C70.1524 13.2908 66.3132 9.45166 61.5774 9.45166C56.8416 9.45166 53.0024 13.2908 53.0024 18.0266C53.0024 22.7625 56.8416 26.6016 61.5774 26.6016Z" fill="#5ED0FF"/>
<path d="M61.5772 18.4118C61.4751 18.4118 61.3773 18.3712 61.3051 18.2991C61.2329 18.2269 61.1924 18.129 61.1924 18.027V12.5937C61.1924 12.4916 61.2329 12.3937 61.3051 12.3216C61.3773 12.2494 61.4751 12.2089 61.5772 12.2089C61.6793 12.2089 61.7771 12.2494 61.8493 12.3216C61.9215 12.3937 61.962 12.4916 61.962 12.5937V18.05C61.9561 18.148 61.913 18.2401 61.8415 18.3073C61.7699 18.3746 61.6754 18.412 61.5772 18.4118Z" fill="white"/>
<path d="M61.5772 11.1577C61.5261 11.1577 61.4772 11.1374 61.4411 11.1014C61.405 11.0653 61.3848 11.0163 61.3848 10.9653V9.98318C61.3848 9.93215 61.405 9.88321 61.4411 9.84713C61.4772 9.81104 61.5261 9.79077 61.5772 9.79077C61.6282 9.79077 61.6771 9.81104 61.7132 9.84713C61.7493 9.88321 61.7696 9.93215 61.7696 9.98318V10.9739C61.7674 11.0234 61.7461 11.0702 61.7103 11.1044C61.6744 11.1387 61.6267 11.1578 61.5772 11.1577Z" fill="white"/>
<path d="M66.5658 13.2304C66.528 13.23 66.4912 13.2185 66.46 13.1973C66.4287 13.1762 66.4044 13.1463 66.39 13.1114C66.3756 13.0765 66.3718 13.0381 66.3791 13.0011C66.3863 12.964 66.4043 12.9299 66.4308 12.903L67.1315 12.2023C67.1491 12.1845 67.1701 12.1703 67.1933 12.1606C67.2165 12.1509 67.2413 12.1459 67.2665 12.1459C67.2916 12.1459 67.3164 12.1509 67.3396 12.1606C67.3628 12.1703 67.3838 12.1845 67.4014 12.2023C67.4213 12.2206 67.4371 12.2428 67.4479 12.2675C67.4588 12.2923 67.4644 12.3189 67.4644 12.3459C67.4644 12.3729 67.4588 12.3996 67.4479 12.4243C67.4371 12.449 67.4213 12.4712 67.4014 12.4895L66.7007 13.1672C66.6837 13.1863 66.6629 13.2018 66.6397 13.2127C66.6165 13.2235 66.5914 13.2296 66.5658 13.2304Z" fill="white"/>
<path d="M69.624 18.219H68.6304C68.5794 18.219 68.5304 18.1988 68.4943 18.1627C68.4583 18.1266 68.438 18.0777 68.438 18.0266C68.438 17.9756 68.4583 17.9267 68.4943 17.8906C68.5304 17.8545 68.5794 17.8342 68.6304 17.8342H69.624C69.675 17.8342 69.724 17.8545 69.7601 17.8906C69.7961 17.9267 69.8164 17.9756 69.8164 18.0266C69.8164 18.0777 69.7961 18.1266 69.7601 18.1627C69.724 18.1988 69.675 18.219 69.624 18.219Z" fill="white"/>
<path d="M67.2662 23.9083C67.2412 23.9085 67.2164 23.9039 67.1932 23.8945C67.1701 23.8851 67.149 23.8713 67.1312 23.8537L66.442 23.153C66.4231 23.1353 66.4079 23.114 66.3973 23.0904C66.3867 23.0669 66.3808 23.0414 66.38 23.0155C66.3792 22.9897 66.3835 22.9639 66.3926 22.9397C66.4018 22.9155 66.4156 22.8933 66.4334 22.8745C66.4511 22.8556 66.4724 22.8404 66.4959 22.8298C66.5195 22.8192 66.545 22.8133 66.5709 22.8125C66.5967 22.8117 66.6225 22.816 66.6467 22.8251C66.6709 22.8343 66.6931 22.8481 66.7119 22.8659L67.4126 23.5666C67.4482 23.603 67.4682 23.652 67.4682 23.703C67.4682 23.7539 67.4482 23.8029 67.4126 23.8394C67.3948 23.861 67.3724 23.8783 67.3471 23.8903C67.3218 23.9022 67.2941 23.9083 67.2662 23.9083Z" fill="white"/>
<path d="M61.5772 26.265C61.5261 26.265 61.4772 26.2447 61.4411 26.2086C61.405 26.1725 61.3848 26.1236 61.3848 26.0726V25.0818C61.3848 25.0308 61.405 24.9818 61.4411 24.9458C61.4772 24.9097 61.5261 24.8894 61.5772 24.8894C61.6282 24.8894 61.6771 24.9097 61.7132 24.9458C61.7493 24.9818 61.7696 25.0308 61.7696 25.0818V26.0726C61.7696 26.1236 61.7493 26.1725 61.7132 26.2086C61.6771 26.2447 61.6282 26.265 61.5772 26.265Z" fill="white"/>
<path d="M55.8885 23.9077C55.8508 23.9073 55.814 23.8958 55.7827 23.8746C55.7515 23.8535 55.7272 23.8236 55.7128 23.7887C55.6984 23.7538 55.6946 23.7154 55.7018 23.6784C55.7091 23.6413 55.7271 23.6072 55.7535 23.5804L56.4542 22.8796C56.4731 22.8619 56.4953 22.8481 56.5195 22.8389C56.5437 22.8298 56.5694 22.8255 56.5953 22.8263C56.6212 22.8271 56.6466 22.833 56.6702 22.8436C56.6938 22.8542 56.7151 22.8694 56.7328 22.8883C56.7505 22.9071 56.7644 22.9293 56.7735 22.9535C56.7827 22.9777 56.787 23.0035 56.7862 23.0293C56.7854 23.0552 56.7795 23.0806 56.7689 23.1042C56.7582 23.1278 56.743 23.1491 56.7242 23.1668L56.0235 23.8675C55.9853 23.8978 55.937 23.9122 55.8885 23.9077Z" fill="white"/>
<path d="M54.5242 18.219H53.5191C53.468 18.219 53.4191 18.1988 53.383 18.1627C53.3469 18.1266 53.3267 18.0777 53.3267 18.0266C53.3267 17.9756 53.3469 17.9267 53.383 17.8906C53.4191 17.8545 53.468 17.8342 53.5191 17.8342H54.5127C54.5637 17.8342 54.6127 17.8545 54.6487 17.8906C54.6848 17.9267 54.7051 17.9756 54.7051 18.0266C54.7051 18.0777 54.6848 18.1266 54.6487 18.1627C54.6127 18.1988 54.5637 18.219 54.5127 18.219H54.5242Z" fill="white"/>
<path d="M56.5892 13.2314C56.5642 13.2317 56.5394 13.227 56.5162 13.2176C56.4931 13.2082 56.472 13.1944 56.4542 13.1768L55.7535 12.4761C55.7154 12.4404 55.6931 12.3909 55.6915 12.3387C55.6899 12.2864 55.7091 12.2357 55.7449 12.1976C55.7807 12.1595 55.8301 12.1372 55.8824 12.1356C55.9346 12.134 55.9854 12.1532 56.0234 12.189L56.7241 12.8897C56.7506 12.9166 56.7686 12.9507 56.7759 12.9877C56.7831 13.0247 56.7793 13.0631 56.7649 13.098C56.7505 13.1329 56.7262 13.1628 56.6949 13.184C56.6637 13.2051 56.6269 13.2166 56.5892 13.2171V13.2314Z" fill="white"/>
<path d="M15.2332 88.4185H12.9272V98.9462H15.2332V88.4185Z" fill="white"/>
<path d="M18.9378 90.1072H16.6318V98.9464H18.9378V90.1072Z" fill="white"/>
<path d="M11.5604 91.5488H9.25439V98.9464H11.5604V91.5488Z" fill="white"/>
<path d="M22.6424 87.017H20.3364V98.9432H22.6424V87.017Z" fill="white"/>
<path d="M10.4178 90.4915C10.5244 90.4915 10.6267 90.4491 10.7021 90.3737C10.7775 90.2983 10.8198 90.1961 10.8198 90.0895C10.8193 90.0564 10.8144 90.0236 10.8055 89.9918L13.9242 86.988C13.9734 87.0077 14.0261 87.0175 14.0792 87.0167C14.1664 87.0178 14.2514 86.9895 14.3205 86.9363L17.3875 88.7685C17.3932 88.8743 17.4407 88.9736 17.5196 89.0444C17.5985 89.1152 17.7023 89.1518 17.8082 89.1461C17.914 89.1404 18.0133 89.0928 18.0841 89.0139C18.1549 88.9351 18.1915 88.8312 18.1858 88.7254C18.1852 88.6905 18.1804 88.6558 18.1714 88.622L21.4165 84.7538C21.4413 84.7554 21.4663 84.7554 21.4912 84.7538C21.5707 84.7538 21.6484 84.7302 21.7145 84.686C21.7806 84.6419 21.8322 84.5791 21.8626 84.5056C21.893 84.4321 21.901 84.3513 21.8855 84.2733C21.87 84.1953 21.8317 84.1237 21.7754 84.0675C21.7192 84.0112 21.6476 83.9729 21.5696 83.9574C21.4916 83.9419 21.4108 83.9499 21.3373 83.9803C21.2638 84.0107 21.201 84.0623 21.1569 84.1284C21.1127 84.1945 21.0891 84.2722 21.0891 84.3518C21.0898 84.4 21.0995 84.4478 21.1178 84.4925L17.9101 88.3434C17.8739 88.3317 17.8361 88.3259 17.7981 88.3262C17.7119 88.3256 17.628 88.3539 17.5598 88.4066L14.464 86.5745C14.4612 86.522 14.4481 86.4707 14.4254 86.4233C14.4027 86.376 14.371 86.3336 14.3319 86.2985C14.2928 86.2635 14.2472 86.2364 14.1977 86.219C14.1482 86.2015 14.0957 86.194 14.0433 86.1968C13.9909 86.1997 13.9396 86.2128 13.8922 86.2355C13.8449 86.2581 13.8024 86.2899 13.7674 86.329C13.7323 86.368 13.7053 86.4136 13.6878 86.4631C13.6704 86.5127 13.6629 86.5651 13.6657 86.6175C13.6643 86.6367 13.6643 86.6559 13.6657 86.675L10.5068 89.7104C10.4682 89.6963 10.4273 89.6895 10.3862 89.6903C10.3307 89.6856 10.2749 89.6925 10.2222 89.7105C10.1696 89.7285 10.1212 89.7572 10.0802 89.7948C10.0392 89.8325 10.0065 89.8783 9.98413 89.9292C9.96175 89.9802 9.9502 90.0352 9.9502 90.0909C9.9502 90.1465 9.96175 90.2016 9.98413 90.2526C10.0065 90.3035 10.0392 90.3493 10.0802 90.3869C10.1212 90.4246 10.1696 90.4533 10.2222 90.4713C10.2749 90.4893 10.3307 90.4962 10.3862 90.4915H10.4178Z" fill="white"/>
<path d="M53.0773 45.9059C53.7858 44.9747 54.1202 43.8121 54.015 42.6467C53.9097 41.4814 53.3723 40.3975 52.5084 39.6083C51.6446 38.8191 50.5167 38.3815 49.3466 38.3817C48.1765 38.3819 47.0488 38.8198 46.1852 39.6093C45.3215 40.3987 44.7845 41.4827 44.6795 42.6481C44.5746 43.8135 44.9094 44.976 45.6182 45.9071C46.3269 46.8381 47.3583 47.4704 48.5095 47.6795C49.6608 47.8887 50.8487 47.6597 51.8396 47.0374L54.0393 48.2608L53.0773 45.9059Z" fill="#53E193"/>
<path d="M47.586 43.3202C47.5866 43.4755 47.541 43.6274 47.4551 43.7568C47.3692 43.8862 47.2468 43.9871 47.1034 44.0468C46.96 44.1065 46.8021 44.1223 46.6498 44.0921C46.4975 44.0619 46.3575 43.9872 46.2477 43.8774C46.1379 43.7676 46.0632 43.6276 46.033 43.4753C46.0028 43.3229 46.0186 43.1651 46.0783 43.0217C46.138 42.8783 46.2389 42.7559 46.3683 42.67C46.4976 42.5841 46.6496 42.5385 46.8049 42.5391C47.0121 42.5391 47.2108 42.6214 47.3572 42.7679C47.5037 42.9143 47.586 43.113 47.586 43.3202Z" fill="white"/>
<path d="M50.1388 43.3202C50.1393 43.4754 50.0938 43.6272 50.008 43.7565C49.9222 43.8858 49.8 43.9867 49.6568 44.0465C49.5136 44.1063 49.3559 44.1222 49.2036 44.0923C49.0513 44.0624 48.9114 43.9879 48.8014 43.8784C48.6915 43.7689 48.6166 43.6292 48.5861 43.477C48.5556 43.3249 48.5709 43.1671 48.6302 43.0237C48.6895 42.8803 48.7899 42.7577 48.9189 42.6714C49.0479 42.5851 49.1996 42.5391 49.3548 42.5391C49.5622 42.5391 49.7612 42.6213 49.9081 42.7677C50.0551 42.9141 50.138 43.1127 50.1388 43.3202Z" fill="white"/>
<path d="M52.6925 43.3202C52.693 43.4754 52.6475 43.6272 52.5617 43.7565C52.4759 43.8858 52.3537 43.9867 52.2105 44.0465C52.0673 44.1063 51.9096 44.1222 51.7573 44.0923C51.605 44.0624 51.4651 43.9879 51.3552 43.8784C51.2452 43.7689 51.1703 43.6292 51.1398 43.477C51.1093 43.3249 51.1247 43.1671 51.1839 43.0237C51.2432 42.8803 51.3436 42.7577 51.4726 42.6714C51.6016 42.5851 51.7533 42.5391 51.9085 42.5391C52.1159 42.5391 52.3149 42.6213 52.4618 42.7677C52.6088 42.9141 52.6917 43.1127 52.6925 43.3202Z" fill="white"/>
<path d="M104.398 70.2376C106.907 70.2376 108.941 68.2036 108.941 65.6946C108.941 63.1855 106.907 61.1515 104.398 61.1515C101.888 61.1515 99.8545 63.1855 99.8545 65.6946C99.8545 68.2036 101.888 70.2376 104.398 70.2376Z" fill="white"/>
<path d="M105.825 64.5726C105.652 64.5725 105.481 64.6087 105.322 64.6789C105.164 64.7492 105.022 64.8519 104.906 64.9803L103.918 64.2854C103.965 64.1776 103.99 64.0613 103.99 63.9437C103.991 63.7501 103.924 63.5624 103.802 63.4122C103.68 63.262 103.51 63.1587 103.32 63.1197C103.131 63.0807 102.934 63.1085 102.762 63.1983C102.591 63.2882 102.456 63.4345 102.38 63.6125C102.304 63.7906 102.292 63.9894 102.346 64.1752C102.4 64.361 102.517 64.5224 102.676 64.6321C102.836 64.7417 103.028 64.7928 103.221 64.7767C103.414 64.7607 103.595 64.6784 103.734 64.5438L104.725 65.2417C104.629 65.418 104.578 65.6152 104.576 65.816C104.579 66.1017 104.68 66.3777 104.863 66.5971L104.349 67.1284C104.172 67.0134 103.959 66.9684 103.751 67.0022C103.543 67.036 103.355 67.1462 103.224 67.3113C103.093 67.4763 103.028 67.6843 103.042 67.8947C103.056 68.105 103.148 68.3026 103.299 68.4488C103.451 68.595 103.652 68.6793 103.863 68.6852C104.074 68.6912 104.279 68.6183 104.439 68.481C104.599 68.3436 104.702 68.1515 104.728 67.9423C104.754 67.733 104.7 67.5217 104.579 67.3495L105.087 66.8183C105.3 66.9789 105.559 67.0656 105.825 67.0652C106.146 67.0498 106.448 66.9117 106.669 66.6793C106.891 66.447 107.014 66.1384 107.014 65.8175C107.014 65.4965 106.891 65.1879 106.669 64.9556C106.448 64.7232 106.146 64.5851 105.825 64.5697V64.5726Z" fill="#FAB620" fill-opacity="0.5"/>
<path d="M96.9197 23.9998V22.3256H96.219C96.1061 21.7434 95.8776 21.1897 95.547 20.6973L96.041 20.2034L94.8722 19.0202L94.3782 19.5142C93.8868 19.1819 93.3327 18.9533 92.75 18.8422V18.1415H91.0758V18.8422C90.4933 18.9543 89.9395 19.1829 89.4475 19.5142L88.9564 19.0202L87.7733 20.2034L88.2672 20.6973C87.9341 21.1887 87.7045 21.7427 87.5924 22.3256H86.8945V23.9998H87.5924C87.705 24.5817 87.9346 25.1346 88.2672 25.6252L87.7733 26.1191L88.9564 27.3023L89.4504 26.8083C89.9411 27.14 90.4941 27.3686 91.0758 27.4803V28.181H92.75V27.4803C93.332 27.3697 93.8852 27.141 94.3754 26.8083L94.8722 27.3023L96.0553 26.1191L95.5614 25.6252C95.892 25.1339 96.1205 24.5811 96.2334 23.9998H96.9197ZM91.8999 25.9583C91.3465 25.9595 90.8052 25.7964 90.3444 25.4897C89.8837 25.1831 89.5243 24.7466 89.3117 24.2356C89.0991 23.7246 89.0429 23.1621 89.1502 22.6191C89.2575 22.0762 89.5234 21.5772 89.9144 21.1855C90.3053 20.7937 90.8037 20.5268 91.3464 20.4184C91.8891 20.31 92.4518 20.365 92.9633 20.5766C93.4747 20.7881 93.9119 21.1466 94.2195 21.6067C94.5271 22.0668 94.6913 22.6078 94.6913 23.1613C94.6916 23.5282 94.6197 23.8916 94.4797 24.2308C94.3396 24.5699 94.1341 24.8782 93.8749 25.1379C93.6157 25.3976 93.3079 25.6038 92.969 25.7445C92.6302 25.8853 92.2669 25.9579 91.8999 25.9583Z" fill="white"/>
<path d="M15.9512 100.347V100.778" stroke="white" stroke-miterlimit="10" stroke-linecap="round"/>
<path d="M15.9512 101.617V104.776C15.9512 104.883 15.9721 104.988 16.0129 105.086C16.0536 105.184 16.1133 105.273 16.1885 105.348C16.2638 105.423 16.3531 105.482 16.4513 105.523C16.5495 105.563 16.6548 105.584 16.761 105.583H28.8768" stroke="white" stroke-miterlimit="10" stroke-linecap="round" stroke-dasharray="2.95 2.95"/>
<path d="M29.3018 105.583H29.7325" stroke="white" stroke-miterlimit="10" stroke-linecap="round"/>
<path d="M98.3613 22.8221H113.63C113.911 22.8244 114.18 22.9377 114.378 23.1372C114.576 23.3368 114.687 23.6065 114.687 23.8876V64.6287C114.687 64.9113 114.575 65.1823 114.375 65.3821C114.175 65.5819 113.904 65.6941 113.622 65.6941H109.805" stroke="white" stroke-miterlimit="10" stroke-linecap="round" stroke-dasharray="3 3"/>
<path d="M125.189 41.7617C124.549 40.9425 123.658 40.3565 122.652 40.0939C121.647 39.8314 120.583 39.9069 119.625 40.3089C118.666 40.7108 117.867 41.4169 117.349 42.3182C116.832 43.2195 116.625 44.266 116.762 45.2963C116.898 46.3266 117.369 47.2834 118.103 48.0194C118.837 48.7553 119.792 49.2294 120.822 49.3686C121.852 49.5078 122.899 49.3043 123.802 48.7895C124.705 48.2748 125.413 47.4773 125.818 46.5201C126.146 45.7432 126.261 44.8928 126.15 44.0568C126.039 43.2208 125.708 42.4294 125.189 41.7645V41.7617ZM121.456 47.4821C120.99 47.4822 120.532 47.3665 120.122 47.1454C119.713 46.9244 119.365 46.6049 119.109 46.2157C118.805 45.7581 118.644 45.2202 118.647 44.6707C118.647 43.9259 118.943 43.2115 119.47 42.6848C119.996 42.1581 120.711 41.8622 121.456 41.8622C122.2 41.8622 122.915 42.1581 123.442 42.6848C123.968 43.2115 124.264 43.9259 124.264 44.6707C124.266 45.0351 124.196 45.3961 124.057 45.7333C123.846 46.2513 123.485 46.6945 123.021 47.0061C122.556 47.3177 122.009 47.4835 121.45 47.4821H121.456Z" fill="#F7F7F7" fill-opacity="0.7"/>
<path d="M125.189 41.7616L123.647 42.9103C123.384 42.5798 123.05 42.313 122.669 42.13C122.289 41.947 121.872 41.8524 121.45 41.8535V39.9237C122.172 39.9245 122.884 40.0905 123.532 40.4091C124.18 40.7276 124.747 41.1903 125.189 41.7616Z" fill="white"/>
<path d="M125.818 46.5165C125.485 47.3024 124.946 47.9839 124.258 48.489C123.57 48.9941 122.758 49.304 121.908 49.386C121.058 49.4681 120.202 49.3192 119.43 48.9552C118.658 48.5911 117.999 48.0254 117.521 47.3177L119.104 46.2121C119.385 46.6398 119.777 46.9825 120.239 47.2034C120.701 47.4242 121.214 47.5146 121.723 47.465C122.233 47.4153 122.719 47.2274 123.129 46.9216C123.54 46.6157 123.859 46.2036 124.052 45.7296L125.818 46.5165Z" fill="#F7F7F7" fill-opacity="0.7"/>
<path d="M78.7847 25.2236V26.6911" stroke="#FAB620" stroke-opacity="0.5" stroke-width="1.46" stroke-miterlimit="10" stroke-linecap="round"/>
<path d="M79.5173 25.9586H78.0498" stroke="#FAB620" stroke-opacity="0.5" stroke-width="1.46" stroke-miterlimit="10" stroke-linecap="round"/>
<path d="M106.528 8.09937V9.56682" stroke="#FAB620" stroke-opacity="0.5" stroke-width="1.46" stroke-miterlimit="10" stroke-linecap="round"/>
<path d="M107.26 8.83069H105.793" stroke="#FAB620" stroke-opacity="0.5" stroke-width="1.46" stroke-miterlimit="10" stroke-linecap="round"/>
<path d="M43.52 1.60327V3.07072" stroke="#FAB620" stroke-opacity="0.5" stroke-width="1.46" stroke-miterlimit="10" stroke-linecap="round"/>
<path d="M44.2555 2.33545H42.7881" stroke="#FAB620" stroke-opacity="0.5" stroke-width="1.46" stroke-miterlimit="10" stroke-linecap="round"/>
<path d="M104.696 28.9077V30.3752" stroke="#FAB620" stroke-opacity="0.5" stroke-width="1.46" stroke-miterlimit="10" stroke-linecap="round"/>
<path d="M105.429 29.6427H103.961" stroke="#FAB620" stroke-opacity="0.5" stroke-width="1.46" stroke-miterlimit="10" stroke-linecap="round"/>
<path d="M101.336 78.7811V80.2486" stroke="#FAB620" stroke-opacity="0.5" stroke-width="1.46" stroke-miterlimit="10" stroke-linecap="round"/>
<path d="M102.072 79.5161H100.604" stroke="#FAB620" stroke-opacity="0.5" stroke-width="1.46" stroke-miterlimit="10" stroke-linecap="round"/>
<path d="M15.9512 79.0448V80.5094" stroke="#FAB620" stroke-opacity="0.5" stroke-width="1.46" stroke-miterlimit="10" stroke-linecap="round"/>
<path d="M16.6838 79.7777H15.2163" stroke="#FAB620" stroke-opacity="0.5" stroke-width="1.46" stroke-miterlimit="10" stroke-linecap="round"/>
<path d="M1.98584 70.7322V72.1996" stroke="#FAB620" stroke-opacity="0.5" stroke-width="1.46" stroke-miterlimit="10" stroke-linecap="round"/>
<path d="M2.72136 71.4672H1.25391" stroke="#FAB620" stroke-opacity="0.5" stroke-width="1.46" stroke-miterlimit="10" stroke-linecap="round"/>
<path d="M2.04639 29.2233V30.6907" stroke="#FAB620" stroke-opacity="0.5" stroke-width="1.46" stroke-miterlimit="10" stroke-linecap="round"/>
<path d="M2.77855 29.9584H1.31396" stroke="#FAB620" stroke-opacity="0.5" stroke-width="1.46" stroke-miterlimit="10" stroke-linecap="round"/>
<path d="M29.0379 10.4772C29.0385 10.667 28.9827 10.8527 28.8777 11.0108C28.7726 11.1689 28.623 11.2923 28.4478 11.3654C28.2726 11.4384 28.0797 11.4578 27.8934 11.4211C27.7072 11.3844 27.536 11.2933 27.4016 11.1593C27.2671 11.0253 27.1755 10.8544 27.1383 10.6682C27.101 10.4821 27.1199 10.2891 27.1924 10.1136C27.2649 9.93822 27.3878 9.78825 27.5456 9.68273C27.7034 9.57721 27.889 9.52088 28.0788 9.52088C28.2046 9.5205 28.3293 9.54496 28.4456 9.59285C28.562 9.64073 28.6677 9.71111 28.7568 9.79995C28.8459 9.88879 28.9166 9.99433 28.9649 10.1105C29.0131 10.2268 29.0379 10.3513 29.0379 10.4772Z" fill="white"/>
<path d="M6.0897 53.6587C6.09026 53.8485 6.03449 54.0342 5.92945 54.1923C5.8244 54.3504 5.6748 54.4738 5.49959 54.5469C5.32437 54.6199 5.13143 54.6393 4.94518 54.6026C4.75894 54.5659 4.58776 54.4748 4.45334 54.3408C4.31891 54.2068 4.22727 54.0359 4.19003 53.8497C4.15279 53.6636 4.17161 53.4706 4.24412 53.2952C4.31663 53.1197 4.43957 52.9698 4.59736 52.8642C4.75516 52.7587 4.94071 52.7024 5.13054 52.7024C5.38443 52.7024 5.62796 52.8031 5.80775 52.9823C5.98755 53.1616 6.08894 53.4048 6.0897 53.6587Z" fill="white"/>
<path d="M14.1305 77.104C14.6603 77.104 15.0897 76.6746 15.0897 76.1448C15.0897 75.6151 14.6603 75.1857 14.1305 75.1857C13.6008 75.1857 13.1714 75.6151 13.1714 76.1448C13.1714 76.6746 13.6008 77.104 14.1305 77.104Z" fill="white"/>
<path d="M53.9616 28.1809C53.965 28.3713 53.9117 28.5584 53.8084 28.7184C53.7051 28.8784 53.5565 29.004 53.3816 29.0793C53.2067 29.1545 53.0133 29.176 52.8261 29.1409C52.6389 29.1059 52.4664 29.0159 52.3306 28.8825C52.1947 28.7491 52.1016 28.5782 52.0632 28.3917C52.0248 28.2052 52.0427 28.0115 52.1148 27.8352C52.1868 27.6589 52.3098 27.5081 52.4678 27.4019C52.6259 27.2958 52.812 27.239 53.0025 27.239C53.2539 27.239 53.4953 27.3377 53.6747 27.5138C53.8541 27.69 53.9571 27.9296 53.9616 28.1809Z" fill="white"/>
<path d="M30.8666 23.3651C30.8671 23.555 30.8113 23.7409 30.7061 23.8991C30.6009 24.0572 30.4512 24.1806 30.2758 24.2536C30.1004 24.3265 29.9073 24.3458 29.721 24.3088C29.5347 24.2719 29.3635 24.1805 29.2292 24.0462C29.0949 23.9119 29.0035 23.7407 28.9665 23.5544C28.9296 23.3681 28.9489 23.175 29.0218 22.9996C29.0948 22.8242 29.2181 22.6744 29.3763 22.5693C29.5345 22.4641 29.7203 22.4082 29.9103 22.4088C30.1639 22.4088 30.4071 22.5096 30.5865 22.6889C30.7658 22.8682 30.8666 23.1115 30.8666 23.3651Z" fill="white"/>
<path d="M122.409 32.5091C122.41 32.699 122.354 32.8847 122.249 33.0428C122.144 33.2009 121.994 33.3243 121.819 33.3973C121.644 33.4704 121.451 33.4898 121.265 33.4531C121.078 33.4164 120.907 33.3253 120.773 33.1913C120.638 33.0572 120.547 32.8863 120.509 32.7002C120.472 32.5141 120.491 32.3211 120.563 32.1456C120.636 31.9702 120.759 31.8202 120.917 31.7147C121.074 31.6092 121.26 31.5529 121.45 31.5529C121.704 31.5529 121.947 31.6535 122.127 31.8328C122.307 32.012 122.408 32.2553 122.409 32.5091Z" fill="white"/>
<path d="M129 60.192C129 60.3818 128.945 60.5676 128.84 60.7257C128.735 60.8838 128.585 61.0072 128.41 61.0802C128.235 61.1532 128.042 61.1726 127.855 61.1359C127.669 61.0993 127.498 61.0081 127.363 60.8741C127.229 60.7401 127.137 60.5692 127.1 60.3831C127.063 60.1969 127.082 60.0039 127.154 59.8285C127.227 59.6531 127.35 59.5031 127.508 59.3976C127.665 59.292 127.851 59.2357 128.041 59.2357C128.294 59.2365 128.537 59.3374 128.717 59.5165C128.897 59.6956 128.998 59.9384 129 60.192Z" fill="white"/>
<path d="M111.546 79.5167C112.075 79.5167 112.505 79.0873 112.505 78.5576C112.505 78.0278 112.075 77.5984 111.546 77.5984C111.016 77.5984 110.586 78.0278 110.586 78.5576C110.586 79.0873 111.016 79.5167 111.546 79.5167Z" fill="white"/>
<path d="M82.0754 10.749C82.6051 10.749 83.0345 10.3196 83.0345 9.78984C83.0345 9.26012 82.6051 8.83069 82.0754 8.83069C81.5456 8.83069 81.1162 9.26012 81.1162 9.78984C81.1162 10.3196 81.5456 10.749 82.0754 10.749Z" fill="white"/>
</svg>
