<svg width="59" height="44" viewBox="0 0 59 44" fill="none" xmlns="http://www.w3.org/2000/svg">
<path d="M13.12 43.68C9.17333 43.68 5.97333 42.2933 3.52 39.52C1.17333 36.64 0 32.9067 0 28.32C0 22.3467 1.76 16.8 5.28 11.68C8.8 6.45333 13.1733 2.56 18.4 0L19.36 1.91999C17.12 3.62666 15.1467 5.81333 13.44 8.48C11.7333 11.1467 10.5067 14.4533 9.76 18.4L13.12 19.2C16.8533 20.0533 19.7333 21.6533 21.76 24C23.8933 26.24 24.96 28.96 24.96 32.16C24.96 35.5733 23.7867 38.3467 21.44 40.48C19.2 42.6133 16.4267 43.68 13.12 43.68ZM46.88 43.68C42.9333 43.68 39.7333 42.2933 37.28 39.52C34.9333 36.64 33.76 32.9067 33.76 28.32C33.76 22.3467 35.52 16.8 39.04 11.68C42.56 6.45333 46.9333 2.56 52.16 0L53.12 1.91999C50.88 3.62666 48.9067 5.81333 47.2 8.48C45.4933 11.1467 44.2667 14.4533 43.52 18.4L46.88 19.2C50.6133 20.0533 53.4933 21.6533 55.52 24C57.6533 26.24 58.72 28.96 58.72 32.16C58.72 35.5733 57.5467 38.3467 55.2 40.48C52.96 42.6133 50.1867 43.68 46.88 43.68Z" fill="#17CE6A"/>
</svg>
